<?xml version="1.0" encoding="UTF-8"?>
<svg id="Livello_3" xmlns="http://www.w3.org/2000/svg" xmlns:xlink="http://www.w3.org/1999/xlink" version="1.1" viewBox="0 0 91 29">
  <!-- Generator: Adobe Illustrator 29.0.0, SVG Export Plug-In . SVG Version: 2.1.0 Build 186)  -->
  <defs>
    <style>
      .st0 {
        fill: none;
      }

      .st1 {
        stroke: #000;
        stroke-linecap: round;
        stroke-linejoin: round;
        stroke-width: 2.6px;
      }

      .st2 {
        fill: url(#Sfumatura_senza_nome);
      }

      .st3 {
        clip-path: url(#clippath);
      }
    </style>
    <clipPath id="clippath">
      <path class="st0" d="M12.9,6.8l-6.2,15.3h3.1l1.5-3.8h6.5l1.5,3.8h3.2l-6.2-15.3h-3.4ZM12.2,16l2.3-5.7h.1l2.3,5.7h-4.7ZM33.5,14.2c1.7-.3,2.8-1.5,2.8-3.2,0-2.5-1.7-4.2-5.5-4.2h-6.8v15.3h7.2c3.6,0,5.6-1.6,5.6-4.2s-1.4-3.4-3.3-3.7h0ZM27,9.3h3.6c1.8,0,2.6.8,2.6,2s-.8,1.9-2.6,1.9h-3.6v-3.9ZM30.9,19.7h-3.9v-4.2h3.9c1.9,0,2.8.8,2.8,2.1s-.9,2.1-2.8,2.1h0ZM45.9,6.6c-4.5,0-7.8,3.2-7.8,7.9s3.3,7.9,7.8,7.9,7.8-3.2,7.8-7.9-3.3-7.9-7.8-7.9ZM45.9,19.8c-2.8,0-4.6-2.1-4.6-5.3s1.8-5.3,4.6-5.3,4.6,2.1,4.6,5.3-1.8,5.3-4.6,5.3ZM65.6,15.9c0,2.6-1.1,4-3.5,4s-3.5-1.4-3.5-4V6.8h-3v9.4c0,4.5,2.9,6.2,6.5,6.2s6.6-1.8,6.6-6.2V6.8h-3v9.1ZM70.3,6.8v2.5h5.4v12.8h3v-12.8h5.5v-2.5h-13.9Z"/>
    </clipPath>
    <linearGradient id="Sfumatura_senza_nome" data-name="Sfumatura senza nome" x1="-64.9" y1="15.7" x2="367.8" y2="15.7" gradientTransform="translate(0 30.2) scale(1 -1)" gradientUnits="userSpaceOnUse">
      <stop offset="0" stop-color="#f2aaaa"/>
      <stop offset=".2" stop-color="#e69df2"/>
      <stop offset=".5" stop-color="#9de7f2"/>
      <stop offset=".8" stop-color="#9df2af"/>
      <stop offset="1" stop-color="#eaf29d"/>
    </linearGradient>
  </defs>
  <path class="st1" d="M6.7,27.2h3.1c2.1,0,3.9-1.3,4.7-3.2v-.3c.1,0,.2.3.2.3.8,1.9,2.6,3.1,4.6,3.1h3.2c.3,0,.5,0,.8,0,.2,0,.5,0,.7,0h7.2c3.1,0,5.4-.8,7.1-2.1,2.1,1.5,4.7,2.4,7.6,2.4s5.9-1,8.1-2.8c2,1.8,4.8,2.8,8,2.8s7-1.4,9-3.8c.7,2,2.5,3.5,4.7,3.5h3c2.8,0,5-2.2,5-5v-7.8h.5c2.8,0,5-2.2,5-5v-2.5c0-2.8-2.2-5-5-5h-18.7c-1.4,0-2.6.6-3.5,1.5-.9-.9-2.2-1.5-3.5-1.5h-3c-1.3,0-2.4.5-3.3,1.3-1.8-1-4-1.6-6.3-1.6s-5.6.9-7.8,2.5c-1.7-1.4-4-2.2-7.3-2.2h-6.8c-1.6,0-2.9.7-3.9,1.9-.9-1.1-2.4-1.9-3.9-1.9h-3.4c-2,0-3.9,1.2-4.6,3.1l-6.2,15.3c-.6,1.5-.4,3.3.5,4.7.9,1.4,2.5,2.2,4.2,2.2h0Z"/>
  <g class="st3">
    <path class="st2" d="M6.7,27.2h3.1c2.1,0,3.9-1.3,4.7-3.2v-.3c.1,0,.2.3.2.3.8,1.9,2.6,3.1,4.6,3.1h3.2c.3,0,.5,0,.8,0,.2,0,.5,0,.7,0h7.2c3.1,0,5.4-.8,7.1-2.1,2.1,1.5,4.7,2.4,7.6,2.4s5.9-1,8.1-2.8c2,1.8,4.8,2.8,8,2.8s7-1.4,9-3.8c.7,2,2.5,3.5,4.7,3.5h3c2.8,0,5-2.2,5-5v-7.8h.5c2.8,0,5-2.2,5-5v-2.5c0-2.8-2.2-5-5-5h-13.9c-.3,0-.6,0-.9,0-.3,0-.6,0-.9,0h-3c-1.4,0-2.6.6-3.5,1.5-.9-.9-2.2-1.5-3.5-1.5h-3c-1.3,0-2.4.5-3.3,1.3-1.8-1-4-1.6-6.3-1.6s-5.6.9-7.8,2.5c-1.7-1.4-4-2.2-7.3-2.2h-6.8c-1.6,0-2.9.7-3.9,1.9-.9-1.1-2.4-1.9-3.9-1.9h-3.4c-2,0-3.9,1.2-4.6,3.1l-6.2,15.3c-.6,1.5-.4,3.3.5,4.7.9,1.4,2.5,2.2,4.2,2.2h0Z"/>
  </g>
</svg>