<?xml version="1.0" encoding="UTF-8"?>
<svg id="Livello_3" xmlns="http://www.w3.org/2000/svg" xmlns:xlink="http://www.w3.org/1999/xlink" version="1.1" viewBox="0 0 91 29">
  <!-- Generator: Adobe Illustrator 29.0.0, SVG Export Plug-In . SVG Version: 2.1.0 Build 186)  -->
  <defs>
    <style>
      .st0 {
        fill: url(#Sfumatura_senza_nome);
        stroke: #000;
        stroke-linecap: round;
        stroke-linejoin: round;
        stroke-width: 2.6px;
      }
    </style>
    <linearGradient id="Sfumatura_senza_nome" data-name="Sfumatura senza nome" x1="-64.9" y1="14.5" x2="367.8" y2="14.5" gradientUnits="userSpaceOnUse">
      <stop offset="0" stop-color="#f2aaaa"/>
      <stop offset=".2" stop-color="#e69df2"/>
      <stop offset=".5" stop-color="#9de7f2"/>
      <stop offset=".8" stop-color="#9df2af"/>
      <stop offset="1" stop-color="#eaf29d"/>
    </linearGradient>
  </defs>
  <path class="st0" d="M84.3,1.8h-18.7c-1.4,0-2.6.6-3.5,1.5-.9-.9-2.1-1.5-3.5-1.5h-3c-1.3,0-2.4.5-3.3,1.3-1.8-1-4-1.6-6.3-1.6s-5.6.9-7.8,2.5c-1.7-1.4-4-2.2-7.3-2.2h-6.8c-1.6,0-2.9.7-3.9,1.8-.9-1.2-2.3-1.8-3.9-1.8h-3.4c-2,0-3.9,1.2-4.6,3.1l-6.2,15.3c-.6,1.5-.4,3.3.5,4.7s2.5,2.2,4.2,2.2h3c2.1,0,3.9-1.3,4.7-3.2v-.3c.1,0,.2.3.2.3.8,1.9,2.6,3.1,4.6,3.1h3.2c.3,0,.5,0,.8,0,.2,0,.5,0,.7,0h7.2c3.1,0,5.4-.8,7.1-2.1,2.1,1.5,4.7,2.4,7.6,2.4s5.9-1,8.1-2.8c2,1.8,4.8,2.8,8,2.8s7-1.4,9-3.8c.7,2,2.5,3.5,4.7,3.5h3c2.8,0,5-2.2,5-5v-7.8h.5c2.8,0,5-2.2,5-5v-2.5c0-2.8-2.2-5-5-5Z"/>
  <g>
    <path d="M16.3,6.8l6.2,15.3h-3.2l-1.5-3.8h-6.5l-1.5,3.8h-3.1l6.2-15.3h3.4ZM12.2,16h4.7l-2.3-5.7h-.1l-2.3,5.7h0Z"/>
    <path d="M31.2,22.2h-7.2V6.8h6.8c3.9,0,5.5,1.7,5.5,4.2s-1.2,2.9-2.8,3.2c1.8.3,3.3,1.6,3.3,3.7s-2,4.2-5.6,4.2h0ZM27,13.2h3.6c1.8,0,2.6-.8,2.6-1.9s-.8-2-2.6-2h-3.6v3.9ZM27,15.5v4.2h3.9c1.9,0,2.8-.8,2.8-2.1s-.9-2.1-2.8-2.1h-3.9Z"/>
    <path d="M45.9,22.4c-4.5,0-7.8-3.2-7.8-7.9s3.3-7.9,7.8-7.9,7.8,3.2,7.8,7.9-3.3,7.9-7.8,7.9ZM45.9,9.2c-2.8,0-4.6,2.1-4.6,5.3s1.8,5.3,4.6,5.3,4.6-2.1,4.6-5.3-1.8-5.3-4.6-5.3Z"/>
    <path d="M55.5,16.2V6.8h3v9c0,2.6,1.1,4,3.5,4s3.5-1.4,3.5-4V6.8h3v9.4c0,4.5-2.9,6.2-6.6,6.2s-6.5-1.8-6.5-6.2Z"/>
    <path d="M75.8,22.2v-12.8h-5.4v-2.5h13.9v2.5h-5.5v12.8h-3,0Z"/>
  </g>
</svg>