<?xml version="1.0" encoding="UTF-8"?>
<svg id="Livello_3" xmlns="http://www.w3.org/2000/svg" xmlns:xlink="http://www.w3.org/1999/xlink" version="1.1" viewBox="0 0 155 29">
  <!-- Generator: Adobe Illustrator 29.0.0, SVG Export Plug-In . SVG Version: 2.1.0 Build 186)  -->
  <defs>
    <style>
      .st0 {
        fill: none;
      }

      .st1 {
        stroke: #000;
        stroke-linecap: round;
        stroke-linejoin: round;
        stroke-width: 2.6px;
      }

      .st2 {
        fill: url(#Sfumatura_senza_nome);
      }

      .st3 {
        clip-path: url(#clippath);
      }
    </style>
    <clipPath id="clippath">
      <path class="st0" d="M14.8,9.2c2.8,0,4.1,1.9,4.4,4.2h2.9c-.3-4-2.8-6.8-7.3-6.8s-7.7,3.2-7.7,7.9,3.3,7.9,7.7,7.9,7-2.8,7.3-6.7h-2.9c-.2,2.2-1.6,4-4.4,4s-4.5-2-4.5-5.3,1.8-5.3,4.5-5.3h0ZM31.1,6.6c-4.5,0-7.8,3.2-7.8,7.9s3.3,7.9,7.8,7.9,7.8-3.2,7.8-7.9-3.3-7.9-7.8-7.9ZM31.1,19.8c-2.8,0-4.6-2.1-4.6-5.3s1.8-5.3,4.6-5.3,4.6,2.1,4.6,5.3-1.8,5.3-4.6,5.3ZM49,18h0l-3.3-11.1h-4.8v15.3h2.8v-12.1h0l3.7,12.1h2.6l3.7-12.1h0v12.1h3.1V6.8h-4.7l-3.2,11.1h0ZM67.8,18h0l-3.3-11.1h-4.8v15.3h2.8v-12.1h0l3.7,12.1h2.6l3.7-12.1h0v12.1h3.1V6.8h-4.7l-3.2,11.1h0ZM78.3,22.2h3V6.8h-3v15.3h0ZM91.6,13.3l-2.8-.5c-1.4-.3-2.2-.7-2.2-1.8s1-2.1,2.8-2.1,3.4,1.1,3.6,3.2h2.8c0-3.5-2.3-5.6-6.3-5.6s-5.8,1.8-5.8,4.7,1.7,3.8,4,4.3l2.9.5c1.6.3,2.5.8,2.5,1.9s-1.2,2-3.1,2-3.9-1.1-4-3.4h-2.8c0,3.8,2.8,5.8,6.8,5.8s6.1-1.6,6.1-4.6-1.4-3.9-4.4-4.5h0ZM105.8,13.3l-2.8-.5c-1.4-.3-2.2-.7-2.2-1.8s1-2.1,2.8-2.1,3.4,1.1,3.6,3.2h2.8c0-3.5-2.3-5.6-6.3-5.6s-5.8,1.8-5.8,4.7,1.7,3.8,4,4.3l2.9.5c1.6.3,2.5.8,2.5,1.9s-1.2,2-3.1,2-3.9-1.1-4-3.4h-2.8c0,3.8,2.8,5.8,6.8,5.8s6.1-1.6,6.1-4.6-1.4-3.9-4.4-4.5h0ZM112.3,22.2h3V6.8h-3v15.3h0ZM125.1,6.6c-4.5,0-7.8,3.2-7.8,7.9s3.3,7.9,7.8,7.9,7.8-3.2,7.8-7.9-3.3-7.9-7.8-7.9ZM125.1,19.8c-2.8,0-4.6-2.1-4.6-5.3s1.8-5.3,4.6-5.3,4.6,2.1,4.6,5.3-1.8,5.3-4.6,5.3ZM145.1,6.8v10.2l-7.2-10.2h-3v15.3h2.8v-10.8l7.8,10.8h2.4V6.8h-2.8Z"/>
    </clipPath>
    <linearGradient id="Sfumatura_senza_nome" data-name="Sfumatura senza nome" x1="-150.9" y1="15.7" x2="279" y2="15.7" gradientTransform="translate(0 30.2) scale(1 -1)" gradientUnits="userSpaceOnUse">
      <stop offset="0" stop-color="#f2aaaa"/>
      <stop offset=".2" stop-color="#e69df2"/>
      <stop offset=".5" stop-color="#9de7f2"/>
      <stop offset=".8" stop-color="#9df2af"/>
      <stop offset="1" stop-color="#eaf29d"/>
    </linearGradient>
  </defs>
  <path class="st1" d="M147.9,1.8h-2.8c-1.4,0-2.7.6-3.6,1.5-.9-1-2.2-1.5-3.6-1.5h-3c-1.3,0-2.5.5-3.4,1.3-1.9-1-4-1.6-6.4-1.6s-4.5.6-6.4,1.6c-.9-.8-2.1-1.3-3.4-1.3h-3c-1.1,0-2.1.4-2.9,1-1.6-.8-3.6-1.3-5.8-1.3s-5.2.8-7,2.1c-1.9-1.3-4.3-2.1-7.1-2.1s-3.8.4-5.4,1.1c-.8-.5-1.7-.8-2.8-.8h-10.4c-1.2,0-2.4.5-3.3,1.2-.9-.8-2.1-1.2-3.3-1.2h-12.1c-1.2,0-2.4.5-3.3,1.2-.9-.8-2.1-1.2-3.3-1.2h-4.8c-1.3,0-2.5.5-3.4,1.3-1.9-1-4-1.6-6.4-1.6s-6,1-8.1,2.8c-2.1-1.8-4.9-2.8-8.2-2.8C7.5,1.6,2.1,7.1,2.1,14.5s5.4,12.9,12.7,12.9,6-1,8.2-2.8c2.2,1.8,5,2.8,8.1,2.8s4.5-.6,6.3-1.6c.9.8,2.1,1.3,3.4,1.3h40.5c1.1,0,2.1-.3,2.9-.9,1.7.8,3.6,1.2,5.8,1.2s5.2-.7,7-2c1.9,1.2,4.4,2,7.1,2s3.9-.4,5.5-1.1c.8.5,1.7.8,2.7.8h3c1.3,0,2.5-.5,3.4-1.3,1.9,1,4,1.6,6.4,1.6s4.5-.6,6.3-1.6c.9.8,2.1,1.3,3.4,1.3h2.8c1.6,0,3-.7,3.9-1.9.9,1.2,2.4,1.9,3.9,1.9h2.4c2.8,0,5-2.2,5-5V6.8c0-2.8-2.2-5-5-5Z"/>
  <g class="st3">
    <path class="st2" d="M147.9,1.8h-2.8c-1.4,0-2.7.6-3.6,1.5-.9-1-2.2-1.5-3.6-1.5h-3c-1.3,0-2.5.5-3.4,1.3-1.9-1-4-1.6-6.4-1.6s-4.5.6-6.4,1.6c-.9-.8-2.1-1.3-3.4-1.3h-3c-1.1,0-2.1.4-2.9,1-1.6-.8-3.6-1.3-5.8-1.3s-5.2.8-7,2.1c-1.9-1.3-4.3-2.1-7.1-2.1s-3.8.4-5.4,1.1c-.8-.5-1.7-.8-2.8-.8h-10.4c-1.2,0-2.4.5-3.3,1.2-.9-.8-2.1-1.2-3.3-1.2h-12.1c-1.2,0-2.4.5-3.3,1.2-.9-.8-2.1-1.2-3.3-1.2h-4.8c-1.3,0-2.5.5-3.4,1.3-1.9-1-4-1.6-6.4-1.6s-6,1-8.1,2.8c-2.1-1.8-4.9-2.8-8.2-2.8C7.5,1.6,2.1,7.1,2.1,14.5s5.4,12.9,12.7,12.9,6-1,8.2-2.8c2.2,1.8,5,2.8,8.1,2.8s4.5-.6,6.3-1.6c.9.8,2.1,1.3,3.4,1.3h40.5c1.1,0,2.1-.3,2.9-.9,1.7.8,3.6,1.2,5.8,1.2s5.2-.7,7-2c1.9,1.2,4.4,2,7.1,2s3.9-.4,5.5-1.1c.8.5,1.7.8,2.7.8h3c1.3,0,2.5-.5,3.4-1.3,1.9,1,4,1.6,6.4,1.6s4.5-.6,6.3-1.6c.9.8,2.1,1.3,3.4,1.3h2.8c1.6,0,3-.7,3.9-1.9.9,1.2,2.4,1.9,3.9,1.9h2.4c2.8,0,5-2.2,5-5V6.8c0-2.8-2.2-5-5-5Z"/>
  </g>
</svg>