<?xml version="1.0" encoding="UTF-8"?>
<svg id="Livello_3" xmlns="http://www.w3.org/2000/svg" xmlns:xlink="http://www.w3.org/1999/xlink" version="1.1" viewBox="0 0 134 29">
  <!-- Generator: Adobe Illustrator 29.0.0, SVG Export Plug-In . SVG Version: 2.1.0 Build 186)  -->
  <defs>
    <style>
      .st0 {
        fill: url(#Sfumatura_senza_nome);
        stroke: #000;
        stroke-linecap: round;
        stroke-linejoin: round;
        stroke-width: 2.6px;
      }
    </style>
    <linearGradient id="Sfumatura_senza_nome" data-name="Sfumatura senza nome" x1="-302.9" y1="15.7" x2="129" y2="15.7" gradientTransform="translate(0 30.2) scale(1 -1)" gradientUnits="userSpaceOnUse">
      <stop offset="0" stop-color="#f2aaaa"/>
      <stop offset=".2" stop-color="#e69df2"/>
      <stop offset=".5" stop-color="#9de7f2"/>
      <stop offset=".8" stop-color="#9df2af"/>
      <stop offset="1" stop-color="#eaf29d"/>
    </linearGradient>
  </defs>
  <path class="st0" d="M131.1,14.1c.3-.6.4-1.4.4-2.1,0-6.2-4.6-10.4-11.3-10.4s-3.2.3-4.6.8c-.7-.3-1.4-.5-2.1-.5h-13.9c-.9,0-1.7.3-2.5.7-1.5-.6-3.2-1-5.1-1-3.7,0-6.9,1.5-9.2,3.8l-.2-.4c-.8-1.9-2.6-3.1-4.6-3.1h-3.4c-.9,0-1.7.2-2.5.7-.7-.4-1.6-.7-2.5-.7h-18.7c-1.4,0-2.7.6-3.6,1.5-.9-1-2.2-1.5-3.6-1.5h-3c-1.3,0-2.5.5-3.4,1.3-1.8-1-4-1.6-6.3-1.6s-6,1-8.1,2.8c-2.1-1.8-4.9-2.8-8.2-2.8C7.6,1.6,2.1,7.1,2.1,14.5s5.4,12.9,12.7,12.9,6-1,8.2-2.8c2.2,1.8,5,2.8,8.1,2.8s4.5-.6,6.3-1.6c.9.8,2.1,1.3,3.4,1.3h2.8c1.6,0,3-.7,3.9-1.9,1,1.2,2.4,1.9,3.9,1.9h2.4c1.5,0,2.7-.6,3.7-1.6.9,1,2.2,1.6,3.7,1.6h10.3c2.1,0,3.9-1.3,4.7-3.2v-.3c0,0,.2.3.2.3.8,1.9,2.6,3.1,4.6,3.1h3.2c.9,0,1.8-.3,2.6-.7,1.6.7,3.3,1,5.1,1,3.4,0,6.4-1.1,8.5-3.1.8,1.7,2.5,2.8,4.5,2.8h3c1.9,0,3.5-1.1,4.4-2.6,2.1,1.8,5,2.9,8.4,2.9,6.5,0,11-4,11-9.6s-.1-2.3-.7-3.7h0Z"/>
  <path d="M14.8,9.2c2.8,0,4.1,1.9,4.4,4.1h2.9c-.3-4-2.8-6.8-7.3-6.8s-7.7,3.2-7.7,7.9,3.3,7.9,7.7,7.9,7-2.8,7.3-6.7h-2.9c-.2,2.2-1.6,4-4.4,4s-4.5-2-4.5-5.3,1.8-5.3,4.5-5.3h0ZM31.1,6.6c-4.5,0-7.8,3.2-7.8,7.9s3.3,7.9,7.8,7.9,7.8-3.2,7.8-7.9-3.3-7.9-7.8-7.9ZM31.1,19.8c-2.8,0-4.6-2.1-4.6-5.3s1.8-5.3,4.6-5.3,4.6,2.1,4.6,5.3-1.8,5.3-4.6,5.3ZM51.1,17.1l-7.2-10.2h-3v15.3h2.8v-10.8l7.8,10.8h2.4V6.8h-2.8v10.2h0ZM69.8,6.8h-13.9v2.5h5.4v12.8h3v-12.8h5.5v-2.5h0ZM74.7,6.8l-6.2,15.3h3.1l1.5-3.8h6.5l1.5,3.8h3.2l-6.2-15.3h-3.4ZM74,16l2.3-5.7h0l2.3,5.7h-4.7ZM92,9.2c2.8,0,4.2,1.9,4.4,4.1h2.9c-.3-4-2.8-6.8-7.3-6.8s-7.7,3.2-7.7,7.9,3.3,7.9,7.7,7.9,7-2.8,7.3-6.7h-2.9c-.2,2.2-1.6,4-4.4,4s-4.5-2-4.5-5.3,1.8-5.3,4.5-5.3h0ZM99.6,9.4h5.4v12.8h3v-12.8h5.5v-2.5h-13.9v2.5h0ZM122.4,13.3l-2.8-.5c-1.4-.3-2.2-.7-2.2-1.8s1-2.1,2.8-2.1,3.4,1.1,3.6,3.2h2.8c0-3.5-2.3-5.6-6.3-5.6s-5.8,1.8-5.8,4.7,1.7,3.8,4,4.3l2.9.5c1.6.3,2.5.8,2.5,1.9s-1.2,2-3.1,2-3.9-1.1-4-3.4h-2.8c0,3.8,2.8,5.8,6.8,5.8s6.1-1.6,6.1-4.6-1.4-3.9-4.4-4.5h0Z"/>
</svg>