<?xml version="1.0" encoding="UTF-8"?>
<svg id="Livello_3" xmlns="http://www.w3.org/2000/svg" xmlns:xlink="http://www.w3.org/1999/xlink" version="1.1" viewBox="0 0 75 29">
  <!-- Generator: Adobe Illustrator 29.0.0, SVG Export Plug-In . SVG Version: 2.1.0 Build 186)  -->
  <defs>
    <style>
      .st0 {
        fill: url(#Sfumatura_senza_nome);
        stroke: #000;
        stroke-linecap: round;
        stroke-linejoin: round;
        stroke-width: 2.6px;
      }
    </style>
    <linearGradient id="Sfumatura_senza_nome" data-name="Sfumatura senza nome" x1="2.9" y1="15.7" x2="438.4" y2="15.7" gradientTransform="translate(0 30.2) scale(1 -1)" gradientUnits="userSpaceOnUse">
      <stop offset="0" stop-color="#f2aaaa"/>
      <stop offset=".2" stop-color="#e69df2"/>
      <stop offset=".5" stop-color="#9de7f2"/>
      <stop offset=".8" stop-color="#9df2af"/>
      <stop offset="1" stop-color="#eaf29d"/>
    </linearGradient>
  </defs>
  <path class="st0" d="M7.9,27.2h3c1.3,0,2.5-.5,3.4-1.4.9.9,2.1,1.4,3.4,1.4h3.1c1,0,2-.3,2.8-.9,1.6.8,3.5,1.2,5.5,1.2,3.2,0,6-1,8-2.8,2.1,1.7,4.8,2.8,7.8,2.8s2.4-.2,3.5-.5c.4.1.9.2,1.4.2h2.7c1,0,2-.3,2.8-.9,1.6.7,3.5,1.1,5.6,1.1,6.5,0,11.1-4,11.1-9.6s-.1-2.3-.7-3.7c.3-.6.4-1.4.4-2.1,0-6.2-4.6-10.4-11.3-10.4s-5.5.9-7.4,2.4c-2.1-1.5-4.7-2.4-7.8-2.4s-4.4.6-6.2,1.5c-.9-.8-2-1.3-3.3-1.3h-3c-1.4,0-2.6.6-3.5,1.5-.9-.9-2.2-1.5-3.5-1.5h-3c-1.1,0-2,.3-2.9.9-1.4-.6-3.1-.9-5-.9h-6.9c-2.8,0-5,2.2-5,5v15.3c0,2.8,2.2,5,5,5h0Z"/>
  <path d="M17.3,15.4c1.9-.2,3.4-1.6,3.4-3.9s-1.9-4.7-5.8-4.7h-6.9v15.3h3v-5.7h3.6c1.8,0,2.5.8,2.6,2.5.1,1.7.3,2.8.6,3.2h3.1c-.5-.6-.6-1.3-.8-3.6-.2-1.8-1.1-2.8-2.8-3.2h0ZM14.4,14.1h-3.5v-4.8h3.5c2.2,0,3.2.9,3.2,2.4s-1,2.4-3.2,2.4ZM32.8,15.9c0,2.6-1.1,4-3.5,4s-3.5-1.4-3.5-4V6.8h-3v9.4c0,4.5,2.9,6.2,6.5,6.2s6.6-1.8,6.6-6.2V6.8h-3s0,9.1,0,9.1ZM45.7,16.7h4.1c-.4,1.9-2,3.2-4.2,3.2s-4.8-2.1-4.8-5.4,1.8-5.3,4.6-5.3,4.1,1.5,4.2,3.7h3c-.3-4-2.9-6.4-7.3-6.4s-7.7,3.2-7.7,7.9,3.2,7.9,7.5,7.9,4.1-.9,4.9-2.5v2.3h2.7v-7.7h-6.9v2.3h0ZM62.7,13.3l-2.8-.5c-1.4-.3-2.2-.7-2.2-1.8s1-2.1,2.8-2.1,3.5,1.1,3.5,3.2h2.8c0-3.5-2.3-5.6-6.3-5.6s-5.8,1.8-5.8,4.7,1.7,3.8,4,4.3l2.9.5c1.6.3,2.5.8,2.5,1.9s-1.2,2-3.1,2-3.9-1.1-4-3.4h-2.8c0,3.8,2.8,5.8,6.8,5.8s6-1.6,6-4.6-1.4-3.9-4.4-4.5h0Z"/>
</svg>