<?xml version="1.0" encoding="UTF-8"?>
<svg id="Livello_3" xmlns="http://www.w3.org/2000/svg" version="1.1" viewBox="0 0 156 29">
  <!-- Generator: Adobe Illustrator 29.0.0, SVG Export Plug-In . SVG Version: 2.1.0 Build 186)  -->
  <defs>
    <style>
      .st0 {
        fill: none;
        stroke: #000;
        stroke-linecap: round;
        stroke-linejoin: round;
        stroke-width: 2.6px;
      }
    </style>
  </defs>
  <path class="st0" d="M153.1,18.8l.2.3-4.1-5.3,3.3-3.5c1.4-1.4,1.8-3.6,1-5.4-.8-1.8-2.6-3-4.6-3h-3.6c-1.2,0-2.4.4-3.3,1.2-.9-.8-2-1.2-3.3-1.2h-3c-1.3,0-2.5.5-3.4,1.3-1.8-1-4-1.6-6.3-1.6s-6.2,1.1-8.4,3.1c-2.2-1.9-5.1-3.1-8.4-3.1-5,0-9.1,2.6-11.2,6.6v-1.3c0-2.8-2.2-5-5-5h-3c-2.8,0-5,2.2-5,5v4.2l-2.5-6.1c-.8-1.9-2.6-3.1-4.6-3.1h-3.4c-2,0-3.9,1.2-4.6,3.1l-2.1,5.2v-3.3c0-2.8-2.2-5-5-5h-16.4c-1.2,0-2.4.4-3.3,1.2-.9-.8-2-1.2-3.3-1.2h-3c-1.6,0-2.9.7-3.9,1.8-.9-1.1-2.4-1.9-3.9-1.9h-3.4c-.9,0-1.7.2-2.5.7-.7-.4-1.6-.7-2.5-.7H6.6C3.8,1.8,1.6,4,1.6,6.8v2.5c0,2.8,2.2,5,5,5h.4v7.8c0,2.8,2.2,5,5,5h10.3c2.1,0,3.9-1.3,4.7-3.2v-.3c0,0,.2.3.2.3.8,1.9,2.6,3.1,4.6,3.1h7.7c1.3,0,2.6-.5,3.5-1.4.9.9,2.2,1.4,3.5,1.4h16.2c1,0,1.9-.3,2.7-.8.8.5,1.7.8,2.7.8h3.1c2.1,0,3.9-1.3,4.7-3.2v-.3l.2.3c.8,1.9,2.6,3.1,4.6,3.1h3.2c1.1,0,2.1-.4,2.9-1,.8.6,1.8,1,2.9,1h11.1c1,0,2-.3,2.8-.8,1.6.7,3.4,1.1,5.4,1.1,3.3,0,6.2-1.1,8.4-3.1,2.2,1.9,5.1,3.1,8.4,3.1s4.5-.6,6.4-1.6c.9.8,2.1,1.3,3.4,1.3h3c1.4,0,2.6-.5,3.5-1.4.9.9,2.2,1.4,3.5,1.4h3.6c1.9,0,3.7-1.1,4.5-2.8.8-1.7.6-3.8-.6-5.3Z"/>
  <g>
    <path d="M12,22.2v-12.8h-5.4v-2.5h13.9v2.5h-5.5v12.8h-3Z"/>
    <path d="M28.9,6.8l6.2,15.3h-3.2l-1.5-3.8h-6.5l-1.5,3.8h-3.1l6.2-15.3h3.4ZM24.8,16h4.7l-2.3-5.7h-.1l-2.3,5.7h0Z"/>
    <path d="M46.6,22.2l-5.4-6.7-1.6,1.6v5.1h-3V6.8h3v6.9l6.5-6.9h3.5l-6.3,6.6,6.8,8.7h-3.6,0Z"/>
    <path d="M62.9,22.2h-11.4V6.8h11.2v2.5h-8.2v3.7h6.5v2.5h-6.5v4h8.5v2.5h0v.2Z"/>
    <path d="M77.8,6.8l6.2,15.3h-3.2l-1.5-3.8h-6.5l-1.5,3.8h-3.1l6.2-15.3h3.4ZM73.7,16h4.7l-2.3-5.7h0l-2.3,5.7h0Z"/>
    <path d="M92.9,6.8v12.8h8.1v2.5h-11.1V6.8h3Z"/>
    <path d="M109.2,22.4c-4.5,0-7.8-3.2-7.8-7.9s3.3-7.9,7.8-7.9,7.8,3.2,7.8,7.9-3.3,7.9-7.8,7.9ZM109.2,9.2c-2.8,0-4.6,2.1-4.6,5.3s1.8,5.3,4.6,5.3,4.6-2.1,4.6-5.3-1.8-5.3-4.6-5.3Z"/>
    <path d="M126,22.4c-4.5,0-7.8-3.2-7.8-7.9s3.3-7.9,7.8-7.9,7.8,3.2,7.8,7.9-3.3,7.9-7.8,7.9ZM126,9.2c-2.8,0-4.6,2.1-4.6,5.3s1.8,5.3,4.6,5.3,4.6-2.1,4.6-5.3-1.8-5.3-4.6-5.3Z"/>
    <path d="M145.7,22.2l-5.4-6.7-1.6,1.6v5.1h-3V6.8h3v6.9l6.5-6.9h3.6l-6.3,6.6,6.8,8.7h-3.6Z"/>
  </g>
</svg>