<?xml version="1.0" encoding="UTF-8"?>
<svg id="Livello_3" xmlns="http://www.w3.org/2000/svg" version="1.1" viewBox="0 0 156 29">
  <!-- Generator: Adobe Illustrator 29.0.0, SVG Export Plug-In . SVG Version: 2.1.0 Build 186)  -->
  <path d="M109.2,9.2c-2.8,0-4.6,2.1-4.6,5.3s1.8,5.3,4.6,5.3,4.6-2.1,4.6-5.3-1.8-5.3-4.6-5.3Z"/>
  <path d="M126,9.2c-2.8,0-4.6,2.1-4.6,5.3s1.8,5.3,4.6,5.3,4.6-2.1,4.6-5.3-1.8-5.3-4.6-5.3Z"/>
  <path d="M154.4,18.4s0,0,0-.1l-3.4-4.4,2.5-2.7c1.7-1.8,2.2-4.5,1.2-6.8-1-2.3-3.3-3.8-5.8-3.8h-3.5c-1.2,0-2.3.3-3.3.9-1-.6-2.1-.9-3.3-.9h-3c-1.3,0-2.5.4-3.5,1.1-1.9-.9-4-1.4-6.2-1.4-3.1,0-6,.9-8.4,2.7-2.4-1.8-5.3-2.7-8.4-2.7s-7.7,1.6-10.3,4.4c-.9-2.4-3.2-4.1-5.9-4.1h-3c-2.8,0-5.3,1.9-6,4.5l-.2-.6c-1-2.4-3.3-3.9-5.8-3.9h-3.4c-2.6,0-4.9,1.5-5.8,3.9h0c-.9-2.3-3.2-3.9-5.9-3.9h-16.5c-1.2,0-2.3.3-3.3.9-1-.6-2.1-.9-3.3-.9h-3c-1.4,0-2.7.5-3.8,1.3-1.1-.9-2.5-1.3-3.9-1.3h-3.4c-.8,0-1.7.2-2.5.5-.8-.3-1.6-.5-2.5-.5H6.6C3.1.5.3,3.4.3,6.8v2.5c0,3.2,2.4,5.8,5.4,6.2v6.5c0,3.5,2.8,6.3,6.3,6.3h10.3c1.9,0,3.6-.8,4.8-2.2,1.2,1.4,2.9,2.2,4.8,2.2h3.2c.3,0,.6,0,.8,0,.2,0,.5,0,.7,0h3c1.3,0,2.4-.4,3.5-1,1,.7,2.2,1,3.5,1h3.6c.2,0,.5,0,.7,0,.2,0,.3,0,.5,0h11.4c.9,0,1.8-.2,2.7-.6.8.4,1.7.6,2.7.6h3.1c1.9,0,3.6-.8,4.8-2.2,1.2,1.4,2.9,2.2,4.8,2.2h3.2c1,0,2-.3,2.9-.7.9.5,1.9.7,2.9.7h11.1c1,0,2-.2,2.9-.7,1.7.7,3.4,1,5.3,1,3.1,0,6-1,8.4-2.7,2.4,1.8,5.3,2.7,8.4,2.7s4.3-.5,6.2-1.4c1,.7,2.3,1.1,3.5,1.1h3c1.2,0,2.4-.4,3.5-1,1,.7,2.2,1,3.5,1h3.6c2.4,0,4.6-1.4,5.7-3.5,1-2.1.8-4.6-.6-6.5ZM15.1,22.2h-3v-12.8h-5.4v-2.5h14v2.5h-5.5v12.8ZM31.9,22.1l-1.5-3.8h-6.5l-1.5,3.8h-3.1l6.2-15.3h3.4l6.2,15.3h-3.2ZM46.6,22.1l-5.4-6.7-1.6,1.6v5.1h-3V6.8h3v6.9l6.5-6.9h3.5l-6.3,6.6,6.8,8.7h-3.6ZM62.9,22.1h-11.4V6.8h11.2v2.5h-8.2v3.7h6.5v2.5h-6.5v4h8.4v2.5ZM80.8,22.1l-1.5-3.8h-6.5l-1.5,3.8h-3.1l6.2-15.3h3.4l6.2,15.3h-3.2ZM101,22.1h-11.1V6.8h3v12.8h8.1v2.5ZM109.2,22.4c-4.5,0-7.8-3.2-7.8-7.9s3.3-7.9,7.8-7.9,7.8,3.2,7.8,7.9-3.3,7.9-7.8,7.9ZM126,22.4c-4.5,0-7.8-3.2-7.8-7.9s3.3-7.9,7.8-7.9,7.8,3.2,7.8,7.9-3.3,7.9-7.8,7.9ZM145.7,22.1l-5.4-6.7-1.6,1.6v5.1h-3V6.8h3v6.9l6.5-6.9h3.5l-6.3,6.6h0l6.8,8.7h-3.6Z"/>
  <polygon points="27 10.3 24.8 16 24.8 16 29.4 16 27.1 10.3 27 10.3"/>
  <polygon points="76 10.3 73.7 16 73.7 16 78.4 16 76 10.3 76 10.3"/>
</svg>