<?xml version="1.0" encoding="utf-8"?>
<!-- Generator: Adobe Illustrator 26.0.3, SVG Export Plug-In . SVG Version: 6.00 Build 0)  -->
<svg version="1.1" id="Layer_1" xmlns="http://www.w3.org/2000/svg" xmlns:xlink="http://www.w3.org/1999/xlink" x="0px" y="0px"
	 viewBox="0 0 338.75 426.27" style="enable-background:new 0 0 338.75 426.27;" xml:space="preserve">
<g>
	<path d="M246.32,229.01c8.17,1.51,16.48,2.49,24.49,4.6c40.84,10.75,67.71,45.68,67.81,87.9c0.08,31.73,0.02,63.46,0.01,95.19
		c0,6.36-3.18,9.54-9.52,9.54c-19.17,0.01-38.33,0.01-57.5,0c-6.19,0-9.32-3.18-9.32-9.45c-0.01-27.4-0.02-54.8,0.01-82.2
		c0.01-6.7-0.68-13.29-2.55-19.74c-3.97-13.65-12.69-23.4-25.03-30.07c-11.91-6.44-24.83-9.76-38.16-11.08
		c-12.66-1.25-25.41-2.07-38.14-2.23c-26.33-0.33-52.67-0.1-79-0.1c-0.9,0-1.81,0-3.05,0c0,1.3,0,2.36,0,3.41
		c0,46.72,0,93.45,0,140.17c0,1,0.02,2-0.02,3c-0.16,4.82-3.42,8.25-8.22,8.26c-19.92,0.06-39.84,0.06-59.75,0
		c-4.73-0.01-7.95-3.21-8.33-7.93c-0.07-0.83-0.04-1.66-0.04-2.5C0,280.71,0,145.62,0.01,10.54c0-1.16,0-2.34,0.17-3.49
		c0.58-3.77,3.39-6.46,7.16-6.93C8,0.03,8.67,0,9.34,0c59.34,0.02,118.67-0.04,178.01,0.12c23.9,0.07,47.35,3.48,69.91,11.7
		c20.46,7.45,38.49,18.62,52.86,35.23c15.65,18.08,24.06,39.32,27.18,62.8c1.97,14.87,2.36,29.78-1.4,44.43
		c-10.38,40.55-36.86,64.34-77.25,73.4c-2.03,0.45-4.1,0.71-6.16,0.99c-2.06,0.27-4.13,0.45-6.2,0.68
		C246.29,229.23,246.3,229.12,246.32,229.01z M76.5,195.02c1.11,0,2.09,0,3.07,0c19.33,0,38.67,0.04,58-0.01
		c14.83-0.04,29.67,0.04,44.49-0.34c13.03-0.33,25.91-2.08,38.28-6.51c15.49-5.55,27.32-15.07,33.24-30.91
		c3.05-8.15,3.98-16.64,4.09-25.27c0.38-29.73-13.75-49.95-41.78-59.72c-13.78-4.81-28.11-6.27-42.57-6.33
		c-31.5-0.14-63-0.06-94.5-0.06c-0.73,0-1.45,0.1-2.31,0.17C76.5,108.96,76.5,151.74,76.5,195.02z"/>
</g>
</svg>
