<svg xmlns="http://www.w3.org/2000/svg" viewBox="0 0 356.13 426.88"><path d="M309.11,135.4H280.63c-6,0-8.5-2-9.88-7.73-6.44-26.86-23.58-43.52-49.46-51.72-20.63-6.53-41.86-7.63-63.26-6.09C141.71,71,125.91,74.44,111.4,82.48A53.32,53.32,0,0,0,93.46,98.09C83.65,111.81,81.22,137.86,104,152c10.5,6.52,22,10.44,33.92,12.85,21,4.24,42.08,7.71,63.09,11.7,19.29,3.65,38.64,7.09,57.76,11.51a154.87,154.87,0,0,1,44.24,18c32.77,19.44,49.84,48.46,52.66,86.22,1.44,19.42-.65,38.29-8.65,56.22-10.29,23.1-27.42,39.86-49,52.38-20.67,12-43.13,18.82-66.58,22.45A287,287,0,0,1,134,422c-27.21-5.1-52.84-14.38-75.62-30.47C24.33,367.44,5.3,334.36.14,293.12c-.9-7.19,2.46-10.94,9.67-10.94q28.72,0,57.46,0c6,0,8.52,2,10,7.7,8,32.11,29.35,51.12,60,60.8,21,6.63,42.63,7.94,64.48,6.52,15-1,29.57-3.65,43.55-9.21,8.41-3.35,16.23-7.72,22.8-14.1,15.6-15.16,15.81-38.92.4-54.32-8-8-18-12.74-28.52-16.5-13.06-4.69-26.66-7.16-40.27-9.53-28.54-5-57.13-9.63-85.56-15.14-21.95-4.26-42.47-12.47-60.64-25.85-23.88-17.59-38.06-41-42-70.49-3.78-28.12.68-54.67,16.08-78.85,13.2-20.74,31.89-35.11,54-45.3C104.16,7.44,128.16,2.32,153,.72c31.13-2,61.93,0,92,8.82,26.44,7.77,50,20.48,68.86,41,19.53,21.32,29.86,46.81,33.59,75.2.73,5.51-2.94,9.56-8.58,9.6C328.93,135.45,319,135.4,309.11,135.4Z"/></svg>