<svg xmlns="http://www.w3.org/2000/svg" viewBox="0 0 119.8 37.16"><path d="M111.86,1.89H93.18A6.34,6.34,0,0,0,92,2a6.34,6.34,0,0,0-1.16-.11H86.79A6.39,6.39,0,0,0,82.06,4a6.43,6.43,0,0,0-4.74-2.08h-4a6.39,6.39,0,0,0-4.42,1.77A17.38,17.38,0,0,0,50.06,5c-2.19-1.84-5.38-3.07-9.83-3.07H31.12a6.45,6.45,0,0,0-5.19,2.63,6.42,6.42,0,0,0-5.17-2.63H16.24a6.45,6.45,0,0,0-6,4L2,26.42a6.44,6.44,0,0,0,6,8.85H12a6.44,6.44,0,0,0,6-4.09l.38-1,.42,1a6.43,6.43,0,0,0,6,4h4.33a6.62,6.62,0,0,0,1-.09,6.52,6.52,0,0,0,1,.09h9.63a15.13,15.13,0,0,0,9.55-2.89,17.33,17.33,0,0,0,21-.51A15.55,15.55,0,0,0,82,35.66c5.24,0,9.48-2,12.15-5.31a6.44,6.44,0,0,0,6.25,4.92h4.07a6.43,6.43,0,0,0,6.43-6.44V18.15h.92a6.44,6.44,0,0,0,6.44-6.44V8.32A6.43,6.43,0,0,0,111.86,1.89Z"/><path d="M82,37.16a17.45,17.45,0,0,1-10.82-3.37,18.88,18.88,0,0,1-20.9.42,17.1,17.1,0,0,1-9.57,2.56H31.12a7,7,0,0,1-1-.07,7.08,7.08,0,0,1-1,.07H24.8a7.91,7.91,0,0,1-6.38-3.21A7.88,7.88,0,0,1,12,36.77H7.94A7.94,7.94,0,0,1,.58,25.86L8.88,5.35a7.91,7.91,0,0,1,7.36-5h4.52a7.87,7.87,0,0,1,5.17,1.94A8,8,0,0,1,31.12.39h9.11a17,17,0,0,1,9.86,2.7A18.45,18.45,0,0,1,60.45,0a18.74,18.74,0,0,1,8.23,1.87A7.88,7.88,0,0,1,73.28.39h4A8,8,0,0,1,82.06,2,8,8,0,0,1,86.79.39h4.07A7.75,7.75,0,0,1,92,.48,7.75,7.75,0,0,1,93.18.39h18.68a7.94,7.94,0,0,1,7.94,7.93v3.39a7.94,7.94,0,0,1-7.36,7.91v9.21a7.94,7.94,0,0,1-7.93,7.94h-4.07A7.88,7.88,0,0,1,93.71,33,17.18,17.18,0,0,1,82,37.16ZM71.26,30.37a1.45,1.45,0,0,1,1,.4A14.12,14.12,0,0,0,82,34.16c4.63,0,8.53-1.69,11-4.74a1.5,1.5,0,0,1,2.63.58,4.92,4.92,0,0,0,4.79,3.77h4.07a4.94,4.94,0,0,0,4.93-4.94V18.15a1.5,1.5,0,0,1,1.5-1.5h.92a4.94,4.94,0,0,0,4.94-4.94V8.32a4.94,4.94,0,0,0-4.94-4.93H93.18a4.63,4.63,0,0,0-.89.09,1.63,1.63,0,0,1-.54,0,4.63,4.63,0,0,0-.89-.09H86.79A4.93,4.93,0,0,0,83.16,5,1.56,1.56,0,0,1,81,5a4.91,4.91,0,0,0-3.63-1.6h-4a4.91,4.91,0,0,0-3.39,1.36A1.48,1.48,0,0,1,68.13,5,15.9,15.9,0,0,0,51,6.15a1.5,1.5,0,0,1-1.88,0C47,4.31,44,3.39,40.23,3.39H31.12a4.92,4.92,0,0,0-4,2,1.55,1.55,0,0,1-2.41,0,5,5,0,0,0-4-2H16.24a4.93,4.93,0,0,0-4.58,3.08L3.36,27a4.94,4.94,0,0,0,4.58,6.79H12a4.9,4.9,0,0,0,4.59-3.14l.38-1a1.52,1.52,0,0,1,1.39-1h0a1.5,1.5,0,0,1,1.39.94l.42,1a4.92,4.92,0,0,0,4.58,3.09h4.33a4.55,4.55,0,0,0,.76-.07,1.77,1.77,0,0,1,.46,0,4.57,4.57,0,0,0,.77.07h9.63a13.7,13.7,0,0,0,8.63-2.57,1.5,1.5,0,0,1,1.82,0,15.81,15.81,0,0,0,19.1-.45A1.46,1.46,0,0,1,71.26,30.37Z"/><path d="M20.77,8.07l8.36,20.51H24.8L22.75,23.5H14l-2,5.08H7.94l8.3-20.51ZM15.26,20.38h6.25l-3.09-7.69h-.13Z" fill="#fff"/><path d="M40.76,28.58H31.12V8.07h9.12c5.17,0,7.39,2.21,7.39,5.57a4.24,4.24,0,0,1-3.78,4.29c2.48.46,4.4,2.09,4.4,5C48.25,26.5,45.54,28.58,40.76,28.58Zm-5.67-12H40c2.44,0,3.48-1.08,3.48-2.61s-1-2.63-3.48-2.63H35.09Zm0,3.09v5.6H40.3c2.54,0,3.78-1.07,3.78-2.77s-1.24-2.83-3.78-2.83Z" fill="#fff"/><path d="M60.46,29C54.47,29,50,24.64,50,18.32S54.47,7.68,60.46,7.68,70.84,12,70.84,18.32,66.42,29,60.46,29Zm0-17.71c-3.78,0-6.19,2.77-6.19,7.06s2.41,7.07,6.19,7.07,6.18-2.77,6.18-7.07S64.23,11.26,60.46,11.26Z" fill="#fff"/><path d="M73.28,20.6V8.07h4V20.18c0,3.55,1.5,5.37,4.72,5.37s4.76-1.82,4.76-5.34V8.07h4.07V20.6C90.87,26.6,87,29,82,29S73.28,26.6,73.28,20.6Z" fill="#fff"/><path d="M100.44,28.58V11.45H93.18V8.07h18.69v3.38h-7.36V28.58Z" fill="#fff"/></svg>