<?xml version="1.0" encoding="UTF-8"?>
<svg xmlns="http://www.w3.org/2000/svg" version="1.1" viewBox="0 0 119.8 37.2">
  <defs>
    <style>
      .cls-1 {
        display: none;
        fill: #fff;
      }
    </style>
  </defs>
  <!-- Generator: Adobe Illustrator 28.6.0, SVG Export Plug-In . SVG Version: 1.2.0 Build 709)  -->
  <g>
    <g id="Layer_1">
      <polygon class="cls-1" points="37.1 1.5 47.9 3 50 5.3 59.9 1 69.1 4.2 75.3 1 82.1 4.1 86.2 1.6 113.3 1.6 118.6 6.7 118.6 13.5 114 18.3 110.7 18.4 110.7 31.8 105.4 35.8 97.8 35 94.3 30.5 86.3 35.8 78.5 35.8 71.2 31.9 61.4 36.1 50.6 32.6 39.8 35.7 22.8 35.3 18.4 31 13.9 35.5 5.3 35.1 .9 28.6 11.8 3 18.4 1.8 26.1 4.2 37.1 1.5"/>
      <path d="M81.6,37.2c-3.7,0-7.3-1.2-10.3-3.5-6.2,4.4-14.6,4.5-21,.4-2.9,1.8-6.2,2.7-9.6,2.6h-9.6c-.3,0-.7,0-1,0-.3,0-.7,0-1,0h-4.3c-2.5,0-4.9-1.2-6.4-3.2-1.5,2-3.8,3.2-6.4,3.2h-4c-1,0-2-.2-3-.6-4.1-1.6-6-6.3-4.4-10.3L8.8,5.4C10,2.4,12.9.5,16.1.5h4.6c1.9,0,3.7.7,5.2,1.9,1.4-1.2,3.3-1.9,5.2-1.9h9.1c4,0,7.3.9,9.9,2.7,5.5-3.7,12.6-4.2,18.6-1.3,1.3-1,2.9-1.5,4.6-1.5h4c1.7,0,3.4.6,4.8,1.6,1.4-1,3-1.6,4.7-1.6h4.1c.4,0,.8,0,1.2,0,.4,0,.8,0,1.2,0h18.7c4.4,0,7.9,3.6,7.9,7.9v3.4c0,4.2-3.3,7.6-7.4,7.9v9.2c0,4.4-3.6,7.9-7.9,7.9h-4.1c-2.8,0-5.3-1.5-6.7-3.7-3,2.7-7,4.1-11.7,4.1-.2.1-.4.1-.5.1ZM71.3,30.3c.4,0,.7.1,1,.4,2.7,2.4,6.1,3.6,9.7,3.5,4.7,0,8.6-1.7,11-4.8.4-.4.9-.6,1.5-.5s1,.6,1.1,1.1c.5,2.2,2.5,3.8,4.8,3.8h4.1c2.7,0,4.9-2.2,4.9-4.9v-10.8c0-.8.7-1.5,1.5-1.5h.9c2.7,0,4.9-2.2,4.9-4.9v-3.4c0-2.7-2.2-4.9-4.9-4.9h-18.6c-.3,0-.6,0-.9,0h-.6c-.3,0-.6,0-.9,0h-4c-1.4,0-2.7.6-3.6,1.6-.3.3-.7.5-1.1.5h0c-.4,0-.8-.2-1.1-.5-.9-1-2.3-1.6-3.6-1.6h-4c-1.3,0-2.5.5-3.4,1.4-.5.5-1.2.5-1.8.2-5.5-3-12.2-2.5-17.2,1.2-.6.4-1.3.4-1.9,0-2.1-1.8-5.1-2.7-8.9-2.7h-9.1c-1.6,0-3.1.8-4,2-.3.4-.7.6-1.2.6h0c-.5,0-.9-.2-1.2-.6-.9-1.3-2.4-2-4-2h-4.5c-2,0-3.8,1.2-4.6,3.1L3.4,27c-1,2.5.2,5.4,2.7,6.4.6.2,1.2.4,1.9.4h4c2,0,3.9-1.2,4.6-3.1l.4-1c.2-.6.8-1,1.4-1s1.2.4,1.4.9l.4,1c.8,1.9,2.6,3.1,4.6,3.1h4.3c.2,0,.5,0,.8,0h.5c.3,0,.5,0,.8,0h9.6c3.1,0,6.2-.8,8.7-2.6.5-.4,1.2-.4,1.8,0,5.8,4.2,13.6,4,19.2-.5,0-.2.5-.3.8-.3Z"/>
      <path d="M20.8,8.1l8.4,20.5h-4.3l-2-5.1h-8.9l-2,5.1h-4.1l8.3-20.5h4.6ZM15.3,20.4h6.2l-3.1-7.7h-.1l-3,7.7Z"/>
      <path d="M40.8,28.6h-9.6V8.1h9.1c5.2,0,7.4,2.2,7.4,5.6s-1.6,4.1-3.8,4.3c2.5.5,4.4,2.1,4.4,5-.1,3.5-2.8,5.6-7.5,5.6ZM35.1,16.6h4.9c2.5,0,3.5-1.1,3.5-2.6s-1-2.6-3.5-2.6h-4.9v5.2ZM35.1,19.7v5.6h5.2c2.5,0,3.8-1.1,3.8-2.8s-1.2-2.8-3.8-2.8c0,0-5.2,0-5.2,0Z"/>
      <path d="M60.5,29c-6,0-10.5-4.4-10.5-10.7s4.5-10.6,10.5-10.6,10.3,4.3,10.3,10.6-4.4,10.7-10.3,10.7ZM60.5,11.3c-3.8,0-6.2,2.8-6.2,7.1s2.4,7.1,6.2,7.1,6.2-2.8,6.2-7.1-2.5-7.1-6.2-7.1h0Z"/>
      <path d="M73.3,20.6v-12.5h4v12.1c0,3.5,1.5,5.4,4.7,5.4s4.8-1.8,4.8-5.3v-12.2h4.1v12.5c0,6-3.8,8.4-8.8,8.4s-8.8-2.4-8.8-8.4Z"/>
      <path d="M100.4,28.6V11.4h-7.3v-3.3h18.7v3.4h-7.4v17.1h-4Z"/>
    </g>
  </g>
</svg>