<svg xmlns="http://www.w3.org/2000/svg" viewBox="0 0 50.13 40.37"><path d="M26.76,38.3H19.42a6.17,6.17,0,0,1-4.53-2L3.75,24.43a6.2,6.2,0,0,1,0-8.49L14.89,4a6.17,6.17,0,0,1,4.53-2h7.34a6.23,6.23,0,0,1,5.46,9.19h9.62a6.21,6.21,0,0,1,6.22,6.21v5.29A6.21,6.21,0,0,1,41.84,29h-9.7a6.22,6.22,0,0,1-5.38,9.33Z" fill="#fff" stroke="#000" stroke-miterlimit="10" stroke-width="4.14"/><path d="M20.36,14.91c-.29.28-.6.58-.93.88l-1,.93-.48.47c-.16.16-.32.3-.47.43,1,0,2.39-.05,4-.05H41.82v5.29H21.5c-1.62,0-3,0-4-.05.47.44,1.47,1.44,3,3l6.29,6.37H19.41L9.91,22h0a2.55,2.55,0,0,1,0-3.49h0L19.41,8.39h7.33Z"/></svg>