<svg xmlns="http://www.w3.org/2000/svg" viewBox="0 0 79.42 39.53"><path d="M77,5.25A7.25,7.25,0,0,0,70.66,1.5H66a7.25,7.25,0,0,0-5.76,2.84A7.27,7.27,0,0,0,54.51,1.5H49.74a7.3,7.3,0,0,0-.94.06,9.07,9.07,0,0,0-.91-.06H43.6a7.2,7.2,0,0,0-5,2,7.2,7.2,0,0,0-5-2H29.37a7.21,7.21,0,0,0-4,1.2,19,19,0,0,0-7-1.2H8.76A7.26,7.26,0,0,0,1.5,8.76v21.6a7.26,7.26,0,0,0,7.26,7.26H18.91a17,17,0,0,0,9.55-2.55,17.45,17.45,0,0,0,10.13,3c5.38,0,9.78-1.91,12.7-5.19a7.25,7.25,0,0,0,6.82,4.78h4.18a7.26,7.26,0,0,0,7.26-7.26V24.13l7.25-11.5A7.26,7.26,0,0,0,77,5.25Z" stroke="#000" stroke-linecap="round" stroke-linejoin="round" stroke-width="3"/><path d="M18.91,30.36H8.76V8.76h9.6c5.45,0,7.78,2.33,7.78,5.86a4.47,4.47,0,0,1-4,4.53c2.6.48,4.63,2.19,4.63,5.28C26.8,28.17,24,30.36,18.91,30.36Zm-6-12.62h5.15c2.57,0,3.66-1.13,3.66-2.74s-1.09-2.78-3.66-2.78H12.94Zm0,3.26v5.9h5.49c2.67,0,4-1.13,4-2.92s-1.31-3-4-3Z" fill="#fff"/><path d="M29.37,22V8.76h4.25V21.52c0,3.73,1.58,5.65,5,5.65s5-1.92,5-5.62V8.76h4.28V22c0,6.31-4.11,8.81-9.29,8.81S29.37,28.27,29.37,22Z" fill="#fff"/><path d="M66,8.76h4.63L62.29,22v8.33H58.11V22L49.74,8.76h4.77l5.86,9.16Z" fill="#fff"/></svg>