<svg xmlns="http://www.w3.org/2000/svg" viewBox="0 0 97.29 37.37"><path d="M18.32,37.37C7.88,37.37,0,29.34,0,18.68S7.88,0,18.32,0A18.13,18.13,0,0,1,30.07,4,7.87,7.87,0,0,1,36.74.39h4.57a7.88,7.88,0,0,1,5.22,2,7.93,7.93,0,0,1,5.24-2h9.37a19.78,19.78,0,0,1,5.76.86A7.94,7.94,0,0,1,70.48.39H89.35a8,8,0,0,1,7.94,7.94v3.42a8,8,0,0,1-7.43,7.92V29A8,8,0,0,1,81.92,37H77.81a8,8,0,0,1-4.24-1.24A7.92,7.92,0,0,1,69.33,37H65.12a8,8,0,0,1-4.65-1.51A7.88,7.88,0,0,1,55.81,37h-4a7.33,7.33,0,0,1-1-.08,7.19,7.19,0,0,1-1,.08H45.39a7.93,7.93,0,0,1-6.45-3.3A7.87,7.87,0,0,1,32.5,37H28.36A7.81,7.81,0,0,1,25,36.22,19.47,19.47,0,0,1,18.32,37.37ZM18.32,3C9.59,3,3,9.74,3,18.68S9.59,34.37,18.32,34.37a16.36,16.36,0,0,0,6.22-1.18,1.47,1.47,0,0,1,1.32.1,5,5,0,0,0,2.5.69H32.5a4.91,4.91,0,0,0,4.59-3.14l.41-1a1.5,1.5,0,0,1,1.4-.95,1.62,1.62,0,0,1,1.47.93l.44,1.11A4.94,4.94,0,0,0,45.39,34h4.37a5.94,5.94,0,0,0,.76-.07,1.24,1.24,0,0,1,.47,0,6.06,6.06,0,0,0,.78.07h4a4.92,4.92,0,0,0,3.57-1.53A1.47,1.47,0,0,1,60.46,32h0a1.5,1.5,0,0,1,1.09.46A5,5,0,0,0,65.12,34h4.21a4.94,4.94,0,0,0,3.25-1.23,1.49,1.49,0,0,1,2,0A5,5,0,0,0,77.81,34h4.11A5,5,0,0,0,86.86,29V18.18a1.5,1.5,0,0,1,1.5-1.5h1a4.94,4.94,0,0,0,4.94-4.93V8.33a5,5,0,0,0-4.94-4.94H70.48a5,5,0,0,0-2.62.76,1.49,1.49,0,0,1-1.3.15,16.53,16.53,0,0,0-5.42-.91H51.77a5,5,0,0,0-4,2.08,1.5,1.5,0,0,1-1.22.63h0a1.52,1.52,0,0,1-1.22-.63,4.93,4.93,0,0,0-4-2.08H36.74a4.9,4.9,0,0,0-4.57,3.09l-.26.63a1.5,1.5,0,0,1-2.5.44A14.72,14.72,0,0,0,18.32,3Z"/><path d="M18.33,7.75c6.11,0,9.5,3.85,9.86,9.07L24.25,17c-.3-3.09-2.14-5.63-5.92-5.63s-6.12,2.77-6.12,7.14,2.43,7.14,6.12,7.14S24,23.1,24.25,20l3.94.17c-.36,5.26-3.75,9.07-9.86,9.07-5.89,0-10.4-4.37-10.4-10.75S12.44,7.75,18.33,7.75Z"/><path d="M41.31,8.14l8.45,20.72H45.39l-2.07-5.13H34.5l-2,5.13H28.36L36.74,8.14ZM35.75,20.57h6.32l-3.13-7.76h-.13Z"/><path d="M65.12,28.86c-.43-.56-.69-2-.86-4.28s-1.21-3.38-3.58-3.38H55.81v7.66h-4V8.14h9.37c5.29,0,7.89,2.47,7.89,6.32a5,5,0,0,1-4.57,5.26A4.31,4.31,0,0,1,68.28,24c.26,3.06.36,4.11,1,4.87ZM60.58,18c3,0,4.37-1,4.37-3.22,0-2.07-1.38-3.29-4.37-3.29H55.81V18Z"/><path d="M77.81,28.86V11.56H70.48V8.14H89.35v3.42H81.92v17.3Z"/></svg>