<svg xmlns="http://www.w3.org/2000/svg" viewBox="0 0 37.63 37.72"><path d="M29.12,36.31H24.29a7.08,7.08,0,0,1-5.61-2.76,7.08,7.08,0,0,1-5.61,2.76H8.5A7.09,7.09,0,0,1,2.84,25l4.84-6.43L3.43,12.67A7.09,7.09,0,0,1,9.16,1.42H14a7.07,7.07,0,0,1,4.94,2,7.11,7.11,0,0,1,4.95-2h4.57a7.08,7.08,0,0,1,5.68,11.32L30,18.37,34.83,25a7.09,7.09,0,0,1-5.71,11.28Z" fill="none" stroke="#000" stroke-miterlimit="10" stroke-width="2.83"/><path d="M21.13,18.34l8,10.88H24.29l-5.62-7.66-5.6,7.66H8.5l8-10.62L9.16,8.5H14l5,6.91L23.89,8.5h4.57Z"/></svg>