<?xml version="1.0" encoding="UTF-8"?>
<svg xmlns="http://www.w3.org/2000/svg" version="1.1" viewBox="0 0 206.5 37.4">
  <defs>
    <style>
      .cls-1 {
        display: none;
        fill: #fff;
      }
    </style>
  </defs>
  <!-- Generator: Adobe Illustrator 28.6.0, SVG Export Plug-In . SVG Version: 1.2.0 Build 709)  -->
  <g>
    <g id="Layer_1">
      <polygon class="cls-1" points="90.1 3.6 94 1.4 105.4 1.9 112.2 3.1 121.2 1 129.5 4.5 139.2 1 146.5 3.4 155.7 1.5 159.6 3.8 169.2 1 176.7 3.7 183.3 1.6 190.4 4 196.2 1.6 204.2 4.2 205.3 17.5 204.5 32.6 198.9 36.1 189.6 33.3 183 36.1 175.9 33.8 167.9 36.4 158.5 33.9 151.8 36.1 146.5 34.3 138.8 36.2 129.2 33.6 119.5 36.4 112.1 34.1 99 35.8 53.7 35.8 48.4 33.4 39.7 36.4 29.2 32.6 19.5 36.1 8.3 33.2 1.7 22.5 3.2 9.2 14.6 1 29.9 4.7 40.7 1 49 3.7 52.4 1.9 61.9 1.9 64.4 3.8 68.5 1.6 87.9 1.6 90.1 3.6"/>
      <path d="M120.6,37.4h-.5c-2.6,0-5.2-.5-7.7-1.5-1.2.7-2.6,1.1-4,1.1h-4.1c-.6,0-1.2,0-1.8-.2-.6,0-1.2.2-1.8.2h-4.1c-.9,0-1.7,0-2.6-.4-.8.3-1.7.4-2.5.4h-3.5c-.9,0-1.8,0-2.6-.4-.8.3-1.7.4-2.6.4h-3.8c-.6,0-1.2,0-1.8-.2-.7.2-1.3.2-1.9.2h-4.1c-.9,0-1.7,0-2.6-.4-.8.3-1.7.4-2.6.4h-3.5c-.9,0-1.8-.2-2.6-.4-.8.3-1.7.4-2.6.4h-3.8c-1.7,0-3.4-.6-4.7-1.6-2.6,1.3-5.5,2-8.4,2h-.2c-3.9,0-7.7-1.2-10.8-3.5-3.2,2.4-7.1,3.6-11.1,3.5C7.9,37.4,0,29.3,0,18.7S7.9,0,18.4,0c3.9-.1,7.8,1.2,11,3.5C32.6,1.2,36.4,0,40.4,0,43.3,0,46.2.7,48.8,2c1.4-1,3-1.6,4.7-1.6h6.5c1.6,0,3.2.5,4.5,1.4,1.3-.9,2.9-1.4,4.5-1.4h6.3c.6,0,1.2,0,1.8.2.6,0,1.2-.2,1.8-.2h6.5c1.6,0,3.2.5,4.5,1.4,1.3-.9,2.9-1.4,4.5-1.4h6.3c.6,0,1.2,0,1.8.2.6,0,1.2-.2,1.8-.2h4.1c1.3,0,2.7.3,3.8,1C114.5.5,116.9,0,119.4,0c3.3-.1,6.7.8,9.6,2.6C131.8.8,135.2-.1,138.5,0,141.1,0,143.7.5,146.1,1.6c1.2-.8,2.7-1.2,4.2-1.2h4.1c1.7,0,3.4.6,4.8,1.6,5.3-2.6,11.6-2.6,16.9,0,1.4-1,3-1.6,4.7-1.6h4.1c1.8,0,3.5.6,4.9,1.7,1.4-1.1,3.1-1.7,4.9-1.7h3.8c4.4,0,8,3.6,8,7.9v20.7h0c0,4.5-3.6,8-7.9,8h-3.4c-2,0-3.8-.7-5.3-2-1.4,1.3-3.3,2-5.3,2h-3.8c-1.7,0-3.4-.6-4.7-1.6-5.3,2.6-11.6,2.6-16.9,0-1.4,1-3,1.6-4.7,1.6h-4.1c-1.3,0-2.6-.3-3.8-1-5.5,2.2-11.7,1.7-16.9-1.1-2.8,1.7-5.9,2.5-9.1,2.5ZM120.1,34.4c3.1,0,6.1-.8,8.7-2.5.5-.3,1.1-.3,1.6,0,4.7,2.9,10.6,3.3,15.7,1.1.5-.2,1-.2,1.5,0,.8.6,1.8.9,2.8.9h4.1c1.3,0,2.5-.5,3.5-1.5s1.2-.6,1.8-.3c4.9,2.8,10.9,2.8,15.8,0,.6-.3,1.3-.2,1.8.2.9.9,2.2,1.4,3.5,1.4h3.8c1.6,0,3.1-.8,4.1-2.1.3-.4.7-.6,1.2-.6s.9.2,1.2.6h.1c.9,1.4,2.4,2.2,4,2.2h3.3c2.7,0,4.9-2.2,5-4.9V8.3c0-2.7-2.2-4.9-4.9-4.9v-1.5,1.5h-3.8c-1.4,0-2.8.6-3.8,1.7-.3.3-.7.5-1.1.5h0c-.4,0-.9-.2-1.1-.5-.9-1.1-2.3-1.7-3.8-1.7h-4.1c-1.3,0-2.5.5-3.5,1.4-.5.5-1.2.6-1.8.2-4.9-2.8-10.9-2.8-15.8,0-.6.3-1.3.2-1.8-.2-.9-.9-2.2-1.4-3.5-1.5h-4.1c-1.1,0-2.2.4-3,1.1-.5.4-1.1.4-1.6.2-2.2-1.1-4.7-1.7-7.1-1.6-3.1,0-6.1.9-8.6,2.6-.5.4-1.2.4-1.7,0-2.5-1.8-5.7-2.7-8.8-2.6-2.3,0-4.6.5-6.7,1.4-.5.2-1.1.2-1.5,0-.8-.6-1.8-.9-2.8-.9h-4.1c-.5,0-.9,0-1.4.2-.3,0-.6,0-.9,0-.5,0-.9-.2-1.4-.2h-6.3c-1.3,0-2.5.5-3.4,1.4-.6.6-1.5.6-2.1,0-.9-.9-2.1-1.4-3.4-1.4h-6.5c-.5,0-.9,0-1.4.2-.3,0-.6,0-.9,0-.4,0-.9-.2-1.4-.2h-6.5c-1.3,0-2.5.5-3.5,1.4-.6.6-1.5.6-2.1,0-.9-.9-2.2-1.4-3.4-1.4h-6.5c-1.3,0-2.6.5-3.5,1.4-.5.5-1.2.6-1.8.2-2.3-1.3-5-2-7.7-2h-.2c-3.6,0-7.1,1.3-9.9,3.6-.6.4-1.4.4-2,0-2.8-2.4-6.3-3.6-10-3.6-8.8,0-15.4,6.7-15.4,15.7s6.6,15.7,15.3,15.7c3.7,0,7.3-1.1,10.1-3.5.6-.5,1.4-.5,1.9,0,2.8,2.3,6.4,3.6,10,3.6h0c2.8,0,5.5-.7,7.9-2.1.6-.3,1.3-.2,1.8.2.9.9,2.2,1.4,3.5,1.4h3.8c.7,0,1.4,0,2-.4.4-.2.8-.2,1.2,0,.6.3,1.3.4,2,.4h3.5c.7,0,1.4,0,2-.4.4-.2.8,0,1.2,0,.6.3,1.3.4,1.9.4h4.1c.5,0,.9,0,1.4-.2.3,0,.6,0,.9,0,.5.2,1,.2,1.4.2h3.8c.7,0,1.4,0,2-.4.4-.2.8-.2,1.2,0,.6.3,1.3.4,2,.4h3.5c.7,0,1.3,0,1.9-.4.4-.2.8-.2,1.2,0,.6.3,1.3.4,2,.4h4.1c.5,0,.9,0,1.4-.2.3,0,.6,0,.9,0,.5,0,.9.2,1.4.2h4.1c1.1,0,2.1-.4,3-1,.4-.3,1-.4,1.5-.2,2.3,1.1,4.7,1.7,7.2,1.6Z"/>
      <path d="M18.3,7.8c6.1,0,9.5,3.9,9.9,9.1l-4,.2c-.3-3.1-2.1-5.6-5.9-5.6s-6.1,2.8-6.1,7.1,2.4,7.1,6.1,7.1,5.7-2.5,6-5.6l4,.2c-.4,5.3-3.8,9.1-9.9,9.1-5.9-.2-10.4-4.5-10.4-10.9s4.4-10.7,10.3-10.7Z"/>
      <path d="M40.4,29.2c-6,0-10.5-4.4-10.5-10.8s4.4-10.6,10.5-10.6,10.5,4.4,10.5,10.8-4.5,10.6-10.5,10.6ZM40.4,11.4c-3.8,0-6.2,2.8-6.2,7.1s2.4,7.1,6.2,7.1,6.2-2.8,6.2-7.1-2.4-7.1-6.2-7.1Z"/>
      <path d="M62.5,28.9l-5.1-16.3h0v16.3h-3.8V8.1h6.5l4.6,15.1h0l4.3-15.1h6.3v20.7h-4.2V12.6h-.1l-5,16.3h-3.5Z"/>
      <path d="M87.9,28.9l-5.1-16.3h0v16.3h-3.8V8.1h6.5l4.5,15.1h0l4.3-15.1h6.3v20.7h-4.1V12.6h0l-5,16.3h-3.5Z"/>
      <path d="M108.4,8.1v20.7h-4.1V8.1h4.1Z"/>
      <path d="M114.7,21.3c.2,3.2,2.5,4.7,5.4,4.7s4.2-1,4.2-2.8-1.2-2.2-3.4-2.6l-4-.7c-3.2-.6-5.4-2.4-5.4-5.8s3-6.4,7.9-6.4,8.5,2.8,8.6,7.4h-3.8c0-2.7-2-4.2-4.8-4.2s-3.8,1.1-3.8,2.9,1.1,2,3,2.4l3.8.7c4.1.8,6,2.7,6,6s-3.5,6.3-8.2,6.3-9.2-2.8-9.2-7.8h3.7Z"/>
      <path d="M133.9,21.3c.2,3.2,2.5,4.7,5.4,4.7s4.2-1,4.2-2.8-1.2-2.2-3.4-2.6l-3.9-.7c-3.2-.6-5.5-2.4-5.5-5.8s3.1-6.4,7.9-6.4,8.5,2.8,8.5,7.4h-3.8c-.1-2.7-2-4.2-4.8-4.2s-3.8,1.1-3.8,2.9,1.1,2,3,2.4l3.8.7c4.1.8,6,2.7,6,6s-3.5,6.3-8.2,6.3-9.2-2.8-9.2-7.8h3.8Z"/>
      <path d="M154.5,8.1v20.7h-4.1V8.1h4.1Z"/>
      <path d="M167.7,29.2c-6.1,0-10.5-4.4-10.5-10.8s4.5-10.8,10.5-10.8,10.5,4.4,10.5,10.8-4.5,10.8-10.5,10.8ZM167.7,11.4c-3.8,0-6.2,2.8-6.2,7.1s2.4,7.1,6.2,7.1,6.2-2.8,6.2-7.1-2.4-7.1-6.2-7.1Z"/>
      <path d="M194.7,22v-13.9h3.8v20.7h-3.3l-10.6-14.6v14.6h-3.8V8.1h4.1l9.8,13.9Z"/>
    </g>
  </g>
</svg>