<?xml version="1.0" encoding="utf-8"?>
<!-- Generator: Adobe Illustrator 26.0.3, SVG Export Plug-In . SVG Version: 6.00 Build 0)  -->
<svg version="1.1" id="Layer_1" xmlns="http://www.w3.org/2000/svg" xmlns:xlink="http://www.w3.org/1999/xlink" x="0px" y="0px"
	 viewBox="0 0 206.5 37.4" style="enable-background:new 0 0 206.5 37.4;" xml:space="preserve">
<g>
	<path d="M120.6,37.4c-0.2,0-0.3,0-0.5,0c-2.6,0-5.2-0.5-7.7-1.5c-1.2,0.7-2.6,1.1-4,1.1h-4.1c-0.6,0-1.2-0.1-1.8-0.2
		c-0.6,0.1-1.2,0.2-1.8,0.2h-4.1c-0.9,0-1.7-0.1-2.6-0.4c-0.8,0.3-1.7,0.4-2.5,0.4h-3.5c-0.9,0-1.8-0.1-2.6-0.4
		c-0.8,0.3-1.7,0.4-2.6,0.4h-3.8c-0.6,0-1.2-0.1-1.8-0.2C76.5,37,75.9,37,75.3,37h-4.1c-0.9,0-1.7-0.1-2.6-0.4
		C67.8,36.9,66.9,37,66,37h-3.5c-0.9,0-1.8-0.2-2.6-0.4c-0.8,0.3-1.7,0.4-2.6,0.4h-3.8c-1.7,0-3.4-0.6-4.7-1.6c-2.6,1.3-5.5,2-8.4,2
		c-0.1,0-0.1,0-0.2,0c-3.9,0-7.7-1.2-10.8-3.5c-3.2,2.4-7.1,3.6-11.1,3.5C7.9,37.4,0,29.3,0,18.7C0,8,7.9,0,18.4,0
		c3.9-0.1,7.8,1.2,11,3.5c3.2-2.3,7-3.6,11-3.5c2.9,0,5.8,0.7,8.4,2c1.4-1,3-1.6,4.7-1.6c0,0,0,0,0,0H60c0,0,0,0,0,0
		c1.6,0,3.2,0.5,4.5,1.4c1.3-0.9,2.9-1.4,4.5-1.4h6.3c0.6,0,1.2,0.1,1.8,0.2c0.6-0.1,1.2-0.2,1.8-0.2h6.5c1.6,0,3.2,0.5,4.5,1.4
		c1.3-0.9,2.9-1.4,4.5-1.4h6.3c0.6,0,1.2,0.1,1.8,0.2c0.6-0.1,1.2-0.2,1.8-0.2h4.1c0,0,0,0,0,0c1.3,0,2.7,0.3,3.8,1
		c2.3-0.9,4.7-1.4,7.2-1.4c3.3-0.1,6.7,0.8,9.6,2.6c2.8-1.8,6.2-2.7,9.5-2.6c2.6,0,5.2,0.5,7.6,1.6c1.2-0.8,2.7-1.2,4.2-1.2h4.1
		c1.7,0,3.4,0.6,4.8,1.6c5.3-2.6,11.6-2.6,16.9,0c1.4-1,3-1.6,4.7-1.6c0,0,0,0,0,0h4.1c1.8,0,3.5,0.6,4.9,1.7
		c1.4-1.1,3.1-1.7,4.9-1.7c0,0,0,0,0,0h3.8c4.4,0,8,3.6,8,7.9V29c0,0,0,0.1,0,0.1c0,4.4-3.6,7.9-7.9,7.9c0,0,0,0-0.1,0h-3.3
		c0,0,0,0,0,0c-2,0-3.8-0.7-5.3-2c-1.4,1.3-3.3,2-5.3,2c0,0,0,0,0,0h-3.8c0,0,0,0,0,0c-1.7,0-3.4-0.6-4.7-1.6
		c-5.3,2.6-11.6,2.6-16.9,0c-1.4,1-3,1.6-4.7,1.6h-4.1c-1.3,0-2.6-0.3-3.8-1c-5.5,2.2-11.7,1.7-16.9-1.1
		C126.9,36.6,123.8,37.4,120.6,37.4z M120.1,34.4c3.1,0.1,6.1-0.8,8.7-2.5c0.5-0.3,1.1-0.3,1.6,0c4.7,2.9,10.6,3.3,15.7,1.1
		c0.5-0.2,1-0.2,1.5,0.1c0.8,0.6,1.8,0.9,2.8,0.9h4.1c1.3,0,2.5-0.5,3.5-1.5c0.5-0.5,1.2-0.6,1.8-0.3c4.9,2.8,10.9,2.8,15.8,0
		c0.6-0.3,1.3-0.2,1.8,0.2c0.9,0.9,2.2,1.4,3.5,1.4c0,0,0,0,0,0h3.8c0,0,0,0,0,0c1.6,0,3.1-0.8,4.1-2.1c0.3-0.4,0.7-0.6,1.2-0.6
		c0.5,0,0.9,0.2,1.2,0.6l0.1,0.1c0.9,1.3,2.4,2.1,4,2.1c0,0,0,0,0,0h3.3c0,0,0,0,0,0c2.7,0,4.9-2.2,5-4.9V8.3c0-2.7-2.2-4.9-4.9-4.9
		l0-1.5v1.5h-3.8c0,0,0,0,0,0c-1.4,0-2.8,0.6-3.8,1.7c-0.3,0.3-0.7,0.5-1.1,0.5c0,0,0,0,0,0c-0.4,0-0.9-0.2-1.1-0.5
		c-0.9-1.1-2.3-1.7-3.8-1.7h-4.1c0,0,0,0,0,0c-1.3,0-2.5,0.5-3.5,1.4c-0.5,0.5-1.2,0.6-1.8,0.2c-4.9-2.8-10.9-2.8-15.8,0
		c-0.6,0.3-1.3,0.2-1.8-0.2c-0.9-0.9-2.2-1.4-3.5-1.5h-4.1c0,0,0,0,0,0c-1.1,0-2.2,0.4-3,1.1c-0.5,0.4-1.1,0.4-1.6,0.2
		c-2.2-1.1-4.7-1.7-7.1-1.6c-3.1-0.1-6.1,0.9-8.6,2.6c-0.5,0.4-1.2,0.4-1.7,0c-2.5-1.8-5.7-2.7-8.8-2.6c-2.3,0-4.6,0.5-6.7,1.4
		c-0.5,0.2-1.1,0.2-1.5-0.1c-0.8-0.6-1.8-0.9-2.8-0.9c0,0,0,0,0,0h-4.1c-0.5,0-0.9,0.1-1.4,0.2c-0.3,0.1-0.6,0.1-0.9,0
		c-0.5-0.1-0.9-0.2-1.4-0.2h-6.3c-1.3,0-2.5,0.5-3.4,1.4c-0.6,0.6-1.5,0.6-2.1,0c-0.9-0.9-2.1-1.4-3.4-1.4h-6.5
		c-0.5,0-0.9,0.1-1.4,0.2c-0.3,0.1-0.6,0.1-0.9,0c-0.4-0.1-0.9-0.2-1.4-0.2H69c-1.3,0-2.5,0.5-3.5,1.4c-0.6,0.6-1.5,0.6-2.1,0
		c-0.9-0.9-2.2-1.4-3.4-1.4h-6.5c0,0,0,0,0,0c-1.3,0-2.6,0.5-3.5,1.4c-0.5,0.5-1.2,0.6-1.8,0.2C45.9,3.7,43.2,3,40.5,3
		c-0.1,0-0.2,0-0.2,0c-3.6,0-7.1,1.3-9.9,3.6C29.8,7,29,7,28.4,6.6c-2.8-2.4-6.3-3.6-10-3.6C9.6,3,3,9.7,3,18.7
		c0,8.9,6.6,15.7,15.3,15.7c3.7,0.1,7.3-1.1,10.1-3.5c0.6-0.5,1.4-0.5,1.9,0c2.8,2.3,6.4,3.6,10,3.6c0,0,0,0,0,0
		c2.8,0,5.5-0.7,7.9-2.1c0.6-0.3,1.3-0.2,1.8,0.2c0.9,0.9,2.2,1.4,3.5,1.4h3.8c0.7,0,1.4-0.1,2-0.4c0.4-0.2,0.8-0.2,1.2,0
		c0.6,0.3,1.3,0.4,2,0.4h3.5c0.7,0,1.4-0.1,2-0.4c0.4-0.2,0.8-0.1,1.2,0c0.6,0.3,1.3,0.4,1.9,0.4c0,0,0,0,0,0h4.1
		c0.5,0,0.9-0.1,1.4-0.2c0.3-0.1,0.6-0.1,0.9,0C78,34,78.5,34,78.9,34h3.8c0.7,0,1.4-0.1,2-0.4c0.4-0.2,0.8-0.2,1.2,0
		c0.6,0.3,1.3,0.4,2,0.4h3.5c0.7,0,1.3-0.1,1.9-0.4c0.4-0.2,0.8-0.2,1.2,0c0.6,0.3,1.3,0.4,2,0.4h4.1c0.5,0,0.9-0.1,1.4-0.2
		c0.3-0.1,0.6-0.1,0.9,0c0.5,0.1,0.9,0.2,1.4,0.2h4.1c1.1,0,2.1-0.4,3-1c0.4-0.3,1-0.4,1.5-0.2C115.2,33.9,117.6,34.5,120.1,34.4z"
		/>
</g>
<path d="M18.3,7.8c6.1,0,9.5,3.9,9.9,9.1l-4,0.2c-0.3-3.1-2.1-5.6-5.9-5.6s-6.1,2.8-6.1,7.1s2.4,7.1,6.1,7.1s5.7-2.5,6-5.6l4,0.2
	c-0.4,5.3-3.8,9.1-9.9,9.1C12.5,29.2,8,24.9,8,18.5S12.4,7.8,18.3,7.8z"/>
<path d="M40.4,29.2c-6,0-10.5-4.4-10.5-10.8S34.3,7.8,40.4,7.8s10.5,4.4,10.5,10.8S46.4,29.2,40.4,29.2z M40.4,11.4
	c-3.8,0-6.2,2.8-6.2,7.1s2.4,7.1,6.2,7.1s6.2-2.8,6.2-7.1S44.2,11.4,40.4,11.4z"/>
<path d="M62.5,28.9l-5.1-16.3h-0.1v16.3h-3.8V8.1H60l4.6,15.1h0.1L69,8.1h6.3v20.7h-4.2V12.6H71l-5,16.3H62.5z"/>
<path d="M87.9,28.9l-5.1-16.3h-0.1v16.3h-3.8V8.1h6.5l4.5,15.1H90l4.3-15.1h6.3v20.7h-4.1V12.6h-0.1l-5,16.3H87.9z"/>
<path d="M108.4,8.1v20.7h-4.1V8.1H108.4z"/>
<path d="M114.7,21.3c0.2,3.2,2.5,4.7,5.4,4.7c2.6,0,4.2-1,4.2-2.8c0-1.6-1.2-2.2-3.4-2.6l-4-0.7c-3.2-0.6-5.4-2.4-5.4-5.8
	c0-3.9,3-6.4,7.9-6.4c5.4,0,8.5,2.8,8.6,7.4l-3.8,0.1c-0.1-2.8-2-4.3-4.8-4.3c-2.4,0-3.8,1.1-3.8,2.9c0,1.5,1.1,2,3,2.4l3.8,0.7
	c4.1,0.8,6,2.7,6,6c0,4.1-3.5,6.3-8.2,6.3c-5.3,0-9.2-2.8-9.2-7.8L114.7,21.3z"/>
<path d="M133.9,21.3c0.2,3.2,2.5,4.7,5.4,4.7c2.6,0,4.2-1,4.2-2.8c0-1.6-1.2-2.2-3.4-2.6l-3.9-0.7c-3.2-0.6-5.5-2.4-5.5-5.8
	c0-3.9,3.1-6.4,7.9-6.4c5.4,0,8.5,2.8,8.5,7.4l-3.8,0.1c-0.1-2.8-2-4.3-4.8-4.3c-2.4,0-3.8,1.1-3.8,2.9c0,1.5,1.1,2,3,2.4l3.8,0.7
	c4.1,0.8,6,2.7,6,6c0,4.1-3.5,6.3-8.2,6.3c-5.3,0-9.2-2.8-9.2-7.8L133.9,21.3z"/>
<path d="M154.5,8.1v20.7h-4.1V8.1H154.5z"/>
<path d="M167.7,29.2c-6.1,0-10.5-4.4-10.5-10.8s4.5-10.8,10.5-10.8s10.5,4.4,10.5,10.8S173.7,29.2,167.7,29.2z M167.7,11.4
	c-3.8,0-6.2,2.8-6.2,7.1s2.4,7.1,6.2,7.1s6.2-2.8,6.2-7.1S171.5,11.4,167.7,11.4z"/>
<path d="M194.7,22V8.1h3.8v20.7h-3.3l-10.6-14.6v14.6h-3.8V8.1h4.1L194.7,22z"/>
</svg>
