<?xml version="1.0" encoding="utf-8"?>
<!-- Generator: Adobe Illustrator 26.0.3, SVG Export Plug-In . SVG Version: 6.00 Build 0)  -->
<svg version="1.1" id="Layer_1" xmlns="http://www.w3.org/2000/svg" xmlns:xlink="http://www.w3.org/1999/xlink" x="0px" y="0px"
	 viewBox="0 0 177.9 37.4" style="enable-background:new 0 0 177.9 37.4;" xml:space="preserve">
<g>
	<path d="M161.3,37.4c-3.7,0-7.4-1.2-10.4-3.4c-1.5,1.9-3.8,3-6.2,3h-4.1c0,0,0,0,0,0c-2.6,0-4.9-1.2-6.4-3.2
		c-3.2,2.5-7.1,3.7-11.2,3.6c-2.3,0-4.7-0.4-6.9-1.3c-1.1,0.6-2.4,0.9-3.6,0.8h-4.4c-2.6,0-5-1.2-6.5-3.3c-1.5,2-3.8,3.3-6.4,3.3
		c0,0,0,0,0,0H91c-1,0-2-0.2-2.9-0.5c-0.9,0.4-1.9,0.5-2.9,0.5h-4.1c-1.8,0-3.6-0.6-4.9-1.7c-1.4,1.1-3.1,1.7-5,1.7c0,0,0,0-0.1,0
		h-3.3c-2,0-3.8-0.7-5.3-2c-1.4,1.3-3.3,2-5.3,2h-3.8c-1.7,0-3.4-0.6-4.7-1.6c-2.6,1.3-5.5,2-8.4,2c-0.1,0-0.1,0-0.2,0
		c-3.9,0-7.7-1.2-10.8-3.5c-3.2,2.4-7.1,3.6-11.1,3.5C7.9,37.4,0,29.3,0,18.7C0,8,7.9,0,18.4,0c3.9-0.1,7.8,1.2,11,3.5
		c3.2-2.3,7-3.6,11-3.5c2.9,0,5.8,0.7,8.4,2c1.4-1,3-1.6,4.7-1.6h4.1c1.8,0,3.5,0.6,4.9,1.7c1.4-1.1,3.1-1.7,4.9-1.7c0,0,0,0,0,0
		h3.8c0.5,0,0.9,0,1.3,0.1c0.4,0,0.9,0,1.3,0h18.8c0,0,0,0,0,0c1.2,0,2.3,0.3,3.3,0.7c1-0.5,2.2-0.8,3.3-0.8h4.6c0,0,0,0,0,0
		c2.9,0,5.5,1.5,6.9,4c3.3-2.9,7.6-4.4,12-4.4c2.3,0,4.6,0.4,6.8,1.2c1.1-0.5,2.2-0.8,3.4-0.8h18.8c1,0,2,0.2,3,0.6c2-0.7,4-1,6.1-1
		c9.7,0,16.4,6.1,16.5,15.2c0.1,1-0.1,2-0.4,3c0.6,1.6,0.9,3.3,0.9,5.1c0,8.4-6.6,14.2-16.1,14.2C161.7,37.4,161.5,37.4,161.3,37.4z
		 M150.5,30.3c0.4,0,0.7,0.1,1,0.4c2.9,2.5,6.5,3.9,10.4,3.7c7.8,0,13.2-4.6,13.2-11.2c0-1.5-0.3-3.1-0.9-4.5
		c-0.2-0.4-0.2-0.8,0-1.2c0.3-0.7,0.4-1.5,0.4-2.2c0,0,0-0.1,0-0.1C174.4,7.8,169.1,3,161,3c-1.9,0-3.8,0.3-5.6,1
		c-0.4,0.1-0.8,0.1-1.2-0.1c-0.7-0.3-1.5-0.5-2.2-0.5h-18.8c-0.9,0-1.8,0.3-2.5,0.8c-0.4,0.3-0.9,0.3-1.4,0.1
		c-2-0.8-4.1-1.3-6.3-1.2c-4.4,0-8.5,1.7-11.4,5c-0.3,0.4-0.9,0.6-1.4,0.5c-0.5-0.1-0.9-0.4-1.1-0.9l-0.4-1.1
		c-0.8-1.9-2.6-3.1-4.6-3.1c0,0,0,0,0,0h-4.5c-0.9,0-1.8,0.3-2.5,0.8c-0.5,0.3-1.1,0.3-1.6,0c-0.8-0.5-1.7-0.7-2.6-0.7c0,0,0,0,0,0
		H73.8c0,0-0.1,0-0.1,0c-0.3,0-0.7,0-1,0c-0.2,0-0.3,0-0.5,0c-0.3-0.1-0.7-0.1-1-0.1h-3.8c0,0,0,0,0,0c-1.4,0-2.8,0.6-3.7,1.7
		c-0.3,0.3-0.7,0.5-1.1,0.5c0,0,0,0,0,0c-0.4,0-0.9-0.2-1.1-0.5c-0.9-1.1-2.3-1.7-3.8-1.7h-4.1c-1.3,0-2.6,0.5-3.5,1.5
		c-0.5,0.5-1.2,0.6-1.8,0.2C45.9,3.7,43.2,3,40.4,3c-0.1,0-0.1,0-0.2,0c-3.6,0-7.1,1.3-9.9,3.6C29.8,7,29,7,28.4,6.6
		c-2.8-2.4-6.3-3.6-10-3.6C9.6,3,3,9.7,3,18.7c0,8.9,6.6,15.7,15.3,15.7c3.7,0.1,7.3-1.1,10.1-3.5c0.6-0.5,1.4-0.5,1.9,0
		c2.8,2.3,6.4,3.6,10,3.6c0,0,0,0,0,0c2.8,0,5.5-0.7,7.9-2.1c0.6-0.3,1.3-0.2,1.8,0.2c0.9,0.9,2.2,1.4,3.5,1.4h3.8
		c1.6,0,3.1-0.8,4.1-2.1c0.3-0.4,0.8-0.6,1.2-0.6c0.5,0,1,0.3,1.2,0.7L64,32c0.9,1.2,2.4,2,4,2h3.3c0,0,0,0,0,0
		c1.5,0,2.9-0.6,3.8-1.8c0.6-0.7,1.7-0.7,2.3,0c0.9,1.1,2.3,1.8,3.8,1.8h4.1c0.8,0,1.5-0.2,2.2-0.5c0.4-0.2,0.9-0.2,1.3,0
		c0.7,0.3,1.4,0.5,2.2,0.5h4.1c0,0,0,0,0,0c2,0,3.9-1.2,4.6-3.1l0.4-1c0.2-0.6,0.8-0.9,1.4-0.9s1.2,0.4,1.5,0.9l0.5,1.1
		c0.8,1.9,2.6,3.1,4.6,3.1c0,0,0,0,0,0h4.4c1,0,1.9-0.3,2.7-0.8c0.4-0.3,0.9-0.3,1.4-0.1c2,0.9,4.2,1.3,6.4,1.3
		c4,0.1,7.7-1.3,10.6-4c0.4-0.3,0.9-0.5,1.4-0.4c0.5,0.1,0.9,0.4,1.1,0.9c0.8,1.9,2.5,3.1,4.6,3.1c0,0,0,0,0,0h4.1
		c1.9,0,3.7-1.1,4.5-2.9c0.2-0.4,0.6-0.7,1.1-0.8C150.3,30.3,150.4,30.3,150.5,30.3z"/>
</g>
<path d="M18.3,7.8c6.1,0,9.5,3.8,9.9,9.1L24.2,17c-0.3-3.1-2.1-5.6-5.9-5.6s-6.1,2.8-6.1,7.1s2.4,7.1,6.1,7.1s5.7-2.5,5.9-5.6
	l3.9,0.2c-0.4,5.3-3.8,9.1-9.9,9.1c-5.9,0-10.4-4.4-10.4-10.8S12.4,7.8,18.3,7.8z"/>
<path d="M40.4,29.2c-6,0-10.5-4.4-10.5-10.8S34.3,7.8,40.4,7.8s10.5,4.4,10.5,10.8S46.4,29.2,40.4,29.2z M40.4,11.4
	c-3.8,0-6.2,2.8-6.2,7.1s2.4,7.1,6.2,7.1s6.2-2.8,6.2-7.1S44.2,11.4,40.4,11.4z"/>
<path d="M67.4,22V8.1h3.8v20.7H68L57.4,14.3v14.6h-3.8V8.1h4.1L67.4,22z"/>
<path d="M81.1,28.9V11.6h-7.3V8.1h18.9v3.4h-7.4v17.3H81.1z"/>
<path d="M103.9,8.1l8.4,20.7H108l-2.1-5.1h-8.8l-2,5.1H91l8.3-20.7H103.9z M98.4,20.6h6.3l-3.1-7.8h-0.1L98.4,20.6z"/>
<path d="M122.8,7.8c6.1,0,9.5,3.8,9.9,9.1l-3.9,0.2c-0.3-3.1-2.1-5.6-5.9-5.6s-6.1,2.8-6.1,7.1s2.4,7.1,6.1,7.1s5.6-2.5,5.9-5.6
	l3.9,0.2c-0.4,5.3-3.8,9.1-9.9,9.1c-5.9,0-10.4-4.4-10.4-10.8S117,7.8,122.8,7.8z"/>
<path d="M140.4,28.9V11.6h-7.3V8.1H152v3.4h-7.4v17.3H140.4z"/>
<path d="M156.4,21.3c0.2,3.2,2.5,4.7,5.4,4.7c2.6,0,4.2-1,4.2-2.8c0-1.6-1.2-2.2-3.4-2.6l-3.9-0.7c-3.2-0.6-5.5-2.4-5.5-5.8
	c0-3.9,3.1-6.4,7.9-6.4c5.4,0,8.5,2.8,8.6,7.4l-3.8,0.1c-0.1-2.8-2-4.3-4.8-4.3c-2.4,0-3.8,1.1-3.8,2.9c0,1.5,1.1,2,3,2.4l3.8,0.7
	c4.1,0.8,6,2.7,6,6c0,4.1-3.5,6.3-8.2,6.3c-5.3,0-9.2-2.8-9.2-7.8L156.4,21.3z"/>
</svg>
