<?xml version="1.0" encoding="UTF-8"?>
<svg xmlns="http://www.w3.org/2000/svg" version="1.1" viewBox="0 0 177.9 37.4">
  <defs>
    <style>
      .cls-1 {
        fill: #fff;
      }
    </style>
  </defs>
  <!-- Generator: Adobe Illustrator 28.6.0, SVG Export Plug-In . SVG Version: 1.2.0 Build 709)  -->
  <g>
    <g id="Layer_1">
      <polygon class="cls-1" points="67 1.8 93.6 1.8 96.3 3 99.3 1.8 107 2.4 110.6 7 119.8 1.2 129.7 3 132.7 1.7 152.7 1.7 155.8 3 162.5 1.2 172.6 5.3 176.3 14.1 176.3 28 165.8 36.4 155.7 35.5 150.7 32.2 146 35.7 137.4 35.1 134.9 32.4 123.7 36.4 115.4 35 106.5 35.8 101.6 31 97.6 35.5 79.2 35.5 75.9 33.7 73.2 35.5 65 35.5 62.4 33.2 58.4 35.9 51.5 35.9 48.9 33.9 39 36.4 29 32.6 17.6 36.4 6.5 31.6 1.3 20.3 5.1 7 15.9 1.2 29.9 4.5 39 1.5 49.3 3.8 52 1.8 60.5 2.2 62.9 3.8 67 1.8"/>
      <path d="M161.3,37.4c-3.7,0-7.4-1.2-10.4-3.4-1.5,1.9-3.8,3-6.2,3h-4.1c-2.6,0-4.9-1.2-6.4-3.2-3.2,2.5-7.1,3.7-11.2,3.6-2.3,0-4.7-.4-6.9-1.3-1.1.6-2.4.9-3.6.8h-4.4c-2.6,0-5-1.2-6.5-3.3-1.5,2-3.8,3.3-6.4,3.3h-4.2c-1,0-2-.2-2.9-.5-.9.4-1.9.5-2.9.5h-4.1c-1.8,0-3.6-.6-4.9-1.7-1.4,1.1-3.1,1.7-5,1.7h-3.4c-2,0-3.8-.7-5.3-2-1.4,1.3-3.3,2-5.3,2h-3.8c-1.7,0-3.4-.6-4.7-1.6-2.6,1.3-5.5,2-8.4,2h-.2c-3.9,0-7.7-1.2-10.8-3.5-3.2,2.4-7.1,3.6-11.1,3.5C7.9,37.4,0,29.3,0,18.7S7.9,0,18.4,0c3.9-.1,7.8,1.2,11,3.5C32.6,1.2,36.4,0,40.4,0,43.3,0,46.2.7,48.8,2c1.4-1,3-1.6,4.7-1.6h4.1c1.8,0,3.5.6,4.9,1.7,1.4-1.1,3.1-1.7,4.9-1.7h3.8c.5,0,.9,0,1.3,0h20.1c1.2,0,2.3.3,3.3.7,1-.5,2.2-.8,3.3-.8h4.6c2.9,0,5.5,1.5,6.9,4C114,1.5,118.3,0,122.7,0s4.6.4,6.8,1.2c1.1-.5,2.2-.8,3.4-.8h18.8c1,0,2,.2,3,.6C156.7.3,158.7,0,160.8,0,170.5,0,177.2,6.1,177.3,15.2c.1,1-.1,2-.4,3,.6,1.6.9,3.3.9,5.1,0,8.4-6.6,14.2-16.1,14.2,0,0-.2,0-.4,0ZM150.5,30.3c.4,0,.7.1,1,.4,2.9,2.5,6.5,3.9,10.4,3.7,7.8,0,13.2-4.6,13.2-11.2s-.3-3.1-.9-4.5c-.2-.4-.2-.8,0-1.2.3-.7.4-1.5.4-2.2h0c-.2-7.5-5.5-12.3-13.6-12.3s-3.8.3-5.6,1c-.4,0-.8,0-1.2,0-.7-.3-1.5-.5-2.2-.5h-18.8c-.9,0-1.8.3-2.5.8-.4.3-.9.3-1.4,0-2-.8-4.1-1.3-6.3-1.2-4.4,0-8.5,1.7-11.4,5-.3.4-.9.6-1.4.5s-.9-.4-1.1-.9l-.4-1.1c-.8-1.9-2.6-3.1-4.6-3.1h-4.5c-.9,0-1.8.3-2.5.8-.5.3-1.1.3-1.6,0-.8-.5-1.7-.7-2.6-.7h-20.7c-.3,0-.7,0-1,0h-3.8c-1.4,0-2.8.6-3.7,1.7-.3.3-.7.5-1.1.5h0c-.4,0-.9-.2-1.1-.5-.9-1.1-2.3-1.7-3.8-1.7h-4.1c-1.3,0-2.6.5-3.5,1.5-.5.5-1.2.6-1.8.2-2.4-1.5-5.1-2.2-7.9-2.2h-.2c-3.6,0-7.1,1.3-9.9,3.6-.5.4-1.3.4-1.9,0-2.8-2.4-6.3-3.6-10-3.6-8.8,0-15.4,6.7-15.4,15.7s6.6,15.7,15.3,15.7c3.7,0,7.3-1.1,10.1-3.5.6-.5,1.4-.5,1.9,0,2.8,2.3,6.4,3.6,10,3.6h0c2.8,0,5.5-.7,7.9-2.1.6-.3,1.3-.2,1.8.2.9.9,2.2,1.4,3.5,1.4h3.8c1.6,0,3.1-.8,4.1-2.1.3-.4.8-.6,1.2-.6s1,.3,1.2.7h.2c.9,1.2,2.4,2,4,2h3.3c1.5,0,2.9-.6,3.8-1.8.6-.7,1.7-.7,2.3,0,.9,1.1,2.3,1.8,3.8,1.8h4.1c.8,0,1.5-.2,2.2-.5.4-.2.9-.2,1.3,0,.7.3,1.4.5,2.2.5h4.1c2,0,3.9-1.2,4.6-3.1l.4-1c.2-.6.8-.9,1.4-.9s1.2.4,1.5.9l.5,1.1c.8,1.9,2.6,3.1,4.6,3.1h4.4c1,0,1.9-.3,2.7-.8.4-.3.9-.3,1.4,0,2,.9,4.2,1.3,6.4,1.3,4,0,7.7-1.3,10.6-4,.4-.3.9-.5,1.4-.4s.9.4,1.1.9c.8,1.9,2.5,3.1,4.6,3.1h4.1c1.9,0,3.7-1.1,4.5-2.9.2-.4.6-.7,1.1-.8-.1-.1,0-.1,0-.1Z"/>
      <path d="M18.3,7.8c6.1,0,9.5,3.8,9.9,9.1h-4c-.3-3-2.1-5.5-5.9-5.5s-6.1,2.8-6.1,7.1,2.4,7.1,6.1,7.1,5.7-2.5,5.9-5.6l3.9.2c-.4,5.3-3.8,9.1-9.9,9.1s-10.4-4.4-10.4-10.8,4.6-10.7,10.5-10.7Z"/>
      <path d="M40.4,29.2c-6,0-10.5-4.4-10.5-10.8s4.4-10.6,10.5-10.6,10.5,4.4,10.5,10.8-4.5,10.6-10.5,10.6ZM40.4,11.4c-3.8,0-6.2,2.8-6.2,7.1s2.4,7.1,6.2,7.1,6.2-2.8,6.2-7.1-2.4-7.1-6.2-7.1Z"/>
      <path d="M67.4,22v-13.9h3.8v20.7h-3.2l-10.6-14.5v14.6h-3.8V8.1h4.1l9.7,13.9Z"/>
      <path d="M81.1,28.9V11.6h-7.3v-3.5h18.9v3.4h-7.4v17.3h-4.2Z"/>
      <path d="M103.9,8.1l8.4,20.7h-4.3l-2.1-5.1h-8.8l-2,5.1h-4.1l8.3-20.7h4.6ZM98.4,20.6h6.3l-3.1-7.8h0l-3.1,7.8Z"/>
      <path d="M122.8,7.8c6.1,0,9.5,3.8,9.9,9.1l-3.9.2c-.3-3.1-2.1-5.6-5.9-5.6s-6.1,2.8-6.1,7.1,2.4,7.1,6.1,7.1,5.6-2.5,5.9-5.6l3.9.2c-.4,5.3-3.8,9.1-9.9,9.1s-10.4-4.4-10.4-10.8,4.6-10.8,10.4-10.8Z"/>
      <path d="M140.4,28.9V11.6h-7.3v-3.5h18.9v3.4h-7.4v17.3h-4.2Z"/>
      <path d="M156.4,21.3c.2,3.2,2.5,4.7,5.4,4.7s4.2-1,4.2-2.8-1.2-2.2-3.4-2.6l-3.9-.7c-3.2-.6-5.5-2.4-5.5-5.8s3.1-6.4,7.9-6.4,8.5,2.8,8.6,7.4h-3.8c-.1-2.7-2-4.2-4.8-4.2s-3.8,1.1-3.8,2.9,1.1,2,3,2.4l3.8.7c4.1.8,6,2.7,6,6s-3.5,6.3-8.2,6.3-9.2-2.8-9.2-7.8h3.7Z"/>
    </g>
  </g>
</svg>