<?xml version="1.0" encoding="UTF-8"?>
<svg xmlns="http://www.w3.org/2000/svg" version="1.1" viewBox="0 0 818 145.1">
  <!-- Generator: Adobe Illustrator 28.6.0, SVG Export Plug-In . SVG Version: 1.2.0 Build 709)  -->
  <g>
    <g id="a">
      <path d="M133.5,95.9c.9-2.4,2.4-4.5,2.3-6.6,0-2.1-1.7-4-2.7-6.2,4-3.7,4.1-6.8,0-11.3,3.5-3.7,4.1-7.3,1.3-10-1.1-1-2.6-1.8-4.1-2.1-2.9-.5-5,1.2-6.7,3.5-1.7-2.5-3.8-4.2-6.5-3.5-2.2.6-4.2,2.2-5.9,3.2-1.9-1-3.9-3-6.1-3.1-2.2-.1-4.5,1.5-7.1,2.5-3.8-4.2-7.5-4-11.6,1.2-4.3-5.3-8.1-5.3-12.5,0-3.4-4.2-7.2-5.1-10.4-2.4-3.3,2.8-3,6.4.1,10.2-.9,2.4-2.3,4.4-2.3,6.4,0,2,1.5,3.9,2.4,6.1-3.3,3.3-3.7,7.4-.4,10,1.3,1,3.1,1.6,4.8,1.7,2.7.1,4.4-1.8,5.8-4,3.8,5.6,8.6,5.6,12.6,0,1.3,2.3,3.1,4,5.8,4.1,2.7.2,4.7-1.2,6.2-3.4.8,1,1.3,1.8,2,2.7-3.6,1.7-4.8,4.6-4.2,8.4-5-.7-7.7,1.5-8.9,5.9-5.6-2.5-7.5-2.1-10.6,1.9-2.2-.9-4.2-2.3-6.2-2.3-2,0-4,1.6-6.1,2.5-2.3-4.6-4.8-5.6-9.6-3.9-1.3-1.8-2.2-4-3.8-5.1-1.6-1.1-3.9-1-6-1.4,1.3-4.9,0-7.3-4.8-9.3.2-2.3.9-4.5.3-6.4-.6-1.8-2.4-3.3-3.8-5.1,3.4-4.5,3.2-7.1-1.5-11.3,5-3.4,5.6-6.7,1.8-11.6,5.4-2.8,6.2-4.6,4.5-10.5,5.4-.7,6.8-2.2,7.5-8,5.5.8,7.4-.2,9.3-5,2.1.4,4.1,1.4,6,1.1,1.9-.3,3.5-1.8,4.8-2.5,1.9.9,3.8,2.5,5.7,2.6,2,.1,4.1-1.2,6.3-1.9,2.9,4.2,4.7,4.9,9.6,3.2.8,1.8,1.2,3.9,2.5,5.2,1.3,1.3,3.5,1.8,5.3,2.7-1.4,4-.7,7,2.3,8.9,2.9,1.8,5.8,1.2,8.6-1.6,2.4.9,4.5,2.4,6.5,2.3,2,0,4-1.7,6.2-2.7,2.5,2.9,5.2,3.7,8.3,2.4,2.8-1.2,4.2-3.9,3.8-7.1-.4-3-2.6-4.9-6.7-5.6,3.1-6,2-9-4.3-11.6,2.6-6.5-.6-10.6-8.1-10.1.3-2.8-.3-5.3-2.8-7-2.4-1.7-5-1.3-7.5-.2-1.2-7.1-6-8.9-12.1-4.6-.7-2.7-2-4.8-4.8-5.6-2.8-.9-5.1.3-7.1,2.2-4-5.4-8.4-5.3-12.5.1C67.2,1.7,65.3,0,62.3,0c-3.1,0-4.9,2-6.2,4.6-5.8-4.5-10.3-3.1-12.3,3.7-6-2.8-9.3-1.1-11.1,5.9-2.7-1.1-5.6-1.3-7.4,1.1-1.5,1.9-2,4.6-3.1,7.1-6.2-.3-8.9,4.2-7.1,10-2.8,0-5.3.8-6.8,3.4-1.5,2.6-.9,5.1.7,7.6-2.9.6-4.9,2.1-5.8,4.8-.8,2.8.4,5.1,2.4,7.2-2.8,1.1-4.7,2.8-5.1,5.6-.4,2.9,1,5.1,3.3,6.8-2.5,1.7-4.1,3.7-3.9,6.5.2,2.8,1.9,4.6,4.5,5.9-2.3,1.9-3.5,4.1-2.9,6.9.6,2.9,2.7,4.4,5.3,5.3-4.5,5.6-2.8,10.3,4.4,12.2-1.5,2.4-2,5-.4,7.5,1.6,2.6,4.1,3.3,7.1,3.2-.9,2.9-.7,5.4,1.3,7.5,2,2,4.4,2.3,7,1.7.5,7,4.5,9.2,11,6.5,0,3,1.1,5.4,3.9,6.7,2.8,1.3,5.3.5,7.5-1.3,3,6.4,7.2,7.1,12.5,2.4,4,5.6,8.5,5.4,12.7-.4,5.5,5.2,10.1,4.4,12.7-2.4,6,3.4,9.7,1.8,11.6-4.9,1,.3,2.1.6,3.1.9-2.1,4.2-1.6,7.3,1.2,9.5,2.9,2.2,5.8,1.7,9.1-1.2,2.3.9,4.4,2.3,6.4,2.3,2,0,3.9-1.5,6.1-2.4,3.1,3.1,7,3.7,9.7.8,1.1-1.1,1.8-2.8,2-4.4.4-2.7-1.3-4.7-3.4-6.2,4.6-4.4,4.6-7.5.9-11.3.9-2.4,2.4-4.5,2.3-6.5,0-2.1-1.7-4-2.7-6.2,4-3.8,4.1-6.9.4-10.8h0Z"/>
      <path d="M653.7,107.5c1-2.3,2.6-4.3,2.7-6.3,0-2-1.5-4.1-2.1-5.7.8-2.1,2.2-4.1,2.1-6.1-.1-2.1-1.7-4.1-2.5-5.8.8-1.9,2.4-3.9,2.5-6,0-2-1.5-4.1-2.4-6.3,3.3-3.2,3.5-7.2.4-10.1-3.2-2.9-7-2-10.6,2.2-3.1-4.7-8.3-5.8-12.5,0-4.2-5.3-7.9-5.3-12.6,0-1.3-2.3-3.2-4.3-5.9-3.9-2.3.3-4.4,1.7-6.8,2.7-3.8-4.2-7.4-4-11.7,1.1-3.3-4.2-7-5.1-10.2-2.5-3.4,2.7-3.3,6.4,0,10.3-.9,2.4-2.3,4.4-2.3,6.4,0,2,1.5,3.9,2.5,6.1-3.2,3.2-3.7,7.2-.6,9.9,1.2,1,3.1,1.7,4.7,1.8,2.8.2,4.6-1.8,6-4.1,1.4,2.6,3.3,4.5,6,4.1,2.3-.3,4.4-1.7,6.8-2.7,3.7,4.2,7.3,4.1,11.6-.9.7,1,1.4,2,2.1,3.1-3.7,1.8-4.8,4.7-4.2,7.9-2.3.5-4.5.6-6.1,1.6-1.6,1-2.4,3.1-3.6,4.7-4.6-2.5-7-2-10.2,2.1-2.1-.9-4-2.3-5.9-2.3-1.9,0-3.9,1.2-5.5,1.8-1.6-1.2-3.1-3-4.9-3.6-1.8-.5-4.1.2-6.2.4-.5-4.8-3.7-6.6-8.5-6.4,1.1-5.4,0-7.4-5.4-9.7,2.5-5,1.7-7.7-3-10.5.7-2.2,1.9-4.3,1.7-6.3-.2-2-1.8-3.8-2.8-5.8,1.9-.9,3.9-2.5,3.9-5,0-2.2-1-4.4-1.6-6.7,4.7-2.1,5.7-4.5,4-9.7,1.8-1,3.9-1.6,5-3,1.2-1.4,1.6-3.6,2.1-5,2-.4,4.3-.3,5.9-1.2,1.6-.9,2.6-3,3.5-4.1,2.1.3,4.3,1.2,6.2.8,1.9-.4,3.5-2.2,4.7-3,1.8,1.1,3.7,2.8,5.7,3.1,2,.2,4.2-1.1,6.5-1.8,2.7,4,4.2,4.6,9.5,3.4.9,5.3,2.4,6.7,8.1,7.2-1.4,4.8-.8,7.4,2.1,9.3,2.9,1.9,5.7,1.3,8.8-1.5,2.3.9,4.3,2.3,6.3,2.3,2,0,4-1.5,6.1-2.4,2.4,2.6,5,3.4,7.9,2.1,2.8-1.2,4.2-3.6,3.9-6.8-.2-3-2.1-4.9-6.3-6.1,1.7-2.2,2.4-4.6,1.3-7.2-1.1-2.6-3.4-3.6-6-4.2,1.5-2.9,1.5-5.5-.4-7.9-1.9-2.4-4.6-2.7-7.5-2,.3-2.9-.3-5.2-2.5-7-2.3-1.8-4.7-1.6-7.3-.6-.7-5.8-6.3-9.3-12.1-4.3-.6-2.9-2.1-4.9-5-5.7-3-.8-5.3.6-7.3,2.8-1.3-2.6-3.1-4.6-5.8-4.3-2.3.3-4.6,1.7-7.1,2.7-1.2-1.8-3.4-3.4-6.1-2.6-2.2.7-4.2,2.5-6.4,3.9-3.4-3.7-10.2-3-11.7,4.6-6-3.6-10.8-.6-11.5,5.7-2.7-1.2-5.2-1.1-7.5.8-2.3,2-2.5,4.6-2,7.5-7.1-.2-9.6,2.9-8.2,9.8-2.8,0-5,1.1-6.4,3.7-1.3,2.5-.8,4.9.8,7.3-2.9.7-5,2.1-5.8,4.9-.8,2.8.4,5.1,2.4,7.2-2.8,1.1-4.7,2.8-5.1,5.6-.4,2.9,1,5,3.4,6.8-2.7,1.6-4.1,3.6-3.9,6.5.2,2.8,1.9,4.6,4.5,5.9-2.3,1.9-3.5,4.1-2.9,6.9.6,2.9,2.7,4.4,5.4,5.3-2.3,2.3-3.2,4.7-2.1,7.7,1.1,2.9,3.5,4,6.6,4.3-1.7,2.5-2.1,4.9-.7,7.5,1.4,2.6,3.9,3.4,6.7,3.5-1,3-.7,5.5,1.5,7.6,2.1,2,4.7,2.1,7.3,1.3.4,7.1,4.3,9.5,10.9,6.7,1,7,5.5,9.2,11.5,5.4,3.5,6.4,7,7,12.5,2.4,4,5.5,9,5.4,12.5-.5,5.2,6.1,11.3,3.5,12.9-2.4,2.2,1.7,4.5,2.5,7.2,1.4,2.7-1.1,3.8-3.4,4.2-6.3,1,.4,1.9.7,2.7,1-2.1,4.1-1.8,7.2,1,9.3,1.1.8,2.8,1.7,4.1,1.4,2.2-.5,4.2-1.7,6.5-2.7,3.6,4,6.6,4,11.3-.1,3.7,3.6,7.4,4,10.3,1.1,3-2.9,2.5-6.6-.9-10.2,1-2.2,2.6-4.2,2.7-6.3s-1.5-4.1-2.4-6.4c3.7-3.7,3.7-6.7-.3-10.8h0Z"/>
      <path d="M272.1,84c1-2.2,2.6-4.2,2.7-6.3,0-2-1.5-4.1-2.4-6.4,3.2-3.2,3.5-7.2.4-10-3.2-2.9-7.2-2.1-10.6,2.2-4.5-5.3-8.3-5.3-12.5,0-4.4-5.3-8.2-5.3-12.5,0-4.3-5.3-8.1-5.3-12.6.1-1.3-2.4-3.2-4.3-5.9-3.9-2.3.3-4.4,1.7-6.8,2.7-3-3.3-6.7-3.9-9.8-1.1-3.1,2.8-2.8,6.4.3,10.1-.9,2.4-2.3,4.4-2.3,6.4,0,2,1.5,3.9,2.4,6.1-3.1,3.1-3.7,7-.8,9.7,1.1,1.1,2.8,1.8,4.4,2,2.7.4,4.7-1.3,6.3-3.5,1.7,2.3,3.7,3.8,6.4,3.6,2.8-.2,4.5-1.9,5.9-4.2,1.4,2.7,3.4,4.6,6.2,4.1,2.3-.4,4.4-1.9,6.7-3,.3.5,1,1.4,1.7,2.5-3.7,1.7-4.8,4.7-4.1,8.5-5.5-.7-7.1.3-9.5,5.7-5.4-2.5-7.6-2-10.9,2.5-4.4-3.9-6.4-4-11.3-.5-3.4-4.9-5.3-5.4-10.3-3.4-1.1-1.8-1.9-3.9-3.4-5.1-1.5-1.2-3.8-1.3-5.7-1.9,1-5.2-.4-7.5-5.4-9.1.1-2.2.8-4.5.2-6.3s-2.4-3.3-3.4-4.5c.6-2.1,1.9-4.2,1.7-6.2-.2-2-1.8-3.8-2.8-5.8,4.8-2.9,5.4-6.5,1.7-11.4,5.4-2.9,6.2-4.8,4.5-10.5,5.1-.9,6.5-2.5,7-8,5.6.8,7.5-.3,9.3-4.9,2.2.4,4.3,1.4,6.2,1,1.9-.4,3.6-2.2,5.4-3.3,1,1.8,2.7,3.6,5.2,3.5,2.2-.1,4.3-1.2,6.6-1.9,2.6,4,4.1,4.6,9.5,3.5.9,5.2,2.4,6.6,8.1,7.2-1.4,4.7-.8,7.4,2.1,9.3,2.9,1.8,5.6,1.3,9.3-2,4.1,4,7.1,4.1,11.4,0,3.1,3,5.8,3.8,8.6,2.4,2.6-1.2,4-3.6,3.6-6.8-.4-3.9-3.1-5.5-6.8-5.9,3.3-5.6,2-9.2-4.2-11.6,1.3-2.6,1.5-5.2-.4-7.7-2-2.5-4.7-2.8-7.7-2.2.3-2.9-.3-5.2-2.5-6.9-2.3-1.8-4.7-1.6-7.2-.6-1.2-7.4-7.7-8.4-12.1-4.4-.7-2.8-2.1-4.9-5.1-5.7-3-.8-5.2.7-7.3,2.8-1.3-2.6-3.1-4.6-5.8-4.3-2.3.3-4.6,1.7-7,2.7-1.2-1.8-3.5-3.5-6.2-2.6-2.2.7-4.2,2.5-6.4,3.9-1.6-1.7-4-2.7-7-1.7-2.9,1-4,3.4-4.6,6.2-5.9-3.5-10.9-.8-11.5,5.5-6.7-1.6-9.7.9-9.7,8.2-7.5.8-9.2,3-8,10.1-2.8,0-5,1.1-6.3,3.6-1.3,2.5-.7,4.9.8,7.2-6.5,2.4-7.6,6.4-3.6,12.1-6,3.8-6.5,7.5-1.7,12.5-5.1,4.4-5,8.3.4,12.4-2.3,1.9-3.6,4.2-2.9,7.2.7,2.9,2.9,4.4,5.8,5.2-2.3,2.4-3.2,4.8-2.1,7.7,1.1,2.8,3.6,3.9,6.4,4.3-3,6.1-.8,9.9,6,11-1.5,5.7,2.1,10.5,9.1,8.9-.2,2.9.6,5.3,3.1,6.9,2.6,1.6,5.2,1,7.8-.4.6,7.7,7,9,11.6,5.5.9,2.7,2.5,4.7,5.5,5.3,2.9.5,5-.9,6.9-3,3.8,5.5,8.1,5.5,12.5.1,3.8,4.6,10.3,4.1,12.4-2.9,2.2,1.9,4.7,2.6,7.4,1.3,2.7-1.2,3.7-3.6,3.9-6.4,1.2.4,2.2.8,3.2,1.2-2.1,4.3-1.6,7.5,1.4,9.6,2.9,2.1,5.9,1.5,9-1.3,2.4.9,4.5,2.4,6.6,2.3,2,0,4-1.7,6.2-2.8,3,3.4,6.8,4.1,9.6,1.4,1.1-1.1,2-2.7,2.3-4.3.6-2.9-1.2-5-3.4-6.6,4.6-4,4.7-7.1,1.1-11.2.9-2.5,2.4-4.6,2.2-6.6-.1-2.1-1.7-4-2.8-6.1,4-3.5,4.1-6.5,0-11.4,4.1-4.2,4.1-7.2.1-11.2h0Z"/>
      <path d="M391.6,96.6c2.9-6.1,1.6-8.9-4.3-11.1-1-2.5-1.3-4.8-2.6-6.2s-3.6-1.9-5.7-3v-3.5c6.5,1.5,11.1-3.6,8.1-10.1,3.1-.1,5.5-1.4,6.6-4.5,1.2-3.4-.3-5.9-3.1-8.1,3.1-1.4,5-3.4,5-6.8,0-3.3-2.3-5.1-5.1-6.5,2.4-2.2,3.3-4.7,2.2-7.6-1.1-3-3.6-4-6.6-4.4,1.5-3,1.5-5.7-.6-8.1-2.1-2.4-4.9-2.5-7.9-1.8.3-3.4-.5-6.1-3.5-7.7-2.9-1.6-5.6-.5-8.2,1.3-.8-3.3-2.2-5.5-5-6.3-2.9-.8-5.2.4-7.3,2.5-1.4-2.7-3.1-4.6-6.1-4.7-3.1-.2-5,1.6-6.6,4-3.8-5.2-7.3-5.4-12.3-.7-4.5-4.5-7.3-4.5-12.1.2-1.5-2.2-3.5-3.9-6.2-3.3-2.2.5-4.2,2.1-6.4,3.2-1-1.8-2.9-3.7-5.6-3.2-2.3.3-4.4,1.7-6.7,2.7-2.9-3.3-6.7-4-9.6-1.2-1.1,1.1-2.3,2.9-2.2,4.2.2,2.3,1.4,4.5,2,6.4-.7,1.9-2.1,3.9-2,5.9.1,2.1,1.7,4,2.7,6.3-4.1,4.1-4.1,6.9.4,11.6-4.5,4.6-4.5,7.4-.4,11.5-1,2.2-2.6,4.2-2.7,6.3s1.5,4.1,2.4,6.4c-3.7,3.7-3.6,6.7.7,11.3-4.5,4.6-4.5,7.4-.4,11.6-1,2.2-2.6,4.2-2.7,6.3,0,2,1.5,4.1,2.4,6.4-3.5,3.5-3.5,5.5,0,10.9-1.8,1.7-3.3,3.9-2.4,6.4.8,2.1,2.5,3.8,3.8,5.8-5,3.4-5.5,7-.9,11.9-3.5,3.7-4,7.2-1.3,10.1,2.8,3.1,6.2,2.8,10.6-.8,4.1,4.1,7.1,4,11.6-.3,3.8,3.7,7.3,4.4,10.2,1.6,1.1-1,1.9-2.6,2.2-4,.6-2.8-1-4.9-2.3-6,.9-2.5,2.4-4.6,2.2-6.5-.1-2.1-1.7-4-2.5-5.7.9-2,2.5-4,2.5-6,0-2.1-1.6-4.2-2.6-6.6,4-4,4-6.8-.5-11.6.9-.8,1.8-1.7,2.6-2.5,4.3,4.2,7.3,4.2,11.3.2,2.2,1,4.2,2.6,6.3,2.7s4.1-1.4,5.9-2.1c1.6,1,3.2,2.7,5.1,3.1,2,.3,4.2-.7,6.4-1.2,1.3,3.4,4.2,4.8,8.3,4.4-.4,3.4,1,5.8,3.5,7.6-3.7,4.7-3.5,7,.7,11.5-4.5,4.5-4.5,7.3,0,12-3.7,3.8-4.3,7.2-1.7,10.2,2.6,3,6,3,9.4.5,2.8.6,5.1,1.9,7.1,1.5,2.1-.4,3.8-2.4,5.8-3.7,2.8,4.1,6.4,5.2,9.9,2.8,3.5-2.5,3.6-6.3.2-10.8,3.6-4.6,3.5-6.8-.5-11.3,3.9-4.1,4-6.3.5-11.3,4-4.9,3.5-8.1-1.9-11.9h0ZM358,55.6c-3.7-.3-6.3,1.2-7.8,4.7-5.1-2-7.4-1.3-10.4,3-4.7-4.9-7.9-5-11.7-.8-2.3-1-4.4-2.6-6.5-2.7-2,0-4.1,1.5-6.1,2.4-.8-1-1.9-2.6-2.7-3.7,1-2.2,2.6-4.2,2.6-6.4,0-2-1.5-4.1-2.4-6.2.7-1.5,2.3-3.4,2.5-5.5.1-2-1.2-4.1-2.1-6.3.6-.8,1.7-2,2.5-3.1,2,.7,4.1,2,6.1,1.9s3.9-1.7,5.7-2.5c1.8.8,3.7,2.2,5.8,2.6,2.5.5,4.4-1.1,5.6-2.8,1.9,1.1,3.5,2.7,5.5,3.1,1.8.3,3.9-.6,6.2-1.1,1,3.2,3.6,5.1,7.7,4.9-1.6,3.9-.8,7,2.6,9.3-3.6,3.7-3.8,4.6-3,9.2h0Z"/>
      <path d="M774.7,87.9c4.3-5.7.8-11.6-6.1-11.6.9-2.8.6-5.5-1.7-7.6-2.3-2.1-4.9-2-7.8-.9,0-3-1.1-5.2-3.6-6.6-2.5-1.3-5-.8-7.3.8-.9-2.8-2.5-5.2-5.3-5.3-2.3,0-4.7,1-7.3,1.7-2.7-4.7-6.4-5.3-10.8-1.9-2-1.5-3.6-3.7-5.7-4.1-2.1-.5-4.6.7-6.7,1.1-1.4-1-2.9-2.7-4.8-3.1-1.8-.5-3.9.3-6,.5-.2-2.9-2.2-4.9-4.6-5.7.2-2.6.4-4.8.6-7.1,3.3.1,5.8-1.7,6.8-4.5,2.3.3,4.3,1.1,6.1.7,1.8-.4,3.4-2,5.2-3.1,3.4,3.8,6.1,4,11.1.3,1.8,4,4.9,5.4,9.2,4.1,0,4.4,2.2,6.9,6.4,7.6-2,4.5-1.5,7.5,1.4,9.6,2.9,2.1,6,1.5,9.5-1.8,4.3,4.1,6.9,4.1,11.5,0,3.7,3.6,7.7,4.1,10.4.8,1-1.2,1.6-3.1,1.7-4.8.2-2.8-1.9-4.5-4.2-6,2-2.3,3-4.7,1.9-7.5-1.1-2.9-3.5-4-6.5-4.3,1.7-2.7,2.1-5.3.4-7.9-1.8-2.6-4.4-3.2-7.4-2.8.6-6.4-3.9-10.4-10.4-7.7-.2-2.9-1.3-5.2-4-6.4-2.8-1.2-5.3-.3-7.5,1.4-3.1-5.9-7.3-6.5-12.4-1.9-1.3-2.3-3.2-4.3-5.9-3.9-2.3.3-4.4,1.7-6.9,2.7-1.2-1.6-3.2-3-6.1-2.8-2.9.3-4.5,2.2-5.7,4.6-5.8-4.5-10.2-3.1-12.3,3.7-6.2-3.4-10.9.4-11,6.4-2.8-.6-5.3-.2-7.2,2.1-1.9,2.3-1.8,4.8-.8,7.6-3.2,0-5.5,1.3-6.8,4.1-1.2,2.8-.2,5.3,1.6,7.5-6,3.6-6.1,8.2-.5,12.8-2.5,2-3.7,4.5-2.7,7.7,1,3.1,3.6,4.3,6.7,4.6-1.5,2.9-1.5,5.5.4,7.9,2,2.4,4.6,2.7,7.5,2.1-.3,3.2.4,5.7,3.1,7.3,2.6,1.6,5.2,1,7.7-.4,1.3,6.7,7.2,8.2,11.9,4.2,3.4,5,6.7,5.5,11,2.2,2.1,1.5,3.9,3.7,6,4.1,2.2.4,4.7-1,7.2-1.6,2.6,4.4,5.5,5.1,11,2.1,1.2,4,4.1,5.6,7.6,5.4.6,2.4,1.1,4.6,1.7,6.8-2.9,1.1-4.2,3.6-4.5,6.7-4.8-1.8-6.7-1.2-9.7,2.4-2.2-.7-4.3-1.8-6.2-1.7-1.9.2-3.7,1.7-5.3,2.4-1.6-1-3.2-2.6-5.1-2.9-1.9-.3-4,.7-5.8,1-1.1-1.2-2.1-3-3.7-3.8-1.5-.8-3.6-.8-5.1-1.1-.6-1.6-.9-3.6-2-4.9-1.1-1.3-3-2.1-4.6-3.1,2.3-3.8,2.1-7-.7-9.4-2.9-2.5-6.2-2-9.4,1-2.4-.9-4.5-2.4-6.6-2.3-2,0-4,1.7-6.2,2.7-1.7-2.3-4.2-3.7-7.5-2.6-2.5.8-4.1,2.6-4.4,5.2-.5,3.8,1.7,6.1,4.9,7.5-4.4,5.7-3,9.8,3.8,12.3-3,6.1-.9,9.6,6.8,11-.3,2.7.2,5.1,2.5,6.9,2.3,1.7,4.7,1.5,7.2.6,1,6.9,5.7,9.1,11.5,5.4,2.5,6.5,6.5,7.5,12.4,3.2,1.1,2.5,2.9,4.3,5.7,4.6,2.9.3,5-1.2,6.6-3.5,4.3,5,8.3,4.7,12.3-.4,4.9,4.6,8.2,4.1,12.4-1.9,4.4,3.6,10.6,2.1,11.6-5.1,2.6,1.3,5.1,1.5,7.6-.2,2.5-1.8,3-4.4,2.5-7.3,7.3.9,10.7-5.6,7.2-10.7,6.8-2.9,7.7-6.9,2.9-12.6,5.7-4.1,5.4-8.5-.9-12.9h0Z"/>
      <path d="M515.7,75.1c1-2.4,2.6-4.5,2.6-6.6s-1.7-4.2-2.7-6.5c1.6-1.1,3.3-3,2.8-5.5-.4-2.2-1.8-4.2-2.8-6.5,1.6-1.1,3.2-3,2.8-5.5-.4-2.2-1.8-4.2-2.5-5.9.9-2,2.4-4.1,2.4-6.1,0-2.1-1.7-4.2-2.4-5.9.8-2,2.4-4,2.4-6,0-2.1-1.6-4.2-2.6-6.5,3.3-3.1,4-6.9,1.1-9.7-1.1-1.1-2.8-1.9-4.3-2.1-3.2-.5-5.3,1.6-7,4.5-1.5-2.8-3.3-4.8-6-4.5-2.3.3-4.5,1.7-7,2.7-2.8-3.2-6.7-4-9.5-1.2-1.1,1.1-2.3,2.9-2.2,4.2.2,2.3,1.4,4.5,2.2,7-3.6,3.6-3.5,6.5.9,11.1-4.5,4.5-4.5,7.3-.4,11.5-1,2.2-2.6,4.3-2.7,6.3,0,2,1.5,4.1,2.4,6.4-3.7,3.7-3.6,6.6.7,11.3-4.5,4.5-4.5,7.3-.4,11.6-1,2.1-2.6,4.1-2.7,6,0,2.1,1.3,4.2,1.9,6-.8,1.6-2.2,3.3-2.5,5.1-.2,1.9.8,3.8,1.2,5.9-3.8,1.2-5.3,4.2-4.9,8.4-4.5-.4-7.1,1.8-8.1,5.3-2-.4-4-1.4-5.8-1.1-1.8.2-3.4,1.6-5.2,2.6-3.2-3.2-5.1-3.5-9.9-1.4-1.3-4.2-4.3-5.8-8.7-5.3.7-4.4-1.1-7.2-4.9-8.6,2.5-4.6,2-6.9-1.6-10.2,1-2.3,2.5-4.3,2.5-6.3,0-2.1-1.7-4.2-2.7-6.5,4-3.6,4-6.7.4-10.7.9-2.4,2.4-4.5,2.3-6.6s-1.7-4-2.4-5.5c.9-2.1,2.5-4.2,2.4-6.2,0-2.1-1.7-4.2-2.4-5.9.9-2,2.5-4,2.4-6.1,0-2.1-1.6-4.2-2.7-6.5,4-3.7,4-6.8-.2-11.2,3.5-3.7,4.1-7.3,1.3-10.1-1-1-2.6-1.8-4.1-2.1-2.9-.5-5,1.2-6.7,3.4-4.3-4.9-8.1-4.7-12.3.4-3.3-4.2-7.1-5.2-10.4-2.4-3.3,2.7-3.1,6.5.6,10.8-4.4,4.4-4,8.2,1.1,11.9-5.2,3.7-5.5,7.2-.8,12.3-4.5,4.5-4.5,7.3,0,12-4.5,4.6-4.5,7.4-.5,11.5-1,2.4-2.6,4.5-2.6,6.6,0,2.1,1.7,4.2,2.7,6.4-4.3,3.8-4.1,8,1.2,11.8-2.5,1.4-4.2,3.3-4.1,6.3,0,3.1,2,4.9,4.5,6.3-3.7,5.9-2.2,10,4.3,11.8-2.8,4.9-1.1,10.7,6.6,11-1.2,6.8,1.9,9.9,8.9,9,.3,6.4,5.9,9.5,11.5,5.6,2,6.6,6.2,8,12,4,1.3,2.6,3.2,4.2,6.2,4.2,3,0,4.8-1.7,6.3-4.1,3.8,6.2,9.8,4.9,12.6,0,5.6,3.9,9.8,2.5,11.9-4.2,2.4,1.8,4.9,2.6,7.7,1.1,2.7-1.4,3.6-3.9,3.7-6.8,3,1,5.5.6,7.6-1.5,2-2.1,2.1-4.7,1.3-7.4,7.6-.2,10.3-4.5,7.1-10.8,6.3-2.6,7.3-5.7,3.9-11.9,2.5-1.2,4.3-3.1,4.5-6.1.1-2.9-1.6-4.9-3.9-6.4,5.5-3.4,5.8-7.4,1.6-11.8h0Z"/>
      <path d="M796.6,2.1c-11.9,0-21.1,9.4-21.1,21.4,0,12,9.2,21.3,21.1,21.4,11.9,0,21.5-9.5,21.4-21.4,0-12-9.5-21.4-21.5-21.4ZM796.7,41.2c-9.9,0-17.4-7.5-17.4-17.6,0-10.1,7.7-18,17.5-18,9.8,0,17.3,7.8,17.3,17.8,0,10-7.5,17.7-17.3,17.7Z"/>
      <path d="M806.5,17.2c-.8-3.2-3.2-4.7-6.2-4.9-4.1-.3-8.2,0-12.4,0v22h4.8v-7.5c6.9-1,7.3-.7,8.5,5.5.3,1.5.8,2.5,2.6,2.2s1.8,0,2.9,0c-1.3-3.4.4-7.7-4.1-9.7,3.7-2.4,4.6-4.3,3.9-7.5h0ZM798.8,22.5c-2,.2-3.9,0-6,0v-6.4c2.1,0,4.1-.2,6,0,1.7.2,2.8,1.3,2.8,3.2s-1.1,3-2.8,3.1h0Z"/>
    </g>
  </g>
</svg>