<?xml version="1.0" encoding="UTF-8"?>
<svg id="Livello_1" xmlns="http://www.w3.org/2000/svg" version="1.1" viewBox="0 0 526.23 79.34">
  <!-- Generator: Adobe Illustrator 29.0.1, SVG Export Plug-In . SVG Version: 2.1.0 Build 192)  -->
  <path d="M71.96,33.26c-1.6,0-2.99,1.14-3.3,2.71-.02.08-.08.14-.16.14s-.15-.06-.16-.14c-.31-1.57-1.7-2.71-3.3-2.71s-2.99,1.14-3.3,2.71c-.03.16-.3.16-.33,0-.31-1.57-1.7-2.71-3.3-2.71s-2.98,1.14-3.28,2.71c-.03.16-.3.16-.33,0-.31-1.57-1.7-2.71-3.3-2.71s-2.99,1.14-3.3,2.71c-.03.16-.3.16-.33,0-.31-1.57-1.7-2.71-3.3-2.71s-2.99,1.14-3.3,2.71c-.03.16-.3.16-.33,0-.31-1.57-1.7-2.71-3.3-2.71-1.85,0-3.36,1.51-3.36,3.36,0,1.36.81,2.57,2.07,3.09.06.03.1.09.1.15s-.04.13-.1.15c-1.26.52-2.07,1.74-2.07,3.09s.81,2.57,2.07,3.09c.06.03.1.09.1.15s-.04.13-.1.15c-1.26.52-2.07,1.74-2.07,3.09,0,1.85,1.51,3.36,3.36,3.36,1.6,0,2.99-1.14,3.3-2.71.03-.16.3-.16.33,0,.31,1.57,1.7,2.71,3.3,2.71s2.99-1.14,3.3-2.71c.02-.08.08-.14.16-.14s.15.06.16.14c.31,1.57,1.7,2.71,3.3,2.71s2.99-1.14,3.3-2.71c.02-.08.08-.14.16-.14s.15.06.16.14c.2,1.03.89,1.91,1.83,2.37.07.03.11.11.09.18s-.07.13-.15.14c-1.01.1-1.9.64-2.45,1.47-.69,1.04-.75,2.36-.14,3.46.04.07.02.15-.03.2-.06.05-.14.06-.21.02-1.09-.7-2.45-.71-3.55-.02-1.15.71-1.75,2.02-1.55,3.34.01.08-.03.15-.1.18s-.15,0-.2-.06c-.81-1.11-2.18-1.61-3.49-1.29-1.32.32-2.34,1.44-2.52,2.8-.01.08-.07.14-.15.14-.08,0-.15-.04-.18-.11-.45-1.31-1.68-2.22-3.04-2.26-1.37-.04-2.64.77-3.19,2.02-.03.07-.11.11-.18.1-.08-.01-.13-.08-.14-.15-.09-1.37-.98-2.53-2.29-2.96-1.25-.42-2.64-.05-3.54.94-.05.06-.14.07-.2.03-.07-.04-.1-.11-.08-.19.32-1.28-.14-2.63-1.18-3.45-1.03-.81-2.44-.94-3.61-.33-.07.04-.15.02-.2-.04s-.06-.14-.01-.21c.74-1.09.77-2.52.08-3.65-.71-1.13-2.08-1.74-3.41-1.52-.08.01-.15-.03-.18-.1s0-.15.05-.2c1.09-.82,1.58-2.25,1.23-3.56-.37-1.35-1.57-2.34-2.97-2.45-.08,0-.14-.07-.15-.14s.03-.15.1-.18c1.32-.54,2.15-1.86,2.06-3.27-.07-1.43-1.05-2.65-2.42-3.04-.07-.02-.12-.09-.12-.17,0-.08.06-.14.13-.16,1.39-.29,2.46-1.43,2.65-2.84.19-1.36-.5-2.73-1.72-3.4-.07-.04-.1-.11-.08-.19.02-.07.09-.13.16-.13,1.39,0,2.62-.83,3.15-2.11.5-1.26.2-2.68-.76-3.62-.06-.05-.07-.14-.03-.21.04-.07.12-.1.19-.08,1.27.38,2.66-.06,3.51-1.06.84-1,1.02-2.42.45-3.6-.03-.07-.02-.15.04-.2.06-.05.15-.05.21,0,.58.43,1.26.66,1.97.66.57,0,1.13-.14,1.63-.42,1.15-.64,1.82-1.89,1.72-3.19,0-.08.04-.15.11-.17.07-.02.15,0,.2.07.62.95,1.67,1.52,2.8,1.52.17,0,.35-.01.54-.04,1.34-.22,2.43-1.26,2.73-2.6.02-.08.08-.13.16-.13.1,0,.15.05.17.12.36,1.36,1.55,2.35,2.94,2.46.1.01.2.01.29.01,1.28,0,2.46-.75,3.02-1.91.03-.07.11-.11.19-.09.08.02.13.08.13.16.03,1.37.89,2.57,2.2,3.05,1.2.43,2.57.13,3.48-.76.06-.05.14-.06.2-.02.07.04.1.12.07.19-.36,1.21-.02,2.5.89,3.37.9.88,2.26,1.2,3.49.72.08-.03.16,0,.2.07.04.07.03.16-.02.21-.65.63-1.03,1.51-1.03,2.4,0,1.85,1.51,3.36,3.36,3.36,1.36,0,2.57-.81,3.09-2.07.03-.06.09-.1.15-.1s.13.04.15.1c.52,1.26,1.74,2.07,3.09,2.07s2.57-.81,3.09-2.07c.05-.13.26-.13.31,0,.52,1.26,1.74,2.07,3.09,2.07,1.85,0,3.36-1.51,3.36-3.36,0-.92-.36-1.78-1.02-2.41-.66-.64-1.51-.97-2.45-.95h0c-.07,0-.14-.05-.16-.12-.02-.07,0-.15.07-.19.57-.39,1-.94,1.25-1.6.31-.84.28-1.76-.1-2.57-.37-.82-1.04-1.44-1.88-1.75-.66-.25-1.37-.28-2.04-.1-.07.02-.15,0-.19-.07-.04-.06-.03-.14.02-.2.46-.53.74-1.18.82-1.88.09-.89-.17-1.77-.74-2.47-.57-.7-1.38-1.13-2.27-1.22-.71-.07-1.41.08-2.02.44-.07.04-.15.03-.2-.02-.05-.05-.07-.13-.04-.2.74-1.47.31-3.25-1.02-4.23-.73-.53-1.62-.74-2.51-.6-.69.11-1.31.42-1.8.89-.05.05-.13.06-.2.03-.06-.04-.1-.11-.08-.18.15-.67.09-1.36-.17-1.99-.34-.83-.98-1.49-1.81-1.84-1.47-.63-3.2-.12-4.09,1.2-.04.06-.12.09-.19.07-.07-.02-.12-.09-.12-.16,0-.66-.18-1.3-.54-1.86-.49-.75-1.24-1.27-2.12-1.46-1.55-.34-3.15.48-3.79,1.94-.03.07-.1.11-.18.1-.07,0-.13-.07-.14-.14-.24-1.56-1.55-2.76-3.13-2.85-1.57-.09-3.01.94-3.43,2.45-.02.07-.08.12-.16.12-.07.02-.14-.05-.16-.12-.2-.63-.57-1.18-1.09-1.6-.69-.57-1.57-.83-2.46-.74-.89.09-1.69.52-2.26,1.22-.43.52-.68,1.15-.74,1.81,0,.07-.06.14-.14.15-.07.01-.15-.02-.18-.09-.31-.59-.78-1.08-1.38-1.4-.79-.43-1.7-.52-2.56-.26-.86.25-1.57.83-1.99,1.62-.32.59-.46,1.26-.39,1.93,0,.07-.03.14-.1.17-.07.03-.15,0-.19-.05-.42-.52-.98-.9-1.63-1.1-.86-.27-1.77-.18-2.56.24-.8.42-1.38,1.13-1.64,1.99-.2.65-.2,1.33,0,1.98.02.07,0,.15-.07.19-.06.04-.14.04-.2,0-1.24-1.03-3.05-1.04-4.29-.01-.69.57-1.12,1.38-1.2,2.28-.06.68.08,1.36.41,1.95.04.07.03.15-.03.2-.05.05-.13.06-.2.03-1.42-.76-3.19-.41-4.21.85-1,1.25-.98,3.06.06,4.29.05.06.05.14.01.2s-.12.09-.19.07c-1.53-.45-3.2.25-3.94,1.67-.42.79-.5,1.71-.23,2.57.2.64.58,1.2,1.1,1.61.06.05.08.12.05.19s-.09.11-.17.11c-1.58-.14-3.08.86-3.54,2.38-.46,1.52.22,3.17,1.62,3.92.07.04.1.11.09.18-.02.07-.08.13-.15.13-1.58.14-2.87,1.38-3.07,2.94-.18,1.56.76,3.08,2.25,3.59.07.02.12.09.11.17,0,.07-.06.14-.13.15-.62.15-1.19.49-1.64.96-.61.66-.94,1.51-.91,2.41.06,1.6,1.19,2.91,2.75,3.2.07.01.13.07.14.15,0,.07-.03.14-.1.17-1.44.62-2.27,2.19-1.99,3.73.3,1.56,1.67,2.71,3.25,2.73.07,0,.14.05.16.12.02.07,0,.15-.07.19-1.35.85-1.92,2.55-1.35,4.03.5,1.3,1.76,2.18,3.15,2.18.19,0,.38-.02.56-.05.07-.01.15.02.18.09s.02.15-.04.2c-.49.45-.83,1.04-.99,1.7-.21.88-.06,1.77.41,2.53.62.99,1.69,1.59,2.87,1.59.42,0,.83-.08,1.22-.23.07-.03.15,0,.19.05.05.06.05.14,0,.2-.95,1.31-.84,3.11.28,4.29.64.68,1.5,1.05,2.43,1.05.66,0,1.29-.19,1.84-.55.06-.04.14-.04.2.01.06.05.08.13.05.2-.64,1.48-.13,3.22,1.2,4.14.55.37,1.2.56,1.88.56.91,0,1.76-.35,2.39-.98.05-.05.13-.06.2-.03.07.03.1.11.09.18-.13.66-.06,1.34.21,1.97.35.83,1,1.46,1.83,1.79.39.17.82.26,1.25.26,1.13,0,2.21-.59,2.83-1.55.04-.06.12-.09.19-.07.07.02.12.09.12.16,0,.67.2,1.32.58,1.87.51.74,1.28,1.24,2.16,1.4.22.05.43.07.62.07,1.39,0,2.61-.84,3.12-2.13.03-.07.09-.11.17-.11.07,0,.14.06.15.13.31,1.57,1.7,2.71,3.3,2.71s2.98-1.13,3.3-2.69c.02-.07.08-.13.15-.13.07,0,.14.03.17.1.52,1.26,1.77,2.1,3.12,2.1.2,0,.41-.02.65-.07.88-.17,1.64-.67,2.14-1.42.39-.58.59-1.26.57-1.95,0-.07.05-.14.12-.16.07-.02.15,0,.19.06.62.9,1.65,1.43,2.76,1.43.51,0,1.01-.11,1.46-.34,1.36-.66,2.1-2.15,1.82-3.64-.01-.07.02-.14.08-.18.06-.04.14-.03.19.02.65.55,1.43.87,2.27.93.07,0,.12.05.15.11.02.06.01.13-.03.18-.59.63-.92,1.44-.92,2.29,0,1.85,1.51,3.36,3.36,3.36,1.36,0,2.57-.81,3.09-2.07.05-.13.26-.13.31,0,.52,1.26,1.74,2.07,3.09,2.07s2.57-.81,3.09-2.07c.03-.06.09-.1.15-.1s.13.04.15.1c.52,1.26,1.74,2.07,3.09,2.07,1.85,0,3.36-1.51,3.36-3.36,0-1.36-.86-2.62-2.13-3.12-.06-.03-.11-.09-.11-.16s.04-.13.11-.16c1.27-.51,2.13-1.76,2.13-3.12s-.85-2.62-2.13-3.12c-.06-.03-.11-.09-.11-.16s.04-.13.11-.16c1.27-.5,2.13-1.76,2.13-3.12s-.86-2.62-2.13-3.12c-.06-.03-.11-.09-.11-.16s.04-.13.11-.16c1.27-.51,2.13-1.76,2.13-3.12s-.85-2.62-2.13-3.12c-.06-.03-.11-.09-.11-.16s.04-.13.11-.16c1.27-.51,2.13-1.76,2.13-3.12s-.86-2.62-2.13-3.12c-.06-.03-.11-.09-.11-.16s.04-.13.11-.16c1.27-.51,2.13-1.76,2.13-3.12s-.86-2.62-2.13-3.12c-.06-.03-.11-.09-.11-.16s.04-.13.11-.16c1.27-.51,2.13-1.76,2.13-3.12,0-1.85-1.51-3.36-3.36-3.36Z"/>
  <path d="M150.43,33.26c-1.6,0-2.99,1.14-3.3,2.71-.02.08-.08.14-.16.14s-.15-.06-.16-.14c-.31-1.57-1.7-2.71-3.3-2.71s-2.99,1.14-3.3,2.71c-.03.16-.3.16-.33,0-.31-1.57-1.7-2.71-3.3-2.71s-2.98,1.14-3.28,2.71c-.03.16-.3.16-.33,0-.31-1.57-1.7-2.71-3.3-2.71s-2.99,1.14-3.3,2.71c-.03.16-.3.16-.33,0-.31-1.57-1.7-2.71-3.3-2.71s-2.99,1.14-3.3,2.71c-.03.16-.3.16-.33,0-.31-1.57-1.7-2.71-3.3-2.71-1.85,0-3.36,1.51-3.36,3.36,0,1.36.81,2.57,2.07,3.09.06.03.1.09.1.15s-.04.13-.1.15c-1.26.52-2.07,1.74-2.07,3.09s.81,2.57,2.07,3.09c.06.03.1.09.1.15s-.04.13-.1.15c-1.26.52-2.07,1.74-2.07,3.09,0,1.85,1.51,3.36,3.36,3.36,1.6,0,2.99-1.14,3.3-2.71.03-.16.3-.16.33,0,.31,1.57,1.7,2.71,3.3,2.71s2.99-1.14,3.3-2.71c.02-.08.08-.14.16-.14s.15.06.16.14c.31,1.57,1.7,2.71,3.3,2.71s2.99-1.14,3.3-2.71c.02-.08.08-.14.16-.14s.15.06.16.14c.2,1.03.89,1.91,1.83,2.37.07.03.11.11.09.18s-.07.13-.15.14c-1.01.1-1.9.64-2.45,1.47-.69,1.04-.75,2.36-.14,3.46.04.07.02.15-.03.2-.06.05-.14.06-.21.02-1.09-.7-2.45-.71-3.55-.02-1.15.71-1.75,2.02-1.55,3.34.01.08-.03.15-.1.18s-.15,0-.2-.06c-.81-1.11-2.18-1.61-3.49-1.29-1.32.32-2.34,1.44-2.52,2.8-.01.08-.07.14-.15.14-.08,0-.15-.04-.18-.11-.45-1.31-1.68-2.22-3.04-2.26-1.37-.04-2.64.77-3.19,2.02-.03.07-.11.11-.18.1-.08-.01-.13-.08-.14-.15-.09-1.37-.98-2.53-2.29-2.96-1.25-.42-2.64-.05-3.54.94-.05.06-.14.07-.2.03-.07-.04-.1-.11-.08-.19.32-1.28-.14-2.63-1.18-3.45-1.03-.81-2.44-.94-3.61-.33-.07.04-.15.02-.2-.04s-.06-.14-.01-.21c.74-1.09.77-2.52.08-3.65-.71-1.13-2.08-1.74-3.41-1.52-.08.01-.15-.03-.18-.1s0-.15.05-.2c1.09-.82,1.58-2.25,1.23-3.56-.37-1.35-1.57-2.34-2.97-2.45-.08,0-.14-.07-.15-.14s.03-.15.1-.18c1.32-.54,2.15-1.86,2.06-3.27-.07-1.43-1.05-2.65-2.42-3.04-.07-.02-.12-.09-.12-.17,0-.08.06-.14.13-.16,1.39-.29,2.46-1.43,2.65-2.84.19-1.36-.5-2.73-1.72-3.4-.07-.04-.1-.11-.08-.19.02-.07.09-.13.16-.13,1.39,0,2.62-.83,3.15-2.11.5-1.26.2-2.68-.76-3.62-.06-.05-.07-.14-.03-.21.04-.07.12-.1.19-.08,1.27.38,2.66-.06,3.51-1.06.84-1,1.02-2.42.45-3.6-.03-.07-.02-.15.04-.2.06-.05.15-.05.21,0,.58.43,1.26.66,1.97.66.57,0,1.13-.14,1.63-.42,1.15-.64,1.82-1.89,1.72-3.19,0-.08.04-.15.11-.17.07-.02.15,0,.2.07.62.95,1.67,1.52,2.8,1.52.17,0,.35-.01.54-.04,1.34-.22,2.43-1.26,2.73-2.6.02-.08.08-.13.16-.13.1,0,.15.05.17.12.36,1.36,1.55,2.35,2.94,2.46.1.01.2.01.29.01,1.28,0,2.46-.75,3.02-1.91.03-.07.11-.11.19-.09.08.02.13.08.13.16.03,1.37.89,2.57,2.2,3.05,1.2.43,2.57.13,3.48-.76.06-.05.14-.06.2-.02.07.04.1.12.07.19-.36,1.21-.02,2.5.89,3.37.9.88,2.26,1.2,3.49.72.08-.03.16,0,.2.07.04.07.03.16-.02.21-.65.63-1.03,1.51-1.03,2.4,0,1.85,1.51,3.36,3.36,3.36,1.36,0,2.57-.81,3.09-2.07.03-.06.09-.1.15-.1s.13.04.15.1c.52,1.26,1.74,2.07,3.09,2.07s2.57-.81,3.09-2.07c.05-.13.26-.13.31,0,.52,1.26,1.74,2.07,3.09,2.07,1.85,0,3.36-1.51,3.36-3.36,0-.92-.36-1.78-1.02-2.41-.66-.64-1.51-.97-2.45-.95h0c-.07,0-.14-.05-.16-.12-.02-.07,0-.15.07-.19.57-.39,1-.94,1.25-1.6.31-.84.28-1.76-.1-2.57-.37-.82-1.04-1.44-1.88-1.75-.66-.25-1.37-.28-2.04-.1-.07.02-.15,0-.19-.07-.04-.06-.03-.14.02-.2.46-.53.74-1.18.82-1.88.09-.89-.17-1.77-.74-2.47-.57-.7-1.38-1.13-2.27-1.22-.71-.07-1.41.08-2.02.44-.07.04-.15.03-.2-.02-.05-.05-.07-.13-.04-.2.74-1.47.31-3.25-1.02-4.23-.73-.53-1.62-.74-2.51-.6-.69.11-1.31.42-1.8.89-.05.05-.13.06-.2.03-.06-.04-.1-.11-.08-.18.15-.67.09-1.36-.17-1.99-.34-.83-.98-1.49-1.81-1.84-1.47-.63-3.2-.12-4.09,1.2-.04.06-.12.09-.19.07-.07-.02-.12-.09-.12-.16,0-.66-.18-1.3-.54-1.86-.49-.75-1.24-1.27-2.12-1.46-1.55-.34-3.15.48-3.79,1.94-.03.07-.1.11-.18.1-.07,0-.13-.07-.14-.14-.24-1.56-1.55-2.76-3.13-2.85-1.57-.09-3.01.94-3.43,2.45-.02.07-.08.12-.16.12-.07.02-.14-.05-.16-.12-.2-.63-.57-1.18-1.09-1.6-.69-.57-1.57-.83-2.46-.74-.89.09-1.69.52-2.26,1.22-.43.52-.68,1.15-.74,1.81,0,.07-.06.14-.14.15-.07.01-.15-.02-.18-.09-.31-.59-.78-1.08-1.38-1.4-.79-.43-1.7-.52-2.56-.26-.86.25-1.57.83-1.99,1.62-.32.59-.46,1.26-.39,1.93,0,.07-.03.14-.1.17-.07.03-.15,0-.19-.05-.42-.52-.98-.9-1.63-1.1-.86-.27-1.77-.18-2.56.24-.8.42-1.38,1.13-1.64,1.99-.2.65-.2,1.33,0,1.98.02.07,0,.15-.07.19-.06.04-.14.04-.2,0-1.24-1.03-3.05-1.04-4.29-.01-.69.57-1.12,1.38-1.2,2.28-.06.68.08,1.36.41,1.95.04.07.03.15-.03.2-.05.05-.13.06-.2.03-1.42-.76-3.19-.41-4.21.85-1,1.25-.98,3.06.06,4.29.05.06.05.14.01.2s-.12.09-.19.07c-1.53-.45-3.2.25-3.94,1.67-.42.79-.5,1.71-.23,2.57.2.64.58,1.2,1.1,1.61.06.05.08.12.05.19s-.09.11-.17.11c-1.58-.14-3.08.86-3.54,2.38-.46,1.52.22,3.17,1.62,3.92.07.04.1.11.09.18-.02.07-.08.13-.15.13-1.58.14-2.87,1.38-3.07,2.94-.18,1.56.76,3.08,2.25,3.59.07.02.12.09.11.17,0,.07-.06.14-.13.15-.62.15-1.19.49-1.64.96-.61.66-.94,1.51-.91,2.41.06,1.6,1.19,2.91,2.75,3.2.07.01.13.07.14.15,0,.07-.03.14-.1.17-1.44.62-2.27,2.19-1.99,3.73.3,1.56,1.67,2.71,3.25,2.73.07,0,.14.05.16.12.02.07,0,.15-.07.19-1.35.85-1.92,2.55-1.35,4.03.5,1.3,1.76,2.18,3.15,2.18.19,0,.38-.02.56-.05.07-.01.15.02.18.09s.02.15-.04.2c-.49.45-.83,1.04-.99,1.7-.21.88-.06,1.77.41,2.53.62.99,1.69,1.59,2.87,1.59.42,0,.83-.08,1.22-.23.07-.03.15,0,.19.05.05.06.05.14,0,.2-.95,1.31-.84,3.11.28,4.29.64.68,1.5,1.05,2.43,1.05.66,0,1.29-.19,1.84-.55.06-.04.14-.04.2.01.06.05.08.13.05.2-.64,1.48-.13,3.22,1.2,4.14.55.37,1.2.56,1.88.56.91,0,1.76-.35,2.39-.98.05-.05.13-.06.2-.03.07.03.1.11.09.18-.13.66-.06,1.34.21,1.97.35.83,1,1.46,1.83,1.79.39.17.82.26,1.25.26,1.13,0,2.21-.59,2.83-1.55.04-.06.12-.09.19-.07.07.02.12.09.12.16,0,.67.2,1.32.58,1.87.51.74,1.28,1.24,2.16,1.4.22.05.43.07.62.07,1.39,0,2.61-.84,3.12-2.13.03-.07.09-.11.17-.11.07,0,.14.06.15.13.31,1.57,1.7,2.71,3.3,2.71s2.98-1.13,3.3-2.69c.02-.07.08-.13.15-.13.07,0,.14.03.17.1.52,1.26,1.77,2.1,3.12,2.1.2,0,.41-.02.65-.07.88-.17,1.64-.67,2.14-1.42.39-.58.59-1.26.57-1.95,0-.07.05-.14.12-.16.07-.02.15,0,.19.06.62.9,1.65,1.43,2.76,1.43.51,0,1.01-.11,1.46-.34,1.36-.66,2.1-2.15,1.82-3.64-.01-.07.02-.14.08-.18.06-.04.14-.03.19.02.65.55,1.43.87,2.27.93.07,0,.12.05.15.11.02.06.01.13-.03.18-.59.63-.92,1.44-.92,2.29,0,1.85,1.51,3.36,3.36,3.36,1.36,0,2.57-.81,3.09-2.07.05-.13.26-.13.31,0,.52,1.26,1.74,2.07,3.09,2.07s2.57-.81,3.09-2.07c.03-.06.09-.1.15-.1s.13.04.15.1c.52,1.26,1.74,2.07,3.09,2.07,1.85,0,3.36-1.51,3.36-3.36,0-1.36-.86-2.62-2.13-3.12-.06-.03-.11-.09-.11-.16s.04-.13.11-.16c1.27-.51,2.13-1.76,2.13-3.12s-.85-2.62-2.13-3.12c-.06-.03-.11-.09-.11-.16s.04-.13.11-.16c1.27-.5,2.13-1.76,2.13-3.12s-.86-2.62-2.13-3.12c-.06-.03-.11-.09-.11-.16s.04-.13.11-.16c1.27-.51,2.13-1.76,2.13-3.12s-.85-2.62-2.13-3.12c-.06-.03-.11-.09-.11-.16s.04-.13.11-.16c1.27-.51,2.13-1.76,2.13-3.12s-.86-2.62-2.13-3.12c-.06-.03-.11-.09-.11-.16s.04-.13.11-.16c1.27-.51,2.13-1.76,2.13-3.12s-.86-2.62-2.13-3.12c-.06-.03-.11-.09-.11-.16s.04-.13.11-.16c1.27-.51,2.13-1.76,2.13-3.12,0-1.85-1.51-3.36-3.36-3.36Z"/>
  <path d="M427.26,33.26c-1.6,0-2.99,1.14-3.3,2.71-.02.08-.08.14-.16.14s-.15-.06-.16-.14c-.31-1.57-1.7-2.71-3.3-2.71s-2.99,1.14-3.3,2.71c-.03.16-.3.16-.33,0-.31-1.57-1.7-2.71-3.3-2.71s-2.98,1.14-3.28,2.71c-.03.16-.3.16-.33,0-.31-1.57-1.7-2.71-3.3-2.71s-2.99,1.14-3.3,2.71c-.03.16-.3.16-.33,0-.31-1.57-1.7-2.71-3.3-2.71s-2.99,1.14-3.3,2.71c-.03.16-.3.16-.33,0-.31-1.57-1.7-2.71-3.3-2.71-1.85,0-3.36,1.51-3.36,3.36,0,1.36.81,2.57,2.07,3.09.06.03.1.09.1.15s-.04.13-.1.15c-1.26.52-2.07,1.74-2.07,3.09s.81,2.57,2.07,3.09c.06.03.1.09.1.15s-.04.13-.1.15c-1.26.52-2.07,1.74-2.07,3.09,0,1.85,1.51,3.36,3.36,3.36,1.6,0,2.99-1.14,3.3-2.71.03-.16.3-.16.33,0,.31,1.57,1.7,2.71,3.3,2.71s2.99-1.14,3.3-2.71c.02-.08.08-.14.16-.14s.15.06.16.14c.31,1.57,1.7,2.71,3.3,2.71s2.99-1.14,3.3-2.71c.02-.08.08-.14.16-.14s.15.06.16.14c.2,1.03.89,1.91,1.83,2.37.07.03.11.11.09.18s-.07.13-.15.14c-1.01.1-1.9.64-2.45,1.47-.69,1.04-.75,2.36-.14,3.46.04.07.02.15-.03.2-.06.05-.14.06-.21.02-1.09-.7-2.45-.71-3.55-.02-1.15.71-1.75,2.02-1.55,3.34.01.08-.03.15-.1.18s-.15,0-.2-.06c-.81-1.11-2.18-1.61-3.49-1.29-1.32.32-2.34,1.44-2.52,2.8-.01.08-.07.14-.15.14-.08,0-.15-.04-.18-.11-.45-1.31-1.68-2.22-3.04-2.26-1.37-.04-2.64.77-3.19,2.02-.03.07-.11.11-.18.1-.08-.01-.13-.08-.14-.15-.09-1.37-.98-2.53-2.29-2.96-1.25-.42-2.64-.05-3.54.94-.05.06-.14.07-.2.03-.07-.04-.1-.11-.08-.19.32-1.28-.14-2.63-1.18-3.45-1.03-.81-2.44-.94-3.61-.33-.07.04-.15.02-.2-.04s-.06-.14-.01-.21c.74-1.09.77-2.52.08-3.65-.71-1.13-2.08-1.74-3.41-1.52-.08.01-.15-.03-.18-.1s0-.15.05-.2c1.09-.82,1.58-2.25,1.23-3.56-.37-1.35-1.57-2.34-2.97-2.45-.08,0-.14-.07-.15-.14s.03-.15.1-.18c1.32-.54,2.15-1.86,2.06-3.27-.07-1.43-1.05-2.65-2.42-3.04-.07-.02-.12-.09-.12-.17,0-.08.06-.14.13-.16,1.39-.29,2.46-1.43,2.65-2.84.19-1.36-.5-2.73-1.72-3.4-.07-.04-.1-.11-.08-.19.02-.07.09-.13.16-.13,1.39,0,2.62-.83,3.15-2.11.5-1.26.2-2.68-.76-3.62-.06-.05-.07-.14-.03-.21.04-.07.12-.1.19-.08,1.27.38,2.66-.06,3.51-1.06.84-1,1.02-2.42.45-3.6-.03-.07-.02-.15.04-.2.06-.05.15-.05.21,0,.58.43,1.26.66,1.97.66.57,0,1.13-.14,1.63-.42,1.15-.64,1.82-1.89,1.72-3.19,0-.08.04-.15.11-.17.07-.02.15,0,.2.07.62.95,1.67,1.52,2.8,1.52.17,0,.35-.01.54-.04,1.34-.22,2.43-1.26,2.73-2.6.02-.08.08-.13.16-.13.1,0,.15.05.17.12.36,1.36,1.55,2.35,2.94,2.46.1.01.2.01.29.01,1.28,0,2.46-.75,3.02-1.91.03-.07.11-.11.19-.09.08.02.13.08.13.16.03,1.37.89,2.57,2.2,3.05,1.2.43,2.57.13,3.48-.76.06-.05.14-.06.2-.02.07.04.1.12.07.19-.36,1.21-.02,2.5.89,3.37.9.88,2.26,1.2,3.49.72.08-.03.16,0,.2.07.04.07.03.16-.02.21-.65.63-1.03,1.51-1.03,2.4,0,1.85,1.51,3.36,3.36,3.36,1.36,0,2.57-.81,3.09-2.07.03-.06.09-.1.15-.1s.13.04.15.1c.52,1.26,1.74,2.07,3.09,2.07s2.57-.81,3.09-2.07c.05-.13.26-.13.31,0,.52,1.26,1.74,2.07,3.09,2.07,1.85,0,3.36-1.51,3.36-3.36,0-.92-.36-1.78-1.02-2.41-.66-.64-1.51-.97-2.45-.95h0c-.07,0-.14-.05-.16-.12-.02-.07,0-.15.07-.19.57-.39,1-.94,1.25-1.6.31-.84.28-1.76-.1-2.57-.37-.82-1.04-1.44-1.88-1.75-.66-.25-1.37-.28-2.04-.1-.07.02-.15,0-.19-.07-.04-.06-.03-.14.02-.2.46-.53.74-1.18.82-1.88.09-.89-.17-1.77-.74-2.47-.57-.7-1.38-1.13-2.27-1.22-.71-.07-1.41.08-2.02.44-.07.04-.15.03-.2-.02-.05-.05-.07-.13-.04-.2.74-1.47.31-3.25-1.02-4.23-.73-.53-1.62-.74-2.51-.6-.69.11-1.31.42-1.8.89-.05.05-.13.06-.2.03-.06-.04-.1-.11-.08-.18.15-.67.09-1.36-.17-1.99-.34-.83-.98-1.49-1.81-1.84-1.47-.63-3.2-.12-4.09,1.2-.04.06-.12.09-.19.07-.07-.02-.12-.09-.12-.16,0-.66-.18-1.3-.54-1.86-.49-.75-1.24-1.27-2.12-1.46-1.55-.34-3.15.48-3.79,1.94-.03.07-.1.11-.18.1-.07,0-.13-.07-.14-.14-.24-1.56-1.55-2.76-3.13-2.85-1.57-.09-3.01.94-3.43,2.45-.02.07-.08.12-.16.12-.07.02-.14-.05-.16-.12-.2-.63-.57-1.18-1.09-1.6-.69-.57-1.57-.83-2.46-.74-.89.09-1.69.52-2.26,1.22-.43.52-.68,1.15-.74,1.81,0,.07-.06.14-.14.15-.07.01-.15-.02-.18-.09-.31-.59-.78-1.08-1.38-1.4-.79-.43-1.7-.52-2.56-.26-.86.25-1.57.83-1.99,1.62-.32.59-.46,1.26-.39,1.93,0,.07-.03.14-.1.17-.07.03-.15,0-.19-.05-.42-.52-.98-.9-1.63-1.1-.86-.27-1.77-.18-2.56.24-.8.42-1.38,1.13-1.64,1.99-.2.65-.2,1.33,0,1.98.02.07,0,.15-.07.19-.06.04-.14.04-.2,0-1.24-1.03-3.05-1.04-4.29-.01-.69.57-1.12,1.38-1.2,2.28-.06.68.08,1.36.41,1.95.04.07.03.15-.03.2-.05.05-.13.06-.2.03-1.42-.76-3.19-.41-4.21.85-1,1.25-.98,3.06.06,4.29.05.06.05.14.01.2s-.12.09-.19.07c-1.53-.45-3.2.25-3.94,1.67-.42.79-.5,1.71-.23,2.57.2.64.58,1.2,1.1,1.61.06.05.08.12.05.19s-.09.11-.17.11c-1.58-.14-3.08.86-3.54,2.38-.46,1.52.22,3.17,1.62,3.92.07.04.1.11.09.18-.02.07-.08.13-.15.13-1.58.14-2.87,1.38-3.07,2.94-.18,1.56.76,3.08,2.25,3.59.07.02.12.09.11.17,0,.07-.06.14-.13.15-.62.15-1.19.49-1.64.96-.61.66-.94,1.51-.91,2.41.06,1.6,1.19,2.91,2.75,3.2.07.01.13.07.14.15,0,.07-.03.14-.1.17-1.44.62-2.27,2.19-1.99,3.73.3,1.56,1.67,2.71,3.25,2.73.07,0,.14.05.16.12.02.07,0,.15-.07.19-1.35.85-1.92,2.55-1.35,4.03.5,1.3,1.76,2.18,3.15,2.18.19,0,.38-.02.56-.05.07-.01.15.02.18.09s.02.15-.04.2c-.49.45-.83,1.04-.99,1.7-.21.88-.06,1.77.41,2.53.62.99,1.69,1.59,2.87,1.59.42,0,.83-.08,1.22-.23.07-.03.15,0,.19.05.05.06.05.14,0,.2-.95,1.31-.84,3.11.28,4.29.64.68,1.5,1.05,2.43,1.05.66,0,1.29-.19,1.84-.55.06-.04.14-.04.2.01.06.05.08.13.05.2-.64,1.48-.13,3.22,1.2,4.14.55.37,1.2.56,1.88.56.91,0,1.76-.35,2.39-.98.05-.05.13-.06.2-.03.07.03.1.11.09.18-.13.66-.06,1.34.21,1.97.35.83,1,1.46,1.83,1.79.39.17.82.26,1.25.26,1.13,0,2.21-.59,2.83-1.55.04-.06.12-.09.19-.07.07.02.12.09.12.16,0,.67.2,1.32.58,1.87.51.74,1.28,1.24,2.16,1.4.22.05.43.07.62.07,1.39,0,2.61-.84,3.12-2.13.03-.07.09-.11.17-.11.07,0,.14.06.15.13.31,1.57,1.7,2.71,3.3,2.71s2.98-1.13,3.3-2.69c.02-.07.08-.13.15-.13.07,0,.14.03.17.1.52,1.26,1.77,2.1,3.12,2.1.2,0,.41-.02.65-.07.88-.17,1.64-.67,2.14-1.42.39-.58.59-1.26.57-1.95,0-.07.05-.14.12-.16.07-.02.15,0,.19.06.62.9,1.65,1.43,2.76,1.43.51,0,1.01-.11,1.46-.34,1.36-.66,2.1-2.15,1.82-3.64-.01-.07.02-.14.08-.18.06-.04.14-.03.19.02.65.55,1.43.87,2.27.93.07,0,.12.05.15.11.02.06.01.13-.03.18-.59.63-.92,1.44-.92,2.29,0,1.85,1.51,3.36,3.36,3.36,1.36,0,2.57-.81,3.09-2.07.05-.13.26-.13.31,0,.52,1.26,1.74,2.07,3.09,2.07s2.57-.81,3.09-2.07c.03-.06.09-.1.15-.1s.13.04.15.1c.52,1.26,1.74,2.07,3.09,2.07,1.85,0,3.36-1.51,3.36-3.36,0-1.36-.86-2.62-2.13-3.12-.06-.03-.11-.09-.11-.16s.04-.13.11-.16c1.27-.51,2.13-1.76,2.13-3.12s-.85-2.62-2.13-3.12c-.06-.03-.11-.09-.11-.16s.04-.13.11-.16c1.27-.5,2.13-1.76,2.13-3.12s-.86-2.62-2.13-3.12c-.06-.03-.11-.09-.11-.16s.04-.13.11-.16c1.27-.51,2.13-1.76,2.13-3.12s-.85-2.62-2.13-3.12c-.06-.03-.11-.09-.11-.16s.04-.13.11-.16c1.27-.51,2.13-1.76,2.13-3.12s-.86-2.62-2.13-3.12c-.06-.03-.11-.09-.11-.16s.04-.13.11-.16c1.27-.51,2.13-1.76,2.13-3.12s-.86-2.62-2.13-3.12c-.06-.03-.11-.09-.11-.16s.04-.13.11-.16c1.27-.51,2.13-1.76,2.13-3.12,0-1.85-1.51-3.36-3.36-3.36Z"/>
  <path d="M281.32,63.37c-.06-1.21-.72-2.27-1.78-2.81-.06-.03-.09-.09-.09-.15s.03-.12.09-.15c1.13-.62,1.82-1.85,1.76-3.14-.07-1.45-1.1-2.72-2.51-3.09-.06-.02-.11-.06-.12-.12-.02-.06,0-.12.05-.16,1.06-.99,1.37-2.59.74-3.91-.63-1.32-2.07-2.09-3.53-1.87-.05.01-.12-.02-.16-.06-.04-.05-.05-.11-.02-.17.59-1.35.22-2.96-.89-3.91l-.03-.02s-.02-.01-.03-.02c-1.01-.83-2.42-1-3.6-.43-.07.03-.15.02-.2-.04-.05-.06-.06-.14-.02-.2.57-.94.7-2.08.36-3.12-.02-.07,0-.15.06-.19.06-.04.14-.04.2,0,.58.43,1.27.65,1.99.65.93,0,1.83-.39,2.46-1.08.61-.66.93-1.51.9-2.41-.03-.9-.41-1.73-1.06-2.34-.03-.02-.05-.05-.08-.07-.07-.05-.09-.15-.04-.22.04-.07.13-.1.21-.07.03.01.06.02.08.03.34.12.69.18,1.05.18,1.46,0,2.74-.93,3.19-2.33.58-1.76-.39-3.66-2.15-4.24-.02,0-.04-.01-.07-.02-.08-.02-.14-.1-.13-.18,0-.08.08-.15.16-.15.89-.04,1.71-.43,2.31-1.09.6-.66.91-1.52.87-2.42-.05-.9-.44-1.73-1.1-2.33-.63-.57-1.41-.87-2.26-.87h-.05c-.08,0-.15-.06-.16-.14-.02-.08.03-.16.11-.19.82-.31,1.47-.92,1.84-1.72.38-.81.43-1.71.13-2.54l-.02-.06c-.63-1.72-2.56-2.62-4.29-2-.08.03-.18,0-.21-.09-.04-.08,0-.18.08-.22.65-.57,1.06-1.39,1.12-2.29.06-.89-.23-1.75-.82-2.43-.58-.68-1.4-1.09-2.29-1.16-.91-.07-1.77.22-2.45.81-.06.05-.16.06-.22,0-.06-.05-.09-.14-.05-.21.89-1.61.31-3.66-1.29-4.56-1.58-.87-3.62-.33-4.54,1.22-.04.07-.13.1-.21.07-.08-.03-.12-.11-.1-.19.18-.83.03-1.69-.4-2.42-.46-.77-1.19-1.31-2.06-1.52-.87-.22-1.78-.09-2.55.37-.71.42-1.23,1.09-1.47,1.87-.02.08-.11.13-.19.12-.08-.01-.14-.08-.14-.17-.01-1.76-1.4-3.23-3.15-3.34-1.55-.1-3.01.92-3.44,2.42-.02.07-.09.12-.16.12-.07-.02-.14-.05-.16-.13C250.41,1.03,249.08,0,247.56,0s-2.84,1.01-3.24,2.47c-.02.07-.09.12-.16.12s-.14-.05-.16-.12C243.59,1.01,242.26,0,240.75,0s-2.84,1.01-3.24,2.47c-.02.07-.09.12-.16.12s-.14-.05-.16-.12C236.79,1.01,235.45,0,233.95,0s-2.84,1.02-3.24,2.47c-.04.15-.28.15-.32,0C229.98,1.02,228.65,0,227.14,0s-2.84,1.01-3.24,2.47c-.04.15-.28.15-.32,0C223.18,1.01,221.84,0,220.34,0c-1.85,0-3.36,1.51-3.36,3.36,0,1.4.88,2.66,2.19,3.14.07.02.11.09.11.16s-.04.13-.11.16c-1.31.49-2.19,1.75-2.19,3.14s.87,2.65,2.16,3.14c.07.02.11.09.11.16s-.04.13-.11.16c-1.29.49-2.16,1.76-2.16,3.15s.87,2.65,2.17,3.14c.07.02.11.09.11.16s-.04.13-.11.16c-1.3.49-2.17,1.76-2.17,3.15s.87,2.65,2.16,3.14c.07.02.11.09.11.16s-.04.13-.11.16c-1.29.49-2.16,1.76-2.16,3.15s.87,2.65,2.17,3.14c.07.02.11.09.11.16s-.04.13-.11.16c-1.3.49-2.17,1.75-2.17,3.14s.87,2.66,2.16,3.15c.07.02.11.09.11.16s-.04.13-.11.16c-1.29.49-2.16,1.75-2.16,3.14s.87,2.66,2.17,3.15c.07.02.11.09.11.16s-.04.13-.11.16c-1.3.49-2.17,1.75-2.17,3.14s.87,2.65,2.17,3.15c.07.03.11.09.11.16s-.04.13-.11.16c-1.3.49-2.17,1.75-2.17,3.14s.87,2.66,2.17,3.15c.07.02.11.09.11.16s-.04.13-.11.16c-1.3.49-2.17,1.75-2.17,3.14s.87,2.65,2.17,3.15c.07.03.11.09.11.16s-.04.13-.11.16c-1.3.49-2.17,1.75-2.17,3.14s.88,2.66,2.19,3.14c.07.02.11.09.11.16s-.04.13-.11.16c-1.31.49-2.19,1.75-2.19,3.14,0,1.85,1.51,3.36,3.36,3.36,1.36,0,2.57-.81,3.09-2.07.03-.06.09-.1.15-.1s.13.04.15.1c.52,1.26,1.74,2.07,3.09,2.07s2.57-.81,3.09-2.07c.05-.13.26-.13.31,0,.52,1.26,1.74,2.07,3.09,2.07,1.85,0,3.36-1.51,3.36-3.36,0-1.46-.93-2.74-2.32-3.19-.07-.02-.12-.09-.12-.16s.05-.14.12-.16c1.39-.45,2.32-1.73,2.32-3.19s-.95-2.77-2.36-3.21c-.07-.02-.12-.09-.12-.16s.05-.14.12-.16c1.41-.44,2.36-1.73,2.36-3.21s-.95-2.77-2.36-3.21c-.07-.02-.12-.09-.12-.16s.05-.14.12-.16c1.41-.44,2.36-1.73,2.36-3.21s-.95-2.77-2.36-3.21c-.07-.02-.12-.09-.12-.16s.05-.14.12-.16c.94-.29,1.69-.98,2.08-1.87.03-.07.1-.11.17-.1.07,0,.13.06.15.13.38,1.48,1.72,2.51,3.24,2.51,1.41,0,2.69-.89,3.16-2.22.02-.07.09-.11.16-.11s.13.04.16.11c.48,1.33,1.75,2.22,3.16,2.22s2.59-.81,3.11-2.07c.03-.07.1-.11.16-.1.07,0,.13.05.15.12.39,1.26,1.5,2.18,2.81,2.34,1.24.14,2.44-.39,3.15-1.4.04-.06.11-.08.18-.07.07.02.12.08.13.15.12,1.17.84,2.17,1.91,2.68.83.39,1.81.43,2.68.09.06-.02.13,0,.18.04s.06.12.04.18c-.32.81-.31,1.7.02,2.51.4.98,1.22,1.7,2.25,1.97.07.02.12.07.12.14,0,.07-.03.14-.09.17-1.05.54-1.74,1.63-1.8,2.83l-.02.18c0,1.4.9,2.67,2.23,3.15.07.02.11.09.11.16s-.04.13-.11.16c-1.26.45-2.15,1.66-2.21,3l-.02.18c0,1.42.93,2.7,2.31,3.16.07.02.11.09.11.16s-.05.14-.12.16c-1.37.45-2.3,1.72-2.3,3.17,0,1.85,1.51,3.36,3.36,3.36,1.36,0,2.57-.81,3.09-2.07.05-.13.26-.13.31,0,.52,1.26,1.74,2.07,3.09,2.07s2.57-.81,3.09-2.07c.03-.06.09-.1.15-.1s.13.04.15.1c.52,1.26,1.74,2.07,3.09,2.07,1.85,0,3.36-1.51,3.36-3.36,0-1.25-.68-2.38-1.78-2.96-.06-.03-.09-.09-.09-.15s.03-.12.09-.15c1.1-.58,1.78-1.72,1.78-2.97v-.12s-.02-.03-.02-.04c-.06-1.2-.71-2.25-1.76-2.81-.06-.03-.09-.09-.09-.15s.03-.12.09-.15c1.08-.58,1.78-1.74,1.78-2.95v-.13s-.02-.03-.02-.04ZM262.73,25.86c-1.07.37-1.89,1.28-2.15,2.38-.22.88-.07,1.84.43,2.62.04.06.03.13,0,.19-.04.06-.11.08-.18.06-.87-.22-1.81-.07-2.56.41-.97.6-1.57,1.64-1.6,2.78,0,.07-.05.14-.12.16-.07.02-.14,0-.19-.06-.72-.99-1.92-1.52-3.13-1.38-1.37.17-2.48,1.14-2.83,2.47-.02.07-.08.12-.16.12-.06,0-.14-.04-.16-.11-.47-1.36-1.75-2.28-3.18-2.28s-2.78.96-3.21,2.38c-.02.07-.09.12-.16.12s-.14-.05-.16-.12c-.43-1.4-1.75-2.38-3.22-2.38-1.38,0-2.65.87-3.14,2.17-.03.07-.1.12-.18.11-.08-.01-.14-.07-.14-.15-.1-1.36-1.05-2.54-2.35-2.95-.07-.02-.12-.09-.12-.16s.05-.14.12-.16c1.41-.44,2.36-1.73,2.36-3.21s-.95-2.77-2.36-3.21c-.07-.02-.12-.09-.12-.16s.05-.14.12-.16c1.41-.44,2.36-1.73,2.36-3.21s-.95-2.77-2.36-3.21c-.07-.02-.12-.09-.12-.16s.05-.14.12-.16c1.21-.38,2.12-1.44,2.32-2.69.01-.07.07-.13.15-.14.07-.01.15.03.17.1.52,1.26,1.74,2.08,3.11,2.08,1.49,0,2.78-.96,3.21-2.38.04-.14.28-.14.32,0,.43,1.4,1.75,2.38,3.21,2.38s2.71-.91,3.18-2.27c.02-.07.1-.11.17-.11.07,0,.14.05.16.13.34,1.32,1.42,2.29,2.77,2.48,1.14.16,2.31-.28,3.05-1.16,0,0,.01-.02.02-.02l.07-.09c.04-.06.12-.08.19-.06.07.02.11.09.11.16,0,1.15.56,2.2,1.51,2.82l.04.02c.81.52,1.78.67,2.69.43.07-.02.14,0,.18.06.04.06.04.13,0,.19-.53.8-.68,1.79-.42,2.72.29,1.06,1.13,1.95,2.19,2.31.07.02.11.09.11.16,0,.07-.04.14-.11.16Z"/>
  <path d="M348.29,0c-1.62,0-3.01,1.15-3.3,2.74-.03.16-.3.16-.33,0-.3-1.59-1.69-2.74-3.3-2.74s-3.01,1.15-3.3,2.74c-.03.16-.3.16-.33,0-.3-1.59-1.69-2.74-3.3-2.74-1.85,0-3.36,1.51-3.36,3.36,0,1.41.89,2.67,2.21,3.15.07.02.11.09.11.16s-.04.13-.11.16c-1.32.47-2.21,1.73-2.21,3.14s.87,2.67,2.18,3.15c.07.02.11.09.11.16s-.04.13-.11.16c-1.3.49-2.18,1.76-2.18,3.15s.87,2.66,2.18,3.15c.07.02.11.09.11.16s-.04.13-.11.16c-1.3.48-2.18,1.75-2.18,3.15s.88,2.66,2.19,3.15c.07.02.11.09.11.16s-.04.13-.11.16c-1.31.48-2.19,1.75-2.19,3.14s.87,2.67,2.18,3.15c.07.02.11.09.11.16s-.04.13-.11.16c-1.3.49-2.18,1.76-2.18,3.15s.88,2.67,2.18,3.15c.07.02.11.09.11.16s-.04.13-.11.16c-1.3.48-2.18,1.75-2.18,3.15s.81,2.58,2.06,3.1c.06.03.11.09.1.16s-.05.13-.11.15c-1.19.4-2.07,1.48-2.24,2.73-.16,1.17.29,2.3,1.2,3.04.05.04.07.12.05.18s-.08.11-.15.12c-1.14.08-2.15.72-2.72,1.71-.53.94-.58,2.08-.14,3.04.03.06.02.14-.03.19-.05.05-.12.07-.18.04-.99-.38-2.12-.27-3.01.3-.94.6-1.52,1.63-1.56,2.74,0,.07-.05.13-.11.15-.07.02-.14,0-.18-.05-.76-.86-1.9-1.27-3.03-1.1l-.1.02s-.02.01-.04.01c-1.12.22-2.07,1.01-2.48,2.08-.02.06-.09.11-.16.11h0c-.07,0-.13-.04-.16-.11-.44-1.12-1.45-1.93-2.64-2.11-1.14-.17-2.27.24-3.02,1.1-.05.05-.12.07-.18.05s-.11-.08-.11-.15c-.04-1.12-.63-2.14-1.57-2.73-.91-.57-2.04-.68-3.03-.29-.07.02-.14,0-.18-.04-.05-.05-.06-.12-.03-.19.44-.97.39-2.11-.14-3.05-.57-.98-1.59-1.61-2.72-1.69-.07,0-.13-.05-.15-.12-.02-.07,0-.14.05-.18.91-.75,1.35-1.89,1.19-3.06-.18-1.27-1.04-2.31-2.25-2.72-.07-.02-.11-.08-.11-.15,0-.07.04-.13.1-.16,1.25-.52,2.06-1.73,2.06-3.09s-.87-2.67-2.18-3.15c-.07-.02-.11-.09-.11-.16s.04-.13.11-.16c1.3-.49,2.18-1.76,2.18-3.15s-.87-2.66-2.18-3.15c-.07-.02-.11-.09-.11-.16s.04-.13.11-.16c1.3-.48,2.18-1.75,2.18-3.15s-.87-2.66-2.18-3.14c-.07-.02-.11-.09-.11-.16s.04-.13.11-.16c1.3-.49,2.18-1.76,2.18-3.15s-.87-2.67-2.18-3.15c-.07-.02-.11-.09-.11-.16s.04-.13.11-.16c1.3-.49,2.18-1.76,2.18-3.15s-.87-2.66-2.18-3.15c-.07-.02-.11-.09-.11-.16s.04-.13.11-.16c1.3-.48,2.18-1.75,2.18-3.14s-.92-2.72-2.28-3.18c-.07-.02-.11-.09-.11-.16s.05-.14.11-.16c1.37-.46,2.28-1.73,2.28-3.17,0-1.85-1.51-3.36-3.36-3.36-1.62,0-3.01,1.15-3.3,2.74-.03.16-.3.16-.33,0-.3-1.59-1.69-2.74-3.3-2.74s-3.01,1.15-3.3,2.74c-.03.16-.3.16-.33,0-.3-1.59-1.69-2.74-3.3-2.74-1.85,0-3.36,1.51-3.36,3.36,0,1.48.95,2.77,2.36,3.21.07.02.12.09.12.16s-.05.14-.12.16c-1.41.44-2.36,1.73-2.36,3.2s.94,2.77,2.34,3.21c.07.02.12.09.12.16s-.05.14-.12.16c-1.4.45-2.34,1.74-2.34,3.2s.95,2.77,2.36,3.21c.07.02.12.09.12.16s-.05.14-.12.16c-1.41.44-2.36,1.73-2.36,3.21s.95,2.77,2.36,3.21c.07.02.12.09.12.16s-.05.14-.12.16c-1.41.44-2.36,1.73-2.36,3.21s.94,2.75,2.34,3.2c.07.02.12.09.12.16s-.05.14-.12.16c-1.4.45-2.34,1.73-2.34,3.2s.95,2.77,2.36,3.21c.07.02.12.09.12.16s-.05.14-.12.16c-1.41.44-2.36,1.73-2.36,3.21s1,2.82,2.44,3.23c.07.02.12.08.12.16,0,.07-.04.14-.11.16-1.46.52-2.38,1.96-2.24,3.51.16,1.57,1.37,2.81,2.94,3,.07,0,.13.06.14.13s-.02.14-.08.18c-1.38.76-2.05,2.41-1.59,3.92.26.86.84,1.56,1.63,1.99.59.32,1.25.45,1.91.38.07,0,.14.03.17.1.03.07.01.14-.04.19-1.19,1.07-1.47,2.85-.66,4.24.83,1.39,2.55,1.99,4.07,1.42.07-.03.14,0,.19.05.04.06.05.14,0,.2-.38.57-.57,1.24-.55,1.94.02.9.4,1.73,1.06,2.35,1.17,1.11,2.97,1.23,4.29.28.06-.04.14-.04.2,0,.06.04.08.12.06.19-.2.64-.21,1.32,0,1.98.26.86.84,1.57,1.64,1.99.79.42,1.7.52,2.56.26.64-.19,1.2-.56,1.61-1.07.05-.06.12-.08.19-.05.07.03.11.09.11.17-.09,1.58.95,3.03,2.48,3.44,1.51.41,3.13-.31,3.86-1.7.03-.06.09-.09.15-.09,0,0,.02,0,.03,0,.07.01.13.07.14.14.22,1.54,1.5,2.76,3.05,2.88.1.01.2.02.28.01,1.45,0,2.76-.96,3.2-2.34.02-.07.09-.12.16-.12s.14.05.16.12c.44,1.4,1.73,2.34,3.2,2.34h.28c1.53-.12,2.82-1.33,3.05-2.88.01-.07.07-.13.14-.14.07-.01.14.02.18.09.3.58.75,1.05,1.31,1.37.78.45,1.68.56,2.54.33.87-.23,1.6-.79,2.05-1.57.33-.57.48-1.22.44-1.87,0-.07.04-.14.11-.17.07-.03.15,0,.19.05,1.01,1.23,2.77,1.58,4.18.84.79-.42,1.37-1.13,1.64-1.99.2-.65.2-1.34,0-1.98-.02-.07,0-.14.06-.19.06-.04.14-.04.2,0,.55.4,1.2.63,1.88.65.9.03,1.75-.3,2.41-.92.66-.61,1.03-1.44,1.06-2.34.02-.69-.17-1.36-.54-1.94-.04-.06-.04-.14.01-.2.05-.06.12-.08.19-.05.64.24,1.33.28,2,.12.87-.22,1.61-.76,2.07-1.53.46-.77.6-1.68.38-2.55-.17-.66-.52-1.25-1.02-1.69-.06-.05-.07-.13-.04-.19s.1-.11.17-.1c.66.07,1.32-.06,1.91-.37.8-.42,1.38-1.13,1.64-1.99.45-1.5-.21-3.14-1.58-3.91-.06-.04-.1-.11-.08-.18.01-.07.07-.13.15-.13.63-.07,1.23-.33,1.73-.73.69-.57,1.13-1.37,1.22-2.27.09-.89-.17-1.77-.74-2.46-.39-.48-.9-.84-1.48-1.05-.07-.02-.11-.09-.11-.16,0-.07.05-.14.12-.16,1.43-.41,2.43-1.74,2.43-3.23s-.95-2.77-2.36-3.21c-.07-.02-.12-.09-.12-.16s.05-.14.12-.16c1.41-.44,2.36-1.73,2.36-3.21s-.94-2.75-2.34-3.2c-.07-.02-.12-.09-.12-.16s.05-.14.12-.16c1.4-.45,2.34-1.74,2.34-3.2s-.95-2.77-2.36-3.21c-.07-.02-.12-.09-.12-.16s.05-.14.12-.16c1.41-.44,2.36-1.73,2.36-3.21s-.95-2.77-2.36-3.21c-.07-.02-.12-.09-.12-.16s.05-.14.12-.16c1.41-.44,2.36-1.73,2.36-3.21s-.94-2.75-2.34-3.2c-.07-.02-.12-.09-.12-.16s.05-.14.12-.16c1.4-.45,2.34-1.74,2.34-3.2s-1.03-2.87-2.51-3.25c-.07-.02-.13-.09-.13-.16s.05-.14.13-.16c1.48-.39,2.51-1.72,2.51-3.25,0-1.85-1.51-3.36-3.36-3.36Z"/>
  <path d="M498.26,56.27c-.07-.03-.11-.09-.11-.17,0-.07.05-.13.12-.15.65-.19,1.23-.56,1.66-1.08.57-.69.84-1.56.76-2.46-.08-.89-.5-1.7-1.2-2.28-.54-.45-1.19-.71-1.87-.77-.07,0-.13-.06-.15-.12-.02-.07,0-.14.07-.18,1.37-.91,1.89-2.72,1.2-4.22-.38-.81-1.05-1.43-1.89-1.74-.7-.26-1.44-.28-2.15-.06-.07.02-.14,0-.19-.06-.04-.06-.04-.14,0-.19.94-1.37.72-3.26-.52-4.38-1.22-1.11-3.04-1.18-4.34-.15-.06.04-.14.05-.2,0-.06-.04-.09-.11-.07-.18.4-1.56-.38-3.19-1.85-3.87-.81-.38-1.72-.42-2.56-.12-.61.22-1.14.61-1.53,1.12-.05.06-.12.08-.19.06-.07-.02-.11-.09-.11-.16.02-1.56-1.03-2.92-2.55-3.31-1.46-.36-3.01.31-3.74,1.63-.03.06-.11.1-.18.08-.07-.01-.13-.07-.13-.14-.18-1.47-1.29-2.63-2.76-2.89-1.44-.25-2.87.45-3.56,1.73-.03.06-.11.1-.18.09-.07-.01-.13-.07-.14-.14-.21-1.44-1.31-2.59-2.75-2.84-1.41-.23-2.83.44-3.52,1.68-.03.06-.11.1-.18.08-.07-.01-.13-.07-.13-.14-.17-1.38-1.16-2.49-2.53-2.83-1.21-.3-2.48.08-3.3,1-.05.05-.13.07-.19.04-.07-.03-.11-.09-.1-.17.07-1.1-.4-2.17-1.27-2.86-.51-.41-1.14-.65-1.8-.7-.06,0-.12-.05-.14-.11-.02-.06,0-.13.04-.18.47-.49.78-1.11.89-1.8.13-.76-.02-1.56-.42-2.24-.03-.06-.03-.13,0-.19.04-.05.11-.08.17-.06.84.19,1.75.05,2.5-.39.99-.6,1.61-1.69,1.62-2.85,0-.07.05-.13.11-.16.07-.02.14,0,.19.06.74.95,1.99,1.45,3.17,1.27,1.29-.19,2.36-1.13,2.72-2.38.02-.07.08-.12.16-.12.06,0,.14.04.16.11.46,1.24,1.62,2.11,2.95,2.19,1.29.08,2.5-.58,3.13-1.71.04-.06.1-.1.18-.08.07.01.13.07.14.14.18,1.24,1.02,2.28,2.2,2.71,1.04.37,2.2.2,3.11-.45.06-.04.14-.04.19,0,.06.04.09.11.07.18-.26,1.04-.02,2.12.67,2.95.74.89,1.86,1.33,2.99,1.19.07,0,.15.03.18.1.03.07,0,.15-.05.2-.8.64-1.26,1.6-1.26,2.62,0,1.85,1.5,3.36,3.35,3.36,1.36,0,2.58-.82,3.1-2.08.03-.06.09-.1.16-.1s.13.04.16.1c.52,1.26,1.73,2.08,3.09,2.08s2.58-.82,3.1-2.08c.03-.06.09-.1.16-.1s.13.04.16.1c.52,1.26,1.73,2.08,3.09,2.08,1.85,0,3.36-1.51,3.36-3.36,0-1.68-1.26-3.12-2.92-3.33-.07,0-.13-.06-.14-.13s.02-.14.08-.18c.58-.33,1.04-.83,1.34-1.43.4-.8.46-1.71.17-2.55-.29-.85-.89-1.54-1.69-1.95-.61-.31-1.3-.42-1.97-.32-.07,0-.14-.03-.17-.09s-.02-.14.03-.19c1.13-1.16,1.27-2.98.32-4.31-.96-1.32-2.73-1.76-4.2-1.05-.07.03-.14.02-.19-.03-.05-.05-.06-.13-.03-.19.72-1.46.3-3.23-1.01-4.2-.72-.53-1.6-.75-2.49-.62-.67.1-1.28.39-1.78.85-.05.05-.13.06-.2.02-.06-.03-.1-.11-.08-.18.12-.64.04-1.3-.22-1.91-.35-.83-1.01-1.47-1.85-1.8-.84-.33-1.75-.32-2.58.04-.58.25-1.08.66-1.44,1.18-.04.06-.11.09-.18.07-.07-.02-.12-.08-.12-.15-.07-1.56-1.2-2.85-2.75-3.13-1.51-.28-3.02.5-3.67,1.91-.03.06-.1.1-.17.1-.07,0-.13-.06-.15-.13-.33-1.5-1.62-2.58-3.15-2.64-.04,0-.08,0-.13,0-1.5,0-2.8.96-3.22,2.39-.02.07-.08.12-.15.12-.08,0-.14-.04-.16-.11-.53-1.44-1.97-2.33-3.5-2.18-1.54.16-2.77,1.35-2.98,2.88-.01.07-.07.13-.14.14-.07.01-.14-.02-.18-.08-.3-.54-.76-.99-1.31-1.3-.79-.43-1.7-.53-2.56-.29-1.5.43-2.52,1.88-2.42,3.44,0,.07-.04.14-.1.17-.07.03-.14,0-.19-.04-.43-.49-.99-.84-1.63-1.01-.87-.24-1.77-.13-2.55.32-1.41.8-2.05,2.49-1.52,4.02.02.07,0,.14-.06.19-.06.04-.14.05-.19,0-1.37-.88-3.18-.65-4.29.55-1.1,1.21-1.17,3.08-.16,4.36.04.06.05.13,0,.19-.04.06-.11.09-.18.07-.7-.16-1.43-.1-2.09.19-.82.35-1.45,1-1.78,1.83-.62,1.53-.04,3.27,1.38,4.13.06.04.09.11.08.18-.02.07-.07.12-.14.13-1.63.22-2.86,1.56-2.93,3.2-.06,1.62,1.05,3.06,2.64,3.42.07.02.12.07.13.15,0,.07-.03.14-.09.17-.64.31-1.16.8-1.5,1.43-.43.79-.53,1.69-.27,2.55.25.87.83,1.58,1.62,2.02.64.35,1.35.48,2.07.37.07-.01.14.03.17.09.03.06.02.14-.03.19-.5.53-.8,1.19-.88,1.92-.1.9.15,1.77.72,2.47.56.7,1.36,1.14,2.25,1.24.73.08,1.43-.07,2.04-.42.06-.04.14-.03.19.02s.07.12.05.19c-.6,1.52-.02,3.25,1.39,4.11.76.47,1.66.61,2.53.4.66-.16,1.24-.5,1.69-1,.05-.05.12-.07.19-.04.07.03.11.1.1.17-.06.65.07,1.3.38,1.88.42.79,1.13,1.37,1.99,1.63.85.27,1.76.18,2.55-.23.55-.29,1.01-.73,1.32-1.26.04-.06.11-.09.18-.08.07.01.12.07.13.15.17,1.47,1.3,2.68,2.76,2.95,1.43.25,2.86-.44,3.55-1.73.03-.06.11-.1.18-.09.07.01.13.07.14.14.22,1.44,1.33,2.58,2.76,2.83,1.43.24,2.85-.46,3.53-1.74.03-.06.11-.1.18-.09.07.01.13.07.14.14.2,1.39,1.27,2.52,2.66,2.8,1.28.26,2.6-.25,3.37-1.31.04-.06.12-.08.19-.06.07.02.12.08.12.16.03,1.26.75,2.39,1.87,2.94.83.42,1.81.47,2.68.13.06-.02.14,0,.18.04.05.05.06.12.03.18-.31.71-.35,1.53-.13,2.29.19.66.59,1.24,1.15,1.68.05.04.07.11.06.17-.01.06-.06.11-.13.13-.68.15-1.29.5-1.77,1.01-.7.76-1,1.79-.84,2.81.01.07-.02.14-.08.17-.06.03-.14.03-.19-.02-.87-.74-2.04-.99-3.14-.65-1.24.37-2.14,1.4-2.35,2.67-.01.07-.07.13-.14.14-.07.01-.14-.02-.18-.09-.61-1.15-1.83-1.86-3.13-1.8-1.32.05-2.49.89-2.98,2.12-.03.07-.1.12-.16.11-.07,0-.13-.05-.15-.12-.35-1.26-1.42-2.21-2.71-2.4-1.25-.2-2.49.32-3.24,1.34-.04.06-.12.08-.19.06-.07-.02-.12-.08-.12-.15-.05-1.23-.76-2.34-1.85-2.89-1.02-.52-2.23-.48-3.22.11-.06.04-.14.03-.19-.02-.05-.05-.07-.12-.05-.19.38-1.05.21-2.22-.44-3.12-.7-.96-1.89-1.48-3.1-1.35-.08,0-.15-.03-.17-.11-.03-.07,0-.15.06-.2.84-.63,1.33-1.63,1.33-2.67,0-1.86-1.51-3.36-3.36-3.36-1.36,0-2.58.82-3.1,2.08-.05.13-.26.13-.31,0-.52-1.26-1.73-2.08-3.1-2.08s-2.58.82-3.1,2.08c-.05.13-.26.13-.31,0-.52-1.26-1.73-2.08-3.1-2.08-1.85,0-3.36,1.51-3.36,3.36,0,1.66,1.24,3.1,2.89,3.33.07.01.13.07.14.14s-.02.14-.09.18c-1.42.77-2.1,2.44-1.61,3.98.48,1.54,2.01,2.51,3.61,2.32.07,0,.14.03.17.09s.02.14-.03.19c-.48.48-.81,1.09-.93,1.77-.17.88.02,1.78.53,2.52.51.74,1.27,1.24,2.16,1.41.67.12,1.36.05,1.98-.23.06-.03.14-.01.19.04.05.05.06.13.02.19-.77,1.42-.42,3.18.83,4.2,1.25,1.01,3.05,1,4.27-.02.06-.05.14-.05.2-.01s.09.11.07.18c-.16.64-.12,1.3.11,1.93.3.84.92,1.52,1.74,1.9.8.38,1.71.43,2.55.13.61-.22,1.14-.6,1.53-1.11.04-.06.12-.08.19-.06.07.02.11.09.11.16-.02,1.57,1.03,2.94,2.55,3.33,1.51.37,3.08-.33,3.79-1.7.03-.07.11-.1.18-.09.07.01.13.07.14.14.23,1.53,1.47,2.7,3.02,2.85,1.53.13,2.95-.78,3.47-2.22.02-.07.09-.11.16-.11h0c.07,0,.14.05.16.12.42,1.43,1.72,2.4,3.23,2.4h.13c1.53-.06,2.84-1.15,3.16-2.66.02-.07.07-.12.15-.13.08,0,.14.03.17.1.25.55.65,1.03,1.16,1.38.74.51,1.64.7,2.52.53.88-.16,1.64-.66,2.15-1.41.36-.53.56-1.13.58-1.75,0-.07.05-.14.12-.15.07-.02.15,0,.19.07.35.53.85.94,1.44,1.2.82.36,1.74.38,2.58.05,1.47-.58,2.35-2.13,2.09-3.7-.01-.07.02-.14.09-.18.06-.03.14-.02.19.03.49.46,1.1.76,1.77.87.88.14,1.77-.08,2.5-.61,1.33-.96,1.77-2.73,1.03-4.21-.03-.06-.02-.14.03-.19.05-.05.13-.07.19-.03.64.31,1.36.4,2.07.27.88-.17,1.65-.66,2.16-1.41.51-.74.7-1.63.53-2.51-.13-.73-.49-1.37-1.03-1.87-.05-.05-.07-.13-.04-.19.03-.07.1-.11.17-.1.73.06,1.44-.12,2.06-.52.76-.48,1.28-1.23,1.47-2.11.36-1.61-.49-3.23-2.02-3.85ZM460.41,75.46s.02-.09.05-.12l.12.12h-.17ZM460.58,75.46h0s0,0,0,0h0ZM460.75,75.46h0s0,0,0,0Z"/>
  <path d="M212.97,43.12c0-1.56-1.07-2.86-2.52-3.24,1.44-.38,2.52-1.68,2.52-3.25,0-1.86-1.51-3.36-3.36-3.36s-3.36,1.5-3.36,3.36h-.2c0-1.85-1.51-3.36-3.36-3.36s-3.36,1.5-3.36,3.36h-.2c0-1.85-1.51-3.36-3.36-3.36s-3.36,1.5-3.36,3.36h-.2c0-1.85-1.51-3.36-3.36-3.36s-3.36,1.5-3.36,3.36h-.2c0-1.85-1.51-3.36-3.36-3.36s-3.36,1.5-3.36,3.36h-.2c0-1.85-1.51-3.36-3.36-3.36s-3.36,1.5-3.36,3.36h-.2c0-1.85-1.51-3.36-3.36-3.36s-3.36,1.5-3.36,3.36h-.2c0-1.85-1.51-3.36-3.36-3.36s-3.36,1.51-3.36,3.36c0,1.57,1.07,2.88,2.52,3.25-1.44.38-2.52,1.68-2.52,3.24s1.07,2.88,2.52,3.25c-1.44.38-2.52,1.68-2.52,3.24,0,1.87,1.51,3.37,3.36,3.37s3.36-1.5,3.36-3.37h.2c0,1.87,1.51,3.37,3.36,3.37s3.36-1.5,3.36-3.37h.2c0,1.87,1.51,3.37,3.36,3.37s3.36-1.5,3.36-3.37h.2c0,1.87,1.51,3.37,3.36,3.37s3.36-1.5,3.36-3.37h.2c0,1.87,1.51,3.37,3.36,3.37s3.36-1.5,3.36-3.37h.2c0,1.87,1.51,3.37,3.36,3.37s3.36-1.5,3.36-3.37h.2c0,1.87,1.51,3.37,3.36,3.37s3.36-1.5,3.36-3.37h.2c0,1.87,1.51,3.37,3.36,3.37s3.36-1.51,3.36-3.37c0-1.56-1.07-2.86-2.52-3.24,1.44-.38,2.52-1.68,2.52-3.25Z"/>
  <g>
    <path d="M513.64,0c-6.86,0-12.52,5.3-12.52,12.66s5.66,12.59,12.52,12.59,12.59-5.3,12.59-12.59S520.57,0,513.64,0ZM513.64,23.13c-5.73,0-10.25-4.38-10.25-10.46s4.53-10.54,10.25-10.54,10.25,4.38,10.25,10.54-4.53,10.46-10.25,10.46Z"/>
    <path d="M516.61,13.3c1.7-.14,2.97-1.41,2.97-3.32,0-2.47-1.7-4.03-5.02-4.03h-6.15v13.15h2.9v-4.67h2.69c1.49,0,2.12.49,2.19,2.05.14,1.41.28,2.26.57,2.62h3.04c-.5-.49-.57-1.13-.71-3.11-.14-1.49-.99-2.4-2.48-2.69ZM514,12.17h-2.69v-3.96h2.69c1.77,0,2.62.78,2.62,1.98,0,1.34-.85,1.98-2.62,1.98Z"/>
  </g>
</svg>