<?xml version="1.0" encoding="UTF-8"?><svg id="a" xmlns="http://www.w3.org/2000/svg" viewBox="0 0 818.02 145.12"><path d="M133.48,95.88c.91-2.39,2.38-4.5,2.31-6.55-.08-2.05-1.71-4.04-2.73-6.2,4.04-3.73,4.11-6.81-.08-11.3,3.52-3.69,4.07-7.29,1.26-10.05-1.06-1.03-2.64-1.81-4.1-2.08-2.88-.53-4.99,1.18-6.7,3.51-1.7-2.53-3.84-4.17-6.47-3.48-2.23.59-4.18,2.22-5.91,3.2-1.9-1.04-3.94-2.99-6.08-3.1-2.23-.12-4.54,1.54-7.08,2.53-3.85-4.16-7.52-3.97-11.64,1.15-4.32-5.35-8.12-5.35-12.52,0-3.38-4.25-7.16-5.12-10.4-2.39-3.26,2.75-3.05,6.41.13,10.21-.91,2.38-2.31,4.4-2.28,6.39.04,1.98,1.52,3.94,2.43,6.08-3.3,3.28-3.71,7.42-.41,10.04,1.26,1,3.14,1.57,4.77,1.65,2.7.13,4.42-1.81,5.76-4.04,3.8,5.59,8.62,5.57,12.55-.01,1.29,2.33,3.06,3.97,5.82,4.14,2.7.16,4.66-1.22,6.25-3.38.76,1.03,1.33,1.82,1.97,2.69-3.58,1.69-4.79,4.55-4.19,8.36-4.97-.69-7.72,1.54-8.88,5.9-5.55-2.5-7.46-2.05-10.63,1.91-2.2-.87-4.23-2.32-6.21-2.27-2.04.06-4.03,1.58-6.08,2.48-2.3-4.62-4.82-5.62-9.56-3.91-1.32-1.83-2.22-4.01-3.85-5.08-1.6-1.06-3.94-.99-5.95-1.42,1.33-4.93.03-7.35-4.76-9.26.17-2.27.89-4.51.32-6.36-.56-1.85-2.4-3.32-3.77-5.06,3.44-4.52,3.16-7.14-1.52-11.29,5.04-3.36,5.58-6.74,1.85-11.59,5.4-2.82,6.16-4.59,4.53-10.55,5.41-.68,6.85-2.22,7.54-8.02,5.53.85,7.42-.23,9.35-4.97,2.07.43,4.12,1.39,5.99,1.1,1.86-.28,3.53-1.81,4.83-2.54,1.93.94,3.77,2.47,5.68,2.58,2.01.11,4.09-1.15,6.29-1.86,2.87,4.22,4.74,4.87,9.61,3.25.82,1.8,1.25,3.94,2.52,5.21,1.34,1.33,3.49,1.84,5.34,2.74-1.39,4.05-.68,7.04,2.32,8.89,2.91,1.8,5.8,1.15,8.62-1.57,2.36.91,4.46,2.39,6.51,2.33,2.04-.06,4.03-1.67,6.16-2.65,2.53,2.88,5.21,3.73,8.27,2.37,2.81-1.24,4.21-3.86,3.81-7.14-.37-3.02-2.64-4.93-6.67-5.58,3.1-5.98,1.97-9.03-4.3-11.58,2.57-6.53-.61-10.6-8.07-10.05.32-2.82-.33-5.3-2.77-7.01-2.43-1.7-4.97-1.28-7.49-.16-1.15-7.07-5.99-8.88-12.06-4.63-.67-2.68-2.03-4.76-4.8-5.6-2.84-.86-5.11.34-7.12,2.2-3.99-5.39-8.37-5.32-12.5.11C67.24,1.7,65.3,0,62.3.09c-3.1.08-4.91,2.04-6.23,4.59-5.83-4.48-10.29-3.07-12.3,3.72-6.04-2.8-9.28-1.11-11.13,5.87-2.67-1.07-5.56-1.27-7.37,1.06-1.49,1.92-2.02,4.58-3.07,7.15-6.16-.27-8.92,4.17-7.1,10.01-2.84,0-5.29.79-6.77,3.4-1.46,2.58-.91,5.08.66,7.59-2.91.62-4.92,2.07-5.75,4.83-.85,2.85.38,5.12,2.38,7.23-2.78,1.13-4.66,2.78-5.06,5.63-.41,2.9.99,5.05,3.32,6.78-2.55,1.66-4.06,3.65-3.87,6.54.18,2.85,1.9,4.63,4.53,5.94-2.33,1.9-3.48,4.12-2.91,6.94.58,2.9,2.7,4.4,5.33,5.35-4.49,5.63-2.75,10.34,4.42,12.16-1.53,2.44-1.99,4.96-.45,7.54,1.58,2.63,4.15,3.32,7.12,3.19-.93,2.91-.73,5.38,1.28,7.47,1.96,2.04,4.43,2.29,7.04,1.71.53,6.97,4.5,9.25,11.01,6.46.08,2.96,1.09,5.4,3.9,6.71,2.76,1.29,5.27.48,7.54-1.32,2.99,6.38,7.16,7.12,12.47,2.45,4.04,5.56,8.46,5.43,12.65-.36,5.46,5.25,10.06,4.38,12.74-2.42,6,3.39,9.71,1.83,11.61-4.92,1.02.3,2.05.59,3.08.89-2.05,4.2-1.64,7.3,1.22,9.48,2.89,2.2,5.84,1.69,9.14-1.16,2.35.91,4.37,2.32,6.37,2.29,1.99-.03,3.95-1.5,6.11-2.42,3.14,3.14,6.97,3.68,9.68.77,1.05-1.13,1.77-2.84,2.01-4.39.41-2.71-1.27-4.66-3.38-6.18,4.58-4.4,4.65-7.46.94-11.31.91-2.36,2.4-4.46,2.33-6.51-.07-2.05-1.71-4.04-2.73-6.21,4.03-3.81,4.1-6.89.42-10.76Z"/><path d="M653.69,107.52c1.02-2.26,2.62-4.27,2.66-6.32.04-2.04-1.47-4.11-2.11-5.69.78-2.08,2.21-4.13,2.11-6.1-.11-2.06-1.68-4.05-2.47-5.77.85-1.9,2.43-3.92,2.46-5.97.04-2.03-1.47-4.1-2.38-6.34,3.26-3.22,3.55-7.25.4-10.08-3.19-2.86-7.02-2.05-10.59,2.25-3.1-4.73-8.32-5.81-12.51,0-4.18-5.32-7.92-5.32-12.59.08-1.35-2.28-3.22-4.26-5.93-3.86-2.28.34-4.4,1.72-6.78,2.72-3.77-4.23-7.37-4.04-11.71,1.06-3.26-4.16-6.96-5.07-10.2-2.52-3.42,2.69-3.27,6.4-.06,10.35-.91,2.4-2.3,4.42-2.26,6.42.04,1.98,1.53,3.93,2.45,6.05-3.25,3.21-3.72,7.24-.58,9.89,1.23,1.04,3.09,1.67,4.71,1.8,2.81.23,4.58-1.76,6.03-4.1,1.39,2.56,3.3,4.47,6,4.08,2.27-.33,4.39-1.72,6.77-2.72,3.69,4.18,7.33,4.05,11.64-.92.68,1.01,1.36,2,2.09,3.08-3.69,1.76-4.81,4.73-4.23,7.86-2.29.54-4.54.55-6.11,1.59-1.56,1.02-2.43,3.08-3.63,4.72-4.6-2.54-6.99-2.01-10.25,2.05-2.08-.88-3.98-2.29-5.92-2.35-1.93-.06-3.91,1.23-5.51,1.8-1.58-1.2-3.08-3.02-4.94-3.56-1.84-.54-4.06.21-6.16.4-.48-4.79-3.73-6.62-8.54-6.36,1.12-5.4-.01-7.38-5.39-9.74,2.55-4.99,1.68-7.65-3.05-10.54.66-2.21,1.9-4.33,1.71-6.3-.2-1.99-1.83-3.84-2.85-5.79,1.92-.89,3.88-2.49,3.87-5-.02-2.21-1-4.42-1.58-6.74,4.65-2.14,5.66-4.54,4.02-9.69,1.78-1,3.87-1.61,5.04-3,1.22-1.44,1.57-3.63,2.11-5.02,2.02-.37,4.26-.26,5.89-1.21,1.6-.94,2.57-2.95,3.47-4.06,2.11.33,4.29,1.23,6.18.81,1.87-.41,3.45-2.15,4.65-2.97,1.85,1.05,3.7,2.83,5.73,3.06,2.03.23,4.24-1.1,6.54-1.79,2.68,4,4.24,4.62,9.45,3.44.91,5.3,2.43,6.66,8.08,7.24-1.36,4.83-.77,7.43,2.1,9.31,2.86,1.87,5.7,1.28,8.76-1.46,2.33.92,4.34,2.34,6.34,2.32,1.98-.02,3.95-1.49,6.07-2.38,2.38,2.58,4.99,3.36,7.92,2.13,2.78-1.17,4.16-3.56,3.93-6.82-.21-3.03-2.14-4.91-6.3-6.07,1.66-2.21,2.4-4.57,1.26-7.25-1.12-2.61-3.39-3.62-6.03-4.16,1.46-2.86,1.54-5.48-.44-7.9-1.94-2.36-4.56-2.73-7.55-2.04.27-2.9-.26-5.25-2.46-6.96-2.26-1.76-4.73-1.63-7.27-.65-.66-5.76-6.3-9.3-12.12-4.31-.62-2.86-2.12-4.94-5.01-5.71-2.99-.79-5.27.63-7.3,2.75-1.27-2.59-3.1-4.62-5.81-4.3-2.35.28-4.56,1.66-7.08,2.65-1.18-1.76-3.42-3.44-6.12-2.62-2.25.68-4.17,2.48-6.36,3.86-3.43-3.65-10.16-3.04-11.7,4.56-5.97-3.62-10.84-.62-11.47,5.68-2.67-1.19-5.21-1.11-7.49.84-2.33,2-2.53,4.65-1.96,7.46-7.12-.21-9.64,2.86-8.2,9.84-2.77.08-5.05,1.09-6.36,3.65-1.3,2.52-.77,4.94.8,7.3-2.91.71-4.95,2.12-5.77,4.9-.83,2.85.41,5.11,2.38,7.23-2.81,1.12-4.67,2.79-5.06,5.64-.4,2.89,1.02,5.03,3.36,6.79-2.66,1.6-4.08,3.64-3.9,6.53.18,2.84,1.92,4.62,4.52,5.94-2.35,1.91-3.47,4.14-2.9,6.95.59,2.88,2.71,4.38,5.42,5.34-2.27,2.29-3.23,4.73-2.11,7.66,1.11,2.88,3.5,4,6.57,4.35-1.69,2.49-2.07,4.95-.69,7.47,1.42,2.59,3.88,3.4,6.71,3.48-.96,2.98-.66,5.51,1.52,7.58,2.11,2.02,4.68,2.12,7.34,1.27.38,7.14,4.32,9.46,10.91,6.73,1.02,7.01,5.54,9.16,11.46,5.44,3.48,6.37,7,7.03,12.55,2.37,3.95,5.51,9,5.37,12.53-.53,5.16,6.11,11.35,3.47,12.87-2.4,2.18,1.7,4.54,2.5,7.22,1.4,2.74-1.13,3.85-3.44,4.23-6.29,1.03.36,1.88.66,2.74.97-2.08,4.05-1.83,7.2,1.01,9.27,1.14.83,2.85,1.66,4.08,1.4,2.2-.46,4.24-1.73,6.52-2.74,3.6,3.97,6.64,4.04,11.26-.12,3.69,3.56,7.4,3.96,10.28,1.11,2.97-2.94,2.49-6.65-.94-10.16,1.02-2.24,2.62-4.25,2.67-6.29.05-2.04-1.45-4.12-2.36-6.4,3.73-3.74,3.65-6.67-.29-10.81Z"/><path d="M272.13,84.02c1.02-2.24,2.62-4.25,2.67-6.29.05-2.04-1.45-4.12-2.36-6.4,3.23-3.24,3.54-7.2.43-10.04-3.21-2.93-7.2-2.1-10.58,2.2-4.5-5.34-8.26-5.33-12.52,0-4.4-5.34-8.22-5.33-12.52,0-4.31-5.35-8.12-5.35-12.63.13-1.28-2.38-3.2-4.3-5.88-3.93-2.27.32-4.4,1.69-6.82,2.69-3-3.27-6.73-3.86-9.75-1.14-3.1,2.8-2.83,6.43.32,10.06-.91,2.36-2.32,4.37-2.29,6.37.03,1.99,1.5,3.95,2.42,6.11-3.14,3.14-3.68,6.96-.77,9.68,1.13,1.05,2.84,1.79,4.39,2.02,2.7.4,4.67-1.26,6.27-3.5,1.72,2.33,3.67,3.75,6.44,3.57,2.75-.18,4.47-1.86,5.86-4.25,1.38,2.67,3.38,4.62,6.18,4.12,2.3-.41,4.4-1.95,6.66-3.02.32.48.97,1.43,1.67,2.47-3.66,1.72-4.81,4.7-4.15,8.48-5.48-.67-7.09.34-9.5,5.74-5.45-2.49-7.6-1.99-10.87,2.48-4.38-3.94-6.42-4.04-11.29-.52-3.4-4.86-5.26-5.42-10.32-3.44-1.12-1.8-1.86-3.93-3.35-5.08-1.5-1.16-3.75-1.33-5.71-1.95,1.02-5.21-.38-7.49-5.36-9.09.14-2.24.83-4.49.25-6.34-.58-1.85-2.43-3.3-3.4-4.52.62-2.09,1.86-4.21,1.67-6.2-.2-1.99-1.83-3.83-2.84-5.77,4.81-2.89,5.43-6.54,1.67-11.38,5.43-2.91,6.22-4.76,4.51-10.55,5.08-.92,6.47-2.5,7.04-8.02,5.62.77,7.51-.31,9.33-4.93,2.16.4,4.33,1.38,6.21.98,1.94-.41,3.6-2.16,5.41-3.34.97,1.79,2.67,3.64,5.19,3.48,2.16-.14,4.27-1.2,6.55-1.89,2.58,3.97,4.15,4.59,9.46,3.47.85,5.25,2.41,6.64,8.09,7.23-1.41,4.74-.8,7.44,2.1,9.31,2.86,1.85,5.59,1.28,9.32-1.95,4.13,4.05,7.09,4.06,11.36.06,3.08,3.01,5.76,3.75,8.65,2.39,2.6-1.23,3.98-3.63,3.65-6.75-.42-3.92-3.1-5.51-6.76-5.91,3.31-5.59,1.95-9.22-4.24-11.56,1.32-2.63,1.55-5.25-.36-7.71-1.95-2.51-4.66-2.83-7.69-2.25.29-2.88-.29-5.22-2.49-6.92-2.26-1.75-4.73-1.59-7.24-.62-1.22-7.4-7.69-8.41-12.09-4.37-.69-2.8-2.15-4.91-5.06-5.67-2.99-.78-5.24.68-7.28,2.75-1.27-2.63-3.13-4.62-5.83-4.29-2.34.28-4.55,1.68-7.02,2.67-1.25-1.75-3.46-3.48-6.18-2.64-2.25.7-4.16,2.51-6.38,3.92-1.64-1.69-4.04-2.74-7.01-1.71-2.9,1-4.04,3.4-4.58,6.23-5.91-3.51-10.85-.75-11.5,5.5-6.73-1.63-9.73.9-9.73,8.24-7.5.82-9.24,2.98-7.99,10.11-2.81-.02-5.03,1.1-6.34,3.64-1.29,2.5-.74,4.93.75,7.19-6.47,2.37-7.6,6.44-3.59,12.08-6,3.83-6.5,7.5-1.72,12.53-5.09,4.38-4.97,8.31.44,12.42-2.29,1.87-3.63,4.17-2.89,7.21.71,2.95,2.92,4.4,5.84,5.17-2.28,2.36-3.19,4.82-2.05,7.73,1.12,2.85,3.55,3.89,6.38,4.28-2.97,6.07-.79,9.94,6,11.02-1.54,5.72,2.06,10.51,9.13,8.9-.22,2.87.57,5.32,3.09,6.9,2.62,1.65,5.21,1.02,7.75-.39.56,7.71,7,8.98,11.59,5.53.92,2.7,2.52,4.72,5.47,5.26,2.9.53,5.03-.95,6.87-2.98,3.83,5.51,8.07,5.48,12.54.1,3.77,4.59,10.26,4.11,12.45-2.95,2.24,1.88,4.71,2.55,7.44,1.31,2.68-1.22,3.7-3.57,3.95-6.41,1.2.44,2.2.82,3.21,1.19-2.06,4.33-1.6,7.49,1.38,9.62,2.9,2.08,5.94,1.51,8.96-1.28,2.42.91,4.54,2.38,6.59,2.29,2.05-.09,4.04-1.73,6.18-2.75,3.01,3.35,6.77,4.11,9.64,1.36,1.12-1.07,1.97-2.73,2.27-4.26.57-2.88-1.16-5-3.41-6.64,4.6-4.04,4.68-7.06,1.08-11.22.91-2.47,2.35-4.6,2.25-6.64-.1-2.05-1.74-4.02-2.76-6.14,4.03-3.53,4.1-6.46,0-11.36,4.15-4.19,4.06-7.17.1-11.22Z"/><path d="M391.58,96.61c2.85-6.08,1.6-8.88-4.29-11.11-.99-2.47-1.33-4.8-2.65-6.23-1.32-1.43-3.62-1.95-5.72-2.98v-3.49c6.46,1.49,11.06-3.58,8.13-10.14,3.14-.13,5.52-1.44,6.58-4.47,1.19-3.38-.33-5.92-3.08-8.09,3.07-1.41,5.02-3.39,4.95-6.75-.08-3.33-2.33-5.07-5.12-6.45,2.39-2.24,3.26-4.7,2.19-7.63-1.09-2.99-3.63-4.03-6.63-4.42,1.49-2.98,1.52-5.66-.61-8.1-2.1-2.4-4.85-2.46-7.85-1.75.27-3.38-.51-6.08-3.46-7.67-2.87-1.55-5.58-.51-8.24,1.28-.79-3.31-2.17-5.48-5.05-6.29-2.88-.81-5.16.41-7.27,2.48-1.35-2.72-3.15-4.55-6.14-4.71-3.06-.16-5,1.63-6.59,4.01-3.76-5.2-7.32-5.36-12.26-.74-4.51-4.49-7.29-4.49-12.13.15-1.47-2.2-3.55-3.93-6.18-3.31-2.22.53-4.2,2.08-6.42,3.24-.95-1.78-2.89-3.65-5.58-3.24-2.26.34-4.37,1.73-6.72,2.74-2.85-3.26-6.73-4.02-9.58-1.25-1.11,1.08-2.27,2.88-2.16,4.25.19,2.28,1.38,4.48,2.04,6.41-.71,1.88-2.15,3.93-2.05,5.9.11,2.06,1.69,4.05,2.71,6.26-4.09,4.06-4.09,6.85.39,11.59-4.49,4.57-4.49,7.36-.42,11.55-1.02,2.24-2.63,4.25-2.68,6.29-.05,2.04,1.46,4.12,2.38,6.39-3.74,3.75-3.65,6.66.72,11.27-4.49,4.58-4.49,7.37-.42,11.55-1.02,2.24-2.62,4.25-2.67,6.29-.05,2.04,1.45,4.12,2.36,6.4-3.46,3.47-3.53,5.46,0,10.95-1.84,1.74-3.26,3.93-2.36,6.4.76,2.09,2.46,3.84,3.75,5.76-5.05,3.45-5.46,7.04-.94,11.9-3.5,3.66-3.96,7.2-1.31,10.1,2.78,3.05,6.25,2.78,10.65-.83,4.15,4.13,7.09,4.04,11.65-.33,3.84,3.73,7.33,4.4,10.17,1.65,1.06-1.03,1.87-2.59,2.19-4.04.62-2.76-.98-4.85-2.31-6,.93-2.5,2.36-4.55,2.25-6.52-.12-2.06-1.7-4.04-2.48-5.7.87-1.96,2.49-4.01,2.47-6.03-.02-2.12-1.62-4.22-2.64-6.57,4.04-4,4.04-6.8-.52-11.58.87-.83,1.75-1.66,2.62-2.48,4.27,4.24,7.28,4.16,11.31.18,2.23,1.02,4.24,2.62,6.28,2.68,2.04.06,4.12-1.44,5.85-2.13,1.6,1.01,3.25,2.74,5.15,3.06,1.97.33,4.17-.69,6.43-1.16,1.29,3.45,4.22,4.83,8.27,4.37-.41,3.41.96,5.83,3.55,7.57-3.7,4.66-3.53,7,.71,11.54-4.49,4.51-4.49,7.29,0,11.97-3.72,3.83-4.29,7.24-1.71,10.22,2.58,2.98,6,2.96,9.43.5,2.78.65,5.09,1.87,7.08,1.48,2.07-.41,3.84-2.37,5.77-3.66,2.79,4.05,6.44,5.2,9.87,2.76,3.51-2.5,3.59-6.3.22-10.84,3.58-4.59,3.49-6.84-.46-11.27,3.92-4.05,4.01-6.31.46-11.28,3.97-4.92,3.46-8.13-1.9-11.9ZM357.97,55.57c-3.66-.32-6.3,1.17-7.81,4.66-5.14-2.04-7.37-1.35-10.43,3.01-4.67-4.86-7.92-4.96-11.68-.77-2.27-1.01-4.35-2.63-6.48-2.69-2.02-.06-4.08,1.52-6.14,2.38-.78-1.05-1.9-2.56-2.74-3.68.96-2.16,2.57-4.25,2.62-6.37.05-2.03-1.54-4.09-2.44-6.22.71-1.47,2.31-3.44,2.45-5.51.13-1.98-1.25-4.06-2.06-6.35.63-.78,1.67-2.05,2.5-3.07,2.03.7,4.1,2.03,6.09,1.92,1.99-.11,3.9-1.66,5.69-2.5,1.75.81,3.69,2.15,5.81,2.58,2.48.5,4.41-1.11,5.61-2.76,1.87,1.12,3.55,2.75,5.47,3.12,1.83.35,3.91-.62,6.18-1.07.99,3.16,3.59,5.09,7.71,4.87-1.58,3.92-.76,7.03,2.64,9.29-3.56,3.7-3.84,4.57-3,9.16Z"/><path d="M774.69,87.9c4.26-5.66.76-11.62-6.12-11.55.9-2.85.64-5.46-1.67-7.58-2.28-2.09-4.92-2-7.79-.91.01-3.02-1.08-5.25-3.63-6.57-2.52-1.3-4.96-.76-7.32.85-.9-2.85-2.45-5.21-5.27-5.3-2.35-.07-4.74,1.03-7.3,1.67-2.74-4.7-6.39-5.33-10.85-1.89-1.96-1.52-3.62-3.67-5.66-4.14-2.11-.49-4.6.66-6.74,1.06-1.43-.99-2.94-2.66-4.77-3.12-1.8-.46-3.91.3-5.99.54-.25-2.91-2.25-4.86-4.61-5.72.21-2.61.39-4.77.58-7.09,3.32.12,5.75-1.73,6.82-4.54,2.27.3,4.3,1.08,6.06.67,1.84-.43,3.41-2.01,5.16-3.13,3.38,3.8,6.1,3.97,11.14.32,1.81,4.03,4.92,5.38,9.25,4.1.04,4.39,2.19,6.94,6.44,7.64-2,4.47-1.55,7.53,1.4,9.65,2.92,2.1,5.96,1.52,9.52-1.8,4.3,4.1,6.89,4.1,11.55.03,3.72,3.63,7.74,4.08,10.38.84,1.01-1.24,1.61-3.12,1.7-4.75.17-2.84-1.9-4.55-4.21-5.95,2.05-2.27,2.96-4.66,1.86-7.48-1.12-2.87-3.5-4-6.51-4.34,1.67-2.69,2.09-5.3.36-7.91-1.75-2.65-4.44-3.24-7.43-2.79.64-6.41-3.93-10.42-10.36-7.68-.17-2.88-1.3-5.18-4.03-6.4-2.8-1.25-5.28-.26-7.55,1.43-3.11-5.95-7.26-6.54-12.38-1.91-1.3-2.31-3.16-4.3-5.87-3.93-2.27.31-4.41,1.66-6.87,2.67-1.2-1.64-3.24-3.04-6.12-2.75-2.86.29-4.48,2.22-5.73,4.57-5.76-4.49-10.25-3.07-12.29,3.72-6.21-3.45-10.86.38-11.01,6.45-2.79-.64-5.3-.21-7.24,2.07-1.93,2.27-1.78,4.84-.77,7.56-3.18.09-5.52,1.28-6.75,4.13-1.22,2.84-.15,5.3,1.57,7.54-6,3.62-6.14,8.15-.54,12.8-2.49,2-3.72,4.5-2.68,7.69,1.02,3.14,3.6,4.26,6.71,4.64-1.45,2.87-1.54,5.49.43,7.92,1.95,2.39,4.59,2.66,7.54,2.09-.3,3.15.44,5.69,3.08,7.33,2.61,1.61,5.19,1.03,7.68-.45,1.3,6.65,7.2,8.2,11.91,4.23,3.38,5.01,6.68,5.51,11.03,2.21,2.11,1.54,3.89,3.74,5.99,4.12,2.18.4,4.69-.96,7.23-1.59,2.58,4.4,5.55,5.1,10.99,2.12,1.21,3.99,4.1,5.62,7.63,5.41.61,2.45,1.14,4.55,1.69,6.77-2.88,1.14-4.21,3.55-4.46,6.66-4.78-1.81-6.66-1.25-9.65,2.38-2.25-.67-4.3-1.85-6.23-1.69-1.91.15-3.71,1.65-5.27,2.42-1.61-.96-3.25-2.57-5.1-2.86-1.91-.31-4.02.66-5.84,1.02-1.09-1.2-2.12-2.98-3.66-3.85-1.52-.85-3.56-.77-5.12-1.06-.62-1.61-.92-3.56-2-4.86-1.12-1.35-3-2.06-4.56-3.06,2.3-3.79,2.1-7.04-.74-9.42-2.93-2.46-6.23-1.96-9.36.98-2.41-.91-4.52-2.38-6.57-2.3-2.05.08-4.04,1.72-6.2,2.74-1.66-2.26-4.16-3.65-7.48-2.62-2.53.79-4.09,2.61-4.44,5.22-.51,3.81,1.65,6.05,4.91,7.48-4.37,5.72-3.05,9.85,3.81,12.27-3,6.11-.9,9.56,6.76,10.97-.32,2.7.21,5.12,2.51,6.89,2.26,1.74,4.73,1.53,7.24.61.98,6.86,5.71,9.07,11.45,5.36,2.55,6.48,6.5,7.54,12.39,3.24,1.08,2.53,2.86,4.29,5.69,4.58,2.91.3,5.01-1.22,6.61-3.51,4.34,4.97,8.31,4.73,12.3-.45,4.87,4.63,8.23,4.13,12.42-1.86,4.38,3.57,10.57,2.14,11.57-5.15,2.57,1.27,5.13,1.54,7.56-.24,2.46-1.81,2.99-4.42,2.55-7.3,7.34.86,10.7-5.56,7.25-10.67,6.77-2.86,7.7-6.89,2.91-12.59,5.71-4.09,5.4-8.53-.9-12.86Z"/><path d="M515.72,75.08c1.01-2.38,2.62-4.5,2.6-6.6-.02-2.1-1.68-4.19-2.69-6.45,1.64-1.11,3.27-3.03,2.79-5.51-.43-2.2-1.76-4.22-2.78-6.5,1.6-1.08,3.25-2.99,2.78-5.48-.42-2.2-1.75-4.23-2.49-5.89.86-2.01,2.44-4.07,2.4-6.1-.04-2.12-1.65-4.21-2.4-5.93.84-1.96,2.44-4.02,2.4-6.04-.04-2.12-1.64-4.22-2.64-6.53,3.29-3.11,4-6.9,1.14-9.73-1.1-1.08-2.79-1.91-4.32-2.14-3.24-.5-5.33,1.62-7.03,4.52-1.48-2.77-3.31-4.83-6.01-4.48-2.34.3-4.55,1.68-7.03,2.67-2.82-3.2-6.67-3.97-9.53-1.21-1.11,1.07-2.28,2.87-2.17,4.24.18,2.28,1.37,4.48,2.24,7.04-3.59,3.59-3.51,6.5.86,11.14-4.49,4.53-4.49,7.31-.42,11.54-1.02,2.25-2.63,4.26-2.67,6.31-.05,2.04,1.47,4.11,2.38,6.38-3.73,3.73-3.65,6.63.72,11.28-4.49,4.53-4.49,7.31-.39,11.57-1.02,2.14-2.62,4.05-2.69,6.03-.08,2.07,1.3,4.2,1.94,6.02-.83,1.61-2.24,3.27-2.45,5.06-.21,1.86.75,3.85,1.22,5.91-3.81,1.19-5.32,4.2-4.89,8.42-4.53-.37-7.1,1.76-8.06,5.31-2.05-.45-4-1.37-5.81-1.14-1.79.23-3.44,1.62-5.25,2.55-3.22-3.21-5.09-3.52-9.88-1.38-1.29-4.22-4.33-5.83-8.69-5.3.67-4.37-1.13-7.15-4.91-8.62,2.55-4.61,2.05-6.93-1.62-10.16.95-2.26,2.52-4.32,2.46-6.34-.06-2.13-1.66-4.21-2.67-6.49,3.97-3.58,4.05-6.65.4-10.67.91-2.43,2.37-4.55,2.28-6.6-.09-2.05-1.74-4.03-2.44-5.51.9-2.13,2.49-4.19,2.44-6.22-.05-2.12-1.66-4.21-2.41-5.9.85-1.98,2.45-4.04,2.41-6.07-.04-2.12-1.65-4.21-2.66-6.52,3.96-3.71,4.03-6.81-.16-11.23,3.5-3.7,4.07-7.31,1.28-10.05-1.05-1.03-2.64-1.81-4.1-2.09-2.89-.55-4.99,1.19-6.66,3.39-4.33-4.91-8.11-4.7-12.28.45-3.27-4.25-7.13-5.16-10.38-2.43-3.28,2.75-3.06,6.48.63,10.81-4.38,4.45-4.05,8.16,1.08,11.94-5.23,3.73-5.45,7.24-.76,12.27-4.49,4.5-4.49,7.27,0,11.97-4.49,4.6-4.49,7.39-.48,11.49-1.01,2.37-2.62,4.49-2.6,6.6.02,2.1,1.68,4.19,2.68,6.44-4.33,3.81-4.07,7.99,1.25,11.76-2.5,1.4-4.18,3.33-4.14,6.33.05,3.11,1.99,4.94,4.52,6.26-3.69,5.92-2.17,9.97,4.27,11.81-2.83,4.87-1.14,10.69,6.61,11.01-1.24,6.75,1.88,9.89,8.92,8.98.28,6.35,5.85,9.49,11.46,5.56,2.01,6.55,6.19,7.99,12.01,3.99,1.26,2.56,3.22,4.21,6.19,4.25,2.96.04,4.83-1.73,6.28-4.13,3.84,6.25,9.77,4.85,12.61-.01,5.64,3.91,9.83,2.46,11.89-4.2,2.36,1.81,4.91,2.55,7.69,1.13,2.72-1.38,3.62-3.88,3.68-6.83,3,.99,5.52.65,7.6-1.52,2.03-2.12,2.1-4.7,1.26-7.38,7.58-.2,10.32-4.51,7.14-10.8,6.28-2.59,7.33-5.73,3.9-11.93,2.53-1.24,4.33-3.07,4.47-6.06.14-2.94-1.57-4.87-3.89-6.45,5.54-3.39,5.84-7.45,1.58-11.81Z"/><path d="M796.56,2.07c-11.89.08-21.06,9.4-21.08,21.42-.02,11.96,9.22,21.29,21.13,21.36,11.91.07,21.49-9.52,21.4-21.41-.09-12.04-9.53-21.44-21.45-21.37ZM796.71,41.2c-9.86.03-17.36-7.55-17.44-17.62-.08-10.07,7.65-18.01,17.45-17.95,9.78.07,17.29,7.8,17.32,17.84.03,10.02-7.47,17.7-17.33,17.73Z"/><path d="M358.33,37.13c-4.12.21-6.72-1.71-7.71-4.87-2.27.45-4.35,1.42-6.18,1.07-1.92-.37-3.6-1.99-5.47-3.12-1.21,1.65-3.14,3.26-5.61,2.76-2.12-.43-4.06-1.77-5.81-2.58-1.78.84-3.7,2.39-5.69,2.5-2,.11-4.07-1.23-6.09-1.92-.83,1.02-1.86,2.29-2.5,3.07.81,2.29,2.19,4.37,2.06,6.35-.14,2.07-1.74,4.04-2.45,5.51.9,2.13,2.49,4.2,2.44,6.22-.05,2.13-1.66,4.21-2.62,6.37.83,1.12,1.95,2.63,2.74,3.68,2.06-.86,4.12-2.44,6.14-2.38,2.13.06,4.21,1.68,6.48,2.69,3.76-4.19,7.01-4.09,11.68.77,3.06-4.36,5.29-5.04,10.43-3.01,1.5-3.48,4.15-4.98,7.81-4.66-.84-4.58-.56-5.45,3-9.16-3.4-2.26-4.22-5.37-2.64-9.29Z" fill="#fff"/><path d="M796.72,5.63c-9.8-.07-17.53,7.88-17.45,17.95.08,10.08,7.58,17.66,17.44,17.62,9.86-.03,17.37-7.71,17.33-17.73-.03-10.04-7.54-17.78-17.32-17.84ZM806.74,34.48c-1.14,0-2.06-.1-2.94.02-1.76.24-2.29-.72-2.58-2.22-1.21-6.19-1.61-6.44-8.51-5.49v7.51h-4.78V12.26c4.17,0,8.31-.2,12.41.07,2.99.19,5.43,1.68,6.18,4.91.75,3.25-.24,5.18-3.88,7.55,4.5,2.02,2.78,6.29,4.11,9.7Z" fill="#fff"/><path d="M806.52,17.24c-.75-3.23-3.19-4.72-6.18-4.91-4.1-.27-8.24-.07-12.41-.07v22.04h4.78v-7.51c6.9-.95,7.31-.7,8.51,5.49.29,1.5.82,2.46,2.58,2.22.88-.12,1.8-.02,2.94-.02-1.33-3.4.39-7.68-4.11-9.7,3.65-2.36,4.64-4.3,3.88-7.55ZM798.81,22.5c-1.95.18-3.92.04-6.02.04v-6.43c2.09,0,4.07-.16,6.01.05,1.73.18,2.83,1.27,2.83,3.18,0,1.92-1.07,2.99-2.83,3.15Z"/><path d="M798.8,16.16c-1.94-.21-3.92-.05-6.01-.05v6.43c2.1,0,4.07.14,6.02-.04,1.76-.16,2.84-1.23,2.83-3.15,0-1.91-1.1-3-2.83-3.18Z" fill="#fff"/></svg>