<?xml version="1.0" encoding="utf-8"?>
<!-- Generator: Adobe Illustrator 26.0.3, SVG Export Plug-In . SVG Version: 6.00 Build 0)  -->
<svg version="1.1" id="Layer_1" xmlns="http://www.w3.org/2000/svg" xmlns:xlink="http://www.w3.org/1999/xlink" x="0px" y="0px"
	 viewBox="0 0 353.44 427.34" style="enable-background:new 0 0 353.44 427.34;" xml:space="preserve">
<g>
	<path d="M0.02,140.25c0-42.83,0-85.67,0-128.5C0.02,10.83,0,9.92,0.02,9c0.14-5.72,3.38-8.95,9.1-8.97
		c10.74-0.04,21.49-0.01,32.23-0.01c9.83,0,19.65,0,29.48,0c7.94,0,10.71,2.74,10.71,10.61c0,70.75,0,141.5,0.01,212.25
		c0,11.58-0.13,23.17,0.15,34.75c0.4,16.77,3.69,32.94,11.43,47.96c10.47,20.32,26.88,33.73,48.61,40.36
		c23.31,7.11,46.85,7.21,70.11-0.09c28.72-9.01,46.69-28.73,55.18-57.4c3.58-12.09,4.83-24.48,4.84-37.03c0-79.75,0-159.5,0-239.25
		c0-1.17-0.02-2.33,0.01-3.5c0.13-5.25,3.4-8.57,8.66-8.63c5.41-0.07,10.83-0.02,16.24-0.02c15.74,0,31.48-0.01,47.22,0.01
		c6.14,0.01,9.42,3.29,9.42,9.43c-0.01,82.25,0.11,164.5-0.12,246.75c-0.08,27.06-4.66,53.42-15.65,78.36
		c-16.27,36.94-43.44,62.73-80.63,78.08c-23.86,9.85-48.85,14.07-74.55,14.62c-27.47,0.59-54.41-2.6-80.24-12.33
		c-53.01-19.98-84.71-58.42-97.07-113.33C1.29,284.38-0.03,266.88,0,249.25C0.05,212.91,0.02,176.58,0.02,140.25z"/>
</g>
</svg>
