<?xml version="1.0" encoding="UTF-8"?>
<svg xmlns="http://www.w3.org/2000/svg" version="1.1" viewBox="0 0 99 35.5">
  <defs>
    <style>
      .cls-1 {
        fill: #fff;
      }
    </style>
  </defs>
  <!-- Generator: Adobe Illustrator 28.6.0, SVG Export Plug-In . SVG Version: 1.2.0 Build 709)  -->
  <g>
    <g id="Layer_1">
      <path class="cls-1" d="M38.4,34c-2.7,0-5.4-.6-7.8-1.9l-.9-.5-.8.6c-1,.9-2.3,1.4-3.7,1.4h-4c-1.5,0-3-.6-4.1-1.7l-1-1-1,1c-1.1,1.1-2.5,1.7-4.1,1.7h-4.1c-3.1,0-5.7-2.5-5.7-5.7,0,0,0,0,0,0V7.5C1.4,4.3,4,1.8,7.1,1.8s0,0,0,0h4.1c1.5,0,3,.6,4.1,1.7l1,1,1-1c1.1-1.1,2.5-1.7,4-1.7h4.1c1.3,0,2.6.5,3.7,1.3l.7.6.9-.5c4.9-2.5,10.7-2.5,15.6,0l.8.5.7-.6c1-.9,2.3-1.3,3.7-1.3h6.4c1.3,0,2.5.4,3.5,1.2l.9.7.9-.7c1-.8,2.3-1.2,3.5-1.2h6.3c.5,0,1,0,1.5.2h.3c0,0,.4,0,.4,0,.5-.1.9-.2,1.4-.2h15.1c3.1,0,5.7,2.5,5.7,5.7v3.4c0,1.6-.7,3.2-1.9,4.2l-.5.4v4.2l.5.4c1.4,1.1,2.1,2.7,2.1,4.4v3.4c0,3.1-2.5,5.7-5.7,5.7h-15.3c-.5,0-1,0-1.4-.2h-.4c0,0-.3,0-.3,0-.5.1-1,.2-1.4.2h-4.1c-.7,0-1.4-.1-2-.4l-.5-.2-.5.2c-.6.2-1.3.4-2,.4h-3.5c-.7,0-1.4-.1-2.1-.4l-.5-.2-.5.2c-.7.3-1.4.4-2.1.4h-3.8c-1.3,0-2.6-.5-3.7-1.3l-.7-.6-.8.4c-2.4,1.3-5.1,1.9-7.8,1.9Z"/>
      <path d="M7.4,27.7V7.2h4.1v8.4h10.1V7.2h4.1v20.5h-4.1v-8.8h-10.1v8.8h-4.1Z"/>
      <path d="M38.8,28.1c-6,0-10.4-4.3-10.4-10.6s4.4-10.6,10.4-10.6,10.4,4.3,10.4,10.6-4.4,10.6-10.4,10.6ZM38.8,10.4c-3.8,0-6.2,2.8-6.2,7.1s2.4,7.1,6.2,7.1,6.2-2.8,6.2-7.1-2.4-7.1-6.2-7.1Z"/>
      <path d="M60.8,27.7l-5-16.1h-.2v16.1h-3.8V7.2h6.4l4.5,14.9h0l4.3-14.9h6.3v20.5h-4.1V11.6h-.1l-4.9,16.1h-3.5Z"/>
      <path d="M92.3,27.7h-15.3V7.2h15v3.4h-11v5h8.7v3.4h-8.7v5.4h11.3v3.4Z"/>
      <path d="M38.4,2.8c2.5,0,4.9.6,7.1,1.7l1.7.9,1.5-1.2c.8-.7,1.7-1,2.8-1h6.4c1,0,1.9.3,2.7.9l1.8,1.4,1.8-1.4c.8-.6,1.7-.9,2.7-.9h6.3c.4,0,.7,0,1.1.1l.7.2.7-.2c.3,0,.7-.1,1.1-.1h15.1c2.3,0,4.2,1.9,4.2,4.2h0v3.4c0,1.2-.5,2.3-1.4,3.1l-1,.9v5.5l1.1.9c1,.8,1.6,2,1.6,3.3v3.4c0,2.3-1.9,4.2-4.2,4.2h-15.3c-.4,0-.7,0-1.1-.1l-.7-.2-.7.2c-.4,0-.7.1-1.1.1h-4.1c-.5,0-1,0-1.5-.2l-1-.4-1,.4c-.5.2-1,.3-1.5.3h-3.5c-.5,0-1,0-1.5-.3l-1-.4-1,.4c-.5.2-1,.3-1.5.3h-3.8c-1,0-2-.3-2.8-1l-1.5-1.3-1.7.9c-4.5,2.3-9.8,2.3-14.3,0l-1.7-.9-1.5,1.3c-.8.7-1.8,1-2.8,1h-4.1c-1.1,0-2.2-.5-3-1.3l-2-2.1-2.1,2.1c-.8.8-1.9,1.3-3,1.3h-4.1c-2.3,0-4.3-1.9-4.3-4.2,0,0,0,0,0,0V7.5c0-2.3,1.9-4.3,4.2-4.3,0,0,0,0,0,0h4.1c1.1,0,2.2.5,3,1.3l2,2.1,2-2.1c.8-.8,1.9-1.3,3-1.3h4.1c1,0,2,.3,2.8,1l1.6,1.3,1.7-.9c2.2-1.2,4.7-1.8,7.2-1.8M38.4,0c-2.9,0-5.8.7-8.4,2.1-1.3-1.1-2.9-1.7-4.6-1.7h-4.1c-1.9,0-3.7.8-5.1,2.1-1.3-1.4-3.2-2.1-5.1-2.1h-4.1C3.2.4,0,3.5,0,7.5c0,0,0,0,0,0v20.5c0,3.9,3.2,7.1,7.1,7.1,0,0,0,0,0,0h4.1c1.9,0,3.7-.7,5.1-2.1,1.3,1.4,3.2,2.1,5.1,2.1h4.1c1.7,0,3.3-.6,4.6-1.7,5.3,2.8,11.6,2.8,16.9,0,1.3,1.1,2.9,1.7,4.6,1.7h3.8c.9,0,1.8-.2,2.6-.5.8.3,1.7.5,2.6.5h3.5c.9,0,1.7-.2,2.5-.5.8.3,1.7.5,2.5.5h4.1c.6,0,1.2,0,1.8-.2.6.2,1.2.2,1.8.2h15.4c3.9,0,7.1-3.2,7.1-7.1v-3.4c0-2.2-1-4.2-2.7-5.5v-2.9c1.5-1.3,2.4-3.3,2.4-5.3v-3.4c0-3.9-3.1-7.1-7.1-7.1h-15.1c-.6,0-1.2,0-1.8.2-.6-.2-1.2-.2-1.8-.2h-6.3c-1.6,0-3.2.5-4.4,1.5-1.3-1-2.8-1.6-4.4-1.5h-6.4c-1.7,0-3.3.6-4.6,1.7C44.3.7,41.4,0,38.4,0Z"/>
    </g>
  </g>
</svg>