<svg xmlns="http://www.w3.org/2000/svg" viewBox="0 0 99.03 35.47"><path d="M7.45,27.72V7.21h4.07v8.37H21.64V7.21h4.07V27.72H21.64V18.93H11.52v8.79Z"/><path d="M38.8,28.11c-6,0-10.42-4.33-10.42-10.65S32.81,6.82,38.8,6.82s10.39,4.33,10.39,10.64S44.76,28.11,38.8,28.11Zm0-17.71c-3.78,0-6.18,2.77-6.18,7.06s2.4,7.07,6.18,7.07S45,21.76,45,17.46,42.58,10.4,38.8,10.4Z"/><path d="M60.75,27.72l-5-16.15H55.6V27.72H51.83V7.21h6.41l4.49,14.91h.1L67.1,7.21h6.28V27.72h-4.1V11.57h-.13L64.23,27.72Z"/><path d="M92.3,27.72H77V7.21H92v3.38H81v5h8.66v3.35H81v5.41H92.3Z"/><path d="M38.44,34.05a16.23,16.23,0,0,1-7.82-1.92l-.86-.45L29,32.3a5.65,5.65,0,0,1-3.68,1.36H21.28A5.63,5.63,0,0,1,17.23,32l-1-1-1,1a5.63,5.63,0,0,1-4.05,1.7H7.09A5.67,5.67,0,0,1,1.42,28V7.48A5.67,5.67,0,0,1,7.09,1.81h4.07a5.63,5.63,0,0,1,4.05,1.7l1,1,1-1a5.63,5.63,0,0,1,4.05-1.7h4.07A5.7,5.7,0,0,1,29,3.16l.73.63.86-.46a16.92,16.92,0,0,1,15.6,0l.85.45.74-.62a5.64,5.64,0,0,1,3.66-1.34h6.41a5.74,5.74,0,0,1,3.55,1.24l.88.71.89-.71a5.69,5.69,0,0,1,3.54-1.24H73A5.59,5.59,0,0,1,74.46,2l.35.09L75.17,2a5.57,5.57,0,0,1,1.43-.19H91.65a5.68,5.68,0,0,1,5.67,5.67v3.38a5.72,5.72,0,0,1-1.9,4.24l-.48.42v4.22l.53.43a5.64,5.64,0,0,1,2.14,4.43V28a5.67,5.67,0,0,1-5.67,5.67H76.6a5.57,5.57,0,0,1-1.43-.19l-.36-.09-.35.09a5.59,5.59,0,0,1-1.44.19h-4.1a5.52,5.52,0,0,1-2-.37l-.5-.19-.51.19a5.52,5.52,0,0,1-2,.37H60.39a5.58,5.58,0,0,1-2.06-.39l-.51-.2-.52.21a5.71,5.71,0,0,1-2.06.38H51.47a5.69,5.69,0,0,1-3.66-1.34l-.74-.62-.85.45A16.28,16.28,0,0,1,38.44,34.05Z" fill="none"/><path d="M38.44,2.83a14.85,14.85,0,0,1,7.11,1.74l1.7.91,1.47-1.25a4.22,4.22,0,0,1,2.75-1h6.41a4.28,4.28,0,0,1,2.66.93l1.77,1.41,1.77-1.41a4.28,4.28,0,0,1,2.66-.93H73a4.16,4.16,0,0,1,1.08.14l.71.19.72-.19a4,4,0,0,1,1.07-.14H91.65A4.25,4.25,0,0,1,95.9,7.48v3.38A4.25,4.25,0,0,1,94.47,14l-1,.85v5.54l1.07.85a4.21,4.21,0,0,1,1.6,3.32V28a4.25,4.25,0,0,1-4.25,4.25H76.6a4,4,0,0,1-1.07-.14l-.72-.19-.71.19a4.16,4.16,0,0,1-1.08.14h-4.1A4.29,4.29,0,0,1,67.41,32l-1-.39-1,.39a4.39,4.39,0,0,1-1.52.27H60.39A4.05,4.05,0,0,1,58.85,32l-1-.4-1,.41a4.26,4.26,0,0,1-1.55.28H51.47a4.22,4.22,0,0,1-2.75-1L47.25,30l-1.7.91a15.52,15.52,0,0,1-14.26,0L29.58,30l-1.47,1.26a4.25,4.25,0,0,1-2.76,1H21.28a4.2,4.2,0,0,1-3-1.27l-2-2.07L14.2,31a4.24,4.24,0,0,1-3,1.27H7.09A4.25,4.25,0,0,1,2.83,28V7.48A4.25,4.25,0,0,1,7.09,3.23h4.07a4.24,4.24,0,0,1,3,1.27l2,2.07,2-2.07a4.2,4.2,0,0,1,3-1.27h4.07a4.25,4.25,0,0,1,2.76,1L29.58,5.5l1.71-.92a14.92,14.92,0,0,1,7.15-1.75m0-2.83A17.79,17.79,0,0,0,30,2.09a7,7,0,0,0-4.6-1.7H21.28a7.09,7.09,0,0,0-5.06,2.13A7.09,7.09,0,0,0,11.16.39H7.09A7.08,7.08,0,0,0,0,7.48V28a7.08,7.08,0,0,0,7.09,7.09h4.07A7.09,7.09,0,0,0,16.22,33a7.09,7.09,0,0,0,5.06,2.13h4.07a7,7,0,0,0,4.6-1.7,18.29,18.29,0,0,0,16.94,0,7.1,7.1,0,0,0,4.58,1.68h3.77a7.13,7.13,0,0,0,2.58-.48,7.11,7.11,0,0,0,2.57.48h3.48a6.84,6.84,0,0,0,2.52-.47,7.1,7.1,0,0,0,2.53.47H73a7,7,0,0,0,1.79-.24,7.09,7.09,0,0,0,1.79.24H91.94A7.09,7.09,0,0,0,99,28V24.6a7.1,7.1,0,0,0-2.67-5.54v-2.9a7.06,7.06,0,0,0,2.37-5.3V7.48A7.08,7.08,0,0,0,91.65.39H76.6a7.09,7.09,0,0,0-1.79.24A7,7,0,0,0,73,.39H66.74a7.08,7.08,0,0,0-4.43,1.55A7.1,7.1,0,0,0,57.88.39H51.47a7,7,0,0,0-4.58,1.68A17.73,17.73,0,0,0,38.44,0Z"/></svg>