<svg xmlns="http://www.w3.org/2000/svg" viewBox="0 0 99.03 35.47"><path d="M38.75,34.05a16.38,16.38,0,0,1-7.83-1.92l-.85-.46-.74.63a5.65,5.65,0,0,1-3.67,1.35H21.59A5.62,5.62,0,0,1,17.54,32l-1-1-1,1a5.6,5.6,0,0,1-4,1.7H7.39A5.68,5.68,0,0,1,1.72,28V7.47A5.68,5.68,0,0,1,7.39,1.8h4.07a5.61,5.61,0,0,1,4,1.71l1,1,1-1A5.63,5.63,0,0,1,21.59,1.8h4.07a5.63,5.63,0,0,1,3.67,1.36l.74.63.85-.46a16.9,16.9,0,0,1,15.61,0l.85.46.74-.63A5.68,5.68,0,0,1,51.77,1.8h6.42a5.64,5.64,0,0,1,3.54,1.25l.89.7.88-.7A5.65,5.65,0,0,1,67.05,1.8h6.28A6,6,0,0,1,74.76,2l.36.1.36-.1a6,6,0,0,1,1.43-.19H92a5.68,5.68,0,0,1,5.67,5.67v3.39a5.66,5.66,0,0,1-1.9,4.23l-.47.43v4.22l.53.42a5.65,5.65,0,0,1,2.14,4.44V28a5.68,5.68,0,0,1-5.67,5.66H76.91a5.52,5.52,0,0,1-1.43-.19l-.36-.09-.36.09a5.52,5.52,0,0,1-1.43.19h-4.1a5.52,5.52,0,0,1-2-.37l-.51-.19-.5.19a5.6,5.6,0,0,1-2,.37H60.7a5.57,5.57,0,0,1-2.06-.38l-.52-.2-.51.2a5.54,5.54,0,0,1-2.06.38H51.77a5.63,5.63,0,0,1-3.65-1.34l-.74-.62-.85.45A16.18,16.18,0,0,1,38.75,34.05Z" transform="translate(-0.31 0.01)"/><path d="M38.75,2.83a14.87,14.87,0,0,1,7.11,1.73l1.7.91L49,4.23a4.19,4.19,0,0,1,2.74-1h6.42a4.28,4.28,0,0,1,2.66.93l1.77,1.42,1.77-1.42a4.26,4.26,0,0,1,2.66-.93h6.28a4.06,4.06,0,0,1,1.07.15l.72.18.72-.18a4.06,4.06,0,0,1,1.07-.15H92a4.26,4.26,0,0,1,4.26,4.25v3.39A4.26,4.26,0,0,1,94.78,14l-1,.84v5.54l1.07.85a4.28,4.28,0,0,1,1.6,3.33V28a4.26,4.26,0,0,1-4.25,4.25H76.91a4.06,4.06,0,0,1-1.07-.15l-.72-.18-.72.18a4.06,4.06,0,0,1-1.07.15h-4.1A4.31,4.31,0,0,1,67.71,32l-1-.38-1,.38a4.3,4.3,0,0,1-1.51.28H60.7A4.31,4.31,0,0,1,59.15,32l-1-.4-1,.4a4.17,4.17,0,0,1-1.54.29H51.77a4.19,4.19,0,0,1-2.74-1L47.56,30l-1.7.91a15.48,15.48,0,0,1-14.26,0L29.89,30l-1.48,1.26a4.2,4.2,0,0,1-2.75,1H21.59a4.25,4.25,0,0,1-3-1.28l-2-2.07L14.5,31a4.22,4.22,0,0,1-3,1.28H7.39A4.26,4.26,0,0,1,3.14,28V7.47A4.26,4.26,0,0,1,7.39,3.22h4.07a4.18,4.18,0,0,1,3,1.28l2,2.07,2-2.07a4.21,4.21,0,0,1,3-1.28h4.07a4.15,4.15,0,0,1,2.75,1l1.48,1.25,1.71-.91a14.9,14.9,0,0,1,7.15-1.75m0-2.84a17.85,17.85,0,0,0-8.5,2.09A7.06,7.06,0,0,0,25.66.39H21.59a7.06,7.06,0,0,0-5.06,2.12A7.08,7.08,0,0,0,11.46.39H7.39A7.08,7.08,0,0,0,.31,7.47V28a7.08,7.08,0,0,0,7.08,7.08h4.07a7.05,7.05,0,0,0,5.07-2.13,7,7,0,0,0,5.06,2.13h4.07a7.06,7.06,0,0,0,4.59-1.69,18,18,0,0,0,8.5,2.08,17.76,17.76,0,0,0,8.45-2.07,7,7,0,0,0,4.57,1.68h3.78a7.13,7.13,0,0,0,2.58-.48,7.11,7.11,0,0,0,2.57.48h3.48a7.08,7.08,0,0,0,2.52-.46,7.1,7.1,0,0,0,2.53.46h4.1a7.5,7.5,0,0,0,1.79-.23,7.5,7.5,0,0,0,1.79.23H92.25A7.08,7.08,0,0,0,99.33,28V24.6a7.07,7.07,0,0,0-2.67-5.54V16.15A7.07,7.07,0,0,0,99,10.86V7.47A7.08,7.08,0,0,0,92,.39h-15a7,7,0,0,0-1.79.23A7,7,0,0,0,73.33.39H67.05a7.06,7.06,0,0,0-4.43,1.55A7.1,7.1,0,0,0,58.19.39H51.77A7.06,7.06,0,0,0,47.2,2.06,17.88,17.88,0,0,0,38.75,0Z" transform="translate(-0.31 0.01)"/><path d="M7.39,28V7.47h4.07v8.37H21.59V7.47h4.07V28H21.59v-8.8H11.46V28Z" transform="translate(-0.31 0.01)" fill="#fff"/><path d="M38.75,28.38c-6,0-10.42-4.33-10.42-10.65S32.76,7.08,38.75,7.08s10.39,4.33,10.39,10.65S44.71,28.38,38.75,28.38Zm0-17.72c-3.78,0-6.19,2.77-6.19,7.07s2.41,7.06,6.19,7.06,6.19-2.76,6.19-7.06S42.53,10.66,38.75,10.66Z" transform="translate(-0.31 0.01)" fill="#fff"/><path d="M60.7,28l-5-16.16h-.13V28H51.77V7.47h6.42l4.49,14.92h.1L67.05,7.47h6.28V28h-4.1V11.83H69.1L64.18,28Z" transform="translate(-0.31 0.01)" fill="#fff"/><path d="M92.25,28H76.91V7.47H92v3.39h-11v5h8.66v3.35H80.92V24.6H92.25Z" transform="translate(-0.31 0.01)" fill="#fff"/><path d="M38.75,34.05a16.38,16.38,0,0,1-7.83-1.92l-.85-.46-.74.63a5.65,5.65,0,0,1-3.67,1.35H21.59A5.62,5.62,0,0,1,17.54,32l-1-1-1,1a5.6,5.6,0,0,1-4,1.7H7.39A5.68,5.68,0,0,1,1.72,28V7.47A5.68,5.68,0,0,1,7.39,1.8h4.07a5.61,5.61,0,0,1,4,1.71l1,1,1-1A5.63,5.63,0,0,1,21.59,1.8h4.07a5.63,5.63,0,0,1,3.67,1.36l.74.63.85-.46a16.9,16.9,0,0,1,15.61,0l.85.46.74-.63A5.68,5.68,0,0,1,51.77,1.8h6.42a5.64,5.64,0,0,1,3.54,1.25l.89.7.88-.7A5.65,5.65,0,0,1,67.05,1.8h6.28A6,6,0,0,1,74.76,2l.36.1.36-.1a6,6,0,0,1,1.43-.19H92a5.68,5.68,0,0,1,5.67,5.67v3.39a5.66,5.66,0,0,1-1.9,4.23l-.47.43v4.22l.53.42a5.65,5.65,0,0,1,2.14,4.44V28a5.68,5.68,0,0,1-5.67,5.66H76.91a5.52,5.52,0,0,1-1.43-.19l-.36-.09-.36.09a5.52,5.52,0,0,1-1.43.19h-4.1a5.52,5.52,0,0,1-2-.37l-.51-.19-.5.19a5.6,5.6,0,0,1-2,.37H60.7a5.57,5.57,0,0,1-2.06-.38l-.52-.2-.51.2a5.54,5.54,0,0,1-2.06.38H51.77a5.63,5.63,0,0,1-3.65-1.34l-.74-.62-.85.45A16.18,16.18,0,0,1,38.75,34.05Z" transform="translate(-0.31 0.01)" fill="none"/><path d="M38.75,2.83a14.87,14.87,0,0,1,7.11,1.73l1.7.91L49,4.23a4.19,4.19,0,0,1,2.74-1h6.42a4.28,4.28,0,0,1,2.66.93l1.77,1.42,1.77-1.42a4.26,4.26,0,0,1,2.66-.93h6.28a4.06,4.06,0,0,1,1.07.15l.72.18.72-.18a4.06,4.06,0,0,1,1.07-.15H92a4.26,4.26,0,0,1,4.26,4.25v3.39A4.26,4.26,0,0,1,94.78,14l-1,.84v5.54l1.07.85a4.28,4.28,0,0,1,1.6,3.33V28a4.26,4.26,0,0,1-4.25,4.25H76.91a4.06,4.06,0,0,1-1.07-.15l-.72-.18-.72.18a4.06,4.06,0,0,1-1.07.15h-4.1A4.31,4.31,0,0,1,67.71,32l-1-.38-1,.38a4.3,4.3,0,0,1-1.51.28H60.7A4.31,4.31,0,0,1,59.15,32l-1-.4-1,.4a4.17,4.17,0,0,1-1.54.29H51.77a4.19,4.19,0,0,1-2.74-1L47.56,30l-1.7.91a15.48,15.48,0,0,1-14.26,0L29.89,30l-1.48,1.26a4.2,4.2,0,0,1-2.75,1H21.59a4.25,4.25,0,0,1-3-1.28l-2-2.07L14.5,31a4.22,4.22,0,0,1-3,1.28H7.39A4.26,4.26,0,0,1,3.14,28V7.47A4.26,4.26,0,0,1,7.39,3.22h4.07a4.18,4.18,0,0,1,3,1.28l2,2.07,2-2.07a4.21,4.21,0,0,1,3-1.28h4.07a4.15,4.15,0,0,1,2.75,1l1.48,1.25,1.71-.91a14.9,14.9,0,0,1,7.15-1.75m0-2.84a17.85,17.85,0,0,0-8.5,2.09A7.06,7.06,0,0,0,25.66.39H21.59a7.06,7.06,0,0,0-5.06,2.12A7.08,7.08,0,0,0,11.46.39H7.39A7.08,7.08,0,0,0,.31,7.47V28a7.08,7.08,0,0,0,7.08,7.08h4.07a7.05,7.05,0,0,0,5.07-2.13,7,7,0,0,0,5.06,2.13h4.07a7.06,7.06,0,0,0,4.59-1.69,18,18,0,0,0,8.5,2.08,17.76,17.76,0,0,0,8.45-2.07,7,7,0,0,0,4.57,1.68h3.78a7.13,7.13,0,0,0,2.58-.48,7.11,7.11,0,0,0,2.57.48h3.48a7.08,7.08,0,0,0,2.52-.46,7.1,7.1,0,0,0,2.53.46h4.1a7.5,7.5,0,0,0,1.79-.23,7.5,7.5,0,0,0,1.79.23H92.25A7.08,7.08,0,0,0,99.33,28V24.6a7.07,7.07,0,0,0-2.67-5.54V16.15A7.07,7.07,0,0,0,99,10.86V7.47A7.08,7.08,0,0,0,92,.39h-15a7,7,0,0,0-1.79.23A7,7,0,0,0,73.33.39H67.05a7.06,7.06,0,0,0-4.43,1.55A7.1,7.1,0,0,0,58.19.39H51.77A7.06,7.06,0,0,0,47.2,2.06,17.88,17.88,0,0,0,38.75,0Z" transform="translate(-0.31 0.01)"/></svg>