<?xml version="1.0" encoding="utf-8"?>
<!-- Generator: Adobe Illustrator 26.0.3, SVG Export Plug-In . SVG Version: 6.00 Build 0)  -->
<svg version="1.1" id="Layer_1" xmlns="http://www.w3.org/2000/svg" xmlns:xlink="http://www.w3.org/1999/xlink" x="0px" y="0px"
	 viewBox="0 0 96 35.1" style="enable-background:new 0 0 96 35.1;" xml:space="preserve">
<style type="text/css">
	.st0{fill:#FFFFFF;}
</style>
<path class="st0" d="M59.7,4l2.8-2.1l6.4-0.4l2.4,0.3l5.5-0.3l2.8,2l5.8-2.2l6.1,0.6L94,5.7l0.7,10.2l-0.6,9.3l-4.5,5.4l-6.4,2.6
	L74.9,33l-2.6-1.2l-5.3,2l-8-3.2l-5.6,2.9L43,33.3L30,33.1L12.4,33l-7.5,0.1l-4-5.9c0,0,0.2-22.4,0.4-22.4c0.2-0.1,4.3-3.3,4.3-3.3
	l9.5-0.1l3,2.5l2.9-2.6h8l9,0.3l17.9-0.1L59.7,4z"/>
<path d="M16,27.6l-5-16.2h-0.1v16.2H7.1V7.1h6.4L18,22h0.1l4.3-14.9h6.3v20.5h-4.1V11.4h-0.1l-4.9,16.2H16z"/>
<path d="M47.6,27.6H32.2V7.1h15v3.4h-11v5h8.7v3.3h-8.7v5.4h11.3V27.6z"/>
<path d="M64.2,20.8V7.1h3.8v20.5h-3.2L54.2,13.1v14.5h-3.8V7.1h4L64.2,20.8z"/>
<path d="M71.3,19.6V7.1h4v12.1c0,3.5,1.5,5.4,4.7,5.4s4.8-1.8,4.8-5.3V7.1h4.1v12.5c0,6-3.9,8.4-8.8,8.4S71.3,25.6,71.3,19.6z"/>
<path d="M88.9,2.8c2.3,0,4.3,1.9,4.3,4.2c0,0,0,0,0,0v12.5c0,7.7-5.1,12.6-13.1,12.6c-2.3,0-4.6-0.5-6.7-1.5L71.8,30l-1.4,1
	c-0.7,0.5-1.6,0.8-2.5,0.8h-3.2c-1.2,0-2.3-0.5-3.2-1.4l-2.1-2.3l-2.1,2.3c-0.8,0.9-1.9,1.4-3.2,1.4h-3.8c-0.3,0-0.6,0-0.9-0.1
	L49,31.6l-0.6,0.1c-0.3,0.1-0.6,0.1-0.9,0.1H32.2c-0.4,0-0.7-0.1-1.1-0.1l-0.7-0.2l-0.7,0.2c-0.4,0.1-0.7,0.1-1.1,0.1h-4.1
	c-0.5,0-1-0.1-1.5-0.3l-1-0.4l-1,0.4c-0.5,0.2-1,0.3-1.5,0.3H16c-0.5,0-1.1-0.1-1.5-0.3l-1-0.4l-1,0.4c-0.5,0.2-1,0.3-1.6,0.3H7.1
	c-2.3,0-4.3-1.9-4.3-4.2c0,0,0,0,0,0V7.1c0-2.4,1.9-4.3,4.3-4.3h6.4c1,0,1.9,0.3,2.7,0.9l1.8,1.4l1.8-1.4c0.8-0.6,1.7-0.9,2.7-0.9
	h6.3c0.4,0,0.7,0.1,1.1,0.2l0.7,0.2L31.1,3c0.3-0.1,0.7-0.1,1.1-0.2h15c0.3,0,0.6,0,1,0.1l0.6,0.1L49.5,3c0.3-0.1,0.6-0.1,0.9-0.1h4
	c1.1,0,2.1,0.4,3,1.1l1.9,1.8l2-1.8c0.8-0.7,1.8-1.2,2.9-1.2h3.8c0.4,0,0.7,0.1,1.1,0.2l0.7,0.2L70.3,3c0.3-0.1,0.7-0.1,1-0.1h4
	c1,0,2.1,0.4,2.8,1.1l2,1.7L82,3.9c0.8-0.7,1.8-1.1,2.8-1.1H88.9 M88.9,0h-4.1c-1.8,0-3.4,0.6-4.7,1.8c-1.3-1.2-3-1.8-4.7-1.8h-4
	c-0.6,0-1.1,0.1-1.7,0.2C69.1,0.1,68.5,0,67.9,0h-3.8c-1.8,0-3.5,0.7-4.9,1.9C58,0.7,56.3,0,54.5,0h-4c-0.5,0-1.1,0.1-1.6,0.2
	C48.4,0.1,47.8,0,47.3,0h-15c-0.6,0-1.2,0.1-1.8,0.2C29.8,0.1,29.2,0,28.6,0h-6.3c-1.6,0-3.2,0.5-4.4,1.5c-1.3-1-2.8-1.6-4.4-1.5
	H7.1C3.2,0,0,3.2,0,7.1c0,0,0,0,0,0v20.5c0,3.9,3.2,7.1,7.1,7.1c0,0,0,0,0,0h3.8c0.9,0,1.8-0.2,2.6-0.5c0.8,0.3,1.7,0.5,2.6,0.5h3.5
	c0.9,0,1.7-0.2,2.5-0.5c0.8,0.3,1.7,0.5,2.5,0.5h4.1c0.6,0,1.2-0.1,1.8-0.2c0.6,0.2,1.2,0.2,1.8,0.2h15.3c0.5,0,1,0,1.4-0.2
	c0.5,0.1,0.9,0.2,1.4,0.2h3.8c2,0,3.9-0.8,5.2-2.3c1.3,1.5,3.3,2.3,5.2,2.3h3.2c1.5,0,3-0.5,4.2-1.4c2.5,1.2,5.2,1.8,8,1.8
	c9.5,0,15.9-6.2,15.9-15.5V7.1C96,3.2,92.8,0,88.9,0C88.9,0,88.9,0,88.9,0z"/>
</svg>
