<svg xmlns="http://www.w3.org/2000/svg" viewBox="0 0 96 35.08"><path d="M16,27.6,11,11.45h-.13V27.6H7.09V7.09H13.5L18,22h.09L22.36,7.09h6.28V27.6h-4.1V11.45h-.13L19.49,27.6Z"/><path d="M47.56,27.6H32.22V7.09H47.27v3.38h-11v5h8.66v3.35H36.23v5.4H47.56Z"/><path d="M64.17,20.76V7.09h3.77V27.6H64.69L54.2,13.14V27.6H50.42V7.09h4Z"/><path d="M71.33,19.62V7.09h4V19.2c0,3.55,1.49,5.37,4.72,5.37s4.75-1.82,4.75-5.34V7.09h4.07V19.62c0,6-3.91,8.37-8.82,8.37S71.33,25.61,71.33,19.62Z"/><path d="M88.91,2.83a4.25,4.25,0,0,1,4.25,4.26V19.62c0,7.67-5.13,12.62-13.07,12.62a14.83,14.83,0,0,1-6.69-1.46L71.85,30l-1.4,1a4.16,4.16,0,0,1-2.51.83H64.69a4.25,4.25,0,0,1-3.15-1.39l-2.1-2.3-2.09,2.3a4.21,4.21,0,0,1-3.15,1.39H50.42a4.91,4.91,0,0,1-.86-.08L49,31.65l-.57.12a4.91,4.91,0,0,1-.86.08H32.22a4.56,4.56,0,0,1-1.07-.14l-.72-.19-.71.19a4.64,4.64,0,0,1-1.08.14h-4.1A4.29,4.29,0,0,1,23,31.58l-1-.39-1,.38a4.18,4.18,0,0,1-1.52.28H16a4.05,4.05,0,0,1-1.54-.29l-1-.4-1,.4a4.07,4.07,0,0,1-1.55.29H7.09A4.25,4.25,0,0,1,2.83,27.6V7.09A4.26,4.26,0,0,1,7.09,2.83H13.5a4.29,4.29,0,0,1,2.66.94l1.77,1.41L19.7,3.77a4.29,4.29,0,0,1,2.66-.94h6.28A4.19,4.19,0,0,1,29.72,3l.71.19L31.15,3a4.12,4.12,0,0,1,1.07-.15H47.27a4,4,0,0,1,.95.12l.63.14L49.48,3a4,4,0,0,1,.94-.12h4A4.2,4.2,0,0,1,57.37,4l1.94,1.82L61.26,4a4.2,4.2,0,0,1,2.91-1.16h3.77A4.67,4.67,0,0,1,69,3l.68.17L70.31,3a4.67,4.67,0,0,1,1-.13h4a4.25,4.25,0,0,1,2.84,1.09L80.1,5.63,82,3.92a4.25,4.25,0,0,1,2.84-1.09h4.07m0-2.83H84.84A7.08,7.08,0,0,0,80.1,1.82,7,7,0,0,0,75.37,0h-4a7.18,7.18,0,0,0-1.69.21A7.33,7.33,0,0,0,67.94,0H64.17a7.09,7.09,0,0,0-4.86,1.92A7.09,7.09,0,0,0,54.46,0h-4a7.33,7.33,0,0,0-1.57.18A7.5,7.5,0,0,0,47.27,0H32.22a7.09,7.09,0,0,0-1.79.24A7,7,0,0,0,28.64,0H22.36a7.1,7.1,0,0,0-4.43,1.55A7.1,7.1,0,0,0,13.5,0H7.09A7.08,7.08,0,0,0,0,7.09V27.6a7.09,7.09,0,0,0,7.09,7.09h3.77a7.13,7.13,0,0,0,2.58-.48,7.11,7.11,0,0,0,2.57.48h3.48A7.05,7.05,0,0,0,22,34.22a7.1,7.1,0,0,0,2.53.47h4.1a7,7,0,0,0,1.79-.24,7.09,7.09,0,0,0,1.79.24H47.56A6.74,6.74,0,0,0,49,34.54a6.81,6.81,0,0,0,1.43.15H54.2a7.07,7.07,0,0,0,5.24-2.32,7.1,7.1,0,0,0,5.25,2.32h3.25a7.06,7.06,0,0,0,4.19-1.38,17.64,17.64,0,0,0,8,1.77C89.6,35.08,96,28.87,96,19.62V7.09A7.08,7.08,0,0,0,88.91,0Z"/></svg>