<?xml version="1.0" encoding="UTF-8"?>
<svg xmlns="http://www.w3.org/2000/svg" version="1.1" viewBox="0 0 96 35.1">
  <defs>
    <style>
      .cls-1 {
        display: none;
        fill: #fff;
      }
    </style>
  </defs>
  <!-- Generator: Adobe Illustrator 28.6.0, SVG Export Plug-In . SVG Version: 1.2.0 Build 709)  -->
  <g>
    <g id="Layer_1">
      <path class="cls-1" d="M59.7,4l2.8-2.1,6.4-.4,2.4.3,5.5-.3,2.8,2,5.8-2.2,6.1.6,2.5,3.8.7,10.2-.6,9.3-4.5,5.4-6.4,2.6-8.3-.2-2.6-1.2-5.3,2-8-3.2-5.6,2.9-10.4-.2-13-.2H12.4c0,0-7.5,0-7.5,0L.9,27.2s.2-22.4.4-22.4c.2,0,4.3-3.3,4.3-3.3h9.5c0-.1,3,2.4,3,2.4l2.9-2.6h8l9,.3h17.9c0-.1,3.8,2.4,3.8,2.4Z"/>
      <path d="M16,27.6l-5-16.2h-.1v16.2h-3.8V7.1h6.4l4.5,14.9h.1l4.3-14.9h6.3v20.5h-4.1V11.4h-.1l-4.9,16.2h-3.6Z"/>
      <path d="M47.6,27.6h-15.4V7.1h15v3.4h-11v5h8.7v3.3h-8.7v5.4h11.3v3.4h0Z"/>
      <path d="M64.2,20.8V7.1h3.8v20.5h-3.2l-10.6-14.5v14.5h-3.8V7.1h4l9.8,13.7Z"/>
      <path d="M71.3,19.6V7.1h4v12.1c0,3.5,1.5,5.4,4.7,5.4s4.8-1.8,4.8-5.3V7.1h4.1v12.5c0,6-3.9,8.4-8.8,8.4s-8.8-2.4-8.8-8.4Z"/>
      <path d="M88.9,2.8c2.3,0,4.3,1.9,4.3,4.2h0v12.5c0,7.7-5.1,12.6-13.1,12.6s-4.6-.5-6.7-1.5l-1.6-.6-1.4,1c-.7.5-1.6.8-2.5.8h-3.2c-1.2,0-2.3-.5-3.2-1.4l-2.1-2.3-2.1,2.3c-.8.9-1.9,1.4-3.2,1.4h-3.8c-.3,0-.6,0-.9-.1h-.4c0,0-.6,0-.6,0-.3.1-.6.1-.9.1h-15.3c-.4,0-.7-.1-1.1-.1l-.7-.2-.7.2c-.4.1-.7.1-1.1.1h-4.1c-.5,0-1-.1-1.5-.3l-1-.4-1,.4c-.5.2-1,.3-1.5.3h-3.5c-.5,0-1.1-.1-1.5-.3l-1-.4-1,.4c-.5.2-1,.3-1.6.3h-3.8c-2.3,0-4.3-1.9-4.3-4.2h0V7.1c0-2.4,1.9-4.3,4.3-4.3h6.4c1,0,1.9.3,2.7.9l1.8,1.4,1.8-1.4c.8-.6,1.7-.9,2.7-.9h6.3c.4,0,.7,0,1.1.2l.7.2.5-.2c.3,0,.7,0,1.1-.2h15c.3,0,.6,0,1,0h.6c0,0,.7.1.7.1.3,0,.6,0,.9,0h4c1.1,0,2.1.4,3,1.1l1.9,1.8,2-1.8c.8-.7,1.8-1.2,2.9-1.2h3.8c.4,0,.7,0,1.1.2l.7.2.5-.2c.3,0,.7,0,1,0h4c1,0,2.1.4,2.8,1.1l2,1.7,1.9-1.8c.8-.7,1.8-1.1,2.8-1.1h4.1M88.9,0h-4.1C83,0,81.4.6,80.1,1.8,78.8.6,77.1,0,75.4,0h-4C70.8,0,70.3.1,69.7.2,69.1.1,68.5,0,67.9,0h-3.8C62.3,0,60.6.7,59.2,1.9,58,.7,56.3,0,54.5,0h-4C50,0,49.4.1,48.9.2,48.4.1,47.8,0,47.3,0h-15C31.7,0,31.1.1,30.5.2,29.8.1,29.2,0,28.6,0h-6.3C20.7,0,19.1.5,17.9,1.5,16.6.5,15.1-.1,13.5,0h-6.4C3.2,0,0,3.2,0,7.1h0v20.5c0,3.9,3.2,7.1,7.1,7.1h3.8c.9,0,1.8-.2,2.6-.5.8.3,1.7.5,2.6.5h3.5c.9,0,1.7-.2,2.5-.5.8.3,1.7.5,2.5.5h4.1c.6,0,1.2,0,1.8-.2.6.2,1.2.2,1.8.2h15.3c.5,0,1,0,1.4-.2.5,0,.9.2,1.4.2h3.8c2,0,3.9-.8,5.2-2.3,1.3,1.5,3.3,2.3,5.2,2.3h3.2c1.5,0,3-.5,4.2-1.4,2.5,1.2,5.2,1.8,8,1.8,9.5,0,15.9-6.2,15.9-15.5V7.1C96,3.2,92.8,0,88.9,0h0Z"/>
    </g>
  </g>
</svg>