<svg xmlns="http://www.w3.org/2000/svg" viewBox="0 0 99.16 40.22"><path d="M79,1.91H22v.17a20.27,20.27,0,0,0-4.91-.58c-9,0-15.51,5.81-15.62,13.84v9.84a11.68,11.68,0,0,0,1.62,6.15c2.81,4.57,8.11,7.39,14.75,7.39A20.51,20.51,0,0,0,22,38.3H79c11.18,0,18.68-7.31,18.68-18.2S90.16,1.91,79,1.91Z" stroke="#000" stroke-linecap="round" stroke-linejoin="round" stroke-width="3"/><path d="M12.25,23.06c.17,3.36,2.61,4.87,5.62,4.87,2.68,0,4.39-1.06,4.39-2.88,0-1.65-1.3-2.26-3.56-2.71l-4.12-.75c-3.36-.62-5.69-2.47-5.69-6,0-4,3.19-6.65,8.23-6.65,5.66,0,8.84,2.91,8.91,7.71l-3.94.14c-.14-2.95-2.06-4.49-5-4.49-2.53,0-4,1.13-4,3,0,1.58,1.13,2.13,3.08,2.51l4,.72c4.25.78,6.24,2.81,6.24,6.3,0,4.26-3.67,6.55-8.54,6.55-5.55,0-9.56-2.88-9.56-8.09Z" fill="#fff"/><path d="M45.58,30.91H29.43V9.31H45.27v3.57H33.65v5.24h9.12v3.53H33.65v5.7H45.58Z" fill="#fff"/><path d="M63.07,23.71V9.31h4v21.6H63.62l-11-15.22V30.91h-4V9.31h4.25Z" fill="#fff"/><path d="M70.82,9.31H79c7,0,11.28,4,11.28,10.8S85.94,30.91,79,30.91H70.82Zm7.89,18.17c4.56,0,7.13-2.74,7.13-7.4s-2.57-7.34-7.13-7.34h-3.6V27.48Z" fill="#fff"/></svg>