<?xml version="1.0" encoding="utf-8"?>
<!-- Generator: Adobe Illustrator 26.0.3, SVG Export Plug-In . SVG Version: 6.00 Build 0)  -->
<svg version="1.1" id="Layer_1" xmlns="http://www.w3.org/2000/svg" xmlns:xlink="http://www.w3.org/1999/xlink" x="0px" y="0px"
	 viewBox="0 0 210.2 38.5" style="enable-background:new 0 0 210.2 38.5;" xml:space="preserve">
<style type="text/css">
	.st0{fill:#FFFFFF;stroke:#000000;stroke-width:17.01;stroke-linejoin:round;}
	.st1{fill:#FFFFFF;}
</style>
<path class="st0" d="M15.8,29.6V12.3H8.5V8.9h18.9v3.4H20v17.3H15.8z"/>
<path class="st0" d="M38.6,8.9l8.5,20.7h-4.4l-2.1-5.1h-8.8l-2,5.1h-4.1L34,8.9H38.6z M33.1,21.3h6.3l-3.1-7.8h-0.1L33.1,21.3z"/>
<path class="st0" d="M62.6,29.6l-7.3-9.1l-2.1,2.2v6.9h-4.1V8.9h4.1v9.4L62,8.9h4.8l-8.5,9l9.2,11.7L62.6,29.6z"/>
<path class="st0" d="M84.7,29.6H69.2V8.9h15.2v3.4H73.2v5H82v3.4h-8.8v5.5h11.4V29.6z"/>
<path class="st0" d="M104.8,8.9l8.4,20.7h-4.4l-2.1-5.1H98l-2,5.1h-4.1l8.4-20.7H104.8z M99.3,21.3h6.3l-3.1-7.8h-0.1L99.3,21.3z"/>
<path class="st0" d="M125.3,8.9v17.3h10.9v3.4h-15.1V8.9H125.3z"/>
<path class="st0" d="M147.3,30c-6.1,0-10.5-4.4-10.5-10.8s4.5-10.8,10.5-10.8s10.5,4.4,10.5,10.8S153.3,30,147.3,30z M147.3,12.1
	c-3.8,0-6.2,2.8-6.2,7.1s2.4,7.1,6.2,7.1s6.2-2.8,6.2-7.1S151.1,12.1,147.3,12.1L147.3,12.1z"/>
<path class="st0" d="M170.1,30c-6.1,0-10.5-4.4-10.5-10.8S164,8.5,170.1,8.5s10.5,4.4,10.5,10.8S176.1,30,170.1,30z M170.1,12.1
	c-3.8,0-6.2,2.8-6.2,7.1s2.4,7.1,6.2,7.1s6.2-2.8,6.2-7.1S173.9,12.1,170.1,12.1L170.1,12.1z"/>
<path class="st0" d="M196.8,29.6l-7.3-9.1l-2.1,2.2v6.9h-4.1V8.9h4.1v9.4l8.8-9.4h4.8l-8.5,9l9.2,11.7L196.8,29.6z"/>
<path d="M205.7,26.3l-6.2-7.9l5.1-5.4c2.2-2.3,2.1-5.8-0.2-8c-1.1-1-2.5-1.6-3.9-1.6h-4.8c-1.6,0-3,0.6-4.1,1.8l-0.3,0.3
	c-1.1-1.3-2.7-2.1-4.4-2.1h-4.1c-1.7,0-3.3,0.8-4.4,2.1c-2.6-1.7-5.7-2.5-8.8-2.5c-4.3-0.1-8.4,1.6-11.4,4.6c-3-3-7.1-4.6-11.4-4.6
	c-9.2,0-16.2,7.1-16.2,16.4l-0.1-10.4c0-3.1-2.5-5.7-5.6-5.7c0,0,0,0,0,0h-4.1c-3.1,0-5.7,2.5-5.7,5.7c0,0,0,0,0,0v11.2l-5.5-13.4
	c-0.9-2.1-2.9-3.5-5.2-3.5h-4.6c-2.3,0-4.4,1.4-5.3,3.5l-6.3,15.5c-0.3-0.3-0.7-0.6-1.1-0.9c0-0.2,0-0.4,0-0.6v-3.4
	c0-0.1,0-0.3,0-0.4c1.5-1.1,2.4-2.8,2.4-4.6V9.1c0-3.1-2.5-5.7-5.6-5.7c0,0,0,0,0,0H68.7c-0.4,0-0.8,0-1.2,0.1
	c-0.4-0.1-0.8-0.1-1.1-0.1h-4.8c-1.6,0-3.1,0.6-4.1,1.8l-0.3,0.3c-1.1-1.3-2.7-2.1-4.4-2.1h-4.1c-2.3,0-4.3,1.4-5.2,3.5
	c-0.9-2.1-2.9-3.5-5.2-3.5h-4.6c-1.2,0-2.4,0.4-3.3,1.1c-1-0.7-2.1-1.1-3.3-1.1H8C4.9,3.4,2.4,6,2.4,9.1v3.4c0,3.1,2.5,5.6,5.6,5.7
	h1.7v11.6c0,3.1,2.5,5.7,5.7,5.7l0,0h4.1c1,0,2-0.3,2.9-0.8c0.9,0.5,1.9,0.8,2.9,0.8h4.1c2.3,0,4.4-1.4,5.3-3.6l0.6-1.5h1.1l0.7,1.6
	c0.9,2.1,2.9,3.6,5.3,3.6h4.4c0.3,0,0.7,0,1-0.1c0.3,0.1,0.7,0.1,1,0.1h4.1c1.9,0,3.6-0.9,4.7-2.5l0.3,0.3c1.1,1.3,2.7,2.1,4.4,2.1
	h4.9c0.3,0,0.6,0,0.8-0.1c0.3,0,0.5,0.1,0.8,0.1h15.5c1.3,0,2.6-0.5,3.6-1.3c1,0.8,2.3,1.3,3.6,1.3h4.2c2.3,0,4.4-1.4,5.3-3.6
	l0.6-1.5h1.1l0.6,1.6c0.9,2.1,2.9,3.6,5.3,3.6h4.4c1.5,0,2.9-0.6,4-1.6c1.1,1,2.5,1.6,4,1.6h15c1.3,0,2.6-0.5,3.6-1.3
	c2.3,1.1,4.8,1.7,7.4,1.7c4.3,0.1,8.4-1.6,11.4-4.6c3,3,7.2,4.6,11.4,4.6c3.1,0,6.1-0.8,8.8-2.5c1.1,1.3,2.7,2.1,4.4,2.1h4.1
	c1.9,0,3.6-0.9,4.7-2.5l0.3,0.3c1.1,1.3,2.7,2.1,4.4,2.1h4.9c3.1,0,5.7-2.5,5.7-5.7C206.9,28.5,206.5,27.3,205.7,26.3L205.7,26.3z"
	/>
<path class="st1" d="M15.8,29.6V12.3H8.5V8.9h18.9v3.4H20v17.3H15.8z"/>
<path class="st1" d="M38.6,8.9l8.5,20.7h-4.4l-2.1-5.1h-8.8l-2,5.1h-4.1L34,8.9H38.6z M33.1,21.3h6.3l-3.1-7.8h-0.1L33.1,21.3z"/>
<path class="st1" d="M62.6,29.6l-7.3-9.1l-2.1,2.2v6.9h-4.1V8.9h4.1v9.4L62,8.9h4.8l-8.5,9l9.2,11.7L62.6,29.6z"/>
<path class="st1" d="M84.7,29.6H69.2V8.9h15.2v3.4H73.2v5H82v3.4h-8.8v5.5h11.4V29.6z"/>
<path class="st1" d="M104.8,8.9l8.4,20.7h-4.4l-2.1-5.1H98l-2,5.1h-4.1l8.4-20.7H104.8z M99.3,21.3h6.3l-3.1-7.8h-0.1L99.3,21.3z"/>
<path class="st1" d="M125.3,8.9v17.3h10.9v3.4h-15.1V8.9H125.3z"/>
<path class="st1" d="M147.3,30c-6.1,0-10.5-4.4-10.5-10.8s4.5-10.8,10.5-10.8s10.5,4.4,10.5,10.8S153.3,30,147.3,30z M147.3,12.1
	c-3.8,0-6.2,2.8-6.2,7.1s2.4,7.1,6.2,7.1s6.2-2.8,6.2-7.1S151.1,12.1,147.3,12.1L147.3,12.1z"/>
<path class="st1" d="M170.1,30c-6.1,0-10.5-4.4-10.5-10.8S164,8.5,170.1,8.5s10.5,4.4,10.5,10.8S176.1,30,170.1,30z M170.1,12.1
	c-3.8,0-6.2,2.8-6.2,7.1s2.4,7.1,6.2,7.1s6.2-2.8,6.2-7.1S173.9,12.1,170.1,12.1L170.1,12.1z"/>
<path class="st1" d="M196.8,29.6l-7.3-9.1l-2.1,2.2v6.9h-4.1V8.9h4.1v9.4l8.8-9.4h4.8l-8.5,9l9.2,11.7L196.8,29.6z"/>
</svg>
