<?xml version="1.0" encoding="UTF-8"?>
<svg xmlns="http://www.w3.org/2000/svg" version="1.1" viewBox="0 0 210.2 38.5">
  <defs>
    <style>
      .cls-1 {
        fill: #fff;
      }

      .cls-2 {
        stroke: #000;
        stroke-linejoin: round;
        stroke-width: 17px;
      }
    </style>
  </defs>
  <!-- Generator: Adobe Illustrator 28.6.0, SVG Export Plug-In . SVG Version: 1.2.0 Build 709)  -->
  <g>
    <g id="Layer_1">
      <path class="cls-2" d="M15.8,29.6V12.3h-7.3v-3.4h18.9v3.4h-7.4v17.3h-4.2Z"/>
      <path class="cls-2" d="M38.6,8.9l8.5,20.7h-4.4l-2.1-5.1h-8.8l-2,5.1h-4.1l8.4-20.7h4.6ZM33.1,21.3h6.3l-3.1-7.8h-.1l-3.1,7.8Z"/>
      <path class="cls-2" d="M62.6,29.6l-7.3-9.1-2.1,2.2v6.9h-4.1V8.9h4.1v9.4l8.8-9.4h4.8l-8.5,9,9.2,11.7h-4.9Z"/>
      <path class="cls-2" d="M84.7,29.6h-15.5V8.9h15.2v3.4h-11.1v5h8.8v3.4h-8.8v5.5h11.4v3.5Z"/>
      <path class="cls-2" d="M104.8,8.9l8.4,20.7h-4.4l-2.1-5.1h-8.8l-2,5.1h-4.1l8.4-20.7h4.6ZM99.3,21.3h6.3l-3.1-7.8h-.1l-3.1,7.8Z"/>
      <path class="cls-2" d="M125.3,8.9v17.3h10.9v3.4h-15.1V8.9h4.1Z"/>
      <path class="cls-2" d="M147.3,30c-6.1,0-10.5-4.4-10.5-10.8s4.5-10.8,10.5-10.8,10.5,4.4,10.5,10.8-4.5,10.7-10.5,10.7ZM147.3,12.1c-3.8,0-6.2,2.8-6.2,7.1s2.4,7.1,6.2,7.1,6.2-2.8,6.2-7.1-2.4-7.1-6.2-7.1h0Z"/>
      <path class="cls-2" d="M170.1,30c-6.1,0-10.5-4.4-10.5-10.8s4.4-10.8,10.5-10.8,10.5,4.4,10.5,10.8-4.5,10.7-10.5,10.7ZM170.1,12.1c-3.8,0-6.2,2.8-6.2,7.1s2.4,7.1,6.2,7.1,6.2-2.8,6.2-7.1-2.4-7.1-6.2-7.1h0Z"/>
      <path class="cls-2" d="M196.8,29.6l-7.3-9.1-2.1,2.2v6.9h-4.1V8.9h4.1v9.4l8.8-9.4h4.8l-8.5,9,9.2,11.7h-4.9Z"/>
      <path class="cls-1" d="M205.7,26.3l-6.2-7.9,5.1-5.4c2.2-2.3,2.1-5.8-.2-8-1.1-1-2.5-1.6-3.9-1.6h-4.8c-1.6,0-3,.6-4.1,1.8l-.3.3c-1.1-1.3-2.7-2.1-4.4-2.1h-4.1c-1.7,0-3.3.8-4.4,2.1-2.6-1.7-5.7-2.5-8.8-2.5-4.3,0-8.4,1.6-11.4,4.6-3-3-7.1-4.6-11.4-4.6-9.2,0-16.2,7.1-16.2,16.4v-10.4c-.1-3.1-2.6-5.7-5.8-5.7,0,0,0,0,0,0h-4.1c-3.1,0-5.7,2.5-5.7,5.7s0,0,0,0v11.2l-5.5-13.4c-.9-2.1-2.9-3.5-5.2-3.5h-4.6c-2.3,0-4.4,1.4-5.3,3.5l-6.3,15.5c-.3-.3-.7-.6-1.1-.9,0-.2,0-.4,0-.6v-3.8c1.5-1.1,2.4-2.8,2.4-4.6v-3.4c0-3.1-2.5-5.7-5.6-5.7h-15.2c-.4,0-.8,0-1.2.1-.4,0-.8-.1-1.1-.1h-4.8c-1.6,0-3.1.6-4.1,1.8l-.3.3c-1.1-1.3-2.7-2.1-4.4-2.1h-4.1c-2.3,0-4.3,1.4-5.2,3.5-.9-2.1-2.9-3.5-5.2-3.5h-4.6c-1.2,0-2.4.4-3.3,1.1-1-.7-2.1-1.1-3.3-1.1H8c-3.1,0-5.6,2.6-5.6,5.7v3.4c0,3.1,2.5,5.6,5.6,5.7h1.7v11.6c0,3.1,2.5,5.7,5.7,5.7h4.1c1,0,2-.3,2.9-.8.9.5,1.9.8,2.9.8h4.1c2.3,0,4.4-1.4,5.3-3.6l.6-1.5h1.1l.7,1.6c.9,2.1,2.9,3.6,5.3,3.6h4.4c.3,0,.7,0,1,0,.3,0,.7,0,1,0h4.1c1.9,0,3.6-.9,4.7-2.5l.3.3c1.1,1.3,2.7,2.1,4.4,2.1h4.9c.3,0,.6,0,.8,0,.3,0,.5,0,.8,0h15.5c1.3,0,2.6-.5,3.6-1.3,1,.8,2.3,1.3,3.6,1.3h4.2c2.3,0,4.4-1.4,5.3-3.6l.6-1.5h1.1l.6,1.6c.9,2.1,2.9,3.6,5.3,3.6h4.4c1.5,0,2.9-.6,4-1.6,1.1,1,2.5,1.6,4,1.6h15c1.3,0,2.6-.5,3.6-1.3,2.3,1.1,4.8,1.7,7.4,1.7,4.3,0,8.4-1.6,11.4-4.6,3,3,7.2,4.6,11.4,4.6,3.1,0,6.1-.8,8.8-2.5,1.1,1.3,2.7,2.1,4.4,2.1h4.1c1.9,0,3.6-.9,4.7-2.5l.3.3c1.1,1.3,2.7,2.1,4.4,2.1h4.9c3.1,0,5.7-2.5,5.7-5.7,0-1.3-.4-2.5-1.2-3.5h0Z"/>
      <path d="M15.8,29.6V12.3h-7.3v-3.4h18.9v3.4h-7.4v17.3h-4.2Z"/>
      <path d="M38.6,8.9l8.5,20.7h-4.4l-2.1-5.1h-8.8l-2,5.1h-4.1l8.4-20.7h4.6ZM33.1,21.3h6.3l-3.1-7.8h-.1l-3.1,7.8Z"/>
      <path d="M62.6,29.6l-7.3-9.1-2.1,2.2v6.9h-4.1V8.9h4.1v9.4l8.8-9.4h4.8l-8.5,9,9.2,11.7h-4.9Z"/>
      <path d="M84.7,29.6h-15.5V8.9h15.2v3.4h-11.1v5h8.8v3.4h-8.8v5.5h11.4v3.5Z"/>
      <path d="M104.8,8.9l8.4,20.7h-4.4l-2.1-5.1h-8.8l-2,5.1h-4.1l8.4-20.7h4.6ZM99.3,21.3h6.3l-3.1-7.8h-.1l-3.1,7.8Z"/>
      <path d="M125.3,8.9v17.3h10.9v3.4h-15.1V8.9h4.1Z"/>
      <path d="M147.3,30c-6.1,0-10.5-4.4-10.5-10.8s4.5-10.8,10.5-10.8,10.5,4.4,10.5,10.8-4.5,10.7-10.5,10.7ZM147.3,12.1c-3.8,0-6.2,2.8-6.2,7.1s2.4,7.1,6.2,7.1,6.2-2.8,6.2-7.1-2.4-7.1-6.2-7.1h0Z"/>
      <path d="M170.1,30c-6.1,0-10.5-4.4-10.5-10.8s4.4-10.8,10.5-10.8,10.5,4.4,10.5,10.8-4.5,10.7-10.5,10.7ZM170.1,12.1c-3.8,0-6.2,2.8-6.2,7.1s2.4,7.1,6.2,7.1,6.2-2.8,6.2-7.1-2.4-7.1-6.2-7.1h0Z"/>
      <path d="M196.8,29.6l-7.3-9.1-2.1,2.2v6.9h-4.1V8.9h4.1v9.4l8.8-9.4h4.8l-8.5,9,9.2,11.7h-4.9Z"/>
      <path d="M132.2,14.1c.2-2.1.7-3.4,1.3-4.5.9-1.7,1.1-1.6,3.3-3.2-1.6.8-3.3,1.6-4.9,2.4l-.7,5.1,1,.3Z"/>
      <path class="cls-1" d="M130.5,10.5c0,1.8.5,2,.9,2,.7,0,1.1-.6,1.1-.7,0-.1.1-.3.2-.4s1.8,1.7,1.8,2.4,0,1.2,0,1.8-6.3-.2-6.3-.5,1.6-5.1,2-6.1"/>
      <rect class="cls-1" x="129.4" y="15.2" width="2.7" height="4.8"/>
    </g>
  </g>
</svg>