<svg xmlns="http://www.w3.org/2000/svg" viewBox="0 0 210.2 38.51"><path d="M15.84,29.61V12.32H8.5V8.9H27.38v3.42H20V29.61Z" stroke="#000" stroke-linejoin="round" stroke-width="17.01"/><path d="M38.63,8.9l8.45,20.71H42.7l-2.07-5.13H31.82l-2,5.13H25.67L34.05,8.9ZM33.07,21.33h6.31l-3.12-7.76h-.13Z" stroke="#000" stroke-linejoin="round" stroke-width="17.01"/><path d="M62.6,29.61l-7.27-9.07-2.14,2.2v6.87H49.08V8.9h4.11v9.37L62,8.9h4.8l-8.48,9,9.17,11.73Z" stroke="#000" stroke-linejoin="round" stroke-width="17.01"/><path d="M84.66,29.61H69.17V8.9h15.2v3.42H73.22v5H82v3.39H73.22v5.45H84.66Z" stroke="#000" stroke-linejoin="round" stroke-width="17.01"/><path d="M104.82,8.9l8.45,20.71H108.9l-2.07-5.13H98l-2,5.13H91.86L100.25,8.9ZM99.26,21.33h6.32l-3.13-7.76h-.13Z" stroke="#000" stroke-linejoin="round" stroke-width="17.01"/><path d="M125.31,8.9V26.19h10.95v3.42H121.2V8.9Z" stroke="#000" stroke-linejoin="round" stroke-width="17.01"/><path d="M147.27,30c-6.05,0-10.52-4.37-10.52-10.75S141.22,8.5,147.27,8.5s10.49,4.38,10.49,10.76S153.29,30,147.27,30Zm0-17.89c-3.81,0-6.24,2.8-6.24,7.14s2.43,7.13,6.24,7.13,6.25-2.79,6.25-7.13S151.09,12.12,147.27,12.12Z" stroke="#000" stroke-linejoin="round" stroke-width="17.01"/><path d="M170.09,30c-6.05,0-10.52-4.37-10.52-10.75S164,8.5,170.09,8.5s10.49,4.38,10.49,10.76S176.11,30,170.09,30Zm0-17.89c-3.81,0-6.24,2.8-6.24,7.14s2.43,7.13,6.24,7.13,6.25-2.79,6.25-7.13S173.91,12.12,170.09,12.12Z" stroke="#000" stroke-linejoin="round" stroke-width="17.01"/><path d="M196.76,29.61l-7.26-9.07-2.14,2.2v6.87h-4.11V8.9h4.11v9.37L196.2,8.9H201l-8.48,9,9.17,11.73Z" stroke="#000" stroke-linejoin="round" stroke-width="17.01"/><path d="M205.7,26.29l-6.17-7.9L204.66,13a5.66,5.66,0,0,0-4.12-9.56h-4.8a5.67,5.67,0,0,0-4.12,1.77l-.31.33a5.67,5.67,0,0,0-4.41-2.1h-4.11a5.64,5.64,0,0,0-4.4,2.09A16.24,16.24,0,0,0,169.63,3a16,16,0,0,0-11.42,4.58A16,16,0,0,0,146.81,3c-9.23,0-16.19,7.06-16.19,16.42l-.11-10.35a5.66,5.66,0,0,0-5.66-5.67h-4.12a5.66,5.66,0,0,0-5.66,5.67V20.3L109.61,6.92a5.67,5.67,0,0,0-5.25-3.52H99.79a5.68,5.68,0,0,0-5.26,3.54L88.27,22.41a5.81,5.81,0,0,0-1.13-.9,6.08,6.08,0,0,0,0-.61V17.52c0-.13,0-.26,0-.39a5.67,5.67,0,0,0,2.41-4.64V9.07A5.66,5.66,0,0,0,83.9,3.4H68.71a5.17,5.17,0,0,0-1.19.13,5.46,5.46,0,0,0-1.14-.13h-4.8a5.71,5.71,0,0,0-4.13,1.77l-.31.33a5.67,5.67,0,0,0-4.41-2.1H48.62a5.67,5.67,0,0,0-5.23,3.48A5.66,5.66,0,0,0,38.16,3.4H33.59a5.67,5.67,0,0,0-3.33,1.09A5.68,5.68,0,0,0,26.92,3.4H8A5.67,5.67,0,0,0,2.37,9.07v3.42A5.66,5.66,0,0,0,8,18.15H9.71V29.78a5.67,5.67,0,0,0,5.67,5.67h4.11a5.67,5.67,0,0,0,2.86-.78,5.68,5.68,0,0,0,2.86.78h4.14a5.67,5.67,0,0,0,5.28-3.6l.6-1.53h1.12L37,31.9a5.67,5.67,0,0,0,5.26,3.55h4.37a5.36,5.36,0,0,0,1-.1,5.69,5.69,0,0,0,1,.1h4.11A5.66,5.66,0,0,0,57.42,33l.29.35a5.66,5.66,0,0,0,4.43,2.13h4.93a5.93,5.93,0,0,0,.84-.06,7,7,0,0,0,.8.06H84.2a5.65,5.65,0,0,0,3.61-1.3,5.61,5.61,0,0,0,3.59,1.3h4.15a5.68,5.68,0,0,0,5.28-3.6l.59-1.53h1.12l.64,1.58a5.65,5.65,0,0,0,5.26,3.55h4.37a5.68,5.68,0,0,0,4-1.62,5.65,5.65,0,0,0,4,1.62H135.8a5.63,5.63,0,0,0,3.62-1.31,16.54,16.54,0,0,0,7.39,1.71,16,16,0,0,0,11.4-4.58,16,16,0,0,0,11.42,4.58,16.24,16.24,0,0,0,8.76-2.49,5.64,5.64,0,0,0,4.4,2.09h4.11A5.66,5.66,0,0,0,191.59,33l.28.35a5.67,5.67,0,0,0,4.43,2.13h4.93a5.67,5.67,0,0,0,4.47-9.16Z" fill="#fff"/><path d="M15.84,29.61V12.32H8.5V8.9H27.38v3.42H20V29.61Z"/><path d="M38.63,8.9l8.45,20.71H42.7l-2.07-5.13H31.82l-2,5.13H25.67L34.05,8.9ZM33.07,21.33h6.31l-3.12-7.76h-.13Z"/><path d="M62.6,29.61l-7.27-9.07-2.14,2.2v6.87H49.08V8.9h4.11v9.37L62,8.9h4.8l-8.48,9,9.17,11.73Z"/><path d="M84.66,29.61H69.17V8.9h15.2v3.42H73.22v5H82v3.39H73.22v5.45H84.66Z"/><path d="M104.82,8.9l8.45,20.71H108.9l-2.07-5.13H98l-2,5.13H91.86L100.25,8.9ZM99.26,21.33h6.32l-3.13-7.76h-.13Z"/><path d="M125.31,8.9V26.19h10.95v3.42H121.2V8.9Z"/><path d="M147.27,30c-6.05,0-10.52-4.37-10.52-10.75S141.22,8.5,147.27,8.5s10.49,4.38,10.49,10.76S153.29,30,147.27,30Zm0-17.89c-3.81,0-6.24,2.8-6.24,7.14s2.43,7.13,6.24,7.13,6.25-2.79,6.25-7.13S151.09,12.12,147.27,12.12Z"/><path d="M170.09,30c-6.05,0-10.52-4.37-10.52-10.75S164,8.5,170.09,8.5s10.49,4.38,10.49,10.76S176.11,30,170.09,30Zm0-17.89c-3.81,0-6.24,2.8-6.24,7.14s2.43,7.13,6.24,7.13,6.25-2.79,6.25-7.13S173.91,12.12,170.09,12.12Z"/><path d="M196.76,29.61l-7.26-9.07-2.14,2.2v6.87h-4.11V8.9h4.11v9.37L196.2,8.9H201l-8.48,9,9.17,11.73Z"/></svg>