<?xml version="1.0" encoding="utf-8"?>
<!-- Generator: Adobe Illustrator 26.0.3, SVG Export Plug-In . SVG Version: 6.00 Build 0)  -->
<svg version="1.1" id="Layer_1" xmlns="http://www.w3.org/2000/svg" xmlns:xlink="http://www.w3.org/1999/xlink" x="0px" y="0px"
	 viewBox="0 0 119.8 37.2" style="enable-background:new 0 0 119.8 37.2;" xml:space="preserve">
<g>
	<path d="M81.6,37.2c-3.7,0-7.3-1.2-10.3-3.5c-6.2,4.4-14.6,4.5-21,0.4c-2.9,1.8-6.2,2.7-9.6,2.6l-9.6,0c-0.3,0-0.7,0-1-0.1
		c-0.3,0-0.7,0.1-1,0.1h-4.3c-2.5,0-4.9-1.2-6.4-3.2c-1.5,2-3.8,3.2-6.4,3.2H8c-1,0-2-0.2-3-0.6c-4.1-1.6-6-6.3-4.4-10.3L8.8,5.4
		c1.2-3,4.1-4.9,7.3-4.9c0,0,0,0,0.1,0h4.5c1.9,0,3.7,0.7,5.2,1.9c1.4-1.2,3.3-1.9,5.2-1.9h9.1c4,0,7.3,0.9,9.9,2.7
		C55.6-0.5,62.7-1,68.7,1.9c1.3-1,2.9-1.5,4.6-1.5c0,0,0,0,0,0h4c0,0,0,0,0,0C79,0.4,80.7,1,82.1,2c1.4-1,3-1.6,4.7-1.6h4.1
		c0.4,0,0.8,0,1.2,0.1c0.4-0.1,0.8-0.1,1.2-0.1c0,0,0,0,0,0h18.7c0,0,0,0,0,0c4.4,0,7.9,3.6,7.9,7.9v3.4c0,4.2-3.3,7.6-7.4,7.9v9.2
		c0,4.4-3.6,7.9-7.9,7.9h-4.1c-2.8,0-5.3-1.5-6.7-3.7c-3,2.7-7,4.1-11.7,4.1C81.9,37.2,81.7,37.2,81.6,37.2z M71.3,30.3
		c0.4,0,0.7,0.1,1,0.4c2.7,2.4,6.1,3.6,9.7,3.5c4.7,0,8.6-1.7,11-4.8c0.4-0.4,0.9-0.6,1.5-0.5c0.6,0.1,1,0.6,1.1,1.1
		c0.5,2.2,2.5,3.8,4.8,3.8h4.1c2.7,0,4.9-2.2,4.9-4.9V18.1c0-0.8,0.7-1.5,1.5-1.5h0.9c2.7,0,4.9-2.2,4.9-4.9V8.3
		c0-2.7-2.2-4.9-4.9-4.9H93.2c-0.3,0-0.6,0-0.9,0.1c-0.2,0-0.4,0-0.6,0c-0.3-0.1-0.6-0.1-0.9-0.1h-4c-1.4,0-2.7,0.6-3.6,1.6
		c-0.3,0.3-0.7,0.5-1.1,0.5c0,0,0,0,0,0c-0.4,0-0.8-0.2-1.1-0.5c-0.9-1-2.3-1.6-3.6-1.6c0,0,0,0,0,0h-4c0,0,0,0,0,0
		c-1.3,0-2.5,0.5-3.4,1.4c-0.5,0.5-1.2,0.5-1.8,0.2C62.7,2,56,2.5,51,6.2c-0.6,0.4-1.3,0.4-1.9-0.1c-2.1-1.8-5.1-2.7-8.9-2.7h-9.1
		c-1.6,0-3.1,0.8-4,2c-0.3,0.4-0.7,0.6-1.2,0.6c0,0,0,0,0,0c-0.5,0-0.9-0.2-1.2-0.6c-0.9-1.3-2.4-2-4-2h-4.5c0,0,0,0,0,0
		c-2,0-3.8,1.2-4.6,3.1L3.4,27c-1,2.5,0.2,5.4,2.7,6.4c0.6,0.2,1.2,0.4,1.9,0.4h4c2,0,3.9-1.2,4.6-3.1l0.4-1c0.2-0.6,0.8-1,1.4-1
		c0.7,0,1.2,0.4,1.4,0.9l0.4,1c0.8,1.9,2.6,3.1,4.6,3.1h4.3c0.2,0,0.5,0,0.8-0.1c0.2,0,0.3,0,0.5,0c0.3,0,0.5,0.1,0.8,0.1h9.6
		c3.1,0.1,6.2-0.8,8.7-2.6c0.5-0.4,1.2-0.4,1.8,0c5.8,4.2,13.6,4,19.2-0.5C70.6,30.4,71,30.3,71.3,30.3z"/>
</g>
<path d="M20.8,8.1l8.4,20.5h-4.3l-2-5.1H14l-2,5.1H7.9l8.3-20.5H20.8z M15.3,20.4h6.2l-3.1-7.7h-0.1L15.3,20.4z"/>
<path d="M40.8,28.6h-9.6V8.1h9.1c5.2,0,7.4,2.2,7.4,5.6c0,2.2-1.6,4.1-3.8,4.3c2.5,0.5,4.4,2.1,4.4,5C48.2,26.5,45.5,28.6,40.8,28.6
	z M35.1,16.6H40c2.5,0,3.5-1.1,3.5-2.6s-1-2.6-3.5-2.6h-4.9L35.1,16.6z M35.1,19.7v5.6h5.2c2.5,0,3.8-1.1,3.8-2.8s-1.2-2.8-3.8-2.8
	H35.1z"/>
<path d="M60.5,29c-6,0-10.5-4.4-10.5-10.7S54.5,7.7,60.5,7.7S70.8,12,70.8,18.3S66.4,29,60.5,29z M60.5,11.3c-3.8,0-6.2,2.8-6.2,7.1
	s2.4,7.1,6.2,7.1s6.2-2.8,6.2-7.1S64.2,11.3,60.5,11.3L60.5,11.3z"/>
<path d="M73.3,20.6V8.1h4v12.1c0,3.5,1.5,5.4,4.7,5.4s4.8-1.8,4.8-5.3V8.1h4.1v12.5c0,6-3.8,8.4-8.8,8.4S73.3,26.6,73.3,20.6z"/>
<path d="M100.4,28.6V11.4h-7.3V8.1h18.7v3.4h-7.4v17.1H100.4z"/>
</svg>
