<svg xmlns="http://www.w3.org/2000/svg" viewBox="0 0 206.46 37.37"><path d="M198.52,1.89h-3.81a6.41,6.41,0,0,0-4.9,2.27,6.44,6.44,0,0,0-4.9-2.27h-4.08a6.39,6.39,0,0,0-4.53,1.88,17.54,17.54,0,0,0-17.28,0,6.47,6.47,0,0,0-4.56-1.89h-4.11a6.34,6.34,0,0,0-4,1.39,17,17,0,0,0-7.83-1.78,15.71,15.71,0,0,0-9.48,2.89,16.12,16.12,0,0,0-9.66-2.89,16.67,16.67,0,0,0-7.29,1.57,6.37,6.37,0,0,0-3.7-1.18h-4.1a6.46,6.46,0,0,0-1.82.27,6.34,6.34,0,0,0-1.81-.27H94.35A6.44,6.44,0,0,0,89.88,3.7a6.44,6.44,0,0,0-4.47-1.81H78.93a6.34,6.34,0,0,0-1.81.27,6.39,6.39,0,0,0-1.81-.27H69A6.44,6.44,0,0,0,64.49,3.7,6.44,6.44,0,0,0,60,1.89H53.54A6.39,6.39,0,0,0,49,3.77,17.07,17.07,0,0,0,40.39,1.5a16.9,16.9,0,0,0-11,3.92,16.43,16.43,0,0,0-11-3.92C8.73,1.5,1.5,8.89,1.5,18.68S8.73,35.87,18.32,35.87A16.41,16.41,0,0,0,29.37,32a16.91,16.91,0,0,0,11,3.92A17.17,17.17,0,0,0,49,33.6a6.39,6.39,0,0,0,4.53,1.88h3.82a6.48,6.48,0,0,0,2.6-.55,6.47,6.47,0,0,0,2.59.55h3.52A6.43,6.43,0,0,0,68.62,35a6.36,6.36,0,0,0,2.55.53h4.14a6.39,6.39,0,0,0,1.81-.27,6.34,6.34,0,0,0,1.81.27h3.81a6.41,6.41,0,0,0,2.6-.55,6.48,6.48,0,0,0,2.6.55h3.52A6.42,6.42,0,0,0,94,35a6.39,6.39,0,0,0,2.55.53h4.14a6.34,6.34,0,0,0,1.81-.27,6.46,6.46,0,0,0,1.82.27h4.1a6.41,6.41,0,0,0,3.87-1.3,17.9,17.9,0,0,0,7.84,1.69,16.4,16.4,0,0,0,9.49-2.73,18.45,18.45,0,0,0,17.06,1.18,6.38,6.38,0,0,0,3.67,1.16h4.11A6.47,6.47,0,0,0,159,33.59a17.54,17.54,0,0,0,17.28,0,6.39,6.39,0,0,0,4.53,1.88h3.82a6.42,6.42,0,0,0,5.29-2.78l.09.12a6.42,6.42,0,0,0,5.21,2.66h3.28A6.44,6.44,0,0,0,205,29V8.33A6.44,6.44,0,0,0,198.52,1.89Z"/><path d="M167.68,37.37a19,19,0,0,1-8.47-2A7.88,7.88,0,0,1,154.46,37h-4.11a7.87,7.87,0,0,1-3.78-1,20.22,20.22,0,0,1-16.94-1.09,18.34,18.34,0,0,1-9.5,2.45,19.77,19.77,0,0,1-7.71-1.48,7.88,7.88,0,0,1-4,1.09h-4.1a8,8,0,0,1-1.82-.22,7.86,7.86,0,0,1-1.81.22H96.55A8.16,8.16,0,0,1,94,36.56a8.1,8.1,0,0,1-2.54.42H87.94a7.93,7.93,0,0,1-2.6-.44,7.84,7.84,0,0,1-2.6.44H78.93a7.93,7.93,0,0,1-1.81-.22,8,8,0,0,1-1.81.22H71.17a8.07,8.07,0,0,1-2.55-.42,8.16,8.16,0,0,1-2.55.42H62.55A7.83,7.83,0,0,1,60,36.54a7.93,7.93,0,0,1-2.6.44H53.54a7.86,7.86,0,0,1-4.73-1.57,18.78,18.78,0,0,1-8.42,2,18.42,18.42,0,0,1-11-3.5,18.16,18.16,0,0,1-11.07,3.5C7.88,37.37,0,29.34,0,18.68S7.88,0,18.32,0A18.16,18.16,0,0,1,29.39,3.5a18.42,18.42,0,0,1,11-3.5,18.78,18.78,0,0,1,8.42,2A7.86,7.86,0,0,1,53.54.39H60a7.92,7.92,0,0,1,4.47,1.38A8,8,0,0,1,69,.39h6.35a8,8,0,0,1,1.81.22A7.93,7.93,0,0,1,78.93.39h6.48a8,8,0,0,1,4.47,1.38A8,8,0,0,1,94.35.39h6.34a7.86,7.86,0,0,1,1.81.22,8,8,0,0,1,1.82-.22h4.1a7.92,7.92,0,0,1,3.82,1A18.4,18.4,0,0,1,119.41,0a18.1,18.1,0,0,1,9.65,2.57A17.58,17.58,0,0,1,138.55,0a18.73,18.73,0,0,1,7.69,1.55A7.81,7.81,0,0,1,150.35.39h4.11A7.88,7.88,0,0,1,159.21,2,19.4,19.4,0,0,1,176.1,2,7.86,7.86,0,0,1,180.83.39h4.08a7.9,7.9,0,0,1,4.9,1.7,7.94,7.94,0,0,1,4.9-1.7h3.81a8,8,0,0,1,7.94,7.94V29A8,8,0,0,1,198.52,37h-3.28a8,8,0,0,1-5.3-2,7.94,7.94,0,0,1-5.29,2h-3.82a7.86,7.86,0,0,1-4.73-1.57A18.78,18.78,0,0,1,167.68,37.37ZM159,32.09a1.48,1.48,0,0,1,.75.2,16,16,0,0,0,15.78,0,1.51,1.51,0,0,1,1.81.24A4.87,4.87,0,0,0,180.83,34h3.82a4.94,4.94,0,0,0,4.06-2.13,1.52,1.52,0,0,1,1.21-.65h0a1.49,1.49,0,0,1,1.21.62l.09.12a5,5,0,0,0,4,2h3.28A5,5,0,0,0,203.46,29V8.33a5,5,0,0,0-4.94-4.94h-3.81A5,5,0,0,0,191,5.13a1.51,1.51,0,0,1-1.14.53h0a1.51,1.51,0,0,1-1.14-.53,5,5,0,0,0-3.76-1.74h-4.08a4.87,4.87,0,0,0-3.47,1.44,1.5,1.5,0,0,1-1.81.23,16.07,16.07,0,0,0-15.78,0A1.5,1.5,0,0,1,158,4.84a4.91,4.91,0,0,0-3.49-1.45h-4.11a4.92,4.92,0,0,0-3,1.06,1.48,1.48,0,0,1-1.61.16A15.45,15.45,0,0,0,138.55,3,14.21,14.21,0,0,0,130,5.59a1.49,1.49,0,0,1-1.78,0A14.75,14.75,0,0,0,119.41,3a15.14,15.14,0,0,0-6.63,1.42,1.51,1.51,0,0,1-1.52-.13,5,5,0,0,0-2.84-.9h-4.1a4.68,4.68,0,0,0-1.39.21,1.54,1.54,0,0,1-.85,0,4.73,4.73,0,0,0-1.39-.21H94.35a4.94,4.94,0,0,0-3.43,1.39,1.5,1.5,0,0,1-2.08,0,5,5,0,0,0-3.43-1.39H78.93a4.78,4.78,0,0,0-1.39.21,1.5,1.5,0,0,1-.84,0,4.78,4.78,0,0,0-1.39-.21H69a5,5,0,0,0-3.43,1.39,1.5,1.5,0,0,1-2.08,0A4.92,4.92,0,0,0,60,3.39H53.54a4.87,4.87,0,0,0-3.47,1.44,1.5,1.5,0,0,1-1.81.23A15.54,15.54,0,0,0,40.39,3a15.33,15.33,0,0,0-10,3.57,1.5,1.5,0,0,1-2,0A14.92,14.92,0,0,0,18.32,3C9.59,3,3,9.74,3,18.68S9.59,34.37,18.32,34.37a14.92,14.92,0,0,0,10.06-3.55,1.5,1.5,0,0,1,2,0,15.33,15.33,0,0,0,10.05,3.57,15.55,15.55,0,0,0,7.87-2.07,1.5,1.5,0,0,1,1.8.24A4.91,4.91,0,0,0,53.54,34h3.82a5,5,0,0,0,2-.42,1.5,1.5,0,0,1,1.21,0,5,5,0,0,0,2,.42h3.52a4.84,4.84,0,0,0,2-.41,1.54,1.54,0,0,1,1.19,0,4.88,4.88,0,0,0,2,.41h4.14a4.78,4.78,0,0,0,1.39-.21,1.5,1.5,0,0,1,.84,0,4.78,4.78,0,0,0,1.39.21h3.81a5,5,0,0,0,2-.42,1.5,1.5,0,0,1,1.21,0,5,5,0,0,0,2,.42h3.52a4.87,4.87,0,0,0,2-.41,1.54,1.54,0,0,1,1.19,0,4.8,4.8,0,0,0,2,.41h4.14a4.73,4.73,0,0,0,1.39-.21,1.54,1.54,0,0,1,.85,0,4.73,4.73,0,0,0,1.39.21h4.1a4.87,4.87,0,0,0,3-1,1.51,1.51,0,0,1,1.56-.15,16.45,16.45,0,0,0,7.19,1.54,14.93,14.93,0,0,0,8.63-2.46,1.51,1.51,0,0,1,1.7,0A16.94,16.94,0,0,0,146.05,33a1.53,1.53,0,0,1,1.49.13,4.88,4.88,0,0,0,2.81.89h4.11A4.91,4.91,0,0,0,158,32.53,1.51,1.51,0,0,1,159,32.09Z"/><path d="M18.33,7.75c6.11,0,9.5,3.84,9.86,9.07l-4,.17c-.29-3.09-2.13-5.63-5.91-5.63s-6.12,2.77-6.12,7.14,2.43,7.14,6.12,7.14S24,23.1,24.24,20l4,.17c-.36,5.26-3.75,9.07-9.86,9.07-5.89,0-10.4-4.37-10.4-10.75S12.44,7.75,18.33,7.75Z" fill="#fff"/><path d="M40.39,29.25c-6,0-10.52-4.37-10.52-10.75S34.34,7.75,40.39,7.75,50.88,12.12,50.88,18.5,46.41,29.25,40.39,29.25Zm0-17.89c-3.81,0-6.25,2.8-6.25,7.14s2.44,7.14,6.25,7.14,6.25-2.8,6.25-7.14S44.2,11.36,40.39,11.36Z" fill="#fff"/><path d="M62.55,28.86,57.49,12.55h-.13V28.86H53.54V8.14H60L64.56,23.2h.1L69,8.14h6.35V28.86H71.17V12.55H71l-5,16.31Z" fill="#fff"/><path d="M87.94,28.86,82.88,12.55h-.14V28.86H78.93V8.14h6.48L90,23.2H90L94.35,8.14h6.35V28.86H96.55V12.55h-.13l-5,16.31Z" fill="#fff"/><path d="M108.43,8.14V28.86h-4.12V8.14Z" fill="#fff"/><path d="M114.74,21.33c.16,3.22,2.5,4.67,5.39,4.67,2.57,0,4.21-1,4.21-2.77,0-1.57-1.25-2.17-3.42-2.59l-4-.73c-3.22-.59-5.45-2.36-5.45-5.78,0-3.88,3-6.38,7.89-6.38,5.42,0,8.48,2.79,8.55,7.4l-3.78.13c-.14-2.83-2-4.31-4.8-4.31-2.44,0-3.82,1.08-3.82,2.86,0,1.51,1.09,2,3,2.4l3.82.69c4.07.76,6,2.7,6,6,0,4.08-3.52,6.28-8.19,6.28-5.33,0-9.17-2.76-9.17-7.76Z" fill="#fff"/><path d="M133.88,21.33c.16,3.22,2.5,4.67,5.39,4.67,2.56,0,4.21-1,4.21-2.77,0-1.57-1.25-2.17-3.42-2.59l-3.95-.73c-3.22-.59-5.46-2.36-5.46-5.78,0-3.88,3.06-6.38,7.9-6.38,5.42,0,8.48,2.79,8.55,7.4l-3.79.13c-.13-2.83-2-4.31-4.8-4.31-2.43,0-3.81,1.08-3.81,2.86,0,1.51,1.08,2,3,2.4l3.81.69c4.08.76,6,2.7,6,6,0,4.08-3.52,6.28-8.19,6.28-5.33,0-9.17-2.76-9.17-7.76Z" fill="#fff"/><path d="M154.46,8.14V28.86h-4.11V8.14Z" fill="#fff"/><path d="M167.68,29.25c-6.05,0-10.52-4.37-10.52-10.75s4.47-10.75,10.52-10.75,10.49,4.37,10.49,10.75S173.7,29.25,167.68,29.25Zm0-17.89c-3.81,0-6.25,2.8-6.25,7.14s2.44,7.14,6.25,7.14,6.25-2.8,6.25-7.14S171.49,11.36,167.68,11.36Z" fill="#fff"/><path d="M194.71,22V8.14h3.81V28.86h-3.28l-10.59-14.6v14.6h-3.82V8.14h4.08Z" fill="#fff"/></svg>