<svg xmlns="http://www.w3.org/2000/svg" viewBox="0 0 177.88 37.37"><g style="isolation:isolate"><g style="mix-blend-mode:multiply"><path d="M176,15.24C175.9,7,169.88,1.5,161,1.5a17.21,17.21,0,0,0-6.17,1.09,6.47,6.47,0,0,0-2.91-.7H133.09a6.36,6.36,0,0,0-3.35,1,17.7,17.7,0,0,0-6.91-1.35A16.52,16.52,0,0,0,110.32,7l-.44-1.08a6.45,6.45,0,0,0-6-4H99.35a6.39,6.39,0,0,0-3.33,1,6.38,6.38,0,0,0-3.35-.95H73.8A6.69,6.69,0,0,0,72.52,2a6.88,6.88,0,0,0-1.29-.13H67.42a6.41,6.41,0,0,0-4.9,2.27,6.44,6.44,0,0,0-4.9-2.27H53.54A6.39,6.39,0,0,0,49,3.77,17.17,17.17,0,0,0,40.39,1.5a16.9,16.9,0,0,0-11,3.92,16.43,16.43,0,0,0-11-3.92C8.73,1.5,1.5,8.89,1.5,18.68S8.73,35.87,18.32,35.87A16.41,16.41,0,0,0,29.37,32a16.91,16.91,0,0,0,11,3.92A17.17,17.17,0,0,0,49,33.6a6.39,6.39,0,0,0,4.53,1.88h3.82a6.42,6.42,0,0,0,5.29-2.78l.08.12a6.45,6.45,0,0,0,5.21,2.66h3.29a6.43,6.43,0,0,0,5-2.33,6.43,6.43,0,0,0,4.95,2.33h4.11a6.45,6.45,0,0,0,2.87-.68,6.48,6.48,0,0,0,2.86.68h4.14a6.44,6.44,0,0,0,6-4.09l.41-1h.07l.45,1.1a6.44,6.44,0,0,0,6,4h4.37a6.42,6.42,0,0,0,3.5-1,17.29,17.29,0,0,0,7,1.44,16.27,16.27,0,0,0,11.62-4.45,6.43,6.43,0,0,0,6,4.06h4.11a6.42,6.42,0,0,0,5.83-3.73,16.34,16.34,0,0,0,11.4,4.12c8.61,0,14.62-5.23,14.62-12.71a13.2,13.2,0,0,0-1-5.05A6.29,6.29,0,0,0,176,15.24Z" stroke="#000" stroke-linecap="round" stroke-linejoin="round" stroke-width="3"/><path d="M18.33,7.75c6.11,0,9.5,3.84,9.86,9.07L24.25,17c-.3-3.09-2.14-5.63-5.92-5.63s-6.12,2.77-6.12,7.14,2.43,7.14,6.12,7.14S24,23.1,24.25,20l3.94.17c-.36,5.26-3.75,9.07-9.86,9.07-5.89,0-10.39-4.37-10.39-10.75S12.44,7.75,18.33,7.75Z" fill="#fff"/><path d="M40.39,29.25c-6,0-10.52-4.37-10.52-10.75S34.34,7.75,40.39,7.75,50.88,12.12,50.88,18.5,46.41,29.25,40.39,29.25Zm0-17.89c-3.81,0-6.25,2.8-6.25,7.14s2.44,7.14,6.25,7.14,6.25-2.8,6.25-7.14S44.21,11.36,40.39,11.36Z" fill="#fff"/><path d="M67.42,22V8.14h3.82V28.86H68L57.36,14.26v14.6H53.55V8.14h4.07Z" fill="#fff"/><path d="M81.13,28.86V11.56H73.8V8.14H92.68v3.42H85.24v17.3Z" fill="#fff"/><path d="M103.92,8.14l8.45,20.72H108l-2.07-5.13H97.12l-2,5.13H91L99.35,8.14ZM98.37,20.57h6.31l-3.12-7.76h-.14Z" fill="#fff"/><path d="M122.83,7.75c6.12,0,9.5,3.84,9.87,9.07l-3.95.17c-.3-3.09-2.14-5.63-5.92-5.63s-6.11,2.77-6.11,7.14,2.43,7.14,6.11,7.14,5.62-2.54,5.92-5.63l3.95.17c-.37,5.26-3.75,9.07-9.87,9.07-5.88,0-10.39-4.37-10.39-10.75S117,7.75,122.83,7.75Z" fill="#fff"/><path d="M140.42,28.86V11.56h-7.33V8.14H152v3.42h-7.44v17.3Z" fill="#fff"/><path d="M156.37,21.33c.17,3.22,2.5,4.67,5.4,4.67,2.56,0,4.2-1,4.2-2.76,0-1.58-1.25-2.17-3.42-2.6l-3.94-.73c-3.22-.59-5.46-2.36-5.46-5.78,0-3.88,3.06-6.38,7.89-6.38,5.43,0,8.48,2.79,8.55,7.4l-3.78.13c-.13-2.83-2-4.31-4.8-4.31-2.44,0-3.82,1.08-3.82,2.86,0,1.51,1.09,2,3,2.4l3.82.69c4.08.76,6,2.7,6,6,0,4.08-3.52,6.28-8.18,6.28-5.33,0-9.18-2.76-9.18-7.76Z" fill="#fff"/></g></g></svg>