<?xml version="1.0" encoding="UTF-8"?>
<svg id="Livello_3" xmlns="http://www.w3.org/2000/svg" xmlns:xlink="http://www.w3.org/1999/xlink" version="1.1" viewBox="0 0 87.56 25.89">
  <!-- Generator: Adobe Illustrator 29.0.0, SVG Export Plug-In . SVG Version: 2.1.0 Build 186)  -->
  <defs>
    <style>
      .st0 {
        fill: none;
      }

      .st1 {
        fill: url(#Sfumatura_senza_nome_5);
      }

      .st2 {
        clip-path: url(#clippath);
      }
    </style>
    <clipPath id="clippath">
      <path class="st0" d="M11.19,5.29l-6.19,15.3h3.06l1.48-3.79h6.51l1.53,3.79h3.23l-6.24-15.3h-3.38ZM10.47,14.47l2.26-5.73h.1l2.31,5.73h-4.66ZM31.8,12.65c1.65-.27,2.82-1.48,2.82-3.21,0-2.5-1.65-4.15-5.51-4.15h-6.8v15.3h7.19c3.57,0,5.59-1.55,5.59-4.2,0-2.19-1.43-3.4-3.28-3.74ZM25.26,7.75h3.64c1.82,0,2.6.83,2.6,1.97s-.78,1.94-2.6,1.94h-3.64v-3.91ZM29.15,18.14h-3.89v-4.18h3.89c1.89,0,2.82.83,2.82,2.11s-.92,2.06-2.82,2.06ZM44.19,5c-4.47,0-7.77,3.23-7.77,7.94s3.3,7.94,7.77,7.94,7.75-3.23,7.75-7.94-3.3-7.94-7.75-7.94ZM44.19,18.22c-2.82,0-4.62-2.06-4.62-5.27s1.8-5.27,4.62-5.27,4.62,2.07,4.62,5.27-1.8,5.27-4.62,5.27ZM63.85,14.35c0,2.62-1.12,3.98-3.55,3.98s-3.52-1.36-3.52-4.01V5.29h-3.01v9.35c0,4.47,2.87,6.24,6.54,6.24s6.58-1.77,6.58-6.24V5.29h-3.04v9.06ZM68.62,5.29v2.53h5.42v12.78h3.04V7.82h5.49v-2.53h-13.94Z"/>
    </clipPath>
    <linearGradient id="Sfumatura_senza_nome_5" data-name="Sfumatura senza nome 5" x1="-66.66" y1="12.94" x2="366.03" y2="12.94" gradientUnits="userSpaceOnUse">
      <stop offset="0" stop-color="#ffd4d4"/>
      <stop offset=".25" stop-color="#eea6ff"/>
      <stop offset=".5" stop-color="#97faff"/>
      <stop offset=".75" stop-color="#99ffa7"/>
      <stop offset="1" stop-color="#ffff85"/>
    </linearGradient>
  </defs>
  <path d="M5,25.6h3.06c2.06,0,3.91-1.26,4.66-3.18l.1-.26.13.32c.76,1.89,2.6,3.13,4.64,3.13h3.23c.27,0,.53-.03.79-.07.23.03.46.07.7.07h7.19c3.07,0,5.42-.82,7.13-2.11,2.09,1.51,4.69,2.4,7.58,2.4,3.13,0,5.93-1.04,8.1-2.8,2,1.78,4.75,2.8,8.01,2.8,3.83,0,6.96-1.39,9-3.76.65,2,2.51,3.46,4.73,3.46h3.04c2.76,0,5-2.24,5-5v-7.78h.49c2.76,0,5-2.24,5-5v-2.53c0-2.76-2.24-5-5-5h-13.94c-.3,0-.58.04-.86.09-.28-.05-.57-.09-.86-.09h-3.04c-1.38,0-2.63.56-3.53,1.46-.9-.9-2.15-1.46-3.53-1.46h-3.01c-1.28,0-2.43.49-3.31,1.28-1.83-1-3.96-1.57-6.27-1.57-2.97,0-5.63.94-7.75,2.53-1.66-1.35-4.05-2.24-7.34-2.24h-6.8c-1.56,0-2.93.73-3.85,1.85-.93-1.15-2.35-1.85-3.88-1.85h-3.38c-2.04,0-3.87,1.24-4.63,3.12L.37,18.72c-.62,1.54-.44,3.29.49,4.67.93,1.38,2.48,2.21,4.15,2.21Z"/>
  <g class="st2">
    <path class="st1" d="M5,25.6h3.06c2.06,0,3.91-1.26,4.66-3.18l.1-.26.13.32c.76,1.89,2.6,3.13,4.64,3.13h3.23c.27,0,.53-.03.79-.07.23.03.46.07.7.07h7.19c3.07,0,5.42-.82,7.13-2.11,2.09,1.51,4.69,2.4,7.58,2.4,3.13,0,5.93-1.04,8.1-2.8,2,1.78,4.75,2.8,8.01,2.8,3.83,0,6.96-1.39,9-3.76.65,2,2.51,3.46,4.73,3.46h3.04c2.76,0,5-2.24,5-5v-7.78h.49c2.76,0,5-2.24,5-5v-2.53c0-2.76-2.24-5-5-5h-13.94c-.3,0-.58.04-.86.09-.28-.05-.57-.09-.86-.09h-3.04c-1.38,0-2.63.56-3.53,1.46-.9-.9-2.15-1.46-3.53-1.46h-3.01c-1.28,0-2.43.49-3.31,1.28-1.83-1-3.96-1.57-6.27-1.57-2.97,0-5.63.94-7.75,2.53-1.66-1.35-4.05-2.24-7.34-2.24h-6.8c-1.56,0-2.93.73-3.85,1.85-.93-1.15-2.35-1.85-3.88-1.85h-3.38c-2.04,0-3.87,1.24-4.63,3.12L.37,18.72c-.62,1.54-.44,3.29.49,4.67.93,1.38,2.48,2.21,4.15,2.21Z"/>
  </g>
</svg>