<?xml version="1.0" encoding="UTF-8"?>
<svg id="Livello_3" xmlns="http://www.w3.org/2000/svg" xmlns:xlink="http://www.w3.org/1999/xlink" version="1.1" viewBox="0 0 87.56 25.89">
  <!-- Generator: Adobe Illustrator 29.0.0, SVG Export Plug-In . SVG Version: 2.1.0 Build 186)  -->
  <defs>
    <style>
      .st0 {
        fill: url(#Sfumatura_senza_nome_2);
      }
    </style>
    <linearGradient id="Sfumatura_senza_nome_2" data-name="Sfumatura senza nome 2" x1="-66.66" y1="12.94" x2="366.03" y2="12.94" gradientUnits="userSpaceOnUse">
      <stop offset="0" stop-color="#f2aaaa"/>
      <stop offset=".25" stop-color="#e69df2"/>
      <stop offset=".5" stop-color="#9de7f2"/>
      <stop offset=".75" stop-color="#9df2af"/>
      <stop offset="1" stop-color="#eaf29d"/>
    </linearGradient>
  </defs>
  <path class="st0" d="M5,25.6h3.06c2.06,0,3.91-1.26,4.66-3.18l.1-.26.13.32c.76,1.89,2.6,3.13,4.64,3.13h3.23c.27,0,.53-.03.79-.07.23.03.46.07.7.07h7.19c3.07,0,5.42-.82,7.13-2.11,2.09,1.51,4.69,2.4,7.58,2.4,3.13,0,5.93-1.04,8.1-2.8,2,1.78,4.75,2.8,8.01,2.8,3.83,0,6.96-1.39,9-3.76.65,2,2.51,3.46,4.73,3.46h3.04c2.76,0,5-2.24,5-5v-7.78h.49c2.76,0,5-2.24,5-5v-2.53c0-2.76-2.24-5-5-5h-13.94c-.3,0-.58.04-.86.09-.28-.05-.57-.09-.86-.09h-3.04c-1.38,0-2.63.56-3.53,1.46-.9-.9-2.15-1.46-3.53-1.46h-3.01c-1.28,0-2.43.49-3.31,1.28-1.83-1-3.96-1.57-6.27-1.57-2.97,0-5.63.94-7.75,2.53-1.66-1.35-4.05-2.24-7.34-2.24h-6.8c-1.56,0-2.93.73-3.85,1.85-.93-1.15-2.35-1.85-3.88-1.85h-3.38c-2.04,0-3.87,1.24-4.63,3.12L.37,18.72c-.62,1.54-.44,3.29.49,4.67.93,1.38,2.48,2.21,4.15,2.21Z"/>
  <g>
    <path d="M14.57,5.29l6.24,15.3h-3.23l-1.53-3.79h-6.51l-1.48,3.79h-3.06l6.19-15.3h3.38ZM10.47,14.47h4.66l-2.31-5.73h-.1l-2.26,5.73Z"/>
    <path d="M29.49,20.6h-7.19V5.29h6.8c3.86,0,5.51,1.65,5.51,4.15,0,1.72-1.17,2.94-2.82,3.21,1.85.34,3.28,1.55,3.28,3.74,0,2.65-2.02,4.2-5.59,4.2ZM25.26,11.66h3.64c1.82,0,2.6-.8,2.6-1.94s-.78-1.97-2.6-1.97h-3.64v3.91ZM25.26,13.96v4.18h3.89c1.89,0,2.82-.8,2.82-2.06s-.92-2.11-2.82-2.11h-3.89Z"/>
    <path d="M44.19,20.89c-4.47,0-7.77-3.23-7.77-7.94s3.3-7.94,7.77-7.94,7.75,3.23,7.75,7.94-3.3,7.94-7.75,7.94ZM44.19,7.67c-2.82,0-4.62,2.06-4.62,5.27s1.8,5.27,4.62,5.27,4.62-2.06,4.62-5.27-1.8-5.27-4.62-5.27Z"/>
    <path d="M53.77,14.64V5.29h3.01v9.04c0,2.65,1.12,4.01,3.52,4.01s3.55-1.36,3.55-3.98V5.29h3.04v9.35c0,4.47-2.92,6.24-6.58,6.24s-6.54-1.77-6.54-6.24Z"/>
    <path d="M74.03,20.6V7.82h-5.42v-2.53h13.94v2.53h-5.49v12.78h-3.04Z"/>
  </g>
</svg>