<?xml version="1.0" encoding="UTF-8"?>
<svg id="Livello_3" xmlns="http://www.w3.org/2000/svg" xmlns:xlink="http://www.w3.org/1999/xlink" version="1.1" viewBox="0 0 117.04 25.89">
  <!-- Generator: Adobe Illustrator 29.0.0, SVG Export Plug-In . SVG Version: 2.1.0 Build 186)  -->
  <defs>
    <style>
      .st0 {
        fill: url(#Sfumatura_senza_nome_2);
      }
    </style>
    <linearGradient id="Sfumatura_senza_nome_2" data-name="Sfumatura senza nome 2" x1="-57.1" y1="12.94" x2="159.23" y2="12.94" gradientUnits="userSpaceOnUse">
      <stop offset="0" stop-color="#f2aaaa"/>
      <stop offset=".25" stop-color="#e69df2"/>
      <stop offset=".5" stop-color="#9de7f2"/>
      <stop offset=".75" stop-color="#9df2af"/>
      <stop offset="1" stop-color="#eaf29d"/>
    </linearGradient>
  </defs>
  <path class="st0" d="M116.33,12.52c.29-.65.45-1.37.44-2.13-.09-6.22-4.64-10.39-11.32-10.39-2.98,0-5.53.88-7.42,2.4-2.06-1.54-4.73-2.4-7.82-2.4-2.28,0-4.38.56-6.2,1.55-.88-.77-2.02-1.26-3.28-1.26h-3.04c-1.38,0-2.63.56-3.53,1.46-.91-.9-2.16-1.46-3.54-1.46h-3.01c-1.07,0-2.05.34-2.86.91-1.4-.57-3.06-.91-5.01-.91h-6.92c-2.76,0-5,2.24-5,5v7.78h-4.41v-7.78c0-2.76-2.24-5-5-5h-3.04c-2.76,0-5,2.24-5,5h-.04c0-2.76-2.24-5-5-5h-3.04c-1.56,0-2.93.73-3.85,1.85-.93-1.15-2.35-1.85-3.88-1.85h-3.38c-2.04,0-3.87,1.24-4.63,3.12L.37,18.72c-.62,1.54-.44,3.29.49,4.67.93,1.38,2.48,2.21,4.15,2.21h3.06c2.06,0,3.91-1.26,4.66-3.18l.1-.26.13.32c.76,1.89,2.6,3.13,4.64,3.13h28.92c1.21,0,2.3-.44,3.16-1.15.86.71,1.95,1.15,3.16,1.15h2.99c1.33,0,2.54-.52,3.44-1.37.92.87,2.15,1.37,3.44,1.37h3.11c1.03,0,2-.32,2.82-.88,1.6.75,3.47,1.17,5.54,1.17,3.25,0,5.99-1,7.99-2.75,2.11,1.73,4.82,2.75,7.85,2.75,1.24,0,2.41-.17,3.49-.48.44.12.9.19,1.37.19h2.7c1.04,0,2-.32,2.8-.86,1.64.74,3.54,1.15,5.64,1.15,6.51,0,11.05-3.96,11.05-9.64,0-.9-.12-2.28-.71-3.73Z"/>
  <g>
    <path d="M14.57,5.29l6.24,15.3h-3.23l-1.53-3.79h-6.51l-1.48,3.79h-3.06l6.19-15.3h3.38ZM10.47,14.47h4.66l-2.31-5.73h-.1l-2.26,5.73Z"/>
    <path d="M25.34,5.29v12.78h8.09v2.53h-11.13V5.29h3.04Z"/>
    <path d="M38.41,5.29v12.78h8.09v2.53h-11.13V5.29h3.04Z"/>
    <path d="M62.68,20.6c-.32-.41-.51-1.46-.63-3.16-.12-1.72-.9-2.5-2.65-2.5h-3.6v5.66h-2.99V5.29h6.92c3.91,0,5.83,1.82,5.83,4.66,0,2.31-1.51,3.64-3.38,3.89,1.75.34,2.65,1.36,2.82,3.16.19,2.26.27,3.04.78,3.6h-3.11ZM59.33,12.56c2.21,0,3.23-.73,3.23-2.38,0-1.53-1.02-2.43-3.23-2.43h-3.52v4.81h3.52Z"/>
    <path d="M67.62,14.64V5.29h3.01v9.04c0,2.65,1.12,4.01,3.52,4.01s3.55-1.36,3.55-3.98V5.29h3.04v9.35c0,4.47-2.92,6.24-6.58,6.24s-6.54-1.77-6.54-6.24Z"/>
    <path d="M82.54,12.94c0-4.71,3.38-7.94,7.68-7.94s6.97,2.43,7.29,6.29l-2.96.12c-.19-2.26-1.7-3.74-4.25-3.74-2.79,0-4.59,2.06-4.59,5.27s1.85,5.37,4.83,5.37c2.16,0,3.74-1.24,4.18-3.18h-4.06v-2.26h6.9v7.73h-2.7v-2.26c-.75,1.7-2.67,2.55-4.86,2.55-4.27,0-7.46-3.21-7.46-7.94Z"/>
    <path d="M102,15.03c.12,2.38,1.85,3.45,3.98,3.45,1.89,0,3.11-.75,3.11-2.04,0-1.17-.92-1.6-2.53-1.92l-2.92-.53c-2.38-.44-4.03-1.75-4.03-4.28,0-2.87,2.26-4.71,5.83-4.71,4.01,0,6.27,2.06,6.32,5.47l-2.79.1c-.1-2.09-1.46-3.18-3.55-3.18-1.8,0-2.82.8-2.82,2.11,0,1.12.8,1.51,2.19,1.77l2.82.51c3.01.56,4.42,1.99,4.42,4.47,0,3.01-2.6,4.64-6.05,4.64-3.94,0-6.78-2.04-6.78-5.73l2.79-.12Z"/>
  </g>
</svg>