<?xml version="1.0" encoding="UTF-8"?>
<svg id="Livello_3" xmlns="http://www.w3.org/2000/svg" xmlns:xlink="http://www.w3.org/1999/xlink" version="1.1" viewBox="0 0 31.15 27.83">
  <!-- Generator: Adobe Illustrator 29.0.0, SVG Export Plug-In . SVG Version: 2.1.0 Build 186)  -->
  <defs>
    <style>
      .st0 {
        fill: none;
      }

      .st1 {
        fill: url(#Sfumatura_senza_nome_5);
      }

      .st2 {
        clip-path: url(#clippath);
      }
    </style>
    <clipPath id="clippath">
      <path class="st0" d="M26.15,15.23H10.04s5.77,5.74,5.77,5.74l-1.91,1.85L5,13.9,13.9,5l1.88,1.85-5.74,5.69,16.11.03v2.66Z"/>
    </clipPath>
    <linearGradient id="Sfumatura_senza_nome_5" data-name="Sfumatura senza nome 5" x1="0" y1="13.92" x2="37.3" y2="13.92" gradientUnits="userSpaceOnUse">
      <stop offset="0" stop-color="#ffd4d4"/>
      <stop offset=".25" stop-color="#eea6ff"/>
      <stop offset=".5" stop-color="#97faff"/>
      <stop offset=".75" stop-color="#99ffa7"/>
      <stop offset="1" stop-color="#ffff85"/>
    </linearGradient>
  </defs>
  <path d="M19.29,24.56l-1.91,1.85c-.97.94-2.23,1.42-3.49,1.42s-2.56-.49-3.54-1.47L1.46,17.43c-1.95-1.95-1.95-5.12,0-7.07L10.37,1.46C11.34.49,12.62,0,13.9,0s2.54.48,3.51,1.44l1.88,1.85c.95.94,1.49,2.22,1.49,3.55,0,.24-.02.48-.05.71h5.42c2.76.01,4.99,2.25,4.99,5.01v2.66c0,2.76-2.24,5-5,5h-5.39c.04.25.06.51.06.77,0,1.34-.55,2.62-1.51,3.56Z"/>
  <g class="st2">
    <path class="st1" d="M19.29,24.56l-1.91,1.85c-.97.94-2.23,1.42-3.49,1.42s-2.56-.49-3.54-1.47L1.46,17.43c-1.95-1.95-1.95-5.12,0-7.07L10.37,1.46C11.34.49,12.62,0,13.9,0s2.54.48,3.51,1.44l1.88,1.85c.95.94,1.49,2.22,1.49,3.55,0,.24-.02.48-.05.71h5.42c2.76.01,4.99,2.25,4.99,5.01v2.66c0,2.76-2.24,5-5,5h-5.39c.04.25.06.51.06.77,0,1.34-.55,2.62-1.51,3.56Z"/>
  </g>
</svg>