<?xml version="1.0" encoding="UTF-8"?>
<svg id="Livello_3" xmlns="http://www.w3.org/2000/svg" xmlns:xlink="http://www.w3.org/1999/xlink" version="1.1" viewBox="0 0 53.86 25.6">
  <!-- Generator: Adobe Illustrator 29.0.0, SVG Export Plug-In . SVG Version: 2.1.0 Build 186)  -->
  <defs>
    <style>
      .st0 {
        fill: url(#Sfumatura_senza_nome_4);
      }
    </style>
    <linearGradient id="Sfumatura_senza_nome_4" data-name="Sfumatura senza nome 4" x1="-7.3" y1="12.8" x2="69.8" y2="12.8" gradientUnits="userSpaceOnUse">
      <stop offset="0" stop-color="#ffd4d4"/>
      <stop offset=".25" stop-color="#eea6ff"/>
      <stop offset=".5" stop-color="#97faff"/>
      <stop offset=".75" stop-color="#99ffa7"/>
      <stop offset="1" stop-color="#ffff85"/>
    </linearGradient>
  </defs>
  <path class="st0" d="M5,25.3h7.19c2.86,0,5.09-.71,6.76-1.85,1.91,1.37,4.35,2.14,7.18,2.14,3.87,0,7.03-1.41,9.07-3.83.63,2.04,2.51,3.54,4.76,3.54h2.96c2.76,0,5-2.24,5-5v-4.46l5.16-8.18c.97-1.54,1.03-3.49.15-5.08-.88-1.59-2.56-2.58-4.38-2.58h-3.28c-1.63,0-3.15.79-4.08,2.11-.93-1.32-2.45-2.11-4.08-2.11h-3.38c-.25,0-.5.02-.74.06-.19-.02-.38-.06-.58-.06h-3.04c-1.38,0-2.63.56-3.53,1.46-.91-.9-2.16-1.46-3.54-1.46h-3.01c-1.04,0-2.01.32-2.81.87-1.36-.55-3.01-.87-4.99-.87h-6.8C2.24,0,0,2.24,0,5v15.3c0,2.76,2.24,5,5,5Z"/>
  <g>
    <path d="M12.19,20.3h-7.19V5h6.8c3.86,0,5.51,1.65,5.51,4.15,0,1.72-1.17,2.94-2.82,3.21,1.85.34,3.28,1.55,3.28,3.74,0,2.65-2.02,4.2-5.59,4.2ZM7.96,11.36h3.64c1.82,0,2.6-.8,2.6-1.94s-.78-1.97-2.6-1.97h-3.64v3.91ZM7.96,13.67v4.18h3.89c1.89,0,2.82-.8,2.82-2.06s-.92-2.11-2.82-2.11h-3.89Z"/>
    <path d="M19.6,14.35V5h3.01v9.04c0,2.65,1.12,4.01,3.52,4.01s3.55-1.36,3.55-3.98V5h3.04v9.35c0,4.47-2.92,6.24-6.58,6.24s-6.54-1.77-6.54-6.24Z"/>
    <path d="M45.58,5h3.28l-5.93,9.4v5.9h-2.96v-5.9l-5.93-9.4h3.38l4.15,6.49,4.01-6.49Z"/>
  </g>
</svg>