<?xml version="1.0" encoding="UTF-8"?>
<svg id="Livello_3" xmlns="http://www.w3.org/2000/svg" xmlns:xlink="http://www.w3.org/1999/xlink" version="1.1" viewBox="0 0 53.86 25.6">
  <!-- Generator: Adobe Illustrator 29.0.0, SVG Export Plug-In . SVG Version: 2.1.0 Build 186)  -->
  <defs>
    <style>
      .st0 {
        fill: none;
      }

      .st1 {
        fill: url(#Sfumatura_senza_nome_5);
      }

      .st2 {
        clip-path: url(#clippath);
      }
    </style>
    <clipPath id="clippath">
      <path class="st0" d="M14.5,12.36c1.65-.27,2.82-1.48,2.82-3.21,0-2.5-1.65-4.15-5.51-4.15h-6.8v15.3h7.19c3.57,0,5.59-1.55,5.59-4.2,0-2.19-1.43-3.4-3.28-3.74ZM7.96,7.45h3.64c1.82,0,2.6.83,2.6,1.97s-.78,1.94-2.6,1.94h-3.64v-3.91ZM11.85,17.85h-3.89v-4.18h3.89c1.89,0,2.82.83,2.82,2.11s-.92,2.06-2.82,2.06ZM29.69,14.06c0,2.62-1.12,3.98-3.55,3.98s-3.52-1.36-3.52-4.01V5h-3.01v9.35c0,4.47,2.87,6.24,6.54,6.24s6.58-1.77,6.58-6.24V5h-3.04v9.06ZM45.58,5l-4.01,6.49-4.15-6.49h-3.38l5.93,9.4v5.9h2.96v-5.9l5.93-9.4h-3.28Z"/>
    </clipPath>
    <linearGradient id="Sfumatura_senza_nome_5" data-name="Sfumatura senza nome 5" x1="-7.3" y1="12.8" x2="69.8" y2="12.8" gradientUnits="userSpaceOnUse">
      <stop offset="0" stop-color="#ffd4d4"/>
      <stop offset=".25" stop-color="#eea6ff"/>
      <stop offset=".5" stop-color="#97faff"/>
      <stop offset=".75" stop-color="#99ffa7"/>
      <stop offset="1" stop-color="#ffff85"/>
    </linearGradient>
  </defs>
  <path d="M5,25.3h7.19c2.86,0,5.09-.71,6.76-1.85,1.91,1.37,4.35,2.14,7.18,2.14,3.87,0,7.03-1.41,9.07-3.83.63,2.04,2.51,3.54,4.76,3.54h2.96c2.76,0,5-2.24,5-5v-4.46l5.16-8.18c.97-1.54,1.03-3.49.15-5.08-.88-1.59-2.56-2.58-4.38-2.58h-3.28c-1.63,0-3.15.79-4.08,2.11-.93-1.32-2.45-2.11-4.08-2.11h-3.38c-.25,0-.5.02-.74.06-.19-.02-.38-.06-.58-.06h-3.04c-1.38,0-2.63.56-3.53,1.46-.91-.9-2.16-1.46-3.54-1.46h-3.01c-1.04,0-2.01.32-2.81.87-1.36-.55-3.01-.87-4.99-.87h-6.8C2.24,0,0,2.24,0,5v15.3c0,2.76,2.24,5,5,5Z"/>
  <g class="st2">
    <path class="st1" d="M5,25.3h7.19c2.86,0,5.09-.71,6.76-1.85,1.91,1.37,4.35,2.14,7.18,2.14,3.87,0,7.03-1.41,9.07-3.83.63,2.04,2.51,3.54,4.76,3.54h2.96c2.76,0,5-2.24,5-5v-4.46l5.16-8.18c.97-1.54,1.03-3.49.15-5.08-.88-1.59-2.56-2.58-4.38-2.58h-3.28c-1.63,0-3.15.79-4.08,2.11-.93-1.32-2.45-2.11-4.08-2.11h-3.38c-.25,0-.5.02-.74.06-.19-.02-.38-.06-.58-.06h-3.04c-1.38,0-2.63.56-3.53,1.46-.91-.9-2.16-1.46-3.54-1.46h-3.01c-1.04,0-2.01.32-2.81.87-1.36-.55-3.01-.87-4.99-.87h-6.8C2.24,0,0,2.24,0,5v15.3c0,2.76,2.24,5,5,5Z"/>
  </g>
</svg>