<?xml version="1.0" encoding="UTF-8"?>
<svg id="Livello_3" xmlns="http://www.w3.org/2000/svg" xmlns:xlink="http://www.w3.org/1999/xlink" version="1.1" viewBox="0 0 150.84 25.89">
  <!-- Generator: Adobe Illustrator 29.0.0, SVG Export Plug-In . SVG Version: 2.1.0 Build 186)  -->
  <defs>
    <style>
      .st0 {
        fill: url(#Sfumatura_senza_nome_2);
      }
    </style>
    <linearGradient id="Sfumatura_senza_nome_2" data-name="Sfumatura senza nome 2" x1="75.42" y1="-50.43" x2="75.42" y2="49.23" gradientUnits="userSpaceOnUse">
      <stop offset="0" stop-color="#f2aaaa"/>
      <stop offset=".25" stop-color="#e69df2"/>
      <stop offset=".5" stop-color="#9de7f2"/>
      <stop offset=".75" stop-color="#9df2af"/>
      <stop offset="1" stop-color="#eaf29d"/>
    </linearGradient>
  </defs>
  <path class="st0" d="M145.84.29h-2.82c-1.42,0-2.71.6-3.62,1.55-.94-.98-2.24-1.55-3.62-1.55h-3.01c-1.3,0-2.48.51-3.37,1.33C127.55.59,125.39,0,123.05,0s-4.53.59-6.38,1.63c-.89-.82-2.07-1.34-3.39-1.34h-3.04c-1.11,0-2.12.37-2.95.98C105.65.45,103.7,0,101.52,0,98.75,0,96.34.76,94.51,2.08,92.62.75,90.19,0,87.37,0,85.37,0,83.55.4,82,1.12c-.79-.52-1.73-.83-2.74-.83h-10.4c-1.25,0-2.41.46-3.3,1.25-.89-.78-2.06-1.25-3.3-1.25h-12.15c-1.25,0-2.41.46-3.3,1.25-.89-.78-2.06-1.25-3.3-1.25h-4.79c-1.3,0-2.48.51-3.37,1.33C33.48.59,31.33,0,28.98,0,25.83,0,23.02,1.04,20.84,2.82,18.73,1.03,15.92,0,12.68,0,5.45,0,0,5.56,0,12.94s5.45,12.94,12.68,12.94c3.25,0,6.05-1.03,8.17-2.82,2.18,1.78,4.99,2.82,8.14,2.82,2.35,0,4.5-.59,6.35-1.62.89.82,2.07,1.33,3.37,1.33h40.56c1.07,0,2.06-.34,2.87-.91,1.67.78,3.62,1.21,5.78,1.21,2.76,0,5.15-.72,7.01-1.97,1.93,1.25,4.36,1.97,7.13,1.97,2.04,0,3.89-.39,5.47-1.1.78.51,1.72.81,2.72.81h3.04c1.31,0,2.49-.52,3.39-1.34,1.86,1.04,4.02,1.63,6.38,1.63s4.5-.59,6.35-1.62c.89.82,2.07,1.33,3.37,1.33h2.82c1.58,0,3-.74,3.91-1.88.95,1.19,2.38,1.88,3.91,1.88h2.43c2.76,0,5-2.24,5-5V5.29c0-2.76-2.24-5-5-5Z"/>
  <path d="M12.68,7.67c2.79,0,4.15,1.87,4.37,4.15l2.92-.12c-.27-3.86-2.77-6.71-7.29-6.71s-7.68,3.23-7.68,7.94,3.33,7.94,7.68,7.94,7.02-2.82,7.29-6.7l-2.92-.12c-.22,2.28-1.58,4.15-4.37,4.15s-4.52-2.04-4.52-5.27,1.8-5.27,4.52-5.27ZM28.98,5c-4.47,0-7.77,3.23-7.77,7.94s3.3,7.94,7.77,7.94,7.75-3.23,7.75-7.94-3.3-7.94-7.75-7.94ZM28.98,18.22c-2.82,0-4.62-2.06-4.62-5.27s1.8-5.27,4.62-5.27,4.62,2.07,4.62,5.27-1.8,5.27-4.62,5.27ZM46.91,16.42h-.07l-3.35-11.13h-4.79v15.3h2.82v-12.05h.1l3.74,12.05h2.6l3.67-12.05h.1v12.05h3.06V5.29h-4.69l-3.18,11.13ZM65.67,16.42h-.07l-3.35-11.13h-4.79v15.3h2.82v-12.05h.1l3.74,12.05h2.6l3.67-12.05h.1v12.05h3.06V5.29h-4.69l-3.18,11.13ZM76.22,20.6h3.04V5.29h-3.04v15.3ZM89.54,11.78l-2.82-.51c-1.39-.27-2.19-.66-2.19-1.77,0-1.31,1.02-2.11,2.82-2.11,2.09,0,3.45,1.09,3.55,3.18l2.79-.1c-.05-3.4-2.31-5.47-6.32-5.47-3.57,0-5.83,1.85-5.83,4.71,0,2.53,1.65,3.84,4.03,4.28l2.92.53c1.6.32,2.53.75,2.53,1.92,0,1.29-1.21,2.04-3.11,2.04-2.14,0-3.86-1.07-3.98-3.45l-2.79.12c0,3.69,2.84,5.73,6.78,5.73,3.45,0,6.05-1.63,6.05-4.64,0-2.48-1.41-3.91-4.42-4.47ZM103.68,11.78l-2.82-.51c-1.39-.27-2.19-.66-2.19-1.77,0-1.31,1.02-2.11,2.82-2.11,2.09,0,3.45,1.09,3.55,3.18l2.79-.1c-.05-3.4-2.31-5.47-6.32-5.47-3.57,0-5.83,1.85-5.83,4.71,0,2.53,1.65,3.84,4.03,4.28l2.92.53c1.6.32,2.53.75,2.53,1.92,0,1.29-1.21,2.04-3.11,2.04-2.14,0-3.86-1.07-3.98-3.45l-2.79.12c0,3.69,2.84,5.73,6.78,5.73,3.45,0,6.05-1.63,6.05-4.64,0-2.48-1.41-3.91-4.42-4.47ZM110.24,20.6h3.04V5.29h-3.04v15.3ZM123.05,5c-4.47,0-7.77,3.23-7.77,7.94s3.3,7.94,7.77,7.94,7.75-3.23,7.75-7.94-3.3-7.94-7.75-7.94ZM123.05,18.22c-2.82,0-4.62-2.06-4.62-5.27s1.8-5.27,4.62-5.27,4.62,2.07,4.62,5.27-1.8,5.27-4.62,5.27ZM143.02,5.29v10.2l-7.24-10.2h-3.01v15.3h2.82v-10.79l7.82,10.79h2.43V5.29h-2.82Z"/>
</svg>