<?xml version="1.0" encoding="UTF-8"?>
<svg id="Livello_3" xmlns="http://www.w3.org/2000/svg" xmlns:xlink="http://www.w3.org/1999/xlink" version="1.1" viewBox="0 0 129.72 25.89">
  <!-- Generator: Adobe Illustrator 29.0.0, SVG Export Plug-In . SVG Version: 2.1.0 Build 186)  -->
  <defs>
    <style>
      .st0 {
        fill: none;
      }

      .st1 {
        fill: url(#Sfumatura_senza_nome_5);
      }

      .st2 {
        clip-path: url(#clippath);
      }
    </style>
    <clipPath id="clippath">
      <path class="st0" d="M12.68,7.67c2.79,0,4.15,1.87,4.37,4.15l2.92-.12c-.27-3.86-2.77-6.71-7.29-6.71s-7.68,3.23-7.68,7.94,3.33,7.94,7.68,7.94,7.02-2.82,7.29-6.7l-2.92-.12c-.22,2.28-1.58,4.15-4.37,4.15s-4.52-2.04-4.52-5.27,1.8-5.27,4.52-5.27ZM28.98,5c-4.47,0-7.77,3.23-7.77,7.94s3.3,7.94,7.77,7.94,7.75-3.23,7.75-7.94-3.3-7.94-7.75-7.94ZM28.98,18.22c-2.82,0-4.62-2.06-4.62-5.27s1.8-5.27,4.62-5.27,4.62,2.07,4.62,5.27-1.8,5.27-4.62,5.27ZM48.96,15.5l-7.24-10.2h-3.01v15.3h2.82v-10.79l7.82,10.79h2.43V5.29h-2.82v10.2ZM67.62,5.29h-13.94v2.53h5.42v12.78h3.04V7.82h5.49v-2.53ZM72.55,5.29l-6.19,15.3h3.06l1.48-3.79h6.51l1.53,3.79h3.23l-6.24-15.3h-3.38ZM71.82,14.47l2.26-5.73h.1l2.31,5.73h-4.66ZM89.9,7.67c2.79,0,4.15,1.87,4.37,4.15l2.92-.12c-.27-3.86-2.77-6.71-7.29-6.71s-7.68,3.23-7.68,7.94,3.33,7.94,7.68,7.94,7.02-2.82,7.29-6.7l-2.92-.12c-.22,2.28-1.58,4.15-4.37,4.15s-4.52-2.04-4.52-5.27,1.8-5.27,4.52-5.27ZM97.49,7.82h5.42v12.78h3.04V7.82h5.49v-2.53h-13.94v2.53ZM120.3,11.78l-2.82-.51c-1.39-.27-2.19-.66-2.19-1.77,0-1.31,1.02-2.11,2.82-2.11,2.09,0,3.45,1.09,3.55,3.18l2.79-.1c-.05-3.4-2.31-5.47-6.32-5.47-3.57,0-5.83,1.85-5.83,4.71,0,2.53,1.65,3.84,4.03,4.28l2.92.53c1.6.32,2.53.75,2.53,1.92,0,1.29-1.21,2.04-3.11,2.04-2.14,0-3.86-1.07-3.98-3.45l-2.79.12c0,3.69,2.84,5.73,6.78,5.73,3.45,0,6.05-1.63,6.05-4.64,0-2.48-1.41-3.91-4.42-4.47Z"/>
    </clipPath>
    <linearGradient id="Sfumatura_senza_nome_5" data-name="Sfumatura senza nome 5" x1="-305.01" y1="12.94" x2="126.9" y2="12.94" gradientUnits="userSpaceOnUse">
      <stop offset="0" stop-color="#ffd4d4"/>
      <stop offset=".25" stop-color="#eea6ff"/>
      <stop offset=".5" stop-color="#97faff"/>
      <stop offset=".75" stop-color="#99ffa7"/>
      <stop offset="1" stop-color="#ffff85"/>
    </linearGradient>
  </defs>
  <path d="M129.01,12.52c.29-.65.45-1.37.44-2.13C129.37,4.18,124.82,0,118.14,0c-1.67,0-3.21.28-4.57.79-.65-.31-1.37-.5-2.14-.5h-13.94c-.91,0-1.74.26-2.48.68C93.48.35,91.77,0,89.9,0c-3.68,0-6.89,1.45-9.17,3.84l-.18-.43c-.77-1.88-2.6-3.11-4.63-3.11h-3.38c-.89,0-1.74.25-2.48.67-.73-.42-1.56-.67-2.46-.67h-18.66c-1.42,0-2.71.6-3.62,1.55-.94-.98-2.24-1.55-3.62-1.55h-3.01c-1.3,0-2.48.51-3.37,1.33C33.48.59,31.33,0,28.98,0,25.83,0,23.02,1.04,20.84,2.82,18.73,1.03,15.92,0,12.68,0,5.45,0,0,5.56,0,12.94s5.45,12.94,12.68,12.94c3.25,0,6.05-1.03,8.17-2.82,2.18,1.78,4.99,2.82,8.14,2.82,2.35,0,4.5-.59,6.35-1.62.89.82,2.07,1.33,3.37,1.33h2.82c1.58,0,3-.74,3.91-1.88.95,1.19,2.38,1.88,3.91,1.88h2.43c1.45,0,2.74-.63,3.66-1.61.91.99,2.21,1.61,3.66,1.61h10.33c2.06,0,3.91-1.26,4.66-3.18l.1-.26.13.32c.76,1.89,2.6,3.13,4.64,3.13h3.23c.93,0,1.83-.27,2.6-.74,1.55.66,3.28,1.03,5.13,1.03,3.43,0,6.37-1.14,8.52-3.11.81,1.67,2.5,2.82,4.48,2.82h3.04c1.89,0,3.51-1.06,4.36-2.61,2.07,1.83,4.97,2.9,8.37,2.9,6.51,0,11.05-3.96,11.05-9.64,0-.9-.12-2.28-.71-3.73Z"/>
  <g class="st2">
    <path class="st1" d="M129.01,12.52c.29-.65.45-1.37.44-2.13C129.37,4.18,124.82,0,118.14,0c-1.67,0-3.21.28-4.57.79-.65-.31-1.37-.5-2.14-.5h-13.94c-.91,0-1.74.26-2.48.68C93.48.35,91.77,0,89.9,0c-3.68,0-6.89,1.45-9.17,3.84l-.18-.43c-.77-1.88-2.6-3.11-4.63-3.11h-3.38c-.89,0-1.74.25-2.48.67-.73-.42-1.56-.67-2.46-.67h-18.66c-1.42,0-2.71.6-3.62,1.55-.94-.98-2.24-1.55-3.62-1.55h-3.01c-1.3,0-2.48.51-3.37,1.33C33.48.59,31.33,0,28.98,0,25.83,0,23.02,1.04,20.84,2.82,18.73,1.03,15.92,0,12.68,0,5.45,0,0,5.56,0,12.94s5.45,12.94,12.68,12.94c3.25,0,6.05-1.03,8.17-2.82,2.18,1.78,4.99,2.82,8.14,2.82,2.35,0,4.5-.59,6.35-1.62.89.82,2.07,1.33,3.37,1.33h2.82c1.58,0,3-.74,3.91-1.88.95,1.19,2.38,1.88,3.91,1.88h2.43c1.45,0,2.74-.63,3.66-1.61.91.99,2.21,1.61,3.66,1.61h10.33c2.06,0,3.91-1.26,4.66-3.18l.1-.26.13.32c.76,1.89,2.6,3.13,4.64,3.13h3.23c.93,0,1.83-.27,2.6-.74,1.55.66,3.28,1.03,5.13,1.03,3.43,0,6.37-1.14,8.52-3.11.81,1.67,2.5,2.82,4.48,2.82h3.04c1.89,0,3.51-1.06,4.36-2.61,2.07,1.83,4.97,2.9,8.37,2.9,6.51,0,11.05-3.96,11.05-9.64,0-.9-.12-2.28-.71-3.73Z"/>
  </g>
</svg>