<?xml version="1.0" encoding="UTF-8"?>
<svg id="Livello_3" xmlns="http://www.w3.org/2000/svg" xmlns:xlink="http://www.w3.org/1999/xlink" version="1.1" viewBox="0 0 247.04 27.22">
  <!-- Generator: Adobe Illustrator 29.0.0, SVG Export Plug-In . SVG Version: 2.1.0 Build 186)  -->
  <defs>
    <style>
      .st0 {
        fill: none;
      }

      .st1 {
        fill: url(#Sfumatura_senza_nome_5);
      }

      .st2 {
        clip-path: url(#clippath);
      }
    </style>
    <clipPath id="clippath">
      <path class="st0" d="M12.68,8.3c2.79,0,4.15,1.87,4.37,4.15l2.92-.12c-.27-3.86-2.77-6.71-7.29-6.71s-7.68,3.23-7.68,7.94,3.33,7.94,7.68,7.94,7.02-2.82,7.29-6.7l-2.92-.12c-.22,2.28-1.58,4.15-4.37,4.15s-4.52-2.04-4.52-5.27,1.8-5.27,4.52-5.27ZM21.91,21.23h3.04V5.92h-3.04v15.3ZM32.65,5.92l-6.19,15.3h3.06l1.48-3.79h6.51l1.53,3.79h3.23l-6.24-15.3h-3.38ZM31.92,15.11l2.26-5.73h.1l2.31,5.73h-4.66ZM50.1,5.63c-4.47,0-7.77,3.23-7.77,7.94s3.3,7.94,7.77,7.94,7.75-3.23,7.75-7.94-3.3-7.94-7.75-7.94ZM50.1,18.85c-2.82,0-4.62-2.06-4.62-5.27s1.8-5.27,4.62-5.27,4.62,2.07,4.62,5.27-1.8,5.27-4.62,5.27ZM68.93,5c-5.76,0-9.5,4.03-9.5,9.35s3.67,7.87,8.53,7.87c2.09,0,3.96-.41,5.59-1.38l-.56-1.39c-1.65.8-3.16,1.09-5,1.09-3.81,0-6.63-2.19-6.63-6.17,0-4.59,2.99-7.68,7.58-7.68,3.86,0,5.98,2.14,5.98,5.42,0,2.94-1.05,4.25-2.55,4.25-.68,0-1-.34-.75-1.31l1.41-5.61h-2.36l-.36,1.24c-.34-.83-1.21-1.43-2.53-1.43-2.7,0-4.4,2.55-4.4,5.25,0,2.19,1.26,3.45,3.16,3.45,1.29,0,2.21-.61,2.79-1.65.32.95,1.12,1.65,2.58,1.65,2.48,0,4.86-1.85,4.86-5.83s-2.92-7.12-7.82-7.12ZM69.56,13.31l-.12.53c-.36,1.58-1.29,2.26-2.19,2.26-.95,0-1.31-.61-1.31-1.72,0-1.6.87-3.4,2.26-3.4,1.17,0,1.68.9,1.36,2.33ZM86.38,15.76h4.06c-.44,1.94-2.02,3.18-4.18,3.18-2.99,0-4.83-2.09-4.83-5.37s1.8-5.27,4.59-5.27c2.55,0,4.06,1.48,4.25,3.74l2.96-.12c-.32-3.86-2.87-6.29-7.29-6.29s-7.68,3.23-7.68,7.94,3.18,7.94,7.46,7.94c2.19,0,4.11-.85,4.86-2.55v2.26h2.7v-7.73h-6.9v2.26ZM103.24,15.76h4.06c-.44,1.94-2.02,3.18-4.18,3.18-2.99,0-4.83-2.09-4.83-5.37s1.8-5.27,4.59-5.27c2.55,0,4.06,1.48,4.25,3.74l2.96-.12c-.32-3.86-2.87-6.29-7.29-6.29s-7.68,3.23-7.68,7.94,3.18,7.94,7.46,7.94c2.19,0,4.11-.85,4.86-2.55v2.26h2.7v-7.73h-6.9v2.26ZM112.52,14.89h12.61v-2.43h-12.61v2.43ZM137.02,14.47c1.87-.24,3.38-1.58,3.38-3.89,0-2.84-1.92-4.66-5.83-4.66h-6.92v15.3h2.99v-5.66h3.6c1.75,0,2.53.78,2.65,2.5.12,1.7.32,2.75.63,3.16h3.11c-.51-.56-.58-1.34-.78-3.6-.17-1.8-1.07-2.82-2.82-3.16ZM134.15,13.19h-3.52v-4.81h3.52c2.21,0,3.23.9,3.23,2.43,0,1.65-1.02,2.38-3.23,2.38ZM152.52,14.98c0,2.62-1.12,3.98-3.55,3.98s-3.52-1.36-3.52-4.01V5.92h-3.01v9.35c0,4.47,2.87,6.24,6.54,6.24s6.58-1.77,6.58-6.24V5.92h-3.04v9.06ZM165.47,15.76h4.06c-.44,1.94-2.02,3.18-4.18,3.18-2.99,0-4.83-2.09-4.83-5.37s1.8-5.27,4.59-5.27c2.55,0,4.06,1.48,4.25,3.74l2.96-.12c-.32-3.86-2.87-6.29-7.29-6.29s-7.68,3.23-7.68,7.94,3.18,7.94,7.46,7.94c2.19,0,4.11-.85,4.86-2.55v2.26h2.7v-7.73h-6.9v2.26ZM182.43,12.41l-2.82-.51c-1.39-.27-2.19-.66-2.19-1.77,0-1.31,1.02-2.11,2.82-2.11,2.09,0,3.45,1.09,3.55,3.18l2.79-.1c-.05-3.4-2.31-5.47-6.32-5.47-3.57,0-5.83,1.85-5.83,4.71,0,2.53,1.65,3.84,4.03,4.28l2.92.53c1.6.32,2.53.75,2.53,1.92,0,1.29-1.21,2.04-3.11,2.04-2.14,0-3.86-1.07-3.98-3.45l-2.79.12c0,3.69,2.84,5.73,6.78,5.73,3.45,0,6.05-1.63,6.05-4.64,0-2.48-1.41-3.91-4.42-4.47ZM188.34,21.23h3.26v-3.26h-3.26v3.26ZM199.93,8.3c2.79,0,4.15,1.87,4.37,4.15l2.92-.12c-.27-3.86-2.77-6.71-7.29-6.71s-7.68,3.23-7.68,7.94,3.33,7.94,7.68,7.94,7.02-2.82,7.29-6.7l-2.92-.12c-.22,2.28-1.58,4.15-4.37,4.15s-4.52-2.04-4.52-5.27,1.8-5.27,4.52-5.27ZM216.23,5.63c-4.47,0-7.77,3.23-7.77,7.94s3.3,7.94,7.77,7.94,7.75-3.23,7.75-7.94-3.3-7.94-7.75-7.94ZM216.23,18.85c-2.82,0-4.62-2.06-4.62-5.27s1.8-5.27,4.62-5.27,4.62,2.07,4.62,5.27-1.8,5.27-4.62,5.27ZM237.35,5.92l-3.18,11.13h-.07l-3.35-11.13h-4.79v15.3h2.82v-12.05h.1l3.74,12.05h2.6l3.67-12.05h.1v12.05h3.06V5.92h-4.69Z"/>
    </clipPath>
    <linearGradient id="Sfumatura_senza_nome_5" data-name="Sfumatura senza nome 5" x1="-54.29" y1="13.61" x2="245.78" y2="13.61" gradientUnits="userSpaceOnUse">
      <stop offset="0" stop-color="#ffd4d4"/>
      <stop offset=".25" stop-color="#eea6ff"/>
      <stop offset=".5" stop-color="#97faff"/>
      <stop offset=".75" stop-color="#99ffa7"/>
      <stop offset="1" stop-color="#ffff85"/>
    </linearGradient>
  </defs>
  <path d="M242.04.92h-4.69c-1.25,0-2.41.46-3.3,1.25-.89-.78-2.06-1.25-3.3-1.25h-4.79c-1.3,0-2.48.51-3.37,1.33-1.85-1.03-4-1.62-6.35-1.62-3.15,0-5.96,1.04-8.14,2.82-2.11-1.79-4.92-2.82-8.17-2.82-4.13,0-7.68,1.82-9.96,4.76-1.9-2.97-5.34-4.76-9.7-4.76-2.98,0-5.53.88-7.42,2.4-2.06-1.54-4.73-2.4-7.82-2.4-2.28,0-4.38.56-6.2,1.55-.88-.77-2.02-1.26-3.28-1.26h-3.04c-1.38,0-2.63.56-3.53,1.46-.91-.9-2.16-1.46-3.54-1.46h-3.01c-1.07,0-2.05.34-2.86.91-1.4-.57-3.06-.91-5.01-.91h-6.92c-2.76,0-5,2.24-5,5v1.53h-8.56c-1.82-4.24-5.91-6.83-11.28-6.83-3.23,0-6.1,1.12-8.29,3.01-2.14-1.92-5.09-3.01-8.57-3.01-3.05,0-5.78,1-7.92,2.7-2.27-2.09-5.43-3.33-9.09-3.33-4.1,0-7.65,1.45-10.21,3.89-2.24-2.04-5.23-3.26-8.62-3.26-3.72,0-6.96,1.46-9.25,3.86l-.19-.46c-.77-1.88-2.6-3.11-4.63-3.11h-3.38c-1.52,0-2.93.69-3.87,1.83-.92-1.11-2.29-1.83-3.84-1.83h-3.04c-1.2,0-2.28.44-3.14,1.14-1.76-.92-3.82-1.43-6.1-1.43C5.45.63,0,6.2,0,13.58s5.45,12.94,12.68,12.94c2.28,0,4.34-.51,6.1-1.43.86.7,1.94,1.14,3.14,1.14h7.61c2.06,0,3.91-1.26,4.66-3.18l.1-.26.13.31c.76,1.89,2.6,3.13,4.64,3.13h3.23c.94,0,1.85-.27,2.63-.76,1.57.67,3.33,1.05,5.2,1.05,3.16,0,5.98-1.05,8.16-2.85,2.38,2.24,5.74,3.55,9.7,3.55,3.08,0,5.83-.7,8.15-2.09.65-.39,1.18-.91,1.58-1.5,2.14,1.82,4.91,2.89,8.03,2.89.96,0,1.87-.1,2.73-.29h4.82c1.25,0,2.38-.48,3.26-1.23,1.77.98,3.83,1.53,6.05,1.53.96,0,1.87-.1,2.73-.29h4.82c2.76,0,5-2.24,5-5v-1.34h7.5v1.34c0,2.76,2.24,5,5,5h2.99c1.33,0,2.54-.52,3.44-1.37.92.87,2.15,1.37,3.44,1.37h3.11c1.03,0,2-.32,2.82-.88,1.6.75,3.47,1.17,5.54,1.17,3.25,0,5.99-1,7.99-2.75,2.11,1.73,4.82,2.75,7.85,2.75.96,0,1.87-.1,2.73-.29h4.82c1.04,0,2-.32,2.8-.86,1.64.74,3.54,1.15,5.64,1.15,1.89,0,3.6-.34,5.09-.95.73.41,1.55.66,2.44.66h3.26c1.06,0,2.05-.34,2.86-.91,1.64.76,3.49,1.2,5.47,1.2,3.25,0,6.05-1.03,8.17-2.82,2.18,1.78,4.99,2.82,8.14,2.82,2.35,0,4.5-.59,6.35-1.62.89.82,2.07,1.33,3.37,1.33h16.08c2.76,0,5-2.24,5-5V5.92c0-2.76-2.24-5-5-5Z"/>
  <g class="st2">
    <path class="st1" d="M242.04.92h-4.69c-1.25,0-2.41.46-3.3,1.25-.89-.78-2.06-1.25-3.3-1.25h-4.79c-1.3,0-2.48.51-3.37,1.33-1.85-1.03-4-1.62-6.35-1.62-3.15,0-5.96,1.04-8.14,2.82-2.11-1.79-4.92-2.82-8.17-2.82-4.13,0-7.68,1.82-9.96,4.76-1.9-2.97-5.34-4.76-9.7-4.76-2.98,0-5.53.88-7.42,2.4-2.06-1.54-4.73-2.4-7.82-2.4-2.28,0-4.38.56-6.2,1.55-.88-.77-2.02-1.26-3.28-1.26h-3.04c-1.38,0-2.63.56-3.53,1.46-.91-.9-2.16-1.46-3.54-1.46h-3.01c-1.07,0-2.05.34-2.86.91-1.4-.57-3.06-.91-5.01-.91h-6.92c-2.76,0-5,2.24-5,5v1.53h-8.56c-1.82-4.24-5.91-6.83-11.28-6.83-3.23,0-6.1,1.12-8.29,3.01-2.14-1.92-5.09-3.01-8.57-3.01-3.05,0-5.78,1-7.92,2.7-2.27-2.09-5.43-3.33-9.09-3.33-4.1,0-7.65,1.45-10.21,3.89-2.24-2.04-5.23-3.26-8.62-3.26-3.72,0-6.96,1.46-9.25,3.86l-.19-.46c-.77-1.88-2.6-3.11-4.63-3.11h-3.38c-1.52,0-2.93.69-3.87,1.83-.92-1.11-2.29-1.83-3.84-1.83h-3.04c-1.2,0-2.28.44-3.14,1.14-1.76-.92-3.82-1.43-6.1-1.43C5.45.63,0,6.2,0,13.58s5.45,12.94,12.68,12.94c2.28,0,4.34-.51,6.1-1.43.86.7,1.94,1.14,3.14,1.14h7.61c2.06,0,3.91-1.26,4.66-3.18l.1-.26.13.31c.76,1.89,2.6,3.13,4.64,3.13h3.23c.94,0,1.85-.27,2.63-.76,1.57.67,3.33,1.05,5.2,1.05,3.16,0,5.98-1.05,8.16-2.85,2.38,2.24,5.74,3.55,9.7,3.55,3.08,0,5.83-.7,8.15-2.09.65-.39,1.18-.91,1.58-1.5,2.14,1.82,4.91,2.89,8.03,2.89.96,0,1.87-.1,2.73-.29h4.82c1.25,0,2.38-.48,3.26-1.23,1.77.98,3.83,1.53,6.05,1.53.96,0,1.87-.1,2.73-.29h4.82c2.76,0,5-2.24,5-5v-1.34h7.5v1.34c0,2.76,2.24,5,5,5h2.99c1.33,0,2.54-.52,3.44-1.37.92.87,2.15,1.37,3.44,1.37h3.11c1.03,0,2-.32,2.82-.88,1.6.75,3.47,1.17,5.54,1.17,3.25,0,5.99-1,7.99-2.75,2.11,1.73,4.82,2.75,7.85,2.75.96,0,1.87-.1,2.73-.29h4.82c1.04,0,2-.32,2.8-.86,1.64.74,3.54,1.15,5.64,1.15,1.89,0,3.6-.34,5.09-.95.73.41,1.55.66,2.44.66h3.26c1.06,0,2.05-.34,2.86-.91,1.64.76,3.49,1.2,5.47,1.2,3.25,0,6.05-1.03,8.17-2.82,2.18,1.78,4.99,2.82,8.14,2.82,2.35,0,4.5-.59,6.35-1.62.89.82,2.07,1.33,3.37,1.33h16.08c2.76,0,5-2.24,5-5V5.92c0-2.76-2.24-5-5-5Z"/>
  </g>
</svg>