<?xml version="1.0" encoding="UTF-8"?>
<svg id="Livello_3" xmlns="http://www.w3.org/2000/svg" xmlns:xlink="http://www.w3.org/1999/xlink" version="1.1" viewBox="0 0 247.04 27.22">
  <!-- Generator: Adobe Illustrator 29.0.0, SVG Export Plug-In . SVG Version: 2.1.0 Build 186)  -->
  <defs>
    <style>
      .st0 {
        fill: url(#Sfumatura_senza_nome_4);
      }
    </style>
    <linearGradient id="Sfumatura_senza_nome_4" data-name="Sfumatura senza nome 4" x1="-54.29" y1="13.61" x2="245.78" y2="13.61" gradientUnits="userSpaceOnUse">
      <stop offset="0" stop-color="#ffd4d4"/>
      <stop offset=".25" stop-color="#eea6ff"/>
      <stop offset=".5" stop-color="#97faff"/>
      <stop offset=".75" stop-color="#99ffa7"/>
      <stop offset="1" stop-color="#ffff85"/>
    </linearGradient>
  </defs>
  <path class="st0" d="M242.04.92h-4.69c-1.25,0-2.41.46-3.3,1.25-.89-.78-2.06-1.25-3.3-1.25h-4.79c-1.3,0-2.48.51-3.37,1.33-1.85-1.03-4-1.62-6.35-1.62-3.15,0-5.96,1.04-8.14,2.82-2.11-1.79-4.92-2.82-8.17-2.82-4.13,0-7.68,1.82-9.96,4.76-1.9-2.97-5.34-4.76-9.7-4.76-2.98,0-5.53.88-7.42,2.4-2.06-1.54-4.73-2.4-7.82-2.4-2.28,0-4.38.56-6.2,1.55-.88-.77-2.02-1.26-3.28-1.26h-3.04c-1.38,0-2.63.56-3.53,1.46-.91-.9-2.16-1.46-3.54-1.46h-3.01c-1.07,0-2.05.34-2.86.91-1.4-.57-3.06-.91-5.01-.91h-6.92c-2.76,0-5,2.24-5,5v1.53h-8.56c-1.82-4.24-5.91-6.83-11.28-6.83-3.23,0-6.1,1.12-8.29,3.01-2.14-1.92-5.09-3.01-8.57-3.01-3.05,0-5.78,1-7.92,2.7-2.27-2.09-5.43-3.33-9.09-3.33-4.1,0-7.65,1.45-10.21,3.89-2.24-2.04-5.23-3.26-8.62-3.26-3.72,0-6.96,1.46-9.25,3.86l-.19-.46c-.77-1.88-2.6-3.11-4.63-3.11h-3.38c-1.52,0-2.93.69-3.87,1.83-.92-1.11-2.29-1.83-3.84-1.83h-3.04c-1.2,0-2.28.44-3.14,1.14-1.76-.92-3.82-1.43-6.1-1.43C5.45.63,0,6.2,0,13.58s5.45,12.94,12.68,12.94c2.28,0,4.34-.51,6.1-1.43.86.7,1.94,1.14,3.14,1.14h7.61c2.06,0,3.91-1.26,4.66-3.18l.1-.26.13.31c.76,1.89,2.6,3.13,4.64,3.13h3.23c.94,0,1.85-.27,2.63-.76,1.57.67,3.33,1.05,5.2,1.05,3.16,0,5.98-1.05,8.16-2.85,2.38,2.24,5.74,3.55,9.7,3.55,3.08,0,5.83-.7,8.15-2.09.65-.39,1.18-.91,1.58-1.5,2.14,1.82,4.91,2.89,8.03,2.89.96,0,1.87-.1,2.73-.29h4.82c1.25,0,2.38-.48,3.26-1.23,1.77.98,3.83,1.53,6.05,1.53.96,0,1.87-.1,2.73-.29h4.82c2.76,0,5-2.24,5-5v-1.34h7.5v1.34c0,2.76,2.24,5,5,5h2.99c1.33,0,2.54-.52,3.44-1.37.92.87,2.15,1.37,3.44,1.37h3.11c1.03,0,2-.32,2.82-.88,1.6.75,3.47,1.17,5.54,1.17,3.25,0,5.99-1,7.99-2.75,2.11,1.73,4.82,2.75,7.85,2.75.96,0,1.87-.1,2.73-.29h4.82c1.04,0,2-.32,2.8-.86,1.64.74,3.54,1.15,5.64,1.15,1.89,0,3.6-.34,5.09-.95.73.41,1.55.66,2.44.66h3.26c1.06,0,2.05-.34,2.86-.91,1.64.76,3.49,1.2,5.47,1.2,3.25,0,6.05-1.03,8.17-2.82,2.18,1.78,4.99,2.82,8.14,2.82,2.35,0,4.5-.59,6.35-1.62.89.82,2.07,1.33,3.37,1.33h16.08c2.76,0,5-2.24,5-5V5.92c0-2.76-2.24-5-5-5Z"/>
  <g>
    <path d="M12.68,5.63c4.52,0,7.02,2.84,7.29,6.71l-2.92.12c-.22-2.28-1.58-4.15-4.37-4.15s-4.52,2.04-4.52,5.27,1.8,5.27,4.52,5.27,4.15-1.87,4.37-4.15l2.92.12c-.27,3.89-2.77,6.7-7.29,6.7s-7.68-3.23-7.68-7.94,3.33-7.94,7.68-7.94Z"/>
    <path d="M24.95,5.92v15.3h-3.04V5.92h3.04Z"/>
    <path d="M36.03,5.92l6.24,15.3h-3.23l-1.53-3.79h-6.51l-1.48,3.79h-3.06l6.19-15.3h3.38ZM31.92,15.11h4.66l-2.31-5.73h-.1l-2.26,5.73Z"/>
    <path d="M50.1,21.52c-4.47,0-7.77-3.23-7.77-7.94s3.3-7.94,7.77-7.94,7.75,3.23,7.75,7.94-3.3,7.94-7.75,7.94ZM50.1,8.3c-2.82,0-4.62,2.06-4.62,5.27s1.8,5.27,4.62,5.27,4.62-2.06,4.62-5.27-1.8-5.27-4.62-5.27Z"/>
    <path d="M74.91,12.12c0-3.28-2.11-5.42-5.98-5.42-4.59,0-7.58,3.09-7.58,7.68,0,3.98,2.82,6.17,6.63,6.17,1.85,0,3.35-.29,5-1.09l.56,1.39c-1.63.97-3.5,1.38-5.59,1.38-4.86,0-8.53-2.82-8.53-7.87,0-5.32,3.74-9.35,9.5-9.35,4.91,0,7.82,3.01,7.82,7.12s-2.38,5.83-4.86,5.83c-1.46,0-2.26-.7-2.58-1.65-.58,1.04-1.51,1.65-2.79,1.65-1.89,0-3.16-1.26-3.16-3.45,0-2.7,1.7-5.25,4.4-5.25,1.31,0,2.19.61,2.53,1.43l.36-1.24h2.36l-1.41,5.61c-.24.97.07,1.31.75,1.31,1.51,0,2.55-1.31,2.55-4.25ZM69.56,13.31c.32-1.43-.19-2.33-1.36-2.33-1.39,0-2.26,1.8-2.26,3.4,0,1.12.36,1.72,1.31,1.72s1.82-.68,2.19-2.26l.12-.53Z"/>
    <path d="M78.26,13.58c0-4.71,3.38-7.94,7.68-7.94s6.97,2.43,7.29,6.29l-2.96.12c-.19-2.26-1.7-3.74-4.25-3.74-2.79,0-4.59,2.06-4.59,5.27s1.85,5.37,4.83,5.37c2.16,0,3.74-1.24,4.18-3.18h-4.06v-2.26h6.9v7.73h-2.7v-2.26c-.75,1.7-2.67,2.55-4.86,2.55-4.27,0-7.46-3.21-7.46-7.94Z"/>
    <path d="M95.13,13.58c0-4.71,3.38-7.94,7.68-7.94s6.97,2.43,7.29,6.29l-2.96.12c-.19-2.26-1.7-3.74-4.25-3.74-2.79,0-4.59,2.06-4.59,5.27s1.85,5.37,4.83,5.37c2.16,0,3.74-1.24,4.18-3.18h-4.06v-2.26h6.9v7.73h-2.7v-2.26c-.75,1.7-2.67,2.55-4.86,2.55-4.28,0-7.46-3.21-7.46-7.94Z"/>
    <path d="M112.52,12.46h12.61v2.43h-12.61v-2.43Z"/>
    <path d="M137.5,21.23c-.32-.41-.51-1.46-.63-3.16-.12-1.72-.9-2.5-2.65-2.5h-3.6v5.66h-2.99V5.92h6.92c3.91,0,5.83,1.82,5.83,4.66,0,2.31-1.51,3.64-3.38,3.89,1.75.34,2.65,1.36,2.82,3.16.19,2.26.27,3.04.78,3.6h-3.11ZM134.15,13.19c2.21,0,3.23-.73,3.23-2.38,0-1.53-1.02-2.43-3.23-2.43h-3.52v4.81h3.52Z"/>
    <path d="M142.44,15.28V5.92h3.01v9.04c0,2.65,1.12,4.01,3.52,4.01s3.55-1.36,3.55-3.98V5.92h3.04v9.35c0,4.47-2.92,6.24-6.58,6.24s-6.54-1.77-6.54-6.24Z"/>
    <path d="M157.36,13.58c0-4.71,3.38-7.94,7.68-7.94s6.97,2.43,7.29,6.29l-2.96.12c-.19-2.26-1.7-3.74-4.25-3.74-2.79,0-4.59,2.06-4.59,5.27s1.85,5.37,4.83,5.37c2.16,0,3.74-1.24,4.18-3.18h-4.06v-2.26h6.9v7.73h-2.7v-2.26c-.75,1.7-2.67,2.55-4.86,2.55-4.27,0-7.46-3.21-7.46-7.94Z"/>
    <path d="M176.82,15.67c.12,2.38,1.85,3.45,3.98,3.45,1.89,0,3.11-.75,3.11-2.04,0-1.17-.92-1.6-2.53-1.92l-2.92-.53c-2.38-.44-4.03-1.75-4.03-4.28,0-2.87,2.26-4.71,5.83-4.71,4.01,0,6.27,2.06,6.32,5.47l-2.79.1c-.1-2.09-1.46-3.18-3.55-3.18-1.8,0-2.82.8-2.82,2.11,0,1.12.8,1.51,2.19,1.77l2.82.51c3.01.56,4.42,1.99,4.42,4.47,0,3.01-2.6,4.64-6.05,4.64-3.94,0-6.78-2.04-6.78-5.73l2.79-.12Z"/>
    <path d="M188.34,17.97h3.26v3.26h-3.26v-3.26Z"/>
    <path d="M199.93,5.63c4.52,0,7.02,2.84,7.29,6.71l-2.92.12c-.22-2.28-1.58-4.15-4.37-4.15s-4.52,2.04-4.52,5.27,1.8,5.27,4.52,5.27,4.15-1.87,4.37-4.15l2.92.12c-.27,3.89-2.77,6.7-7.29,6.7s-7.68-3.23-7.68-7.94,3.33-7.94,7.68-7.94Z"/>
    <path d="M216.23,21.52c-4.47,0-7.77-3.23-7.77-7.94s3.3-7.94,7.77-7.94,7.75,3.23,7.75,7.94-3.3,7.94-7.75,7.94ZM216.23,8.3c-2.82,0-4.62,2.06-4.62,5.27s1.8,5.27,4.62,5.27,4.62-2.06,4.62-5.27-1.8-5.27-4.62-5.27Z"/>
    <path d="M232.61,21.23l-3.74-12.05h-.1v12.05h-2.82V5.92h4.79l3.35,11.13h.07l3.18-11.13h4.69v15.3h-3.06v-12.05h-.1l-3.67,12.05h-2.6Z"/>
  </g>
</svg>