<?xml version="1.0" encoding="UTF-8"?>
<svg id="Livello_3" xmlns="http://www.w3.org/2000/svg" xmlns:xlink="http://www.w3.org/1999/xlink" version="1.1" viewBox="0 0 30.06 25.89">
  <!-- Generator: Adobe Illustrator 29.0.0, SVG Export Plug-In . SVG Version: 2.1.0 Build 186)  -->
  <defs>
    <style>
      .st0 {
        fill: none;
      }

      .st1 {
        fill: url(#Sfumatura_senza_nome_2);
      }

      .st2 {
        clip-path: url(#clippath);
      }
    </style>
    <clipPath id="clippath">
      <path class="st0" d="M5,20.6h3.04V5.29h-3.04v15.3ZM18.15,12.87v2.26h4.06c-.44,1.94-2.02,3.18-4.18,3.18-2.99,0-4.83-2.09-4.83-5.37s1.8-5.27,4.59-5.27c2.55,0,4.06,1.48,4.25,3.74l2.96-.12c-.32-3.86-2.87-6.29-7.29-6.29s-7.68,3.23-7.68,7.94,3.18,7.94,7.46,7.94c2.19,0,4.11-.85,4.86-2.55v2.26h2.7v-7.73h-6.9Z"/>
    </clipPath>
    <linearGradient id="Sfumatura_senza_nome_2" data-name="Sfumatura senza nome 2" x1="0" y1="12.94" x2="124.08" y2="12.94" gradientUnits="userSpaceOnUse">
      <stop offset="0" stop-color="#f2aaaa"/>
      <stop offset=".25" stop-color="#e69df2"/>
      <stop offset=".5" stop-color="#9de7f2"/>
      <stop offset=".75" stop-color="#9df2af"/>
      <stop offset="1" stop-color="#eaf29d"/>
    </linearGradient>
  </defs>
  <path d="M30.04,10.88c-.54-6.61-5.42-10.88-12.34-10.88-2.33,0-4.47.58-6.31,1.62-.89-.81-2.06-1.32-3.36-1.32h-3.04C2.24.29,0,2.53,0,5.29v15.31c0,2.76,2.24,5,5,5h3.04c1.28,0,2.43-.49,3.32-1.28,1.79,1.01,3.87,1.58,6.13,1.58.96,0,1.87-.1,2.73-.29h4.82c2.76,0,5-2.24,5-5,0,0,.03-9.36,0-9.71Z"/>
  <g class="st2">
    <path class="st1" d="M30.04,10.88c-.54-6.61-5.42-10.88-12.34-10.88-2.33,0-4.47.58-6.31,1.62-.89-.81-2.06-1.32-3.36-1.32h-3.04C2.24.29,0,2.53,0,5.29v15.31c0,2.76,2.24,5,5,5h3.04c1.28,0,2.43-.49,3.32-1.28,1.79,1.01,3.87,1.58,6.13,1.58.96,0,1.87-.1,2.73-.29h4.82c2.76,0,5-2.24,5-5,0,0,.03-9.36,0-9.71Z"/>
  </g>
</svg>