<?xml version="1.0" encoding="UTF-8"?>
<svg id="Livello_3" xmlns="http://www.w3.org/2000/svg" xmlns:xlink="http://www.w3.org/1999/xlink" version="1.1" viewBox="0 0 69.48 25.89">
  <!-- Generator: Adobe Illustrator 29.0.0, SVG Export Plug-In . SVG Version: 2.1.0 Build 186)  -->
  <defs>
    <style>
      .st0 {
        fill: url(#Sfumatura_senza_nome_2);
      }
    </style>
    <linearGradient id="Sfumatura_senza_nome_2" data-name="Sfumatura senza nome 2" x1="0" y1="12.94" x2="69.48" y2="12.94" gradientUnits="userSpaceOnUse">
      <stop offset="0" stop-color="#ffd4d4"/>
      <stop offset=".25" stop-color="#eea6ff"/>
      <stop offset=".5" stop-color="#97faff"/>
      <stop offset=".75" stop-color="#99ffa7"/>
      <stop offset="1" stop-color="#ffff85"/>
    </linearGradient>
  </defs>
  <path class="st0" d="M68.42,17.52l-4.13-5.28,3.31-3.51c1.37-1.45,1.75-3.58.96-5.41s-2.59-3.02-4.59-3.02h-3.55c-1.21,0-2.36.44-3.27,1.22-.88-.76-2.02-1.22-3.27-1.22h-3.04c-1.3,0-2.48.51-3.37,1.33C45.63.59,43.48,0,41.13,0,37.83,0,34.91,1.15,32.69,3.08,30.48,1.15,27.56,0,24.27,0,19.3,0,15.16,2.6,13.04,6.59v-1.3C13.04,2.53,10.8.29,8.04.29h-3.04C2.24.29,0,2.53,0,5.29v15.31C0,23.36,2.24,25.6,5,25.6h11.13c1.02,0,1.97-.31,2.77-.84,1.62.72,3.43,1.13,5.37,1.13,3.29,0,6.21-1.15,8.42-3.08,2.22,1.93,5.14,3.08,8.44,3.08,2.35,0,4.5-.59,6.35-1.62.89.82,2.07,1.33,3.37,1.33h3.04c1.35,0,2.58-.54,3.47-1.4.93.9,2.17,1.4,3.47,1.4h3.64c1.91,0,3.66-1.09,4.49-2.81s.62-3.76-.55-5.27Z"/>
  <path d="M8.04,5.29v12.78h8.09v2.53H5V5.29h3.04Z"/>
  <path d="M24.27,20.89c-4.47,0-7.77-3.23-7.77-7.94s3.3-7.94,7.77-7.94,7.75,3.23,7.75,7.94-3.3,7.94-7.75,7.94ZM24.27,7.67c-2.82,0-4.62,2.06-4.62,5.27s1.8,5.27,4.62,5.27,4.62-2.06,4.62-5.27-1.8-5.27-4.62-5.27Z"/>
  <path d="M41.13,20.89c-4.47,0-7.77-3.23-7.77-7.94s3.3-7.94,7.77-7.94,7.75,3.23,7.75,7.94-3.3,7.94-7.75,7.94ZM41.13,7.67c-2.82,0-4.62,2.06-4.62,5.27s1.8,5.27,4.62,5.27,4.62-2.06,4.62-5.27-1.8-5.27-4.62-5.27Z"/>
  <path d="M60.84,20.6l-5.37-6.71-1.58,1.63v5.08h-3.04V5.29h3.04v6.92l6.54-6.92h3.55l-6.27,6.63,6.78,8.67h-3.64Z"/>
</svg>