<?xml version="1.0" encoding="UTF-8"?>
<svg id="Livello_3" xmlns="http://www.w3.org/2000/svg" xmlns:xlink="http://www.w3.org/1999/xlink" version="1.1" viewBox="0 0 71.06 25.6">
  <!-- Generator: Adobe Illustrator 29.0.0, SVG Export Plug-In . SVG Version: 2.1.0 Build 186)  -->
  <defs>
    <style>
      .st0 {
        fill: none;
      }

      .st1 {
        fill: url(#Sfumatura_senza_nome_5);
      }

      .st2 {
        clip-path: url(#clippath);
      }
    </style>
    <clipPath id="clippath">
      <path class="st0" d="M13.21,16.13h-.07l-3.35-11.13h-4.79v15.3h2.82v-12.05h.1l3.74,12.05h2.6l3.67-12.05h.1v12.05h3.06V5h-4.69l-3.18,11.13ZM26.75,13.75h6.46v-2.5h-6.46v-3.72h8.24v-2.53h-11.22v15.3h11.44v-2.53h-8.45v-4.03ZM47.59,15.2l-7.24-10.2h-3.01v15.3h2.82v-10.79l7.82,10.79h2.43V5h-2.82v10.2ZM63.02,5v9.06c0,2.62-1.12,3.98-3.55,3.98s-3.52-1.36-3.52-4.01V5h-3.01v9.35c0,4.47,2.87,6.24,6.54,6.24s6.58-1.77,6.58-6.24V5h-3.04Z"/>
    </clipPath>
    <linearGradient id="Sfumatura_senza_nome_5" data-name="Sfumatura senza nome 5" x1="-10.09" y1="12.8" x2="75.36" y2="12.8" gradientUnits="userSpaceOnUse">
      <stop offset="0" stop-color="#ffd4d4"/>
      <stop offset=".25" stop-color="#eea6ff"/>
      <stop offset=".5" stop-color="#97faff"/>
      <stop offset=".75" stop-color="#99ffa7"/>
      <stop offset="1" stop-color="#ffff85"/>
    </linearGradient>
  </defs>
  <path d="M66.06,0h-3.04C61.65,0,60.4.56,59.49,1.46,58.59.56,57.34,0,55.96,0h-8.36C46.17,0,44.89.6,43.98,1.55,43.04.57,41.73,0,40.36,0h-23.96C15.14,0,13.98.46,13.09,1.25,12.2.46,11.03,0,9.79,0h-4.79C2.24,0,0,2.24,0,5v15.3C0,23.07,2.24,25.3,5,25.3h35.16c1.58,0,3-.74,3.91-1.88.95,1.19,2.38,1.88,3.91,1.88h2.43c1.17,0,2.24-.42,3.09-1.1,1.69.89,3.71,1.39,5.97,1.39,6.93,0,11.58-4.52,11.58-11.24V5C71.06,2.24,68.82,0,66.06,0Z"/>
  <g class="st2">
    <path class="st1" d="M66.06,0h-3.04C61.65,0,60.4.56,59.49,1.46,58.59.56,57.34,0,55.96,0h-8.36C46.17,0,44.89.6,43.98,1.55,43.04.57,41.73,0,40.36,0h-23.96C15.14,0,13.98.46,13.09,1.25,12.2.46,11.03,0,9.79,0h-4.79C2.24,0,0,2.24,0,5v15.3C0,23.07,2.24,25.3,5,25.3h35.16c1.58,0,3-.74,3.91-1.88.95,1.19,2.38,1.88,3.91,1.88h2.43c1.17,0,2.24-.42,3.09-1.1,1.69.89,3.71,1.39,5.97,1.39,6.93,0,11.58-4.52,11.58-11.24V5C71.06,2.24,68.82,0,66.06,0Z"/>
  </g>
</svg>