<?xml version="1.0" encoding="UTF-8"?>
<svg id="Livello_3" xmlns="http://www.w3.org/2000/svg" xmlns:xlink="http://www.w3.org/1999/xlink" version="1.1" viewBox="0 0 67.73 25.3">
  <!-- Generator: Adobe Illustrator 29.0.0, SVG Export Plug-In . SVG Version: 2.1.0 Build 186)  -->
  <defs>
    <style>
      .st0 {
        fill: url(#Sfumatura_senza_nome_2);
      }
    </style>
    <linearGradient id="Sfumatura_senza_nome_2" data-name="Sfumatura senza nome 2" x1="-56.68" y1="12.65" x2="74.64" y2="12.65" gradientUnits="userSpaceOnUse">
      <stop offset="0" stop-color="#f2aaaa"/>
      <stop offset=".25" stop-color="#e69df2"/>
      <stop offset=".5" stop-color="#9de7f2"/>
      <stop offset=".75" stop-color="#9df2af"/>
      <stop offset="1" stop-color="#eaf29d"/>
    </linearGradient>
  </defs>
  <path class="st0" d="M62.73,0h-13.94c-.13,0-.25.03-.37.04-.18-.02-.35-.04-.53-.04h-3.38c-1.4,0-2.72.58-3.66,1.59-.94-1.01-2.26-1.59-3.66-1.59H15.25c-1.42,0-2.71.6-3.62,1.55-.94-.98-2.24-1.55-3.62-1.55h-3.01C2.24,0,0,2.24,0,5v15.3c0,2.76,2.24,5,5,5h2.82c1.58,0,3-.74,3.91-1.88.95,1.19,2.38,1.88,3.91,1.88h20.88c1.6,0,3.1-.76,4.04-2.05l.1-.14.11.15c.94,1.28,2.44,2.04,4.03,2.04h3.57c1.07,0,2.08-.35,2.92-.95.82.59,1.82.95,2.92.95h3.04c2.76,0,5-2.24,5-5v-7.78h.49c2.76,0,5-2.24,5-5v-2.53c0-2.76-2.24-5-5-5Z"/>
  <g>
    <path d="M15.25,15.2V5h2.82v15.3h-2.43l-7.82-10.79v10.79h-2.82V5h3.01l7.24,10.2Z"/>
    <path d="M32.19,20.3h-11.44V5h11.22v2.53h-8.24v3.72h6.46v2.5h-6.46v4.03h8.45v2.53Z"/>
    <path d="M42.47,12.26l5.9,8.04h-3.57l-4.15-5.66-4.13,5.66h-3.38l5.9-7.85-5.42-7.46h3.57l3.67,5.1,3.64-5.1h3.38l-5.42,7.26Z"/>
    <path d="M54.21,20.3V7.53h-5.42v-2.53h13.94v2.53h-5.49v12.78h-3.04Z"/>
  </g>
</svg>