<?xml version="1.0" encoding="UTF-8"?>
<svg id="Livello_3" xmlns="http://www.w3.org/2000/svg" xmlns:xlink="http://www.w3.org/1999/xlink" version="1.1" viewBox="0 0 66.52 25.3">
  <!-- Generator: Adobe Illustrator 29.0.0, SVG Export Plug-In . SVG Version: 2.1.0 Build 186)  -->
  <defs>
    <style>
      .st0 {
        fill: url(#Sfumatura_senza_nome_4);
      }
    </style>
    <linearGradient id="Sfumatura_senza_nome_4" data-name="Sfumatura senza nome 4" x1="0" y1="12.65" x2="156.07" y2="12.65" gradientUnits="userSpaceOnUse">
      <stop offset="0" stop-color="#ffd4d4"/>
      <stop offset=".25" stop-color="#eea6ff"/>
      <stop offset=".5" stop-color="#97faff"/>
      <stop offset=".75" stop-color="#99ffa7"/>
      <stop offset="1" stop-color="#ffff85"/>
    </linearGradient>
  </defs>
  <path class="st0" d="M65.65,2.19c-.93-1.37-2.48-2.19-4.13-2.19h-3.04c-1.96,0-3.73,1.15-4.54,2.91-.81-1.77-2.58-2.91-4.54-2.91h-3.18c-.22,0-.43.02-.64.04-.14-.01-.28-.04-.43-.04h-11.22c-1.1,0-2.1.36-2.93.96-1.43-.61-3.13-.96-5.14-.96h-6.92c-1.05,0-2.01.32-2.82.87-1.41-.55-3.08-.87-5.01-.87h-6.1C2.24,0,0,2.24,0,5v15.3C0,23.07,2.24,25.3,5,25.3h3.01c2.76,0,5-2.24,5-5h.91c0,2.76,2.24,5,5,5h2.99c1.33,0,2.54-.52,3.44-1.37.92.87,2.15,1.37,3.44,1.37h16.57c1.34,0,2.55-.53,3.45-1.39.91.87,2.14,1.39,3.45,1.39h3.23c2.05,0,3.9-1.26,4.65-3.17l6.02-15.3c.61-1.54.41-3.28-.52-4.65Z"/>
  <g>
    <path d="M8.01,20.3h-3.01V5h6.1c3.91,0,6.15,1.82,6.15,5s-2.24,5.03-6.15,5.03h-3.08v5.27ZM11,12.55c2.28,0,3.28-.87,3.28-2.53s-1-2.58-3.28-2.58h-2.99v5.1h2.99Z"/>
    <path d="M28.79,20.3c-.32-.41-.51-1.46-.63-3.16-.12-1.72-.9-2.5-2.65-2.5h-3.6v5.66h-2.99V5h6.92c3.91,0,5.83,1.82,5.83,4.66,0,2.31-1.51,3.64-3.38,3.89,1.75.34,2.65,1.36,2.82,3.16.19,2.26.27,3.04.78,3.6h-3.11ZM25.43,12.26c2.21,0,3.23-.73,3.23-2.38,0-1.53-1.02-2.43-3.23-2.43h-3.52v4.81h3.52Z"/>
    <path d="M45.36,20.3h-11.44V5h11.22v2.53h-8.24v3.72h6.46v2.5h-6.46v4.03h8.45v2.53Z"/>
    <path d="M52.26,20.3l-6.05-15.3h3.18l4.52,11.61h.1l4.47-11.61h3.04l-6.02,15.3h-3.23Z"/>
  </g>
</svg>