<?xml version="1.0" encoding="UTF-8"?>
<svg id="Livello_3" xmlns="http://www.w3.org/2000/svg" xmlns:xlink="http://www.w3.org/1999/xlink" version="1.1" viewBox="0 0 69.22 25.89">
  <!-- Generator: Adobe Illustrator 29.0.0, SVG Export Plug-In . SVG Version: 2.1.0 Build 186)  -->
  <defs>
    <style>
      .st0 {
        fill: none;
      }

      .st1 {
        fill: url(#Sfumatura_senza_nome_5);
      }

      .st2 {
        clip-path: url(#clippath);
      }
    </style>
    <clipPath id="clippath">
      <path class="st0" d="M14.38,13.84c1.87-.24,3.38-1.58,3.38-3.89,0-2.84-1.92-4.66-5.83-4.66h-6.92v15.3h2.99v-5.66h3.6c1.75,0,2.53.78,2.65,2.5.12,1.7.32,2.75.63,3.16h3.11c-.51-.56-.58-1.34-.78-3.6-.17-1.8-1.07-2.82-2.82-3.16ZM11.51,12.56h-3.52v-4.81h3.52c2.21,0,3.23.9,3.23,2.43,0,1.65-1.02,2.38-3.23,2.38ZM29.88,14.35c0,2.62-1.12,3.98-3.55,3.98s-3.52-1.36-3.52-4.01V5.29h-3.01v9.35c0,4.47,2.87,6.24,6.54,6.24s6.58-1.77,6.58-6.24V5.29h-3.04v9.06ZM42.83,15.13h4.06c-.44,1.94-2.02,3.18-4.18,3.18-2.99,0-4.83-2.09-4.83-5.37s1.8-5.27,4.59-5.27c2.55,0,4.06,1.48,4.25,3.74l2.96-.12c-.32-3.86-2.87-6.29-7.29-6.29s-7.68,3.23-7.68,7.94,3.18,7.94,7.46,7.94c2.19,0,4.11-.85,4.86-2.55v2.26h2.7v-7.73h-6.9v2.26ZM59.79,11.78l-2.82-.51c-1.39-.27-2.19-.66-2.19-1.77,0-1.31,1.02-2.11,2.82-2.11,2.09,0,3.45,1.09,3.55,3.18l2.79-.1c-.05-3.4-2.31-5.47-6.32-5.47-3.57,0-5.83,1.85-5.83,4.71,0,2.53,1.65,3.84,4.03,4.28l2.92.53c1.6.32,2.53.75,2.53,1.92,0,1.29-1.21,2.04-3.11,2.04-2.14,0-3.86-1.07-3.98-3.45l-2.79.12c0,3.69,2.84,5.73,6.78,5.73,3.45,0,6.05-1.63,6.05-4.64,0-2.48-1.41-3.91-4.42-4.47Z"/>
    </clipPath>
    <linearGradient id="Sfumatura_senza_nome_5" data-name="Sfumatura senza nome 5" x1="34.61" y1="2.18" x2="34.61" y2="103.92" gradientUnits="userSpaceOnUse">
      <stop offset="0" stop-color="#ffd4d4"/>
      <stop offset=".25" stop-color="#eea6ff"/>
      <stop offset=".5" stop-color="#97faff"/>
      <stop offset=".75" stop-color="#99ffa7"/>
      <stop offset="1" stop-color="#ffff85"/>
    </linearGradient>
  </defs>
  <path d="M5,25.6h2.99c1.33,0,2.54-.52,3.44-1.37.92.87,2.15,1.37,3.44,1.37h3.11c1.03,0,2-.32,2.82-.88,1.6.76,3.47,1.17,5.54,1.17,3.25,0,5.99-1,7.99-2.75,2.11,1.73,4.82,2.75,7.85,2.75,1.24,0,2.41-.17,3.49-.48.44.12.9.19,1.37.19h2.7c1.04,0,2-.32,2.8-.86,1.64.74,3.54,1.15,5.64,1.15,6.51,0,11.05-3.96,11.05-9.64,0-.9-.12-2.28-.71-3.73.29-.65.45-1.37.44-2.13-.09-6.22-4.64-10.39-11.32-10.39-2.98,0-5.53.88-7.42,2.4-2.06-1.54-4.73-2.4-7.82-2.4-2.28,0-4.38.56-6.2,1.55-.88-.77-2.02-1.26-3.28-1.26h-3.04c-1.38,0-2.63.56-3.53,1.46-.91-.9-2.16-1.46-3.54-1.46h-3.01c-1.07,0-2.05.34-2.86.91-1.4-.57-3.06-.91-5.01-.91h-6.92C2.24.29,0,2.53,0,5.29v15.3C0,23.36,2.24,25.6,5,25.6Z"/>
  <g class="st2">
    <path class="st1" d="M5,25.6h2.99c1.33,0,2.54-.52,3.44-1.37.92.87,2.15,1.37,3.44,1.37h3.11c1.03,0,2-.32,2.82-.88,1.6.76,3.47,1.17,5.54,1.17,3.25,0,5.99-1,7.99-2.75,2.11,1.73,4.82,2.75,7.85,2.75,1.24,0,2.41-.17,3.49-.48.44.12.9.19,1.37.19h2.7c1.04,0,2-.32,2.8-.86,1.64.74,3.54,1.15,5.64,1.15,6.51,0,11.05-3.96,11.05-9.64,0-.9-.12-2.28-.71-3.73.29-.65.45-1.37.44-2.13-.09-6.22-4.64-10.39-11.32-10.39-2.98,0-5.53.88-7.42,2.4-2.06-1.54-4.73-2.4-7.82-2.4-2.28,0-4.38.56-6.2,1.55-.88-.77-2.02-1.26-3.28-1.26h-3.04c-1.38,0-2.63.56-3.53,1.46-.91-.9-2.16-1.46-3.54-1.46h-3.01c-1.07,0-2.05.34-2.86.91-1.4-.57-3.06-.91-5.01-.91h-6.92C2.24.29,0,2.53,0,5.29v15.3C0,23.36,2.24,25.6,5,25.6Z"/>
  </g>
</svg>