<?xml version="1.0" encoding="UTF-8"?>
<svg id="Livello_3" xmlns="http://www.w3.org/2000/svg" xmlns:xlink="http://www.w3.org/1999/xlink" version="1.1" viewBox="0 0 68.07 25.89">
  <!-- Generator: Adobe Illustrator 29.0.0, SVG Export Plug-In . SVG Version: 2.1.0 Build 186)  -->
  <defs>
    <style>
      .st0 {
        fill: none;
      }

      .st1 {
        fill: url(#Sfumatura_senza_nome_2);
      }

      .st2 {
        clip-path: url(#clippath);
      }
    </style>
    <clipPath id="clippath">
      <path class="st0" d="M13.41,11.78l-2.82-.51c-1.39-.27-2.19-.66-2.19-1.77,0-1.31,1.02-2.11,2.82-2.11,2.09,0,3.45,1.09,3.55,3.18l2.79-.1c-.05-3.4-2.31-5.47-6.32-5.47-3.57,0-5.83,1.85-5.83,4.71,0,2.53,1.65,3.84,4.03,4.28l2.92.53c1.6.32,2.53.75,2.53,1.92,0,1.29-1.21,2.04-3.11,2.04-2.14,0-3.86-1.07-3.98-3.45l-2.79.12c0,3.69,2.84,5.73,6.78,5.73,3.45,0,6.05-1.63,6.05-4.64,0-2.48-1.41-3.91-4.42-4.47ZM22.96,14.04h6.46v-2.5h-6.46v-3.72h8.24v-2.53h-11.22v15.3h11.44v-2.53h-8.45v-4.03ZM43.8,15.49l-7.24-10.2h-3.01v15.3h2.82v-10.79l7.82,10.79h2.43V5.29h-2.82v10.2ZM55.08,5.29h-5.78v15.3h5.78c4.93,0,7.99-2.87,7.99-7.65s-3.06-7.65-7.99-7.65ZM54.89,18.17h-2.55V7.72h2.55c3.23,0,5.05,1.94,5.05,5.2s-1.82,5.25-5.05,5.25Z"/>
    </clipPath>
    <linearGradient id="Sfumatura_senza_nome_2" data-name="Sfumatura senza nome 2" x1="-29.51" y1="12.94" x2="71.91" y2="12.94" gradientUnits="userSpaceOnUse">
      <stop offset="0" stop-color="#f2aaaa"/>
      <stop offset=".25" stop-color="#e69df2"/>
      <stop offset=".5" stop-color="#9de7f2"/>
      <stop offset=".75" stop-color="#9df2af"/>
      <stop offset="1" stop-color="#eaf29d"/>
    </linearGradient>
  </defs>
  <path d="M55.08.29h-11.28c-1.42,0-2.71.6-3.62,1.55-.94-.98-2.24-1.55-3.62-1.55h-16.6c-1.11,0-2.12.37-2.95.98-1.65-.82-3.59-1.27-5.78-1.27C4.87,0,.41,3.99.41,9.71c0,.97.13,1.89.38,2.74-.5.78-.79,1.71-.79,2.7,0,6.32,4.84,10.73,11.78,10.73,2.04,0,3.89-.39,5.47-1.1.78.51,1.72.81,2.72.81h11.44c.37,0,.72-.05,1.07-.12.35.08.7.12,1.07.12h2.82c1.58,0,3-.74,3.91-1.88.95,1.19,2.38,1.88,3.91,1.88h10.89c7.77,0,12.99-5.08,12.99-12.65S62.85.29,55.08.29Z"/>
  <g class="st2">
    <path class="st1" d="M55.08.29h-11.28c-1.42,0-2.71.6-3.62,1.55-.94-.98-2.24-1.55-3.62-1.55h-16.6c-1.11,0-2.12.37-2.95.98-1.65-.82-3.59-1.27-5.78-1.27C4.87,0,.41,3.99.41,9.71c0,.97.13,1.89.38,2.74-.5.78-.79,1.71-.79,2.7,0,6.32,4.84,10.73,11.78,10.73,2.04,0,3.89-.39,5.47-1.1.78.51,1.72.81,2.72.81h11.44c.37,0,.72-.05,1.07-.12.35.08.7.12,1.07.12h2.82c1.58,0,3-.74,3.91-1.88.95,1.19,2.38,1.88,3.91,1.88h10.89c7.77,0,12.99-5.08,12.99-12.65S62.85.29,55.08.29Z"/>
  </g>
</svg>