<?xml version="1.0" encoding="UTF-8"?>
<svg id="Livello_3" xmlns="http://www.w3.org/2000/svg" xmlns:xlink="http://www.w3.org/1999/xlink" version="1.1" viewBox="0 0 68.07 25.89">
  <!-- Generator: Adobe Illustrator 29.0.0, SVG Export Plug-In . SVG Version: 2.1.0 Build 186)  -->
  <defs>
    <style>
      .st0 {
        fill: url(#Sfumatura_senza_nome_2);
      }
    </style>
    <linearGradient id="Sfumatura_senza_nome_2" data-name="Sfumatura senza nome 2" x1="-29.51" y1="12.94" x2="71.91" y2="12.94" gradientUnits="userSpaceOnUse">
      <stop offset="0" stop-color="#f2aaaa"/>
      <stop offset=".25" stop-color="#e69df2"/>
      <stop offset=".5" stop-color="#9de7f2"/>
      <stop offset=".75" stop-color="#9df2af"/>
      <stop offset="1" stop-color="#eaf29d"/>
    </linearGradient>
  </defs>
  <path class="st0" d="M55.08.29h-11.28c-1.42,0-2.71.6-3.62,1.55-.94-.98-2.24-1.55-3.62-1.55h-16.6c-1.11,0-2.12.37-2.95.98-1.65-.82-3.59-1.27-5.78-1.27C4.87,0,.41,3.99.41,9.71c0,.97.13,1.89.38,2.74-.5.78-.79,1.71-.79,2.7,0,6.32,4.84,10.73,11.78,10.73,2.04,0,3.89-.39,5.47-1.1.78.51,1.72.81,2.72.81h11.44c.37,0,.72-.05,1.07-.12.35.08.7.12,1.07.12h2.82c1.58,0,3-.74,3.91-1.88.95,1.19,2.38,1.88,3.91,1.88h10.89c7.77,0,12.99-5.08,12.99-12.65S62.85.29,55.08.29Z"/>
  <g>
    <path d="M7.79,15.03c.12,2.38,1.85,3.45,3.98,3.45,1.89,0,3.11-.75,3.11-2.04,0-1.17-.92-1.6-2.53-1.92l-2.92-.53c-2.38-.44-4.03-1.75-4.03-4.28,0-2.87,2.26-4.71,5.83-4.71,4.01,0,6.27,2.06,6.32,5.47l-2.79.1c-.1-2.09-1.46-3.18-3.55-3.18-1.8,0-2.82.8-2.82,2.11,0,1.12.8,1.51,2.19,1.77l2.82.51c3.01.56,4.42,1.99,4.42,4.47,0,3.01-2.6,4.64-6.05,4.64-3.94,0-6.78-2.04-6.78-5.73l2.79-.12Z"/>
    <path d="M31.41,20.6h-11.44V5.29h11.22v2.53h-8.24v3.72h6.46v2.5h-6.46v4.03h8.45v2.53Z"/>
    <path d="M43.8,15.5V5.29h2.82v15.3h-2.43l-7.82-10.79v10.79h-2.82V5.29h3.01l7.24,10.2Z"/>
    <path d="M49.3,5.29h5.78c4.93,0,7.99,2.87,7.99,7.65s-3.06,7.65-7.99,7.65h-5.78V5.29ZM54.89,18.17c3.23,0,5.05-1.94,5.05-5.25s-1.82-5.2-5.05-5.2h-2.55v10.45h2.55Z"/>
  </g>
</svg>