<?xml version="1.0" encoding="UTF-8"?>
<svg id="Livello_3" xmlns="http://www.w3.org/2000/svg" xmlns:xlink="http://www.w3.org/1999/xlink" version="1.1" viewBox="0 0 243.91 25.89">
  <!-- Generator: Adobe Illustrator 29.0.0, SVG Export Plug-In . SVG Version: 2.1.0 Build 186)  -->
  <defs>
    <style>
      .st0 {
        fill: none;
      }

      .st1 {
        fill: url(#Sfumatura_senza_nome_5);
      }

      .st2 {
        clip-path: url(#clippath);
      }
    </style>
    <clipPath id="clippath">
      <path class="st0" d="M13.41,11.78l-2.82-.51c-1.39-.27-2.19-.66-2.19-1.77,0-1.31,1.02-2.11,2.82-2.11,2.09,0,3.45,1.09,3.55,3.18l2.79-.1c-.05-3.4-2.31-5.47-6.32-5.47-3.57,0-5.83,1.85-5.83,4.71,0,2.53,1.65,3.84,4.03,4.28l2.92.53c1.6.32,2.53.75,2.53,1.92,0,1.29-1.21,2.04-3.11,2.04-2.14,0-3.86-1.07-3.98-3.45l-2.79.12c0,3.69,2.84,5.73,6.78,5.73,3.45,0,6.05-1.63,6.05-4.64,0-2.48-1.41-3.91-4.42-4.47ZM30.56,11.54h-7.56v-6.24h-3.04v15.3h3.04v-6.56h7.56v6.56h3.04V5.29h-3.04v6.24ZM43.37,5c-4.47,0-7.77,3.23-7.77,7.94s3.3,7.94,7.77,7.94,7.75-3.23,7.75-7.94-3.3-7.94-7.75-7.94ZM43.37,18.22c-2.82,0-4.62-2.06-4.62-5.27s1.8-5.27,4.62-5.27,4.62,2.07,4.62,5.27-1.8,5.27-4.62,5.27ZM60.23,5c-4.47,0-7.77,3.23-7.77,7.94s3.3,7.94,7.77,7.94,7.75-3.23,7.75-7.94-3.3-7.94-7.75-7.94ZM60.23,18.22c-2.82,0-4.62-2.06-4.62-5.27s1.8-5.27,4.62-5.27,4.62,2.07,4.62,5.27-1.8,5.27-4.62,5.27ZM68.2,7.82h5.42v12.78h3.04V7.82h5.49v-2.53h-13.94v2.53ZM98.36,14.35c0,2.62-1.12,3.98-3.55,3.98s-3.52-1.36-3.52-4.01V5.29h-3.01v9.35c0,4.47,2.87,6.24,6.54,6.24s6.58-1.77,6.58-6.24V5.29h-3.04v9.06ZM111.48,11.78l-2.82-.51c-1.39-.27-2.19-.66-2.19-1.77,0-1.31,1.02-2.11,2.82-2.11,2.09,0,3.45,1.09,3.55,3.18l2.79-.1c-.05-3.4-2.31-5.47-6.32-5.47-3.57,0-5.83,1.85-5.83,4.71,0,2.53,1.65,3.84,4.03,4.28l2.92.53c1.6.32,2.53.75,2.53,1.92,0,1.29-1.21,2.04-3.11,2.04-2.14,0-3.86-1.07-3.98-3.45l-2.79.12c0,3.69,2.84,5.73,6.78,5.73,3.45,0,6.05-1.63,6.05-4.64,0-2.48-1.41-3.91-4.42-4.47ZM127.42,5.29l-6.19,15.3h3.06l1.48-3.79h6.51l1.53,3.79h3.23l-6.24-15.3h-3.38ZM126.69,14.47l2.26-5.73h.1l2.31,5.73h-4.66ZM148.78,15.5l-7.24-10.2h-3.01v15.3h2.82v-10.79l7.82,10.79h2.43V5.29h-2.82v10.2ZM161.64,14.04h6.46v-2.5h-6.46v-3.72h8.24v-2.53h-11.22v15.3h11.44v-2.53h-8.45v-4.03ZM172.06,14.26h12.61v-2.43h-12.61v2.43ZM195.39,16.42h-.07l-3.35-11.13h-4.79v15.3h2.82v-12.05h.1l3.74,12.05h2.6l3.67-12.05h.1v12.05h3.06V5.29h-4.69l-3.18,11.13ZM210.94,5.29l-6.19,15.3h3.06l1.48-3.79h6.51l1.53,3.79h3.23l-6.24-15.3h-3.38ZM210.21,14.47l2.26-5.73h.1l2.31,5.73h-4.66ZM222.04,20.6h3.04V5.29h-3.04v15.3ZM230.82,18.07V5.29h-3.04v15.3h11.13v-2.53h-8.09Z"/>
    </clipPath>
    <linearGradient id="Sfumatura_senza_nome_5" data-name="Sfumatura senza nome 5" x1="0" y1="12.94" x2="243.91" y2="12.94" gradientUnits="userSpaceOnUse">
      <stop offset="0" stop-color="#ffd4d4"/>
      <stop offset=".25" stop-color="#eea6ff"/>
      <stop offset=".5" stop-color="#97faff"/>
      <stop offset=".75" stop-color="#99ffa7"/>
      <stop offset="1" stop-color="#ffff85"/>
    </linearGradient>
  </defs>
  <path d="M238.91,13.07h-3.09v-7.78c0-2.76-2.24-5-5-5h-8.77c-1.56,0-2.93.73-3.85,1.85-.93-1.15-2.35-1.85-3.88-1.85h-3.38c-1.52,0-2.92.69-3.85,1.82-.92-1.1-2.28-1.82-3.83-1.82h-4.69c-1.25,0-2.41.46-3.3,1.25-.89-.78-2.06-1.25-3.3-1.25h-4.79c-2.76,0-5,2.24-5,5v1.53h-7.3v-1.53c0-2.76-2.24-5-5-5h-11.22c-1.38,0-2.62.56-3.52,1.46-.9-.9-2.15-1.46-3.52-1.46h-2.82c-1.42,0-2.71.6-3.62,1.55-.94-.98-2.24-1.55-3.62-1.55h-3.01c-1.56,0-2.93.73-3.85,1.85-.93-1.15-2.35-1.85-3.88-1.85h-3.38c-2.04,0-3.87,1.24-4.63,3.12l-2.26,5.58C119.82,3.56,115.48,0,109.32,0c-1.96,0-3.74.38-5.27,1.07-.77-.49-1.68-.78-2.66-.78h-3.04c-1.38,0-2.63.56-3.53,1.46-.91-.9-2.16-1.46-3.54-1.46h-3.01c-1.16,0-2.22.41-3.06,1.07-.85-.66-1.9-1.07-3.06-1.07h-13.94c-.99,0-1.91.3-2.69.8C63.92.39,62.14,0,60.23,0,56.93,0,54.01,1.15,51.79,3.08,49.58,1.15,46.66,0,43.37,0,41.01,0,38.84.59,36.98,1.63c-.89-.83-2.08-1.34-3.39-1.34h-3.04c-1.51,0-2.86.67-3.78,1.73-.92-1.06-2.27-1.73-3.78-1.73h-3.04c-1.11,0-2.12.37-2.95.98C15.38.45,13.43,0,11.24,0,4.87,0,.41,3.99.41,9.71c0,.97.13,1.89.38,2.74C.29,13.23,0,14.16,0,15.16,0,21.47,4.84,25.89,11.78,25.89c2.04,0,3.89-.39,5.47-1.1.78.51,1.72.81,2.72.81h3.04c1.51,0,2.86-.67,3.78-1.73.92,1.06,2.27,1.73,3.78,1.73h3.04c1.31,0,2.49-.52,3.39-1.34,1.86,1.04,4.02,1.63,6.38,1.63,3.29,0,6.21-1.15,8.42-3.08,2.22,1.93,5.14,3.08,8.44,3.08,3.46,0,6.51-1.27,8.77-3.4.75,1.82,2.53,3.11,4.62,3.11h3.04c2.76,0,5-2.24,5-5v-5.95h1.62c0,6.73,4.64,11.24,11.54,11.24,2.95,0,5.48-.83,7.43-2.29,2,1.46,4.61,2.29,7.62,2.29s5.51-.83,7.41-2.26c.94,1.23,2.4,1.97,3.96,1.97h3.06c2.06,0,3.91-1.26,4.66-3.18l.1-.26.13.31c.76,1.89,2.6,3.13,4.64,3.13h3.23c.27,0,.53-.03.79-.07.23.03.46.07.7.07h2.82c1.58,0,3-.74,3.91-1.88.95,1.19,2.38,1.88,3.91,1.88h2.43c1.38,0,2.62-.56,3.52-1.46.9.9,2.15,1.46,3.52,1.46h11.44c2.76,0,5-2.24,5-5v-1.34h7.09v1.34c0,2.76,2.24,5,5,5h20.63c2.06,0,3.91-1.26,4.66-3.18l.1-.26.13.32c.76,1.89,2.6,3.13,4.64,3.13h21.58c2.76,0,5-2.24,5-5v-2.53c0-2.76-2.24-5-5-5Z"/>
  <g class="st2">
    <path class="st1" d="M238.91,13.07h-3.09v-7.78c0-2.76-2.24-5-5-5h-8.77c-1.56,0-2.93.73-3.85,1.85-.93-1.15-2.35-1.85-3.88-1.85h-3.38c-1.52,0-2.92.69-3.85,1.82-.92-1.1-2.28-1.82-3.83-1.82h-4.69c-1.25,0-2.41.46-3.3,1.25-.89-.78-2.06-1.25-3.3-1.25h-4.79c-2.76,0-5,2.24-5,5v1.53h-7.3v-1.53c0-2.76-2.24-5-5-5h-11.22c-1.38,0-2.62.56-3.52,1.46-.9-.9-2.15-1.46-3.52-1.46h-2.82c-1.42,0-2.71.6-3.62,1.55-.94-.98-2.24-1.55-3.62-1.55h-3.01c-1.56,0-2.93.73-3.85,1.85-.93-1.15-2.35-1.85-3.88-1.85h-3.38c-2.04,0-3.87,1.24-4.63,3.12l-2.26,5.58C119.82,3.56,115.48,0,109.32,0c-1.96,0-3.74.38-5.27,1.07-.77-.49-1.68-.78-2.66-.78h-3.04c-1.38,0-2.63.56-3.53,1.46-.91-.9-2.16-1.46-3.54-1.46h-3.01c-1.16,0-2.22.41-3.06,1.07-.85-.66-1.9-1.07-3.06-1.07h-13.94c-.99,0-1.91.3-2.69.8C63.92.39,62.14,0,60.23,0,56.93,0,54.01,1.15,51.79,3.08,49.58,1.15,46.66,0,43.37,0,41.01,0,38.84.59,36.98,1.63c-.89-.83-2.08-1.34-3.39-1.34h-3.04c-1.51,0-2.86.67-3.78,1.73-.92-1.06-2.27-1.73-3.78-1.73h-3.04c-1.11,0-2.12.37-2.95.98C15.38.45,13.43,0,11.24,0,4.87,0,.41,3.99.41,9.71c0,.97.13,1.89.38,2.74C.29,13.23,0,14.16,0,15.16,0,21.47,4.84,25.89,11.78,25.89c2.04,0,3.89-.39,5.47-1.1.78.51,1.72.81,2.72.81h3.04c1.51,0,2.86-.67,3.78-1.73.92,1.06,2.27,1.73,3.78,1.73h3.04c1.31,0,2.49-.52,3.39-1.34,1.86,1.04,4.02,1.63,6.38,1.63,3.29,0,6.21-1.15,8.42-3.08,2.22,1.93,5.14,3.08,8.44,3.08,3.46,0,6.51-1.27,8.77-3.4.75,1.82,2.53,3.11,4.62,3.11h3.04c2.76,0,5-2.24,5-5v-5.95h1.62c0,6.73,4.64,11.24,11.54,11.24,2.95,0,5.48-.83,7.43-2.29,2,1.46,4.61,2.29,7.62,2.29s5.51-.83,7.41-2.26c.94,1.23,2.4,1.97,3.96,1.97h3.06c2.06,0,3.91-1.26,4.66-3.18l.1-.26.13.31c.76,1.89,2.6,3.13,4.64,3.13h3.23c.27,0,.53-.03.79-.07.23.03.46.07.7.07h2.82c1.58,0,3-.74,3.91-1.88.95,1.19,2.38,1.88,3.91,1.88h2.43c1.38,0,2.62-.56,3.52-1.46.9.9,2.15,1.46,3.52,1.46h11.44c2.76,0,5-2.24,5-5v-1.34h7.09v1.34c0,2.76,2.24,5,5,5h20.63c2.06,0,3.91-1.26,4.66-3.18l.1-.26.13.32c.76,1.89,2.6,3.13,4.64,3.13h21.58c2.76,0,5-2.24,5-5v-2.53c0-2.76-2.24-5-5-5Z"/>
  </g>
</svg>