<?xml version="1.0" encoding="UTF-8"?>
<svg id="Livello_3" xmlns="http://www.w3.org/2000/svg" xmlns:xlink="http://www.w3.org/1999/xlink" version="1.1" viewBox="0 0 152.76 25.89">
  <!-- Generator: Adobe Illustrator 29.0.0, SVG Export Plug-In . SVG Version: 2.1.0 Build 186)  -->
  <defs>
    <style>
      .st0 {
        fill: url(#Sfumatura_senza_nome_2);
      }
    </style>
    <linearGradient id="Sfumatura_senza_nome_2" data-name="Sfumatura senza nome 2" x1="-6.9" y1="12.94" x2="166.31" y2="12.94" gradientUnits="userSpaceOnUse">
      <stop offset="0" stop-color="#f2aaaa"/>
      <stop offset=".25" stop-color="#e69df2"/>
      <stop offset=".5" stop-color="#9de7f2"/>
      <stop offset=".75" stop-color="#9df2af"/>
      <stop offset="1" stop-color="#eaf29d"/>
    </linearGradient>
  </defs>
  <path class="st0" d="M151.7,17.52l-4.13-5.29,3.31-3.51c1.37-1.45,1.75-3.58.96-5.41s-2.59-3.02-4.59-3.02h-3.55c-1.21,0-2.36.44-3.27,1.22-.88-.76-2.02-1.22-3.27-1.22h-3.04c-1.3,0-2.48.51-3.37,1.33C128.91.59,126.75,0,124.41,0c-3.3,0-6.22,1.15-8.44,3.08C113.75,1.15,110.83,0,107.54,0,102.57,0,98.44,2.6,96.31,6.59v-1.3c0-2.76-2.24-5-5-5h-3.04c-2.76,0-5,2.24-5,5v4.17l-2.47-6.06c-.77-1.88-2.6-3.11-4.63-3.11h-3.38c-2.04,0-3.87,1.24-4.63,3.12l-2.1,5.19v-3.32c0-2.76-2.24-5-5-5h-11.22c-.29,0-.57.04-.85.09-.29-.05-.58-.09-.88-.09h-3.55c-1.21,0-2.36.44-3.27,1.22-.88-.76-2.02-1.22-3.27-1.22h-3.04c-1.56,0-2.93.73-3.85,1.85-.93-1.15-2.35-1.85-3.88-1.85h-3.38c-.89,0-1.74.25-2.48.67-.73-.42-1.56-.67-2.46-.67H5C2.24.29,0,2.53,0,5.29v2.53C0,10.58,2.24,12.82,5,12.82h.42v7.78c0,2.76,2.24,5,5,5h10.33c2.06,0,3.91-1.26,4.66-3.18l.1-.26.13.32c.76,1.89,2.6,3.13,4.64,3.13h3.23c.27,0,.53-.03.79-.07.23.03.46.07.7.07h3.04c1.35,0,2.57-.53,3.47-1.4.93.9,2.17,1.4,3.47,1.4h3.64c.24,0,.48-.02.71-.05.17.02.33.05.51.05h11.44c.98,0,1.89-.29,2.66-.78.79.5,1.71.78,2.67.78h3.06c2.06,0,3.91-1.26,4.66-3.18l.1-.26.13.31c.76,1.89,2.6,3.13,4.64,3.13h3.23c1.07,0,2.09-.35,2.94-.96.82.6,1.83.96,2.92.96h11.13c1.02,0,1.97-.31,2.77-.84,1.62.72,3.43,1.13,5.37,1.13,3.29,0,6.21-1.15,8.42-3.08,2.22,1.93,5.14,3.08,8.44,3.08,2.35,0,4.5-.59,6.35-1.62.89.82,2.07,1.33,3.37,1.33h3.04c1.35,0,2.57-.53,3.47-1.4.93.9,2.17,1.4,3.47,1.4h3.64c1.91,0,3.66-1.09,4.49-2.81.84-1.72.62-3.76-.55-5.27Z"/>
  <g>
    <path d="M10.42,20.6V7.82h-5.42v-2.53h13.94v2.53h-5.49v12.78h-3.04Z"/>
    <path d="M27.26,5.29l6.24,15.3h-3.23l-1.53-3.79h-6.51l-1.48,3.79h-3.06l6.19-15.3h3.38ZM23.15,14.47h4.66l-2.31-5.73h-.1l-2.26,5.73Z"/>
    <path d="M44.97,20.6l-5.37-6.71-1.58,1.63v5.08h-3.04V5.29h3.04v6.92l6.54-6.92h3.55l-6.27,6.63,6.78,8.67h-3.64Z"/>
    <path d="M61.28,20.6h-11.44V5.29h11.22v2.53h-8.24v3.72h6.46v2.5h-6.46v4.03h8.45v2.53Z"/>
    <path d="M76.17,5.29l6.24,15.3h-3.23l-1.53-3.79h-6.51l-1.48,3.79h-3.06l6.19-15.3h3.38ZM72.07,14.47h4.66l-2.31-5.73h-.1l-2.26,5.73Z"/>
    <path d="M91.31,5.29v12.78h8.09v2.53h-11.13V5.29h3.04Z"/>
    <path d="M107.54,20.89c-4.47,0-7.77-3.23-7.77-7.94s3.3-7.94,7.77-7.94,7.75,3.23,7.75,7.94-3.3,7.94-7.75,7.94ZM107.54,7.67c-2.82,0-4.62,2.06-4.62,5.27s1.8,5.27,4.62,5.27,4.62-2.06,4.62-5.27-1.8-5.27-4.62-5.27Z"/>
    <path d="M124.41,20.89c-4.47,0-7.77-3.23-7.77-7.94s3.3-7.94,7.77-7.94,7.75,3.23,7.75,7.94-3.3,7.94-7.75,7.94ZM124.41,7.67c-2.82,0-4.62,2.06-4.62,5.27s1.8,5.27,4.62,5.27,4.62-2.06,4.62-5.27-1.8-5.27-4.62-5.27Z"/>
    <path d="M144.11,20.6l-5.37-6.71-1.58,1.63v5.08h-3.04V5.29h3.04v6.92l6.54-6.92h3.55l-6.27,6.63,6.78,8.67h-3.64Z"/>
  </g>
</svg>