<?xml version="1.0" encoding="UTF-8"?>
<svg id="Livello_3" xmlns="http://www.w3.org/2000/svg" xmlns:xlink="http://www.w3.org/1999/xlink" version="1.1" viewBox="0 0 152.76 25.89">
  <!-- Generator: Adobe Illustrator 29.0.0, SVG Export Plug-In . SVG Version: 2.1.0 Build 186)  -->
  <defs>
    <style>
      .st0 {
        fill: none;
      }

      .st1 {
        fill: url(#Sfumatura_senza_nome_5);
      }

      .st2 {
        clip-path: url(#clippath);
      }
    </style>
    <clipPath id="clippath">
      <path class="st0" d="M18.94,5.29H5v2.53h5.42v12.78h3.04V7.82h5.49v-2.53ZM23.88,5.29l-6.19,15.3h3.06l1.48-3.79h6.51l1.53,3.79h3.23l-6.24-15.3h-3.38ZM23.15,14.47l2.26-5.73h.1l2.31,5.73h-4.66ZM48.1,5.29h-3.55l-6.54,6.92v-6.92h-3.04v15.3h3.04v-5.08l1.58-1.63,5.37,6.71h3.64l-6.78-8.67,6.27-6.63ZM52.82,14.04h6.46v-2.5h-6.46v-3.72h8.24v-2.53h-11.22v15.3h11.44v-2.53h-8.45v-4.03ZM72.79,5.29l-6.19,15.3h3.06l1.48-3.79h6.51l1.53,3.79h3.23l-6.24-15.3h-3.38ZM72.07,14.47l2.26-5.73h.1l2.31,5.73h-4.66ZM91.31,5.29h-3.04v15.3h11.13v-2.53h-8.09V5.29ZM107.54,5c-4.47,0-7.77,3.23-7.77,7.94s3.3,7.94,7.77,7.94,7.75-3.23,7.75-7.94-3.3-7.94-7.75-7.94ZM107.54,18.22c-2.82,0-4.62-2.06-4.62-5.27s1.8-5.27,4.62-5.27,4.62,2.07,4.62,5.27-1.8,5.27-4.62,5.27ZM124.41,5c-4.47,0-7.77,3.23-7.77,7.94s3.3,7.94,7.77,7.94,7.75-3.23,7.75-7.94-3.3-7.94-7.75-7.94ZM124.41,18.22c-2.82,0-4.62-2.06-4.62-5.27s1.8-5.27,4.62-5.27,4.62,2.07,4.62,5.27-1.8,5.27-4.62,5.27ZM140.98,11.92l6.27-6.63h-3.55l-6.54,6.92v-6.92h-3.04v15.3h3.04v-5.08l1.58-1.63,5.37,6.71h3.64l-6.78-8.67Z"/>
    </clipPath>
    <linearGradient id="Sfumatura_senza_nome_5" data-name="Sfumatura senza nome 5" x1="-6.9" y1="12.94" x2="166.31" y2="12.94" gradientUnits="userSpaceOnUse">
      <stop offset="0" stop-color="#ffd4d4"/>
      <stop offset=".25" stop-color="#eea6ff"/>
      <stop offset=".5" stop-color="#97faff"/>
      <stop offset=".75" stop-color="#99ffa7"/>
      <stop offset="1" stop-color="#ffff85"/>
    </linearGradient>
  </defs>
  <path d="M151.7,17.52l-4.13-5.29,3.31-3.51c1.37-1.45,1.75-3.58.96-5.41s-2.59-3.02-4.59-3.02h-3.55c-1.21,0-2.36.44-3.27,1.22-.88-.76-2.02-1.22-3.27-1.22h-3.04c-1.3,0-2.48.51-3.37,1.33C128.91.59,126.75,0,124.41,0c-3.3,0-6.22,1.15-8.44,3.08C113.75,1.15,110.83,0,107.54,0,102.57,0,98.44,2.6,96.31,6.59v-1.3c0-2.76-2.24-5-5-5h-3.04c-2.76,0-5,2.24-5,5v4.17l-2.47-6.06c-.77-1.88-2.6-3.11-4.63-3.11h-3.38c-2.04,0-3.87,1.24-4.63,3.12l-2.1,5.19v-3.32c0-2.76-2.24-5-5-5h-11.22c-.29,0-.57.04-.85.09-.29-.05-.58-.09-.88-.09h-3.55c-1.21,0-2.36.44-3.27,1.22-.88-.76-2.02-1.22-3.27-1.22h-3.04c-1.56,0-2.93.73-3.85,1.85-.93-1.15-2.35-1.85-3.88-1.85h-3.38c-.89,0-1.74.25-2.48.67-.73-.42-1.56-.67-2.46-.67H5C2.24.29,0,2.53,0,5.29v2.53C0,10.58,2.24,12.82,5,12.82h.42v7.78c0,2.76,2.24,5,5,5h10.33c2.06,0,3.91-1.26,4.66-3.18l.1-.26.13.32c.76,1.89,2.6,3.13,4.64,3.13h3.23c.27,0,.53-.03.79-.07.23.03.46.07.7.07h3.04c1.35,0,2.57-.53,3.47-1.4.93.9,2.17,1.4,3.47,1.4h3.64c.24,0,.48-.02.71-.05.17.02.33.05.51.05h11.44c.98,0,1.89-.29,2.66-.78.79.5,1.71.78,2.67.78h3.06c2.06,0,3.91-1.26,4.66-3.18l.1-.26.13.31c.76,1.89,2.6,3.13,4.64,3.13h3.23c1.07,0,2.09-.35,2.94-.96.82.6,1.83.96,2.92.96h11.13c1.02,0,1.97-.31,2.77-.84,1.62.72,3.43,1.13,5.37,1.13,3.29,0,6.21-1.15,8.42-3.08,2.22,1.93,5.14,3.08,8.44,3.08,2.35,0,4.5-.59,6.35-1.62.89.82,2.07,1.33,3.37,1.33h3.04c1.35,0,2.57-.53,3.47-1.4.93.9,2.17,1.4,3.47,1.4h3.64c1.91,0,3.66-1.09,4.49-2.81.84-1.72.62-3.76-.55-5.27Z"/>
  <g class="st2">
    <path class="st1" d="M151.7,17.52l-4.13-5.29,3.31-3.51c1.37-1.45,1.75-3.58.96-5.41s-2.59-3.02-4.59-3.02h-3.55c-1.21,0-2.36.44-3.27,1.22-.88-.76-2.02-1.22-3.27-1.22h-3.04c-1.3,0-2.48.51-3.37,1.33C128.91.59,126.75,0,124.41,0c-3.3,0-6.22,1.15-8.44,3.08C113.75,1.15,110.83,0,107.54,0,102.57,0,98.44,2.6,96.31,6.59v-1.3c0-2.76-2.24-5-5-5h-3.04c-2.76,0-5,2.24-5,5v4.17l-2.47-6.06c-.77-1.88-2.6-3.11-4.63-3.11h-3.38c-2.04,0-3.87,1.24-4.63,3.12l-2.1,5.19v-3.32c0-2.76-2.24-5-5-5h-11.22c-.29,0-.57.04-.85.09-.29-.05-.58-.09-.88-.09h-3.55c-1.21,0-2.36.44-3.27,1.22-.88-.76-2.02-1.22-3.27-1.22h-3.04c-1.56,0-2.93.73-3.85,1.85-.93-1.15-2.35-1.85-3.88-1.85h-3.38c-.89,0-1.74.25-2.48.67-.73-.42-1.56-.67-2.46-.67H5C2.24.29,0,2.53,0,5.29v2.53C0,10.58,2.24,12.82,5,12.82h.42v7.78c0,2.76,2.24,5,5,5h10.33c2.06,0,3.91-1.26,4.66-3.18l.1-.26.13.32c.76,1.89,2.6,3.13,4.64,3.13h3.23c.27,0,.53-.03.79-.07.23.03.46.07.7.07h3.04c1.35,0,2.57-.53,3.47-1.4.93.9,2.17,1.4,3.47,1.4h3.64c.24,0,.48-.02.71-.05.17.02.33.05.51.05h11.44c.98,0,1.89-.29,2.66-.78.79.5,1.71.78,2.67.78h3.06c2.06,0,3.91-1.26,4.66-3.18l.1-.26.13.31c.76,1.89,2.6,3.13,4.64,3.13h3.23c1.07,0,2.09-.35,2.94-.96.82.6,1.83.96,2.92.96h11.13c1.02,0,1.97-.31,2.77-.84,1.62.72,3.43,1.13,5.37,1.13,3.29,0,6.21-1.15,8.42-3.08,2.22,1.93,5.14,3.08,8.44,3.08,2.35,0,4.5-.59,6.35-1.62.89.82,2.07,1.33,3.37,1.33h3.04c1.35,0,2.57-.53,3.47-1.4.93.9,2.17,1.4,3.47,1.4h3.64c1.91,0,3.66-1.09,4.49-2.81.84-1.72.62-3.76-.55-5.27Z"/>
  </g>
</svg>