<?xml version="1.0" encoding="UTF-8"?>
<svg id="Livello_3" xmlns="http://www.w3.org/2000/svg" xmlns:xlink="http://www.w3.org/1999/xlink" version="1.1" viewBox="0 0 25.23 25.31">
  <!-- Generator: Adobe Illustrator 29.0.0, SVG Export Plug-In . SVG Version: 2.1.0 Build 186)  -->
  <defs>
    <style>
      .st0 {
        fill: none;
      }

      .st1 {
        fill: url(#Sfumatura_senza_nome_5);
      }

      .st2 {
        clip-path: url(#clippath);
      }
    </style>
    <clipPath id="clippath">
      <path class="st0" d="M14.33,12.26l5.9,8.04h-3.57l-4.15-5.66-4.13,5.66h-3.38l5.9-7.85-5.42-7.46h3.57l3.67,5.1,3.64-5.1h3.38l-5.42,7.26Z"/>
    </clipPath>
    <linearGradient id="Sfumatura_senza_nome_5" data-name="Sfumatura senza nome 5" x1="-15.61" y1="12.65" x2="23.34" y2="12.65" gradientUnits="userSpaceOnUse">
      <stop offset="0" stop-color="#ffd4d4"/>
      <stop offset=".25" stop-color="#eea6ff"/>
      <stop offset=".5" stop-color="#97faff"/>
      <stop offset=".75" stop-color="#99ffa7"/>
      <stop offset="1" stop-color="#ffff85"/>
    </linearGradient>
  </defs>
  <path d="M5,25.31h3.38c1.6,0,3.1-.76,4.04-2.05l.1-.14.11.15c.94,1.28,2.44,2.04,4.03,2.04h3.57c1.88,0,3.61-1.06,4.46-2.74.85-1.68.68-3.7-.43-5.22l-3.71-5.06,3.21-4.3c1.13-1.52,1.31-3.54.46-5.23-.85-1.69-2.58-2.76-4.47-2.76h-3.38c-1.4,0-2.72.58-3.66,1.59-.94-1.01-2.26-1.59-3.66-1.59h-3.57C3.61,0,1.88,1.05,1.03,2.73c-.85,1.67-.7,3.69.41,5.21l3.25,4.47-3.68,4.89c-1.14,1.51-1.32,3.54-.48,5.24.85,1.7,2.58,2.77,4.47,2.77Z"/>
  <g class="st2">
    <path class="st1" d="M5,25.31h3.38c1.6,0,3.1-.76,4.04-2.05l.1-.14.11.15c.94,1.28,2.44,2.04,4.03,2.04h3.57c1.88,0,3.61-1.06,4.46-2.74.85-1.68.68-3.7-.43-5.22l-3.71-5.06,3.21-4.3c1.13-1.52,1.31-3.54.46-5.23-.85-1.69-2.58-2.76-4.47-2.76h-3.38c-1.4,0-2.72.58-3.66,1.59-.94-1.01-2.26-1.59-3.66-1.59h-3.57C3.61,0,1.88,1.05,1.03,2.73c-.85,1.67-.7,3.69.41,5.21l3.25,4.47-3.68,4.89c-1.14,1.51-1.32,3.54-.48,5.24.85,1.7,2.58,2.77,4.47,2.77Z"/>
  </g>
</svg>